<?xml version="1.0" encoding="UTF-8" standalone="no"?>
<!-- Created with Inkscape (http://www.inkscape.org/) -->

<svg
   xmlns:dc="http://purl.org/dc/elements/1.1/"
   xmlns:cc="http://creativecommons.org/ns#"
   xmlns:rdf="http://www.w3.org/1999/02/22-rdf-syntax-ns#"
   xmlns:svg="http://www.w3.org/2000/svg"
   xmlns="http://www.w3.org/2000/svg"
   xmlns:sodipodi="http://sodipodi.sourceforge.net/DTD/sodipodi-0.dtd"
   xmlns:inkscape="http://www.inkscape.org/namespaces/inkscape"
   width="300"
   height="97"
   id="svg2"
   version="1.1"
   inkscape:version="0.47 r22583"
   sodipodi:docname="New document 1">
  <defs
     id="defs4">
    <inkscape:perspective
       sodipodi:type="inkscape:persp3d"
       inkscape:vp_x="0 : 526.18109 : 1"
       inkscape:vp_y="0 : 1000 : 0"
       inkscape:vp_z="744.09448 : 526.18109 : 1"
       inkscape:persp3d-origin="372.04724 : 350.78739 : 1"
       id="perspective10" />
    <inkscape:perspective
       id="perspective2902"
       inkscape:persp3d-origin="0.5 : 0.33333333 : 1"
       inkscape:vp_z="1 : 0.5 : 1"
       inkscape:vp_y="0 : 1000 : 0"
       inkscape:vp_x="0 : 0.5 : 1"
       sodipodi:type="inkscape:persp3d" />
    <inkscape:perspective
       id="perspective3700"
       inkscape:persp3d-origin="0.5 : 0.33333333 : 1"
       inkscape:vp_z="1 : 0.5 : 1"
       inkscape:vp_y="0 : 1000 : 0"
       inkscape:vp_x="0 : 0.5 : 1"
       sodipodi:type="inkscape:persp3d" />
    <inkscape:perspective
       id="perspective3735"
       inkscape:persp3d-origin="0.5 : 0.33333333 : 1"
       inkscape:vp_z="1 : 0.5 : 1"
       inkscape:vp_y="0 : 1000 : 0"
       inkscape:vp_x="0 : 0.5 : 1"
       sodipodi:type="inkscape:persp3d" />
    <inkscape:perspective
       id="perspective3735-2"
       inkscape:persp3d-origin="0.5 : 0.33333333 : 1"
       inkscape:vp_z="1 : 0.5 : 1"
       inkscape:vp_y="0 : 1000 : 0"
       inkscape:vp_x="0 : 0.5 : 1"
       sodipodi:type="inkscape:persp3d" />
    <inkscape:perspective
       id="perspective3766"
       inkscape:persp3d-origin="0.5 : 0.33333333 : 1"
       inkscape:vp_z="1 : 0.5 : 1"
       inkscape:vp_y="0 : 1000 : 0"
       inkscape:vp_x="0 : 0.5 : 1"
       sodipodi:type="inkscape:persp3d" />
  </defs>
  <sodipodi:namedview
     id="base"
     pagecolor="#ffffff"
     bordercolor="#666666"
     borderopacity="1.0"
     inkscape:pageopacity="0.0"
     inkscape:pageshadow="2"
     inkscape:zoom="1.979899"
     inkscape:cx="294.9292"
     inkscape:cy="-61.902326"
     inkscape:document-units="px"
     inkscape:current-layer="layer1"
     showgrid="false"
     inkscape:showpageshadow="false"
     inkscape:window-width="1680"
     inkscape:window-height="990"
     inkscape:window-x="-4"
     inkscape:window-y="-3"
     inkscape:window-maximized="1" />
  <metadata
     id="metadata7">
    <rdf:RDF>
      <cc:Work
         rdf:about="">
        <dc:format>image/svg+xml</dc:format>
        <dc:type
           rdf:resource="http://purl.org/dc/dcmitype/StillImage" />
        <dc:title></dc:title>
      </cc:Work>
    </rdf:RDF>
  </metadata>
  <g
     inkscape:label="Layer 1"
     inkscape:groupmode="layer"
     id="layer1"
     transform="translate(-0.05725793,0.4827607)">
    <g
       id="g3813"
       transform="matrix(0.50564367,0,0,0.50666571,-30.873717,-121.53783)">
      <g
         transform="translate(8.0812208,-21.21321)"
         id="g3785">
        <path
           style="fill:#2d4251;fill-opacity:1;stroke:none"
           d="m 357.88487,412.81042 c -10.14189,-4.75737 -14.03751,-14.05734 -13.90462,-33.19431 0.0724,-10.42867 0.45814,-13.4554 2.32769,-18.2656 4.03001,-10.36889 10.75054,-15.66606 19.93438,-15.71244 8.95809,-0.0452 15.14012,5.52789 15.14738,13.65546 0.003,3.32439 -0.53429,4.60064 -2.63112,6.25 -3.34671,2.63252 -5.8126,2.62512 -8.46311,-0.0254 -2.09555,-2.09555 -2.21319,-5.00136 -0.42568,-10.51432 0.81118,-2.5018 -1.72606,-3.57933 -5.30808,-2.25426 -4.46125,1.65032 -5.35001,6.44554 -4.99421,26.94574 0.29898,17.22652 0.49955,19.01321 2.42481,21.60036 2.91179,3.91284 7.67835,4.35318 9.92962,0.91732 0.90838,-1.38637 1.89533,-4.33782 2.19323,-6.55877 0.47705,-3.55673 0.85374,-4.03627 3.15995,-4.02279 4.80473,0.0281 5.44149,1.11106 4.19205,7.12957 -1.30388,6.28075 -3.97094,11.08645 -7.3995,13.33292 -3.91302,2.56391 -11.52589,2.90098 -16.1828,0.71651 l 10e-6,1e-5 z m 127.76481,0.16103 c -5.41771,-2.67082 -7.7595,-7.62155 -7.73638,-16.35534 0.0339,-12.81553 6.29258,-20.11517 21.73015,-25.34444 1.43728,-0.48686 1.75,-1.80951 1.75,-7.40167 0,-8.17062 -1.7768,-11.53203 -5.84669,-11.06099 -2.5048,0.28991 -2.63464,0.56863 -2.31982,4.97934 0.29183,4.0888 0.016,4.88031 -2.20936,6.33838 -3.92285,2.57036 -8.44333,1.16634 -10.26245,-3.18742 -1.31045,-3.13635 -1.27686,-3.83629 0.34274,-7.14137 5.57539,-11.37762 26.16759,-10.87636 32.04557,0.78006 2.12379,4.2116 2.25,5.65971 2.25,25.81574 0,21.4317 0.54038,25.22237 3.59555,25.22237 1.15094,0 1.44902,0.92015 1.21482,3.75 l -0.31037,3.75 -5.08582,0.29657 c -4.6,0.26823 -5.38793,-0.0125 -8.24861,-2.93842 l -3.16279,-3.23499 -2.75138,2.6248 c -2.87234,2.74019 -7.18897,4.76816 -10.06649,4.72927 -0.92669,-0.0125 -3.1446,-0.74237 -4.92867,-1.62189 z m 14.70859,-11.2896 c 1.19331,-2.22973 1.42609,-23.06574 0.25769,-23.06574 -1.72177,0 -5.32947,3.30571 -6.88722,6.3107 -1.96987,3.80001 -2.26185,13.26174 -0.5073,16.4393 1.55312,2.81276 5.70222,2.99633 7.13683,0.31574 z m 36.72016,11.9174 c -4.89739,-1.46999 -9.43664,-5.77689 -12.35737,-11.72483 -2.73419,-5.56807 -2.82761,-6.27038 -2.82761,-21.25831 0,-14.06113 0.21362,-15.96415 2.30121,-20.5 4.3618,-9.47712 11.09053,-14.50147 19.41666,-14.49845 8.36467,0.003 15.78212,6.43805 15.78212,13.69179 0,3.92486 -3.69253,8.30666 -7,8.30666 -2.30858,0 -7.00354,-4.1651 -6.99384,-6.20455 0.003,-0.7125 0.67839,-2.58439 1.5,-4.15976 1.85873,-3.56395 1.87867,-3.35937 -0.44901,-4.60511 -2.61642,-1.40027 -6.44053,0.39594 -8.15337,3.82969 -1.81343,3.63541 -2.45624,31.16158 -0.90248,38.64599 0.6477,3.11997 2.03738,6.53242 3.08817,7.58321 4.35156,4.35156 10.03277,0.80121 11.289,-7.0548 0.65853,-4.11823 2.10337,-4.93821 6.03974,-3.42768 3.14782,1.20793 1.21511,11.29847 -3.15995,16.49793 -4.39505,5.22323 -10.64437,6.95799 -17.57327,4.87822 z m 42.95227,-0.44795 c -8.299,-2.95852 -13.09474,-11.0106 -14.64302,-24.58578 -2.23201,-19.57005 3.31138,-36.50769 13.69003,-41.82942 3.72832,-1.91172 10.67093,-1.35521 14.39405,1.1538 7.03733,4.74246 9.90726,11.68167 9.91611,23.97621 l 0.006,7.75 -11.63626,0 -11.63625,0 0.50112,9.58052 c 0.58214,11.12949 2.36824,14.71018 7.59746,15.23114 2.62488,0.2615 3.45327,-0.2213 5.14739,-3 1.11049,-1.82141 2.02075,-4.15164 2.0228,-5.17829 0.003,-1.44721 0.5093,-1.73115 2.25374,-1.26366 1.2375,0.33164 3.05789,0.60913 4.04531,0.61664 1.52767,0.0116 1.69386,0.5727 1.1148,3.76365 -2.22583,12.2655 -11.42137,17.83187 -22.77285,13.78519 l -4.3e-4,0 z m 10.36275,-48.48814 c 0,-7.63729 -1.29795,-11.6302 -4.01121,-12.33973 -3.94249,-1.03099 -5.98879,3.36238 -5.98879,12.85778 l 0,6.4349 5,0 5,0 0,-6.95295 z m 27.74051,48.52364 c -4.63343,-1.6534 -6.45889,-3.12541 -8.30646,-6.6982 -3.39297,-6.56129 -0.43814,-13.27249 5.84365,-13.27249 5.38891,0 7.02401,1.9081 6.48068,7.56265 -0.52754,5.49022 0.41922,6.83735 4.80525,6.83735 3.71338,0 8.43837,-4.13875 8.43263,-7.38636 -0.006,-3.58221 -3.53728,-8.16224 -10.69633,-13.87433 -12.55181,-10.01488 -16.25958,-16.30763 -14.84655,-25.1973 1.79434,-11.2886 14.39632,-18.38696 25.90183,-14.5898 10.65525,3.51655 11.70177,18.04779 1.29978,18.04779 -4.56526,0 -6.8542,-2.70683 -6.46181,-7.64152 0.28481,-3.5817 0.10321,-3.88179 -2.53161,-4.18344 -3.96678,-0.45413 -6.66276,2.27156 -6.6566,6.72995 0.006,4.11726 2.23974,7.12652 8.99503,12.11627 11.89674,8.78743 16,14.67844 16,22.97102 0,6.53603 -1.81469,10.75982 -6.32371,14.71879 -5.82007,5.11009 -14.26662,6.59627 -21.93577,3.85962 l -10e-6,0 z m -362.07384,-1.23736 c -1.35134,-1.35133 -0.59992,-4.11331 1.83333,-6.73883 l 2.5,-2.69754 0,-43.64473 0,-43.64474 -2.693,-3.886 c -2.09727,-3.02636 -2.45724,-4.25493 -1.62723,-5.55375 0.92102,-1.44123 3.01853,-1.64936 15.443,-1.53237 12.07792,0.11372 15.28189,0.47946 20.03392,2.28693 6.71546,2.55428 13.17062,8.99246 14.76182,14.72299 1.56019,5.61885 1.31886,16.30178 -0.48805,21.60477 -1.75918,5.16292 -9.57508,13.24616 -13.84407,14.31761 -1.42251,0.35703 -2.56931,0.93786 -2.54844,1.29074 0.0209,0.35287 1.79908,1.8593 3.95158,3.34761 5.30172,3.6658 6.45925,6.28777 10.51717,23.82291 3.63838,15.72224 4.35565,17.78202 6.9387,19.92576 0.85503,0.70961 1.5546,2.5851 1.5546,4.16775 l 0,2.87756 -8.91292,0 -8.91293,0 -4.63756,-19.25 c -2.55065,-10.5875 -5.32592,-21.38726 -6.16726,-23.99946 -1.35663,-4.21206 -4.3661,-7.75054 -6.59184,-7.75054 -0.42762,0 -0.77749,9.04754 -0.77749,20.10564 0,19.98707 0.0147,20.12317 2.5,23.07673 1.375,1.63409 2.5,4.06155 2.5,5.39436 l 0,2.42327 -12.33333,0 c -6.78334,0 -12.63334,-0.3 -13,-0.66667 z m 28.14351,-60.35897 c 4.28845,-2.6146 6.30114,-7.59178 6.85701,-16.95667 0.61947,-10.43641 -1.16845,-16.77603 -5.56507,-19.73268 -1.86884,-1.25676 -4.68134,-2.28502 -6.25,-2.28502 l -2.85212,0 0,20.50001 0,20.5 2.25,-0.004 c 1.2375,-0.002 3.73958,-0.91191 5.56018,-2.0219 l 0,2.6e-4 z m 33.18982,58.93337 c 0,-1.15075 0.9,-3.23644 2,-4.63486 1.86964,-2.37686 2,-4.05678 2,-25.77287 0,-21.71609 -0.13036,-23.39601 -2,-25.77288 -1.1,-1.39842 -2,-3.41941 -2,-4.49108 0,-1.71437 0.96732,-2.02916 8.05078,-2.6199 4.42793,-0.36928 8.47793,-0.40742 9,-0.0848 0.56297,0.34794 0.94922,12.1636 0.94922,29.03742 0,27.21329 0.087,28.52526 2,30.16323 1.1,0.94185 2,2.73744 2,3.99021 0,2.2323 -0.21954,2.27776 -11,2.27776 -10.49504,0 -11,-0.096 -11,-2.09227 l 0,4e-5 z m 69,-0.28529 c 0,-1.30765 0.675,-2.93775 1.5,-3.62244 1.29345,-1.07347 1.5,-7.56343 1.5,-47.13223 0,-44.64987 -0.0539,-45.93353 -2,-47.5998 -1.10901,-0.94956 -2,-2.94994 -2,-4.49022 0,-2.76131 0.0399,-2.77784 6.75,-2.79141 3.7125,-0.007 7.7625,-0.285 9,-0.61663 l 2.25,-0.60298 0,24.13082 0,24.13082 4.08979,-2.70649 c 3.08823,-2.04369 5.32499,-2.7065 9.13358,-2.7065 4.41457,0 5.40137,0.40021 7.91021,3.20808 l 2.86642,3.20809 0.0354,25.23423 c 0.0281,19.9913 0.33236,25.75365 1.46456,27.73422 0.78602,1.375 1.44508,3.5125 1.46456,4.75 0.0343,2.17793 -0.26889,2.25 -9.46456,2.25 -9.19461,0 -9.49899,-0.0723 -9.46821,-2.25 0.0175,-1.2375 0.6925,-3.12351 1.5,-4.19113 1.18935,-1.57246 1.46821,-6.19068 1.46821,-24.31574 0,-13.51104 -0.41008,-23.14086 -1.03519,-24.30887 -1.24882,-2.33343 -4.709,-2.50217 -7.7423,-0.37756 -2.18594,1.5311 -2.22251,1.93105 -2.22251,24.30887 0,18.45703 0.27717,23.11862 1.4682,24.6933 0.8075,1.06762 1.4825,2.95363 1.5,4.19113 0.0309,2.18545 -0.25507,2.25 -9.9682,2.25 -9.86267,0 -10,-0.0326 -10,-2.37756 l 4e-5,0 z m 49,-0.21471 c 0,-1.42575 0.9,-3.73644 2,-5.13486 1.93147,-2.45547 2,-4.05678 2,-46.73341 l 0,-44.19084 -2.54548,-2.39135 c -1.69221,-1.58975 -2.44643,-3.24042 -2.25,-4.92432 l 0.29548,-2.53296 23.78092,-0.26817 23.78093,-0.26817 -0.28093,12.26817 -0.28092,12.26818 -2.93465,0 c -2.64193,0 -3.04931,-0.44945 -4.08407,-4.5057 -2.36704,-9.27877 -4.55881,-10.99431 -14.04638,-10.99431 l -5.4349,0 0,20.50001 0,20.5 3.87756,0 c 4.36082,0 5.33572,-0.86734 7.08821,-6.30619 1.11478,-3.45972 1.51352,-3.77832 4.38033,-3.5 l 3.1539,0.30619 0,13.5 0,13.5 -3.09438,0.30175 c -2.84347,0.27729 -3.23538,-0.0675 -4.83343,-4.25189 -1.76144,-4.61227 -4.14078,-6.16387 -8.2431,-5.37543 -1.6869,0.32421 -1.85014,1.87799 -2.09989,19.98711 l -0.2708,19.63557 2.5208,2.9958 c 1.38644,1.64769 2.5208,4.16834 2.5208,5.60145 l 0,2.60564 -12.5,0 -12.5,0 0,-2.59227 z"
           id="path2908"
           sodipodi:nodetypes="cssssssssssssssscccsssssssssssccccccsccsssccsssssssssssssssccssscccccsssssscccsccccccsssssssssssssssccccccccsssssssssscccccsssscccccssccccccccsssssssssscccssssscccccscccsssssssssssscccsccccccccccscccccscccccsscccccccc" />
        <path
           sodipodi:type="arc"
           style="fill:#faa634;fill-opacity:1;stroke:#d8e1be;stroke-width:0.63999999;stroke-miterlimit:4;stroke-opacity:1;stroke-dasharray:none"
           id="path2910"
           sodipodi:cx="338.90619"
           sodipodi:cy="94.232491"
           sodipodi:rx="10.101525"
           sodipodi:ry="10.101525"
           d="m 349.00771,94.232491 c 0,5.578918 -4.5226,10.101529 -10.10152,10.101529 -5.57892,0 -10.10153,-4.522611 -10.10153,-10.101529 0,-5.578919 4.52261,-10.101526 10.10153,-10.101526 5.57892,0 10.10152,4.522607 10.10152,10.101526 z"
           transform="translate(-11.111678,222.73864)" />
      </g>
      <g
         id="g3808">
        <path
           style="fill:#94aebd;fill-opacity:1"
           d="m 183.59385,385.03469 c 5.9736,-2.83232 11.79157,-8.64383 14.02865,-14.01306 l 1.62629,-3.90329 -3.12918,-3.09671 -3.12917,-3.0967 1.02696,2.75 c 1.187,3.17857 0.40461,3.42957 -5.02432,1.6119 -4.93649,-1.65281 -9.90248,-5.65631 -11.46264,-9.24102 l -1.3583,-3.12088 -0.0391,2.75 c -0.0295,2.07029 -0.53348,2.75 -2.03914,2.75 -1.52209,0 -2,0.66667 -2,2.7899 0,5.63045 -3.14252,14.85231 -6.97215,20.4601 l -3.92675,5.75 8.69945,-0.01 c 7.06668,-0.008 9.63788,-0.45472 13.69945,-2.38047 l -5e-5,2.3e-4 z M 199.13122,270.5637 c -3.64963,-13.55369 -16.44169,-21.80707 -32.45731,-20.94132 l -5.59677,0.30254 3.53344,4.96131 c 5.62158,7.89326 7.48328,15.53 7.48328,30.69671 l 0,12.94735 6.12475,10.69732 c 3.3686,5.88352 6.99353,12.14076 8.05538,13.90496 l 1.93064,3.20765 -6.27129,3.16574 -6.27129,3.16573 6.08112,2.20193 c 3.34461,1.21106 8.72927,4.0807 11.9659,6.377 l 5.88479,4.17508 0.26274,-35.59624 c 0.15647,-21.19971 -0.1369,-37.08033 -0.72537,-39.26576 l -10e-6,0 z"
           id="path2908-6"
           sodipodi:nodetypes="ccccccscccsscccccccccccccccccccccc" />
        <path
           style="fill:#2d4251;fill-opacity:1"
           d="M 97.69065,428.14326 C 90.5396,424.09304 87.59359,417.77493 86.48787,404.11738 l -0.63211,-7.80755 -3.98605,-2.03353 C 72.32077,389.40479 64.0496,377.49368 62.1468,365.87379 c -1.35932,-8.30106 -1.27279,-87.52867 0.10374,-94.97499 2.28897,-12.38217 10.51138,-23.21515 21.82141,-28.74957 l 6.58912,-3.2243 45.5,0 c 45.27775,0 45.52807,0.0113 51.24666,2.3206 8.01939,3.23837 15.92322,10.74844 19.97923,18.98387 l 3.27411,6.64786 0.5,47.52384 c 0.5476,52.04774 0.44735,51.23147 6.5,52.92682 l 3,0.8403 -4.5,2.1064 c -2.475,1.15852 -4.95626,2.11628 -5.51392,2.12836 -0.55766,0.0121 -2.11882,2.34919 -3.46924,5.19359 -4.86246,10.24174 -16.04283,18.58169 -27.90333,20.81438 -2.96257,0.5577 -15.90007,1.01399 -28.75001,1.01399 l -23.36351,0 0,5.38517 c 0,2.96184 -0.77596,7.7878 -1.72437,10.72437 -3.98185,12.32909 -17.44097,18.44539 -27.74604,12.60878 z m 12.86322,-8.23448 c 4.38742,-2.08196 6.5659,-6.23585 7.27981,-13.88091 l 0.60448,-6.47311 -11.14058,-0.31491 -11.14058,-0.31491 0.024,6 c 0.0148,3.69457 0.74756,7.59351 1.90711,10.14719 2.8735,6.3283 6.42143,7.70488 12.46576,4.83665 z m 31.99941,-34.10181 c 9.37241,-3.19351 15.98848,-12.22089 18.07593,-24.66396 0.60635,-3.61431 0.52741,-3.75506 -1.7808,-3.17574 -1.93908,0.48668 -2.54231,0.14796 -3.05976,-1.71807 -0.62373,-2.2493 -0.69733,-2.21804 -2.28195,0.96909 -1.78289,3.58591 -7.87284,7.59843 -13.23148,8.7179 -3.3214,0.69387 -3.37304,0.65292 -2.7136,-2.15196 0.59104,-2.51392 0.0539,-2.16476 -4.447,2.89071 -4.58976,5.15528 -5.52551,5.75 -9.04729,5.75 -2.16044,0 -6.06066,-1.0125 -8.66717,-2.25 -4.45655,-2.11586 -4.57456,-2.26892 -1.97928,-2.56737 2.21687,-0.25493 3.83848,-1.95529 8.24262,-8.64291 3.01554,-4.57905 7.99861,-10.62485 11.07349,-13.43512 5.87342,-5.36797 17.32622,-11.48416 23.67407,-12.64275 2.94935,-0.5383 3.75075,-1.14106 3.7535,-2.82314 0.003,-1.56437 1.47956,-2.93493 5.50001,-5.10364 3.02307,-1.63071 5.4965,-3.37272 5.4965,-3.87113 0,-0.49842 -2.3625,-4.99625 -5.25,-9.99518 l -5.25001,-9.08896 -0.5,-16.5399 c -0.47349,-15.66296 -0.64108,-16.7785 -3.16078,-21.03991 -3.53427,-5.97726 -7.28593,-9.4075 -13.33922,-12.19638 -4.73928,-2.1835 -6.14714,-2.30362 -27,-2.30362 l -21.99999,0 -5.72424,2.81095 c -3.14834,1.54602 -7.28641,4.63599 -9.19573,6.86659 -6.54166,7.64247 -6.58111,8.00122 -6.57026,59.75061 l 0.01,46.57186 2.36605,5.08125 c 1.30132,2.79469 4.10943,6.77455 6.24023,8.84413 l 3.87415,3.76286 0.26019,-45.09412 0.2602,-45.09413 9.83793,0 9.83793,0 1.82597,-4.04925 c 2.06999,-4.59045 7.2558,-9.54222 12.12293,-11.57584 4.38683,-1.83294 13.53345,-1.74429 18.13696,0.17577 8.48732,3.53996 14.40946,12.28868 14.46428,21.36795 0.0833,13.79148 -9.9731,24.00868 -23.68067,24.05941 -10.54036,0.039 -18.63139,-5.76336 -22.25213,-15.95781 -1.76292,-4.96361 -1.83112,-5.02022 -6.04831,-5.02022 l -4.26528,0 0,42.5 0,42.5 20.82185,0 c 16.55987,0 21.79383,-0.33118 25.57036,-1.61797 z m 41.10779,-0.77227 c 5.9736,-2.83232 11.79157,-8.64383 14.02865,-14.01306 l 1.62629,-3.90329 -3.12918,-3.09671 -3.12917,-3.0967 1.02696,2.75 c 1.187,3.17857 0.40461,3.42957 -5.02432,1.6119 -4.93649,-1.65281 -9.90248,-5.65631 -11.46264,-9.24102 l -1.3583,-3.12088 -0.0391,2.75 c -0.0295,2.07029 -0.53348,2.75 -2.03914,2.75 -1.52209,0 -2,0.66667 -2,2.7899 0,5.63045 -3.14252,14.85231 -6.97215,20.4601 l -3.92675,5.75 8.69945,-0.01 c 7.06668,-0.008 9.63788,-0.45472 13.69945,-2.38047 l -5e-5,2.3e-4 z m 15.53737,-114.47099 c -3.64963,-13.55369 -16.44169,-21.80707 -32.45731,-20.94132 l -5.59678,0.30254 3.53345,4.96131 c 5.62158,7.89326 7.48328,15.53 7.48328,30.69671 l 0,12.94735 6.12475,10.69732 c 3.3686,5.88352 6.99353,12.14076 8.05538,13.90496 l 1.93064,3.20765 -6.27129,3.16574 -6.27129,3.16573 6.08112,2.20193 c 3.34461,1.21106 8.72927,4.0807 11.9659,6.377 l 5.88479,4.17508 0.26274,-35.59624 c 0.15647,-21.19971 -0.1369,-37.08033 -0.72537,-39.26576 l -1e-5,0 z m -12.53737,32.04661 c -4.36449,-0.85514 -6.89487,-5.55051 -4.73469,-8.78568 2.3088,-3.45774 10.61978,-4.177 12.97897,-1.12324 4.00497,5.18406 -1.09205,11.31026 -8.24428,9.90892 z m -50.74086,9.82002 c 6.83866,-4.16959 9.25734,-13.18601 5.28486,-19.70107 -6.10597,-10.01409 -19.93696,-9.35407 -25.04372,1.1951 -6.09753,12.59581 7.91981,25.72433 19.75886,18.50597 z"
           id="path2908-6-6"
           sodipodi:nodetypes="ccccsscccsccccccssscccscccccccsccsssssssssssssssscccsscccsccccccccccsssssccccccccccccscccsscccccccccccccccccccccccssccssc" />
        <path
           style="fill:#eea75e;fill-opacity:1"
           d="m 142.55328,385.80696 c 9.37241,-3.19351 15.98848,-12.22089 18.07593,-24.66396 0.60634,-3.61431 0.52741,-3.75506 -1.7808,-3.17574 -1.93908,0.48668 -2.54231,0.14796 -3.05976,-1.71807 -0.62373,-2.2493 -0.69733,-2.21804 -2.28195,0.96909 -1.78289,3.58591 -7.87284,7.59843 -13.23148,8.7179 -3.3214,0.69387 -3.37304,0.65292 -2.7136,-2.15196 0.59104,-2.51392 0.0539,-2.16476 -4.447,2.89071 -4.58976,5.15528 -5.52551,5.75 -9.04729,5.75 -2.16044,0 -6.06066,-1.0125 -8.66717,-2.25 -4.45655,-2.11586 -4.57456,-2.26892 -1.97928,-2.56737 2.21687,-0.25493 3.83848,-1.95529 8.24262,-8.64291 3.01554,-4.57905 7.99861,-10.62485 11.07349,-13.43512 5.87342,-5.36797 17.32622,-11.48416 23.67407,-12.64275 2.94935,-0.5383 3.75075,-1.14106 3.7535,-2.82314 0.003,-1.56437 1.47955,-2.93493 5.5,-5.10364 3.02307,-1.63071 5.4965,-3.37272 5.4965,-3.87113 0,-0.49842 -2.3625,-4.99625 -5.25,-9.99518 l -5.25,-9.08896 -0.5,-16.5399 c -0.47349,-15.66296 -0.64108,-16.7785 -3.16078,-21.03991 -3.53427,-5.97726 -7.28593,-9.4075 -13.33922,-12.19638 -4.73928,-2.1835 -6.14714,-2.30362 -27,-2.30362 l -21.99999,0 -5.72425,2.81095 c -3.14834,1.54602 -7.28641,4.63599 -9.19572,6.86659 -6.54167,7.64247 -6.58112,8.00122 -6.57026,59.75061 l 0.01,46.57186 2.36604,5.08125 c 1.30133,2.79469 4.10943,6.77455 6.24023,8.84413 l 3.87416,3.76286 0.26019,-45.09412 0.26019,-45.09413 9.83793,0 9.83793,0 1.82597,-4.04925 c 2.07,-4.59045 7.25581,-9.54222 12.12294,-11.57584 4.38683,-1.83294 13.53345,-1.74429 18.13696,0.17577 8.48732,3.53996 14.40946,12.28868 14.46428,21.36795 0.0833,13.79148 -9.9731,24.00868 -23.68067,24.05941 -10.54036,0.039 -18.63139,-5.76336 -22.25214,-15.95781 -1.76292,-4.96361 -1.83112,-5.02022 -6.04831,-5.02022 l -4.26527,0 0,42.5 0,42.5 20.82185,0 c 16.55987,0 21.79383,-0.33118 25.57036,-1.61797 l -2e-4,0 z"
           id="path2908-6-5-4"
           sodipodi:nodetypes="csssssssssssssssscccsscccsccccccccccsssssccccccc" />
      </g>
    </g>
  </g>
</svg>
