<?xml version="1.0" encoding="UTF-8" standalone="no"?>
<!-- Created with Inkscape (http://www.inkscape.org/) -->

<svg
   xmlns:dc="http://purl.org/dc/elements/1.1/"
   xmlns:cc="http://creativecommons.org/ns#"
   xmlns:rdf="http://www.w3.org/1999/02/22-rdf-syntax-ns#"
   xmlns:svg="http://www.w3.org/2000/svg"
   xmlns="http://www.w3.org/2000/svg"
   xmlns:sodipodi="http://sodipodi.sourceforge.net/DTD/sodipodi-0.dtd"
   xmlns:inkscape="http://www.inkscape.org/namespaces/inkscape"
   id="svg1116"
   viewBox="0 0 300.0118 139.99606"
   version="1.1"
   inkscape:version="0.48.2 r9819"
   width="100%"
   height="100%"
   sodipodi:docname="openshift_logo_for_docbook.svg">
  <sodipodi:namedview
     pagecolor="#ffffff"
     bordercolor="#666666"
     borderopacity="1"
     objecttolerance="10"
     gridtolerance="10"
     guidetolerance="10"
     inkscape:pageopacity="0"
     inkscape:pageshadow="2"
     inkscape:window-width="1600"
     inkscape:window-height="799"
     id="namedview41"
     showgrid="false"
     inkscape:zoom="2.3291606"
     inkscape:cx="86.944395"
     inkscape:cy="117.41867"
     inkscape:window-x="0"
     inkscape:window-y="27"
     inkscape:window-maximized="1"
     inkscape:current-layer="svg1116"
     units="mm" />
  <defs
     id="defs3">
    <clipPath
       id="clipPath3923"
       clipPathUnits="userSpaceOnUse">
      <path
         id="path3925"
         d="M 0,768 H 1024 V 0 H 0 v 768 z"
         inkscape:connector-curvature="0" />
    </clipPath>
  </defs>
  <metadata
     id="metadata4">
    <rdf:RDF>
      <cc:Work
         rdf:about="">
        <dc:format>image/svg+xml</dc:format>
        <dc:type
           rdf:resource="http://purl.org/dc/dcmitype/StillImage" />
        <dc:title></dc:title>
      </cc:Work>
    </rdf:RDF>
  </metadata>
  <g
     id="layer1"
     transform="matrix(0.54926064,0,0,0.54926064,-97.945891,-214.56171)">
    <g
       id="g3919"
       transform="matrix(1.25,0,0,-1.25,23.581,997.77)">
      <g
         id="g3921"
         clip-path="url(#clipPath3923)">
        <g
           id="g3927"
           transform="translate(304.96,416.03)">
          <path
             id="path3929"
             d="m 0,0 -25.748,-9.369 c 0.33,-4.128 1.041,-8.206 2.042,-12.201 L 0.75,-12.664 C -0.043,-8.529 -0.326,-4.268 0,0"
             inkscape:connector-curvature="0"
             style="fill:#c32034" />
        </g>
        <g
           id="g3931"
           transform="translate(418.75,444.5)">
          <path
             id="path3933"
             d="M 0,0 C -1.795,3.704 -3.873,7.284 -6.279,10.657 L -32.02,1.288 c 2.995,-3.064 5.508,-6.508 7.563,-10.191 L 0,0 z"
             inkscape:connector-curvature="0"
             style="fill:#c32034" />
        </g>
        <g
           id="g3935"
           transform="translate(362.11,451.79)">
          <path
             id="path3937"
             d="m 0,0 c 5.356,-2.499 9.995,-5.908 13.907,-9.906 l 25.742,9.37 C 32.519,9.469 22.807,17.83 10.906,23.383 c -36.797,17.159 -80.702,1.18 -97.861,-35.613 -5.553,-11.907 -7.617,-24.556 -6.648,-36.801 l 25.745,9.368 c 0.427,5.578 1.789,11.167 4.284,16.526 C -52.423,0.772 -23.905,11.146 0.001,0"
             inkscape:connector-curvature="0"
             style="fill:#db212f" />
        </g>
        <g
           id="g3939"
           transform="translate(282.86,395.05)">
          <path
             id="path3941"
             d="m 0,0 -24.46,-8.909 c 2.248,-8.918 6.145,-17.391 11.502,-24.932 L 12.73,-24.49 C 6.135,-17.719 1.751,-9.153 0,0"
             inkscape:connector-curvature="0"
             style="fill:#ea2227" />
        </g>
        <g
           id="g3943"
           transform="translate(389.56,404.75)">
          <path
             id="path3945"
             d="m 0,0 c -0.409,-5.575 -1.817,-11.167 -4.319,-16.53 -11.15,-23.91 -39.668,-34.285 -63.574,-23.136 -5.363,2.501 -10.035,5.883 -13.936,9.888 l -25.687,-9.352 c 7.113,-10.006 16.816,-18.369 28.721,-23.926 36.799,-17.156 80.698,-1.177 97.857,35.619 5.557,11.905 7.608,24.549 6.626,36.785 L -0.002,0 z"
             inkscape:connector-curvature="0"
             style="fill:#db212f" />
        </g>
        <g
           id="g3947"
           transform="translate(395.89,436.18)">
          <path
             id="path3949"
             d="m 0,0 -24.458,-8.903 c 4.542,-8.139 6.689,-17.513 5.986,-26.938 l 25.688,9.345 C 6.481,-17.277 4.021,-8.279 0,0"
             inkscape:connector-curvature="0"
             style="fill:#ea2227" />
        </g>
        <g
           id="g3951"
           transform="translate(279.22,406.66)">
          <path
             id="path3953"
             d="M 0,0 25.684,9.263 25.579,4.183 0.799,-5.03 0,0 z"
             inkscape:connector-curvature="0"
             style="fill:#ad213a" />
        </g>
        <g
           id="g3955"
           transform="translate(386.73,445.86)">
          <path
             id="path3957"
             d="M 0,0 26.085,8.814 28.797,4.786 3.452,-4.035 0,0 z"
             inkscape:connector-curvature="0"
             style="fill:#ad213a" />
        </g>
        <g
           id="g3959"
           transform="translate(282.04,365.71)">
          <path
             id="path3961"
             d="M 0,0 25.716,9.213 33.493,1.988 6.526,-7.979 0,0 z"
             inkscape:connector-curvature="0"
             style="fill:#ba2034" />
        </g>
        <g
           id="g3963"
           transform="translate(415.68,414.03)">
          <path
             id="path3965"
             d="M 0,0 -26.119,-9.274 -28.043,-19.567 -0.195,-9.796 0,0 z"
             inkscape:connector-curvature="0"
             style="fill:#ba2034" />
        </g>
      </g>
    </g>
    <g
       id="text3967"
       style="fill:#231f20">
      <path
         id="path874"
         d="m 341.54,640.97 q -2.4286,0 -4.3546,-0.62807 -1.9261,-0.64901 -3.4125,-1.7377 -1.4655,-1.1096 -2.5123,-2.596 -1.0468,-1.5074 -1.7167,-3.2241 -0.64901,-1.7377 -0.96304,-3.601 -0.2931,-1.8842 -0.2931,-3.7475 0,-1.8424 0.2931,-3.7056 0.31403,-1.8842 0.96304,-3.601 0.66995,-1.7377 1.7167,-3.2241 1.0468,-1.5074 2.5123,-2.596 1.4864,-1.1096 3.4125,-1.7377 1.9261,-0.64901 4.3546,-0.64901 2.4286,0 4.3337,0.64901 1.9261,0.62808 3.3916,1.7377 1.4655,1.0887 2.5123,2.596 1.0468,1.4864 1.6958,3.2241 0.66995,1.7167 0.96305,3.601 0.31404,1.8633 0.31404,3.7056 0,1.8633 -0.31404,3.7475 -0.2931,1.8633 -0.96305,3.601 -0.64901,1.7167 -1.6958,3.2241 -1.0468,1.4864 -2.5123,2.596 -1.4655,1.0887 -3.3916,1.7377 -1.9052,0.62807 -4.3337,0.62807 z m 0,-5.5898 q 2.0098,0 3.3707,-0.94211 1.3818,-0.94211 2.2192,-2.4076 0.85837,-1.4655 1.2352,-3.2032 0.37684,-1.7586 0.37684,-3.3916 0,-1.1515 -0.16748,-2.3239 -0.14655,-1.1933 -0.50246,-2.282 -0.35591,-1.1096 -0.92118,-2.0726 -0.56526,-0.98398 -1.3608,-1.6958 -0.79556,-0.73275 -1.8633,-1.1515 -1.0468,-0.41871 -2.3867,-0.41871 -1.3608,0 -2.4286,0.43965 -1.0468,0.43965 -1.8633,1.1933 -0.79556,0.73275 -1.3608,1.7167 -0.56527,0.98398 -0.92118,2.0936 -0.35591,1.10962 -0.52339,2.2611 -0.14655,1.1515 -0.14655,2.2401 0,1.7167 0.37684,3.4963 0.37685,1.7586 1.2143,3.2032 0.85837,1.4236 2.2401,2.3448 1.3818,0.90024 3.4125,0.90024 z"
         inkscape:connector-curvature="0" />
      <path
         id="path876"
         d="m 362.16,640.45 v -30.022 h 12.876 q 2.8473,0 4.7943,0.83744 1.947,0.81649 3.1613,2.1773 1.2143,1.3399 1.7377,3.0357 0.54433,1.6958 0.54433,3.4335 0,1.0887 -0.25123,2.2192 -0.25123,1.1096 -0.77462,2.1773 -0.5234,1.0468 -1.3399,1.968 -0.8165,0.92117 -1.968,1.633 -1.1305,0.69088 -2.617,1.0887 -1.4655,0.39778 -3.2869,0.39778 h -7.0763 v 11.054 h -5.7992 z m 13.127,-16.56 q 1.1096,0 1.8633,-0.35591 0.75369,-0.35591 1.2143,-0.92118 0.48152,-0.56526 0.69088,-1.2771 0.20936,-0.71182 0.20936,-1.4236 0,-0.64901 -0.18842,-1.3399 -0.16749,-0.71182 -0.62808,-1.298 -0.43965,-0.5862 -1.2143,-0.96305 -0.77463,-0.37684 -1.947,-0.37684 h -7.3275 v 7.9556 h 7.3275 z"
         inkscape:connector-curvature="0" />
      <path
         id="path878"
         d="m 393.28,640.45 v -30.022 h 20.496 v 5.5061 h -14.697 v 6.3017 h 8.6465 v 5.4852 h -8.6465 v 7.2438 h 15.597 V 640.45 H 393.28 z"
         inkscape:connector-curvature="0" />
      <path
         id="path880"
         d="m 441.91,640.45 -11.912,-17.502 q -0.2931,-0.43965 -0.649,-1.0677 -0.33498,-0.64901 -0.58621,-1.1933 0.0628,0.48152 0.0838,1.1305 0.0419,0.64901 0.0419,1.1305 v 17.502 h -5.7574 v -30.022 h 5.4433 l 11.619,17.293 q 0.27216,0.41871 0.62807,1.0468 0.35591,0.62807 0.62807,1.2143 -0.0628,-0.60713 -0.10468,-1.2143 -0.0209,-0.62808 -0.0209,-1.0468 v -17.293 h 5.7364 v 30.022 h -5.1502 z"
         inkscape:connector-curvature="0" />
    </g>
    <g
       id="text3971"
       style="fill:#231f20">
      <path
         id="path863"
         d="m 471.15,617.25 q -0.27216,-0.64901 -0.75368,-1.1933 -0.48153,-0.56526 -1.1724,-0.96304 -0.69088,-0.41872 -1.5911,-0.64901 -0.8793,-0.2303 -1.968,-0.2303 -2.1564,0 -3.3707,0.94211 -1.2143,0.94211 -1.2143,2.6588 0,1.0677 0.66994,1.8214 0.66995,0.73275 1.7586,1.298 1.0887,0.56527 2.4704,1.0468 1.4027,0.46059 2.8473,1.0258 1.4655,0.54434 2.8473,1.2771 1.4027,0.71181 2.4914,1.7586 1.0887,1.0259 1.7586,2.4914 0.66995,1.4446 0.66995,3.4754 0,2.1564 -0.79556,3.8312 -0.77462,1.6539 -2.1564,2.8054 -1.3818,1.1305 -3.266,1.7377 -1.8633,0.5862 -4.0197,0.5862 -2.0098,0 -3.7684,-0.52339 -1.7377,-0.50246 -3.1613,-1.4446 -1.4027,-0.96305 -2.4286,-2.3029 -1.0259,-1.3608 -1.5911,-3.0357 l 4.2081,-1.5283 q 0.46059,1.0049 1.1305,1.8424 0.69088,0.83743 1.5702,1.4446 0.8793,0.5862 1.9261,0.92117 1.0677,0.33498 2.282,0.33498 1.2143,0 2.2192,-0.2931 1.0049,-0.29311 1.7167,-0.87931 0.71182,-0.5862 1.1096,-1.4446 0.39778,-0.8793 0.39778,-2.0098 0,-1.3399 -0.66995,-2.2401 -0.66994,-0.92118 -1.7586,-1.5911 -1.0887,-0.66995 -2.4914,-1.1724 -1.3818,-0.50246 -2.8473,-1.0258 -1.4446,-0.5234 -2.8473,-1.1724 -1.3818,-0.64901 -2.4704,-1.5911 -1.0887,-0.94211 -1.7586,-2.2611 -0.66994,-1.319 -0.66994,-3.2241 0,-1.5911 0.62807,-3.0148 0.64901,-1.4236 1.8633,-2.4914 1.2143,-1.0887 2.9938,-1.7167 1.7795,-0.62808 4.0615,-0.62808 1.9052,0 3.4544,0.46059 1.5492,0.43965 2.7007,1.2352 1.1724,0.79556 1.947,1.8842 0.77463,1.0887 1.1724,2.3658 l -4.1244,1.3818 z"
         inkscape:connector-curvature="0" />
      <path
         id="path865"
         d="m 502.63,640.45 v -13.378 h -13.692 v 13.378 h -4.4593 v -30.022 h 4.4593 v 12.436 h 13.692 v -12.436 h 4.4593 V 640.45 H 502.63 z"
         inkscape:connector-curvature="0" />
      <path
         id="path867"
         d="m 516.18,640.45 v -30.022 h 4.4593 V 640.45 H 516.18 z"
         inkscape:connector-curvature="0" />
      <path
         id="path869"
         d="m 529.59,640.45 v -30.022 h 18.612 v 4.2081 h -14.153 v 8.2278 h 9.1489 v 4.2081 h -9.1489 v 13.378 h -4.4593 z"
         inkscape:connector-curvature="0" />
      <path
         id="path871"
         d="m 566.09,614.72 v 25.73 h -4.4593 v -25.73 h -8.4999 v -4.2918 h 21.438 v 4.2918 h -8.479 z"
         inkscape:connector-curvature="0" />
    </g>
  </g>
</svg>
