<?xml version="1.0" encoding="UTF-8" standalone="no"?>
<!-- Created with Inkscape (http://www.inkscape.org/) -->

<svg
   xmlns:dc="http://purl.org/dc/elements/1.1/"
   xmlns:cc="http://creativecommons.org/ns#"
   xmlns:rdf="http://www.w3.org/1999/02/22-rdf-syntax-ns#"
   xmlns:svg="http://www.w3.org/2000/svg"
   xmlns="http://www.w3.org/2000/svg"
   version="1.1"
   width="300"
   height="385"
   id="svg3909"
   xml:space="preserve"><metadata
     id="metadata3915"><rdf:RDF><cc:Work
         rdf:about=""><dc:format>image/svg+xml</dc:format><dc:type
           rdf:resource="http://purl.org/dc/dcmitype/StillImage" /><dc:title></dc:title></cc:Work></rdf:RDF></metadata><defs
     id="defs3913"><clipPath
       id="clipPath3923"><path
         d="M 0,768 1024,768 1024,0 0,0 0,768 z"
         id="path3925" /></clipPath><clipPath
       id="clipPath3979"><path
         d="M 0,768 1024,768 1024,0 0,0 0,768 z"
         id="path3981" /></clipPath><clipPath
       id="clipPath3979-0"><path
         d="M 0,768 1024,768 1024,0 0,0 0,768 z"
         id="path3981-0" /></clipPath><clipPath
       id="clipPath3966"><rect
         width="252"
         height="20"
         x="792"
         y="-684"
         transform="scale(1,-1)"
         id="rect3968"
         style="fill:#e0e1dd;fill-opacity:1;stroke:none" /></clipPath><clipPath
       id="clipPath3978"><rect
         width="252"
         height="28"
         x="792"
         y="-664"
         transform="scale(1,-1)"
         id="rect3980"
         style="fill:#bcbdbc;fill-opacity:1;stroke:none" /></clipPath><clipPath
       id="clipPath3979-1"><path
         d="M 0,768 1024,768 1024,0 0,0 0,768 z"
         id="path3981-3" /></clipPath><clipPath
       id="clipPath355"><path
         d="M 0,792 612,792 612,0 0,0 0,792 z"
         id="path357" /></clipPath><clipPath
       id="clipPath369"><path
         d="m 56.975,20.648 278.442,0 0,36.036 -278.442,0 0,-36.036 z"
         id="path371" /></clipPath><clipPath
       id="clipPath549"><path
         d="m 58,549.09 137.837,0 0,44.253 -137.837,0 0,-44.253 z"
         id="path551" /></clipPath><clipPath
       id="clipPath613"><path
         d="m 58,415.177 49.184,0 0,58.147 -49.184,0 0,-58.147 z"
         id="path615" /></clipPath><clipPath
       id="clipPath731"><path
         d="m 135.716,436.992 132.466,0 0,28.517 -132.466,0 0,-28.517 z"
         id="path733" /></clipPath><clipPath
       id="clipPath857"><path
         d="m 135.716,298.062 241.617,0 0,28.517 -241.617,0 0,-28.517 z"
         id="path859" /></clipPath><clipPath
       id="clipPath1009"><path
         d="m 58,269.682 49.184,0 0,67.277 -49.184,0 0,-67.277 z"
         id="path1011" /></clipPath><clipPath
       id="clipPath1165"><path
         d="m 135.716,154.451 197.392,0 0,28.517 -197.392,0 0,-28.517 z"
         id="path1167" /></clipPath><clipPath
       id="clipPath1305"><path
         d="m 57.975,128.071 49.184,0 0,67.278 -49.184,0 0,-67.278 z"
         id="path1307" /></clipPath></defs><g
     transform="matrix(1.25,0,0,-1.25,-40.553086,79.407238)"
     id="g3917"><g
       transform="matrix(0.93969262,0.34202014,-0.34202014,0.93969262,536.13766,-26.2987)"
       id="g4099"><path
         d="m 915.87504,743.775 c -36.17592,0 -66.78216,-23.91388 -76.82504,-56.8 l 30.47496,0 c 8.57768,16.89088 26.10888,28.475 46.35008,28.475 20.24104,0 37.74736,-11.58412 46.32496,-28.475 l 30.47504,0 c -10.03688,32.88612 -40.6244,56.8 -76.8,56.8 z m -76.75008,-104 c 10.1212,-32.76386 40.6656,-56.575 76.75008,-56.575 36.08424,0 66.61008,23.81114 76.72496,56.575 l -30.52496,0 c -8.62136,-16.76072 -26.05472,-28.25 -46.2,-28.25 -20.14536,0 -37.60376,11.48928 -46.22504,28.25 l -30.52504,0 z"
         id="path3129"
         style="fill:#ea0011;fill-opacity:1;stroke:none" /><path
         d="m 848.64333,686.98245 38.89229,0 0,-20.09717 -38.89229,0 c 0,6.69904 0,13.39812 0,20.09717 z"
         id="rect3982"
         style="fill:#ea0011;fill-opacity:1;stroke:none" /><path
         d="m 971.39927,686.98245 38.24423,0 0,-20.09717 -38.24423,0 c 0,6.69904 0,13.39812 0,20.09717 z"
         id="path3990"
         style="fill:#ea0011;fill-opacity:1;stroke:none" /><path
         d="m 820.1002,669.23512 40.12566,0 0,-29.45267 -40.12566,0 c 0,9.81755 0,19.63511 0,29.45267 z"
         id="path3992"
         style="fill:#ea0011;fill-opacity:1;stroke:none" /><path
         d="m 942.27435,669.23512 40.12565,0 0,-29.45267 -40.12565,0 c 0,9.81755 0,19.63511 0,29.45267 z"
         id="path3994"
         style="fill:#ea0011;fill-opacity:1;stroke:none" /></g><g
       transform="translate(80.147182,1002.6981)"
       id="g10123"><g
         transform="matrix(0.65198955,0,0,0.65198955,607.31034,-204.23434)"
         id="g908"><g
           clip-path="url(#clipPath3979)"
           id="g910"><g
             transform="translate(646.5762,416.0308)"
             id="g912"><path
               d="m 0,0 -25.748,-9.369 c 0.33,-4.128 1.041,-8.206 2.042,-12.201 L 0.75,-12.664 C -0.043,-8.529 -0.326,-4.268 0,0"
               id="path914"
               style="fill:#db212f;fill-opacity:1;fill-rule:nonzero;stroke:none" /></g><g
             transform="translate(760.3594,444.5015)"
             id="g916"><path
               d="M 0,0 C -1.796,3.704 -3.873,7.284 -6.279,10.657 L -32.02,1.288 c 2.996,-3.064 5.508,-6.508 7.564,-10.191 L 0,0 z"
               id="path918"
               style="fill:#db212f;fill-opacity:1;fill-rule:nonzero;stroke:none" /></g><g
             transform="translate(703.7178,451.793)"
             id="g920"><path
               d="m 0,0 c 5.356,-2.499 9.996,-5.908 13.908,-9.906 l 25.742,9.37 C 32.521,9.469 22.808,17.83 10.906,23.383 c -36.797,17.159 -80.702,1.18 -97.86,-35.613 -5.553,-11.907 -7.617,-24.556 -6.649,-36.801 l 25.745,9.368 c 0.427,5.578 1.789,11.167 4.284,16.526 C -52.424,0.772 -23.906,11.146 0,0"
               id="path922"
               style="fill:#db212f;fill-opacity:1;fill-rule:nonzero;stroke:none" /></g><g
             transform="translate(624.4727,395.0469)"
             id="g924"><path
               d="m 0,0 -24.461,-8.909 c 2.248,-8.918 6.147,-17.391 11.503,-24.932 l 25.687,9.351 C 6.135,-17.719 1.751,-9.153 0,0"
               id="path926"
               style="fill:#ea2227;fill-opacity:1;fill-rule:nonzero;stroke:none" /></g><g
             transform="translate(731.1719,404.7539)"
             id="g928"><path
               d="m 0,0 c -0.407,-5.575 -1.816,-11.167 -4.318,-16.53 -11.151,-23.91 -39.668,-34.285 -63.575,-23.136 -5.363,2.501 -10.035,5.883 -13.935,9.888 l -25.688,-9.352 c 7.114,-10.006 16.817,-18.369 28.721,-23.926 36.8,-17.156 80.697,-1.177 97.858,35.619 5.556,11.905 7.608,24.549 6.625,36.785 L 0,0 z"
               id="path930"
               style="fill:#db212f;fill-opacity:1;fill-rule:nonzero;stroke:none" /></g><g
             transform="translate(737.5039,436.1816)"
             id="g932"><path
               d="m 0,0 -24.459,-8.903 c 4.543,-8.139 6.688,-17.513 5.986,-26.938 l 25.688,9.345 C 6.48,-17.277 4.021,-8.279 0,0"
               id="path934"
               style="fill:#ea2227;fill-opacity:1;fill-rule:nonzero;stroke:none" /></g></g></g><g
         transform="translate(496,-2.8198518)"
         id="g936"><text
           x="626.31049"
           y="-48.994068"
           transform="scale(1,-1)"
           id="text938"
           style="font-size:15.88816452px;font-style:normal;font-variant:normal;font-weight:normal;font-stretch:normal;font-family:Interstate-Bold;-inkscape-font-specification:Interstate-Bold"><tspan
             x="626.31049 661.00769 693.93378 725.49738"
             y="-48.994068"
             id="tspan940"
             style="font-size:45.41526031px;font-style:normal;font-variant:normal;font-weight:normal;font-stretch:normal;writing-mode:lr-tb;fill:#231f20;fill-opacity:1;fill-rule:nonzero;stroke:none;font-family:Interstate-Bold;-inkscape-font-specification:Interstate-Bold">OPEN</tspan></text>
<text
           x="761.46619"
           y="-48.994068"
           transform="scale(1,-1)"
           id="text942"
           style="font-size:15.88816452px;font-style:normal;font-variant:normal;font-weight:normal;font-stretch:normal;font-family:Interstate-Regular;-inkscape-font-specification:Interstate-Regular"><tspan
             x="761.46619 790.39581 823.68518 838.08179 865.013"
             y="-48.994068"
             id="tspan944"
             style="font-size:45.41526031px;font-style:normal;font-variant:normal;font-weight:normal;font-stretch:normal;writing-mode:lr-tb;fill:#231f20;fill-opacity:1;fill-rule:nonzero;stroke:none;font-family:Interstate-Regular;-inkscape-font-specification:Interstate-Regular">SHIFT</tspan></text>
</g></g><g
       transform="translate(115.82478,378.47146)"
       id="g5723" /><g
       transform="translate(93.72128,357.48756)"
       id="g5735" /><g
       transform="translate(0,-80)"
       id="g7153"><g
         transform="translate(-189.13862,-362.55934)"
         clip-path="url(#clipPath3923)"
         id="g6409"><g
           transform="translate(304.9634,416.0308)"
           id="g6411"><path
             d="m 0,0 -25.748,-9.369 c 0.33,-4.128 1.041,-8.206 2.042,-12.201 L 0.75,-12.664 C -0.043,-8.529 -0.326,-4.268 0,0"
             id="path6413"
             style="fill:#c32034;fill-opacity:1;fill-rule:nonzero;stroke:none" /></g><g
           transform="translate(418.7466,444.5015)"
           id="g6415"><path
             d="M 0,0 C -1.795,3.704 -3.873,7.284 -6.279,10.657 L -32.02,1.288 c 2.995,-3.064 5.508,-6.508 7.563,-10.191 L 0,0 z"
             id="path6417"
             style="fill:#c32034;fill-opacity:1;fill-rule:nonzero;stroke:none" /></g><g
           transform="translate(362.1055,451.793)"
           id="g6419"><path
             d="m 0,0 c 5.356,-2.499 9.995,-5.908 13.907,-9.906 l 25.742,9.37 C 32.519,9.469 22.807,17.83 10.906,23.383 c -36.797,17.159 -80.702,1.18 -97.861,-35.613 -5.553,-11.907 -7.617,-24.556 -6.648,-36.801 l 25.745,9.368 c 0.427,5.578 1.789,11.167 4.284,16.526 C -52.424,0.772 -23.906,11.146 0,0"
             id="path6421"
             style="fill:#db212f;fill-opacity:1;fill-rule:nonzero;stroke:none" /></g><g
           transform="translate(282.8599,395.0469)"
           id="g6423"><path
             d="m 0,0 -24.46,-8.909 c 2.248,-8.918 6.145,-17.391 11.502,-24.932 L 12.73,-24.49 C 6.135,-17.719 1.751,-9.153 0,0"
             id="path6425"
             style="fill:#ea2227;fill-opacity:1;fill-rule:nonzero;stroke:none" /></g><g
           transform="translate(389.5596,404.7539)"
           id="g6427"><path
             d="m 0,0 c -0.409,-5.575 -1.817,-11.167 -4.319,-16.53 -11.15,-23.91 -39.668,-34.285 -63.574,-23.136 -5.363,2.501 -10.035,5.883 -13.936,9.888 l -25.687,-9.352 c 7.113,-10.006 16.816,-18.369 28.721,-23.926 36.799,-17.156 80.698,-1.177 97.857,35.619 5.557,11.905 7.608,24.549 6.626,36.785 L 0,0 z"
             id="path6429"
             style="fill:#db212f;fill-opacity:1;fill-rule:nonzero;stroke:none" /><path
             d="m 0,0 c -0.409,-5.575 -1.817,-11.167 -4.319,-16.53 -11.15,-23.91 -39.668,-34.285 -63.574,-23.136 -5.363,2.501 -10.035,5.883 -13.936,9.888 l -25.687,-9.352 c 7.113,-10.006 16.816,-18.369 28.721,-23.926 36.799,-17.156 80.698,-1.177 97.857,35.619 5.557,11.905 7.608,24.549 6.626,36.785 L 0,0 z"
             id="path6431"
             style="fill:#db212f;fill-opacity:1;fill-rule:nonzero;stroke:none" /></g><g
           transform="translate(395.8906,436.1816)"
           id="g6433"><path
             d="m 0,0 -24.458,-8.903 c 4.542,-8.139 6.689,-17.513 5.986,-26.938 l 25.688,9.345 C 6.481,-17.277 4.021,-8.279 0,0"
             id="path6435"
             style="fill:#ea2227;fill-opacity:1;fill-rule:nonzero;stroke:none" /></g><g
           transform="translate(279.2158,406.6621)"
           id="g6437"><path
             d="M 0,0 25.684,9.263 25.579,4.183 0.799,-5.03 0,0 z"
             id="path6439"
             style="fill:#ad213a;fill-opacity:1;fill-rule:nonzero;stroke:none" /></g><g
           transform="translate(386.7266,445.8594)"
           id="g6441"><path
             d="M 0,0 26.085,8.814 28.797,4.786 3.452,-4.035 0,0 z"
             id="path6443"
             style="fill:#ad213a;fill-opacity:1;fill-rule:nonzero;stroke:none" /></g><g
           transform="translate(282.0435,365.709)"
           id="g6445"><path
             d="M 0,0 25.716,9.213 33.493,1.988 6.526,-7.979 0,0 z"
             id="path6447"
             style="fill:#ba2034;fill-opacity:1;fill-rule:nonzero;stroke:none" /></g><g
           transform="translate(415.6782,414.0278)"
           id="g6449"><path
             d="M 0,0 -26.119,-9.274 -28.043,-19.567 -0.195,-9.796 0,0 z"
             id="path6451"
             style="fill:#ba2034;fill-opacity:1;fill-rule:nonzero;stroke:none" /></g></g><g
         transform="translate(0,-325)"
         id="g6453"><g
           transform="translate(0.474855,0)"
           id="g6455"><path
             d="m 111.97773,195.04756 c -0.82357,0 -1.54371,-0.55543 -1.99955,-1.12618 l 0,-3.71564 c 0.38689,-0.51712 1.19513,-1.15682 2.0685,-1.15682 1.2411,0 1.91527,0.93848 1.91527,2.80396 0,2.22172 -0.70482,3.19468 -1.98422,3.19468 m 0.23749,-7.59981 c -0.89251,0 -1.7314,0.47116 -2.22171,1.01126 l 0,-0.82356 -1.71226,0 0,11.36141 1.71226,0.89252 0,-4.26724 c 0.6397,0.58608 1.37899,1.02276 2.30216,1.02276 1.89995,0 3.39769,-1.379 3.39769,-4.74222 0,-3.02231 -1.64713,-4.45493 -3.47814,-4.45493"
             id="path6457"
             style="fill:#231f20;fill-opacity:1;fill-rule:nonzero;stroke:none" /><path
             d="m 120.36701,184.5258 -1.831,0 1.27557,3.27895 -3.24448,8.65704 1.89996,0 1.44411,-4.32086 c 0.27197,-0.77377 0.67418,-2.08382 0.77378,-2.57413 0.15322,0.52479 0.52095,1.78504 0.79292,2.53966 l 1.49391,4.35533 1.83101,0 -4.43578,-11.93599 z"
             id="path6459"
             style="fill:#231f20;fill-opacity:1;fill-rule:nonzero;stroke:none" /><path
             d="m 136.11555,197.73699 -3.42834,0 0,-3.78075 3.42834,0 c 1.17598,0 1.99955,0.60522 1.99955,1.8808 0,1.2296 -0.80442,1.89995 -1.99955,1.89995 m 1.19513,-5.29382 2.40176,-4.80734 -2.0302,0 -2.34046,4.65412 -2.65457,0 0,-4.65412 -1.73141,0 0,11.76745 5.15975,0 c 2.04934,0 3.78075,-1.09554 3.78075,-3.51645 0,-1.8808 -0.98828,-3.04145 -2.58562,-3.44366"
             id="path6461"
             style="fill:#231f20;fill-opacity:1;fill-rule:nonzero;stroke:none" /><path
             d="m 145.04227,195.08242 c -1.16066,0 -1.86548,-0.80825 -2.01487,-2.21789 l 4.09869,0 c -0.0843,1.21046 -0.65502,2.21789 -2.08382,2.21789 m 3.78075,-3.65051 -5.83009,0 c 0.18386,-1.69311 1.1415,-2.41708 2.21788,-2.41708 0.7393,0 1.32921,0.26814 1.91528,0.70482 l 1.02659,-1.11086 c -0.77377,-0.7393 -1.69694,-1.16066 -3.04146,-1.16066 -2.0685,0 -3.81523,1.66629 -3.81523,4.59283 0,2.99166 1.57819,4.60432 3.86503,4.60432 2.50518,0 3.71563,-2.03402 3.71563,-4.42045 0,-0.32177 -0.0345,-0.60523 -0.0536,-0.79292"
             id="path6463"
             style="fill:#231f20;fill-opacity:1;fill-rule:nonzero;stroke:none" /><path
             d="m 156.12137,193.88997 c -0.38689,0.52095 -1.1913,1.15683 -2.0685,1.15683 -1.24493,0 -1.9191,-0.94232 -1.9191,-2.80397 0,-2.22172 0.70482,-3.19468 1.98805,-3.19468 0.82357,0 1.54755,0.5516 1.99955,1.12619 l 0,3.71563 z m -0.0191,-6.25146 0,0.83889 c -0.63587,-0.5899 -1.37517,-1.02658 -2.29833,-1.02658 -1.90379,0 -3.3977,1.37899 -3.3977,4.73839 0,3.02613 1.64714,4.45493 3.48197,4.45493 0.88869,0 1.73141,-0.46733 2.21406,-1.00744 l 0,3.35939 1.71608,0.89252 0,-12.2501 -1.71613,0 z"
             id="path6465"
             style="fill:#231f20;fill-opacity:1;fill-rule:nonzero;stroke:none" /><path
             d="m 171.87182,187.63659 0,5.27467 -5.41257,0 0,-5.27467 -1.76588,0 0,11.76745 1.76588,0 0,-4.76137 5.41257,0 0,4.76137 1.76205,0 0,-11.76745 -1.76205,0 z"
             id="path6467"
             style="fill:#231f20;fill-opacity:1;fill-rule:nonzero;stroke:none" /><path
             d="m 181.26854,191.40088 c -0.47116,0.23749 -1.07638,0.38689 -2.01487,0.38689 -1.11086,0 -1.81951,-0.50564 -1.81951,-1.31005 0,-0.8772 0.55926,-1.46327 1.70076,-1.46327 0.92317,0 1.73141,0.57075 2.13362,1.12618 l 0,1.26025 z m 0,-3.76543 0,0.87336 c -0.60523,-0.60139 -1.46327,-1.06106 -2.42091,-1.06106 -1.42879,0 -3.05678,0.80825 -3.05678,2.98017 0,1.96507 1.51307,2.85376 3.51262,2.85376 0.82357,0 1.47476,-0.11875 1.96507,-0.33326 l 0,0.65503 c 0,0.95763 -0.5899,1.49774 -1.66246,1.49774 -0.90784,0 -1.61266,-0.16854 -2.30216,-0.55543 l -0.67418,1.31005 c 0.84273,0.52095 1.78121,0.78909 3.02614,0.78909 1.96507,0 3.30959,-0.95763 3.30959,-2.95718 l 0,-6.05227 -1.69693,0 z"
             id="path6469"
             style="fill:#231f20;fill-opacity:1;fill-rule:nonzero;stroke:none" /><path
             d="m 189.43911,187.85532 c -0.42136,-0.23749 -1.01127,-0.40604 -1.70076,-0.40604 -1.22578,0 -1.9804,0.75845 -1.9804,2.33664 l 0,5.09463 -1.26025,0 0,1.58202 1.26025,0 0,2.5205 1.69694,0.90401 0,-3.42451 2.18341,0 0,-1.58202 -2.18341,0 0,-4.79202 c 0,-0.81974 0.26813,-1.05723 0.90784,-1.05723 0.452,0 0.95763,0.16854 1.27557,0.35241 l -0.19919,-1.52839 z"
             id="path6471"
             style="fill:#231f20;fill-opacity:1;fill-rule:nonzero;stroke:none" /></g><path
           d="m 193.56231,198.75274 c -0.0536,0.046 -0.13024,0.0689 -0.23366,0.0689 l -0.42903,0 0,-0.54394 0.40604,0 c 0.22601,0 0.33709,0.0881 0.33709,0.26814 0,0.0919 -0.0268,0.16088 -0.0804,0.20685 m 0.19153,-0.5018 c -0.0651,-0.0804 -0.15706,-0.13407 -0.26814,-0.16089 l 0.36007,-0.68949 -0.25282,0 -0.34475,0.67417 -0.34858,0 0,-0.67417 -0.21068,0 0,1.60883 0.6512,0 c 0.14556,0 0.26814,-0.0345 0.36773,-0.11109 0.0996,-0.0766 0.14939,-0.19153 0.14939,-0.35241 0,-0.11875 -0.0345,-0.21834 -0.10342,-0.29495 m 0.62055,0.44434 c -0.0651,0.15705 -0.15706,0.29112 -0.26814,0.40221 -0.11109,0.11109 -0.24516,0.19919 -0.39838,0.26048 -0.15322,0.0613 -0.32177,0.0919 -0.49797,0.0919 -0.17621,0 -0.34092,-0.0306 -0.49414,-0.0919 -0.15322,-0.0613 -0.28729,-0.14939 -0.40221,-0.26048 -0.11109,-0.11109 -0.19919,-0.24516 -0.26431,-0.40221 -0.0651,-0.15705 -0.0958,-0.32943 -0.0958,-0.51712 0,-0.1877 0.0306,-0.35624 0.0958,-0.51713 0.0651,-0.15322 0.15322,-0.28729 0.26431,-0.39837 0.11492,-0.11109 0.24899,-0.19919 0.40221,-0.26048 0.15322,-0.0613 0.31793,-0.0919 0.49414,-0.0919 0.1762,0 0.34475,0.0306 0.49797,0.0919 0.15322,0.0613 0.28729,0.14939 0.39838,0.26048 0.11108,0.11108 0.20302,0.24515 0.26814,0.39837 0.0651,0.16089 0.0958,0.32943 0.0958,0.51713 0,0.18769 -0.0306,0.36007 -0.0958,0.51712 m 0.18003,-1.11086 c -0.0728,-0.1762 -0.17237,-0.32943 -0.30261,-0.45966 -0.13407,-0.12641 -0.28729,-0.22601 -0.4635,-0.29496 -0.1762,-0.069 -0.37156,-0.10725 -0.57841,-0.10725 -0.20685,0 -0.39838,0.0383 -0.57458,0.10725 -0.17621,0.0689 -0.33326,0.16855 -0.4635,0.29496 -0.13024,0.13023 -0.23366,0.28346 -0.30644,0.45966 -0.0728,0.18004 -0.11109,0.37923 -0.11109,0.59374 0,0.21834 0.0383,0.41753 0.11109,0.59756 0.0728,0.18004 0.1762,0.32943 0.30644,0.45967 0.13024,0.12641 0.28729,0.226 0.4635,0.29495 0.1762,0.0728 0.36773,0.10726 0.57458,0.10726 0.20685,0 0.40221,-0.0345 0.57841,-0.10726 0.17621,-0.069 0.32943,-0.16854 0.4635,-0.29495 0.13024,-0.13024 0.22983,-0.27963 0.30261,-0.45967 0.0766,-0.18003 0.11492,-0.37922 0.11492,-0.59756 0,-0.21451 -0.0383,-0.4137 -0.11492,-0.59374"
           id="path6473"
           style="fill:#231f20;fill-opacity:1;fill-rule:nonzero;stroke:none" /></g><path
         d="m 247.38679,-53.2174 c -0.069,0.0613 -0.17237,0.0919 -0.31027,0.0919 l -0.56693,0 0,-0.72397 0.53245,0 c 0.30261,0 0.45201,0.11875 0.45201,0.36007 0,0.12258 -0.0345,0.21068 -0.10726,0.27197 m 0.25665,-0.67035 c -0.0881,-0.10342 -0.20685,-0.17237 -0.35624,-0.21068 l 0.47498,-0.9155 -0.33325,0 -0.45967,0.89252 -0.45967,0 0,-0.89252 -0.28729,0 0,2.14128 0.86954,0 c 0.19536,0 0.35624,-0.0498 0.49031,-0.14939 0.13024,-0.0996 0.19536,-0.25665 0.19536,-0.46733 0,-0.16088 -0.0421,-0.29495 -0.13407,-0.39838 m 0.82357,0.59757 c -0.0881,0.20685 -0.20685,0.38305 -0.35625,0.53245 -0.14939,0.14939 -0.32559,0.2643 -0.52861,0.34475 -0.20685,0.0843 -0.42519,0.1264 -0.66269,0.1264 -0.23366,0 -0.45583,-0.0421 -0.65885,-0.1264 -0.20302,-0.0804 -0.37923,-0.19536 -0.53245,-0.34475 -0.14939,-0.1494 -0.26431,-0.3256 -0.35241,-0.53245 -0.0843,-0.21068 -0.12641,-0.44051 -0.12641,-0.6895 0,-0.24899 0.0421,-0.47882 0.12641,-0.68567 0.0881,-0.20685 0.20302,-0.38688 0.35241,-0.53244 0.15322,-0.1494 0.32943,-0.26431 0.53245,-0.34858 0.20302,-0.0843 0.42519,-0.12258 0.65885,-0.12258 0.2375,0 0.45584,0.0383 0.66269,0.12258 0.20302,0.0843 0.37922,0.19918 0.52861,0.34858 0.1494,0.14556 0.26814,0.32559 0.35625,0.53244 0.0843,0.20685 0.1264,0.43668 0.1264,0.68567 0,0.24899 -0.0421,0.47882 -0.1264,0.6895 m 0.24515,-1.48242 c -0.0996,-0.23367 -0.23749,-0.43669 -0.40987,-0.60906 -0.17237,-0.16854 -0.37922,-0.29878 -0.61289,-0.39455 -0.23749,-0.0919 -0.49414,-0.1379 -0.76994,-0.1379 -0.2758,0 -0.52861,0.046 -0.76611,0.1379 -0.23749,0.0958 -0.44051,0.22601 -0.61289,0.39455 -0.17237,0.17237 -0.31027,0.37539 -0.40986,0.60906 -0.0996,0.24132 -0.1494,0.50563 -0.1494,0.79292 0,0.29112 0.0498,0.55543 0.1494,0.79292 0.0996,0.2375 0.23749,0.44052 0.40986,0.60906 0.17238,0.17238 0.3754,0.30262 0.61289,0.39838 0.2375,0.0919 0.49031,0.1379 0.76611,0.1379 0.2758,0 0.53245,-0.046 0.76994,-0.1379 0.23367,-0.0958 0.44052,-0.226 0.61289,-0.39838 0.17238,-0.16854 0.31028,-0.37156 0.40987,-0.60906 0.0958,-0.23749 0.14556,-0.5018 0.14556,-0.79292 0,-0.28729 -0.0498,-0.5516 -0.14556,-0.79292"
         id="path6475"
         style="fill:#231f20;fill-opacity:1;fill-rule:nonzero;stroke:none" /><path
         d="m 242.4268,-54.756988 0,2.453285 -16.93112,0 0,-2.453285 7.11798,0 0,-21.73404 2.69516,0 0,21.73404 7.11798,0 z m -20.20775,0 0,2.453285 -14.20142,0 0,-24.187325 2.69516,0 0,11.264383 6.63424,0 0,2.453286 -6.63424,0 0,8.016371 11.50626,0 z m -20.71418,-21.73404 0,24.187325 -2.69516,0 0,-24.187325 2.69516,0 z m -9.20846,0 0,24.187325 -2.69516,0 0,-10.331443 -12.02455,0 0,10.331443 -2.69516,0 0,-24.187325 2.69516,0 0,11.402596 12.02455,0 0,-11.402596 2.69516,0 z m -23.00549,6.357811 q 0,1.34758 -0.34553,2.38418 -0.34554,1.036599 -1.17482,1.900432 -0.79472,0.863833 -2.1423,1.589453 -1.34758,0.72562 -3.35167,1.45124 -1.83133,0.656513 -2.97159,1.209366 -1.10571,0.552853 -1.72767,1.105706 -0.62196,0.587407 -0.82927,1.174813 -0.20732,0.62196 -0.20732,1.382133 0,0.72562 0.24187,1.34758 0.27642,0.656513 0.82928,1.140259 0.5874,0.483747 1.48579,0.760173 0.89839,0.31098 2.14231,0.31098 1.83132,0 3.14435,-0.587406 1.34758,-0.552853 2.6606,-1.65856 l 1.72767,2.107753 q -1.52035,1.209366 -3.24801,1.900433 -1.69311,0.691066 -4.11185,0.691066 -1.69311,0 -3.1098,-0.41464 -1.38213,-0.41464 -2.38417,-1.243919 -0.9675,-0.794727 -1.52035,-1.934986 -0.55285,-1.14026 -0.55285,-2.5915 0,-1.313026 0.34553,-2.315072 0.38009,-1.002047 1.17481,-1.831326 0.82928,-0.794727 2.14231,-1.520346 1.34758,-0.691067 3.31712,-1.382133 1.65856,-0.587407 2.76426,-1.174813 1.10571,-0.552853 1.76222,-1.14026 0.69107,-0.587406 0.9675,-1.278473 0.27642,-0.691066 0.27642,-1.520346 0,-1.934986 -1.41668,-3.040692 -1.38214,-1.105707 -3.80087,-1.105707 -1.86588,0 -3.45533,0.794727 -1.58945,0.794726 -2.97159,2.107753 l -1.79677,-2.004093 q 1.45124,-1.45124 3.52444,-2.418733 2.10775,-0.932939 4.59559,-0.932939 1.90043,0 3.38623,0.518299 1.48579,0.5183 2.52239,1.416687 1.0366,0.898386 1.5549,2.142306 0.55285,1.243919 0.55285,2.660605 z m -21.11532,-6.357811 0,24.187325 -4.76836,0 0,-10.227783 q 0,-0.5183 0,-1.278473 0.0345,-0.760173 0.0345,-1.554899 0,-0.760173 0,-1.45124 0.0346,-0.656513 0.0346,-1.002046 -0.24188,0.483746 -0.76018,1.24392 -0.48374,0.794726 -0.93294,1.485792 l -8.56922,12.784729 -4.63015,0 0,-24.187325 4.76836,0 0,10.642423 q 0,0.5183 -0.0345,1.278473 0,0.760173 0,1.520346 0,0.794727 -0.0345,1.45124 0,0.691066 0,1.0366 0.24187,-0.483747 0.72562,-1.278473 0.5183,-0.760173 0.96749,-1.45124 l 8.8802,-13.199369 4.31908,0 z m -24.75368,0 0,4.733805 -12.47375,0 0,5.839512 6.94522,0 0,4.699251 -6.94522,0 0,4.180952 11.95545,0 0,4.733805 -16.79291,0 0,-24.187325 17.31121,0 z m -21.89601,16.516488 q 0,1.934986 -0.65651,3.351672 -0.65651,1.45124 -1.796771,2.418733 -1.140259,0.967493 -2.660606,1.416686 -1.520346,0.483746 -3.213459,0.483746 l -10.573316,0 0,-24.187325 4.837465,0 0,8.569224 5.321212,0 q 1.865879,0 3.455332,0.449193 1.624006,0.449193 2.798819,1.416686 1.174814,0.967493 1.831324,2.453286 0.65651,1.520346 0.65651,3.628099 z m -4.975673,-0.10366 q 0,-3.144352 -3.455333,-3.144352 l -5.632191,0 0,6.219598 5.563085,0 q 1.624006,0 2.556946,-0.760173 0.967493,-0.72562 0.967493,-2.315073 z m -18.788368,-4.284612 q 0,2.937032 -0.794727,5.217552 -0.760173,2.315072 -2.176859,3.904525 -1.382133,1.624006 -3.351672,2.453286 -1.934986,0.863833 -4.284612,0.863833 -2.384179,0 -4.353719,-0.863833 -1.969539,-0.863833 -3.386225,-2.487839 -1.416686,-1.589453 -2.211413,-3.904526 -0.760173,-2.315072 -0.760173,-5.252105 0,-2.937032 0.760173,-5.252104 0.794727,-2.28052 2.176859,-3.904526 1.416687,-1.589453 3.351673,-2.453286 1.969539,-0.829279 4.353718,-0.829279 2.349626,0 4.319165,0.863833 1.96954,0.863833 3.386226,2.453286 1.416686,1.624006 2.176859,3.939078 0.794727,2.315073 0.794727,5.252105 z m -4.975679,-0.06911 q 0,-3.697205 -1.554899,-5.666744 -1.520346,-1.96954 -4.077292,-1.96954 -2.556946,0 -4.146399,2.004093 -1.589453,2.004093 -1.589453,5.701298 0,3.697206 1.520347,5.666745 1.554899,1.969539 4.111845,1.969539 2.556946,0 4.146398,-2.004092 1.589453,-2.00409 1.589453,-5.701296 z"
         id="path7121"
         style="font-size:34.55332184px;font-style:normal;font-variant:normal;font-weight:normal;font-stretch:normal;text-align:center;line-height:125%;writing-mode:lr-tb;text-anchor:middle;color:#000000;fill:#000000;fill-opacity:1;fill-rule:evenodd;stroke:none;stroke-width:6;marker:none;visibility:visible;font-family:Interstate-Light;-inkscape-font-specification:Interstate-Light" /><path
         d="m 204.39808,-111.77271 0,2.32025 -11.76464,0 0,8.72544 6.53591,0 0,2.32025 -6.53591,0 0,7.189504 11.27445,0 0,2.320249 -13.82346,0 0,-22.875693 14.31365,0 z m -20.31035,0 0,22.875693 -2.45097,0 0,-17.254813 0,-1.56862 q -0.098,0.22876 -0.32679,0.58824 -0.19608,0.35947 -0.42484,0.75163 -0.22875,0.42483 -0.45751,0.81698 -0.22876,0.42484 -0.42483,0.71896 l -9.90191,15.947623 -2.48365,0 0,-22.875693 2.45097,0 0,16.960692 0,1.568619 q 0.098,-0.228757 0.29411,-0.588232 0.22876,-0.359476 0.45752,-0.78431 0.22876,-0.392155 0.45751,-0.816989 0.22876,-0.392155 0.42484,-0.686271 l 9.99994,-15.653509 2.38561,0 z m -22.63009,0 0,22.875693 -2.54901,0 0,-22.875693 2.54901,0 z m -7.62148,0 0,2.32025 -11.30713,0 0,20.555443 -2.54901,0 0,-22.875693 13.85614,0 z m -19.85284,0 0,22.875693 -2.45097,0 0,-17.254813 0,-1.56862 q -0.098,0.22876 -0.32679,0.58824 -0.19608,0.35947 -0.42484,0.75163 -0.22875,0.42483 -0.45751,0.81698 -0.22876,0.42484 -0.42483,0.71896 l -9.90191,15.947623 -2.48365,0 0,-22.875693 2.45097,0 0,16.960692 0,1.568619 q 0.098,-0.228757 0.29411,-0.588232 0.22876,-0.359476 0.45752,-0.78431 0.22876,-0.392155 0.45751,-0.816989 0.22876,-0.392155 0.42484,-0.686271 l 9.99994,-15.653509 2.38561,0 z m -21.50571,11.47052 q 0,2.58169 -0.68627,4.738542 -0.68627,2.156851 -1.92809,3.72547 -1.24182,1.568619 -3.00652,2.418288 -1.73202,0.882348 -3.85619,0.882348 -2.12417,0 -3.888868,-0.882348 -1.764696,-0.882348 -3.00652,-2.450967 -1.241823,-1.56862 -1.928094,-3.75815 -0.686271,-2.156852 -0.686271,-4.738533 0,-2.58169 0.653591,-4.73854 0.686271,-2.15685 1.928095,-3.72547 1.241823,-1.56862 2.97384,-2.45097 1.764697,-0.84967 3.888867,-0.84967 2.12417,0 3.88887,0.88235 1.7647,0.88235 3.00652,2.45097 1.2745,1.56862 1.96077,3.72547 0.68627,2.18953 0.68627,4.77121 z m -2.549,-0.0654 q 0,-2.15686 -0.52287,-3.92155 -0.52288,-1.73202 -1.43791,-2.97384 -0.91502,-1.20915 -2.18953,-1.89542 -1.2745,-0.65359 -2.74508,-0.65359 -1.50326,0 -2.77776,0.65359 -1.274506,0.68627 -2.222213,1.9281 -0.915028,1.2745 -1.470581,3.00652 -0.522873,1.76469 -0.522873,3.92154 0,2.156856 0.522873,3.888873 0.522873,1.764697 1.437901,2.97384 0.915028,1.241824 2.156853,1.895415 1.2745,0.686271 2.74508,0.686271 1.50326,0 2.77776,-0.686271 1.27451,-0.653591 2.22222,-1.928094 0.9477,-1.241824 1.47058,-3.00652 0.55555,-1.731967 0.55555,-3.888814 z"
         id="path7144"
         style="font-size:32.67956543px;font-style:normal;font-variant:normal;font-weight:normal;font-stretch:normal;text-align:center;line-height:125%;writing-mode:lr-tb;text-anchor:middle;color:#000000;fill:#000000;fill-opacity:1;fill-rule:evenodd;stroke:none;stroke-width:6;marker:none;visibility:visible;font-family:Interstate-Light;-inkscape-font-specification:Interstate-Light" /></g></g></svg>