<?xml version="1.0" encoding="UTF-8" standalone="no"?>
<!-- Created with Inkscape (http://www.inkscape.org/) -->

<svg
   xmlns:dc="http://purl.org/dc/elements/1.1/"
   xmlns:cc="http://creativecommons.org/ns#"
   xmlns:rdf="http://www.w3.org/1999/02/22-rdf-syntax-ns#"
   xmlns:svg="http://www.w3.org/2000/svg"
   xmlns="http://www.w3.org/2000/svg"
   version="1.1"
   width="300"
   height="140"
   viewBox="0 0 299.99999 140"
   id="Layer_1"
   xml:space="preserve"><metadata
   id="metadata330"><rdf:RDF><cc:Work
       rdf:about=""><dc:format>image/svg+xml</dc:format><dc:type
         rdf:resource="http://purl.org/dc/dcmitype/StillImage" /><dc:title></dc:title></cc:Work></rdf:RDF></metadata><defs
   id="defs328" />
<g
   transform="matrix(1.4758695,0,0,1.4758695,-433.88645,-380.99842)"
   id="g3">
	<g
   id="g5">
		<g
   id="g7">
			<g
   id="g9">
				<g
   id="g11">
					<linearGradient
   x1="299.0957"
   y1="312.1572"
   x2="299.0957"
   y2="324.5947"
   id="SVGID_1_"
   gradientUnits="userSpaceOnUse">
						<stop
   id="stop14"
   style="stop-color:#0379a7;stop-opacity:1"
   offset="0" />
						<stop
   id="stop16"
   style="stop-color:#0378a6;stop-opacity:1"
   offset="0.0091" />
						<stop
   id="stop18"
   style="stop-color:#016494;stop-opacity:1"
   offset="0.34670001" />
						<stop
   id="stop20"
   style="stop-color:#00578a;stop-opacity:1"
   offset="0.6796" />
						<stop
   id="stop22"
   style="stop-color:#005386;stop-opacity:1"
   offset="1" />
					</linearGradient>
					<path
   d="m 299.087,324.595 c -3.118,0 -5.1,-2.566 -5.1,-6.219 0,-3.653 1.981,-6.219 5.1,-6.219 3.135,0 5.116,2.566 5.116,6.219 0,3.653 -1.981,6.219 -5.116,6.219 z m 0,-10.629 c -2.102,0 -3.256,1.705 -3.256,4.41 0,2.704 1.154,4.41 3.256,4.41 2.119,0 3.273,-1.706 3.273,-4.41 10e-4,-2.705 -1.153,-4.41 -3.273,-4.41 z"
   id="path24"
   style="fill:url(#SVGID_1_)" />
					<linearGradient
   x1="323.29639"
   y1="312.34671"
   x2="323.29639"
   y2="324.4053"
   id="SVGID_2_"
   gradientUnits="userSpaceOnUse">
						<stop
   id="stop27"
   style="stop-color:#0379a7;stop-opacity:1"
   offset="0" />
						<stop
   id="stop29"
   style="stop-color:#0378a6;stop-opacity:1"
   offset="0.0091" />
						<stop
   id="stop31"
   style="stop-color:#016494;stop-opacity:1"
   offset="0.34670001" />
						<stop
   id="stop33"
   style="stop-color:#00578a;stop-opacity:1"
   offset="0.6796" />
						<stop
   id="stop35"
   style="stop-color:#005386;stop-opacity:1"
   offset="1" />
					</linearGradient>
					<path
   d="m 323.762,319.909 h -3.153 v 4.496 h -1.774 v -12.059 h 5.048 c 2.223,0 3.876,1.274 3.876,3.772 -0.001,2.482 -1.654,3.791 -3.997,3.791 z m 0.086,-5.857 h -3.239 v 4.151 h 3.239 c 1.378,0 2.067,-0.792 2.067,-2.084 10e-4,-1.326 -0.81,-2.067 -2.067,-2.067 z"
   id="path37"
   style="fill:url(#SVGID_2_)" />
					<linearGradient
   x1="346.16211"
   y1="312.34671"
   x2="346.16211"
   y2="324.4053"
   id="SVGID_3_"
   gradientUnits="userSpaceOnUse">
						<stop
   id="stop40"
   style="stop-color:#0379a7;stop-opacity:1"
   offset="0" />
						<stop
   id="stop42"
   style="stop-color:#0378a6;stop-opacity:1"
   offset="0.0091" />
						<stop
   id="stop44"
   style="stop-color:#016494;stop-opacity:1"
   offset="0.34670001" />
						<stop
   id="stop46"
   style="stop-color:#00578a;stop-opacity:1"
   offset="0.6796" />
						<stop
   id="stop48"
   style="stop-color:#005386;stop-opacity:1"
   offset="1" />
					</linearGradient>
					<path
   d="m 342.148,324.405 v -12.059 h 7.77 v 1.757 h -5.96 v 2.98 h 3.462 v 1.757 h -3.462 v 3.808 h 6.219 v 1.757 h -8.029 z"
   id="path50"
   style="fill:url(#SVGID_3_)" />
					<linearGradient
   x1="369.3887"
   y1="312.34671"
   x2="369.3887"
   y2="324.4053"
   id="SVGID_4_"
   gradientUnits="userSpaceOnUse">
						<stop
   id="stop53"
   style="stop-color:#0379a7;stop-opacity:1"
   offset="0" />
						<stop
   id="stop55"
   style="stop-color:#0378a6;stop-opacity:1"
   offset="0.0091" />
						<stop
   id="stop57"
   style="stop-color:#016494;stop-opacity:1"
   offset="0.34670001" />
						<stop
   id="stop59"
   style="stop-color:#00578a;stop-opacity:1"
   offset="0.6796" />
						<stop
   id="stop61"
   style="stop-color:#005386;stop-opacity:1"
   offset="1" />
					</linearGradient>
					<path
   d="m 372.249,324.405 -4.807,-7.562 c -0.293,-0.448 -0.706,-1.172 -0.896,-1.481 0,0.447 0.018,2.118 0.018,2.79 v 6.254 h -1.758 v -12.059 h 1.844 l 4.582,7.355 c 0.311,0.5 0.827,1.396 0.999,1.706 0,-0.448 -0.017,-2.171 -0.017,-2.843 v -6.219 h 1.757 v 12.059 h -1.722 z"
   id="path63"
   style="fill:url(#SVGID_4_)" />
					<linearGradient
   x1="393.39111"
   y1="312.1572"
   x2="393.39111"
   y2="324.5947"
   id="SVGID_5_"
   gradientUnits="userSpaceOnUse">
						<stop
   id="stop66"
   style="stop-color:#0379a7;stop-opacity:1"
   offset="0" />
						<stop
   id="stop68"
   style="stop-color:#0378a6;stop-opacity:1"
   offset="0.0091" />
						<stop
   id="stop70"
   style="stop-color:#016494;stop-opacity:1"
   offset="0.34670001" />
						<stop
   id="stop72"
   style="stop-color:#00578a;stop-opacity:1"
   offset="0.6796" />
						<stop
   id="stop74"
   style="stop-color:#005386;stop-opacity:1"
   offset="1" />
					</linearGradient>
					<path
   d="m 393.443,324.595 c -1.947,0 -3.825,-0.638 -5.083,-1.464 l 1.619,-2.619 c 0.879,0.604 2.412,1.206 3.532,1.206 1.189,0 1.568,-0.207 1.568,-0.775 0,-0.447 -0.432,-0.724 -2.051,-1.103 -2.911,-0.672 -4.306,-1.464 -4.306,-3.876 0,-2.273 1.843,-3.807 4.753,-3.807 2.051,0 3.533,0.499 4.807,1.395 l -1.619,2.619 c -1.068,-0.724 -2.135,-1.138 -3.359,-1.138 -0.999,0 -1.24,0.311 -1.24,0.741 0,0.448 0.431,0.654 1.982,1.017 3.031,0.724 4.375,1.653 4.375,3.91 0.001,2.757 -2.083,3.894 -4.978,3.894 z"
   id="path76"
   style="fill:url(#SVGID_5_)" />
					<linearGradient
   x1="417.875"
   y1="312.34671"
   x2="417.875"
   y2="324.4053"
   id="SVGID_6_"
   gradientUnits="userSpaceOnUse">
						<stop
   id="stop79"
   style="stop-color:#0379a7;stop-opacity:1"
   offset="0" />
						<stop
   id="stop81"
   style="stop-color:#0378a6;stop-opacity:1"
   offset="0.0091" />
						<stop
   id="stop83"
   style="stop-color:#016494;stop-opacity:1"
   offset="0.34670001" />
						<stop
   id="stop85"
   style="stop-color:#00578a;stop-opacity:1"
   offset="0.6796" />
						<stop
   id="stop87"
   style="stop-color:#005386;stop-opacity:1"
   offset="1" />
					</linearGradient>
					<path
   d="m 419.754,324.405 v -4.755 h -3.756 v 4.755 h -3.412 v -12.059 h 3.412 v 4.393 h 3.756 v -4.393 h 3.41 v 12.059 h -3.41 z"
   id="path89"
   style="fill:url(#SVGID_6_)" />
					<linearGradient
   x1="439.4668"
   y1="312.34671"
   x2="439.4668"
   y2="324.4053"
   id="SVGID_7_"
   gradientUnits="userSpaceOnUse">
						<stop
   id="stop92"
   style="stop-color:#0379a7;stop-opacity:1"
   offset="0" />
						<stop
   id="stop94"
   style="stop-color:#0378a6;stop-opacity:1"
   offset="0.0091" />
						<stop
   id="stop96"
   style="stop-color:#016494;stop-opacity:1"
   offset="0.34670001" />
						<stop
   id="stop98"
   style="stop-color:#00578a;stop-opacity:1"
   offset="0.6796" />
						<stop
   id="stop100"
   style="stop-color:#005386;stop-opacity:1"
   offset="1" />
					</linearGradient>
					<path
   d="m 437.762,324.405 v -12.059 h 3.41 v 12.059 h -3.41 z"
   id="path102"
   style="fill:url(#SVGID_7_)" />
					<linearGradient
   x1="460.53909"
   y1="312.34671"
   x2="460.53909"
   y2="324.4053"
   id="SVGID_8_"
   gradientUnits="userSpaceOnUse">
						<stop
   id="stop105"
   style="stop-color:#0379a7;stop-opacity:1"
   offset="0" />
						<stop
   id="stop107"
   style="stop-color:#0378a6;stop-opacity:1"
   offset="0.0091" />
						<stop
   id="stop109"
   style="stop-color:#016494;stop-opacity:1"
   offset="0.34670001" />
						<stop
   id="stop111"
   style="stop-color:#00578a;stop-opacity:1"
   offset="0.6796" />
						<stop
   id="stop113"
   style="stop-color:#005386;stop-opacity:1"
   offset="1" />
					</linearGradient>
					<path
   d="m 459.092,315.188 v 1.671 h 3.773 v 2.825 h -3.773 v 4.721 h -3.324 v -12.059 h 9.543 v 2.842 h -6.219 z"
   id="path115"
   style="fill:url(#SVGID_8_)" />
					<linearGradient
   x1="483.71481"
   y1="312.34671"
   x2="483.71481"
   y2="324.4053"
   id="SVGID_9_"
   gradientUnits="userSpaceOnUse">
						<stop
   id="stop118"
   style="stop-color:#0379a7;stop-opacity:1"
   offset="0" />
						<stop
   id="stop120"
   style="stop-color:#0378a6;stop-opacity:1"
   offset="0.0091" />
						<stop
   id="stop122"
   style="stop-color:#016494;stop-opacity:1"
   offset="0.34670001" />
						<stop
   id="stop124"
   style="stop-color:#00578a;stop-opacity:1"
   offset="0.6796" />
						<stop
   id="stop126"
   style="stop-color:#005386;stop-opacity:1"
   offset="1" />
					</linearGradient>
					<path
   d="m 485.387,315.258 v 9.147 h -3.344 v -9.147 h -3.375 v -2.911 h 10.094 v 2.911 h -3.375 z"
   id="path128"
   style="fill:url(#SVGID_9_)" />
				</g>
			</g>
			<linearGradient
   x1="313.22409"
   y1="284.07321"
   x2="330.02689"
   y2="284.07321"
   id="SVGID_10_"
   gradientUnits="userSpaceOnUse">
				<stop
   id="stop131"
   style="stop-color:#0093d9;stop-opacity:1"
   offset="0" />
				<stop
   id="stop133"
   style="stop-color:#0091d6;stop-opacity:1"
   offset="0.245" />
				<stop
   id="stop135"
   style="stop-color:#0089cc;stop-opacity:1"
   offset="0.4307" />
				<stop
   id="stop137"
   style="stop-color:#007cbc;stop-opacity:1"
   offset="0.59670001" />
				<stop
   id="stop139"
   style="stop-color:#0069a5;stop-opacity:1"
   offset="0.75139999" />
				<stop
   id="stop141"
   style="stop-color:#005288;stop-opacity:1"
   offset="0.89670002" />
				<stop
   id="stop143"
   style="stop-color:#003d6e;stop-opacity:1"
   offset="1" />
			</linearGradient>
			<path
   d="M 313.224,294.797 V 273.35 l 16.803,3.266 -0.164,16.208 -16.639,1.973 z m 1.231,-19.954 v 18.568 l 14.19,-1.681 0.142,-14.103 -14.332,-2.784 z"
   id="path145"
   style="fill:url(#SVGID_10_)" />
			<linearGradient
   x1="328.64401"
   y1="281.02591"
   x2="347.24271"
   y2="281.02591"
   id="SVGID_11_"
   gradientUnits="userSpaceOnUse">
				<stop
   id="stop148"
   style="stop-color:#0093d9;stop-opacity:1"
   offset="0" />
				<stop
   id="stop150"
   style="stop-color:#0091d6;stop-opacity:1"
   offset="0.245" />
				<stop
   id="stop152"
   style="stop-color:#0089cc;stop-opacity:1"
   offset="0.4307" />
				<stop
   id="stop154"
   style="stop-color:#007cbc;stop-opacity:1"
   offset="0.59670001" />
				<stop
   id="stop156"
   style="stop-color:#0069a5;stop-opacity:1"
   offset="0.75139999" />
				<stop
   id="stop158"
   style="stop-color:#005288;stop-opacity:1"
   offset="0.89670002" />
				<stop
   id="stop160"
   style="stop-color:#003d6e;stop-opacity:1"
   offset="1" />
			</linearGradient>
			<path
   d="m 328.644,294.483 0.25,-26.915 18.349,8.127 -0.076,16.019 -0.555,0.104 -1.444,0.139 -16.524,2.526 z m 1.465,-25.032 -0.222,23.598 16.054,-2.401 0.065,-14.154 -15.897,-7.043 z"
   id="path162"
   style="fill:url(#SVGID_11_)" />
			<linearGradient
   x1="345.9292"
   y1="280.85889"
   x2="363.54251"
   y2="280.85889"
   id="SVGID_12_"
   gradientUnits="userSpaceOnUse">
				<stop
   id="stop165"
   style="stop-color:#0093d9;stop-opacity:1"
   offset="0" />
				<stop
   id="stop167"
   style="stop-color:#0091d6;stop-opacity:1"
   offset="0.245" />
				<stop
   id="stop169"
   style="stop-color:#0089cc;stop-opacity:1"
   offset="0.4307" />
				<stop
   id="stop171"
   style="stop-color:#007cbc;stop-opacity:1"
   offset="0.59670001" />
				<stop
   id="stop173"
   style="stop-color:#0069a5;stop-opacity:1"
   offset="0.75139999" />
				<stop
   id="stop175"
   style="stop-color:#005288;stop-opacity:1"
   offset="0.89670002" />
				<stop
   id="stop177"
   style="stop-color:#003d6e;stop-opacity:1"
   offset="1" />
			</linearGradient>
			<path
   d="m 345.929,295.05 0.123,-28.382 17.49,11.754 v 12.643 l -0.483,0.2 -17.13,3.785 z m 1.344,-26.079 -0.105,24.545 15.145,-3.346 v -11.091 l -15.04,-10.108 z"
   id="path179"
   style="fill:url(#SVGID_12_)" />
			<linearGradient
   x1="362.32571"
   y1="280.21191"
   x2="376.50339"
   y2="280.21191"
   id="SVGID_13_"
   gradientUnits="userSpaceOnUse">
				<stop
   id="stop182"
   style="stop-color:#0093d9;stop-opacity:1"
   offset="0" />
				<stop
   id="stop184"
   style="stop-color:#0091d6;stop-opacity:1"
   offset="0.245" />
				<stop
   id="stop186"
   style="stop-color:#0089cc;stop-opacity:1"
   offset="0.4307" />
				<stop
   id="stop188"
   style="stop-color:#007cbc;stop-opacity:1"
   offset="0.59670001" />
				<stop
   id="stop190"
   style="stop-color:#0069a5;stop-opacity:1"
   offset="0.75139999" />
				<stop
   id="stop192"
   style="stop-color:#005288;stop-opacity:1"
   offset="0.89670002" />
				<stop
   id="stop194"
   style="stop-color:#003d6e;stop-opacity:1"
   offset="1" />
			</linearGradient>
			<path
   d="m 362.326,294.929 v -29.434 l 14.178,17.474 v 5.951 l -14.178,6.009 z m 1.23,-25.962 v 24.104 l 11.717,-4.966 v -4.699 l -11.717,-14.439 z"
   id="path196"
   style="fill:url(#SVGID_13_)" />
			<linearGradient
   x1="452.80859"
   y1="293.37839"
   x2="471.80209"
   y2="274.38489"
   id="SVGID_14_"
   gradientUnits="userSpaceOnUse">
				<stop
   id="stop199"
   style="stop-color:#0093d9;stop-opacity:1"
   offset="0" />
				<stop
   id="stop201"
   style="stop-color:#0090d6;stop-opacity:1"
   offset="0.0162" />
				<stop
   id="stop203"
   style="stop-color:#0072b1;stop-opacity:1"
   offset="0.2172" />
				<stop
   id="stop205"
   style="stop-color:#005b93;stop-opacity:1"
   offset="0.41819999" />
				<stop
   id="stop207"
   style="stop-color:#004a7f;stop-opacity:1"
   offset="0.61690003" />
				<stop
   id="stop209"
   style="stop-color:#004072;stop-opacity:1"
   offset="0.81209999" />
				<stop
   id="stop211"
   style="stop-color:#003d6e;stop-opacity:1"
   offset="1" />
			</linearGradient>
			<polygon
   points="452.326,275.761 452.326,292.896 469.766,294.518 469.766,272.349 "
   id="polygon213"
   style="fill:url(#SVGID_14_)" />
			<linearGradient
   x1="434.08011"
   y1="292.8989"
   x2="453.36841"
   y2="273.6106"
   id="SVGID_15_"
   gradientUnits="userSpaceOnUse">
				<stop
   id="stop216"
   style="stop-color:#0093d9;stop-opacity:1"
   offset="0" />
				<stop
   id="stop218"
   style="stop-color:#0090d6;stop-opacity:1"
   offset="0.0162" />
				<stop
   id="stop220"
   style="stop-color:#0072b1;stop-opacity:1"
   offset="0.2172" />
				<stop
   id="stop222"
   style="stop-color:#005b93;stop-opacity:1"
   offset="0.41819999" />
				<stop
   id="stop224"
   style="stop-color:#004a7f;stop-opacity:1"
   offset="0.61690003" />
				<stop
   id="stop226"
   style="stop-color:#004072;stop-opacity:1"
   offset="0.81209999" />
				<stop
   id="stop228"
   style="stop-color:#003d6e;stop-opacity:1"
   offset="1" />
			</linearGradient>
			<polygon
   points="450.48,294.494 450.48,270.723 433.762,275.217 433.762,275.217 433.762,292.581 "
   id="polygon230"
   style="fill:url(#SVGID_15_)" />
			<linearGradient
   x1="415.5752"
   y1="292.7261"
   x2="435.50711"
   y2="272.79419"
   id="SVGID_16_"
   gradientUnits="userSpaceOnUse">
				<stop
   id="stop233"
   style="stop-color:#0093d9;stop-opacity:1"
   offset="0" />
				<stop
   id="stop235"
   style="stop-color:#0090d6;stop-opacity:1"
   offset="0.0162" />
				<stop
   id="stop237"
   style="stop-color:#0072b1;stop-opacity:1"
   offset="0.2172" />
				<stop
   id="stop239"
   style="stop-color:#005b93;stop-opacity:1"
   offset="0.41819999" />
				<stop
   id="stop241"
   style="stop-color:#004a7f;stop-opacity:1"
   offset="0.61690003" />
				<stop
   id="stop243"
   style="stop-color:#004072;stop-opacity:1"
   offset="0.81209999" />
				<stop
   id="stop245"
   style="stop-color:#003d6e;stop-opacity:1"
   offset="1" />
			</linearGradient>
			<polygon
   points="414.689,275.551 414.689,291.841 431.91,294.453 431.91,294.453 431.91,269.197 "
   id="polygon247"
   style="fill:url(#SVGID_16_)" />
			<linearGradient
   x1="398.31451"
   y1="292.47269"
   x2="417.49539"
   y2="273.29169"
   id="SVGID_17_"
   gradientUnits="userSpaceOnUse">
				<stop
   id="stop250"
   style="stop-color:#0093d9;stop-opacity:1"
   offset="0" />
				<stop
   id="stop252"
   style="stop-color:#0090d6;stop-opacity:1"
   offset="0.0162" />
				<stop
   id="stop254"
   style="stop-color:#0072b1;stop-opacity:1"
   offset="0.2172" />
				<stop
   id="stop256"
   style="stop-color:#005b93;stop-opacity:1"
   offset="0.41819999" />
				<stop
   id="stop258"
   style="stop-color:#004a7f;stop-opacity:1"
   offset="0.61690003" />
				<stop
   id="stop260"
   style="stop-color:#004072;stop-opacity:1"
   offset="0.81209999" />
				<stop
   id="stop262"
   style="stop-color:#003d6e;stop-opacity:1"
   offset="1" />
			</linearGradient>
			<polygon
   points="412.84,292.899 412.84,268.637 396.506,277.943 396.506,290.664 412.84,294.282 412.84,292.899 "
   id="polygon264"
   style="fill:url(#SVGID_17_)" />
			<linearGradient
   x1="384.22659"
   y1="291.43161"
   x2="401.1564"
   y2="274.5018"
   id="SVGID_18_"
   gradientUnits="userSpaceOnUse">
				<stop
   id="stop267"
   style="stop-color:#0093d9;stop-opacity:1"
   offset="0" />
				<stop
   id="stop269"
   style="stop-color:#0090d6;stop-opacity:1"
   offset="0.0162" />
				<stop
   id="stop271"
   style="stop-color:#0072b1;stop-opacity:1"
   offset="0.2172" />
				<stop
   id="stop273"
   style="stop-color:#005b93;stop-opacity:1"
   offset="0.41819999" />
				<stop
   id="stop275"
   style="stop-color:#004a7f;stop-opacity:1"
   offset="0.61690003" />
				<stop
   id="stop277"
   style="stop-color:#004072;stop-opacity:1"
   offset="0.81209999" />
				<stop
   id="stop279"
   style="stop-color:#003d6e;stop-opacity:1"
   offset="1" />
			</linearGradient>
			<polygon
   points="394.656,293.999 394.656,268.002 381.012,284.185 381.012,284.185 381.012,288.218 "
   id="polygon281"
   style="fill:url(#SVGID_18_)" />
			<g
   id="g283">
				<g
   id="g285">
					<linearGradient
   x1="375.3071"
   y1="279.47711"
   x2="378.7905"
   y2="279.47711"
   id="SVGID_19_"
   gradientUnits="userSpaceOnUse">
						<stop
   id="stop288"
   style="stop-color:#0093d9;stop-opacity:1"
   offset="0" />
						<stop
   id="stop290"
   style="stop-color:#0091d6;stop-opacity:1"
   offset="0.245" />
						<stop
   id="stop292"
   style="stop-color:#0089cc;stop-opacity:1"
   offset="0.4307" />
						<stop
   id="stop294"
   style="stop-color:#007cbc;stop-opacity:1"
   offset="0.59670001" />
						<stop
   id="stop296"
   style="stop-color:#0069a5;stop-opacity:1"
   offset="0.75139999" />
						<stop
   id="stop298"
   style="stop-color:#005288;stop-opacity:1"
   offset="0.89670002" />
						<stop
   id="stop300"
   style="stop-color:#003d6e;stop-opacity:1"
   offset="1" />
					</linearGradient>
					<path
   d="m 378.783,287.896 -0.021,-2.907 -3.455,-20.251 v 15.977 3.206 1.304 0.364 0.515 0.305 0.123 0.166 0.111 0.555 0.242 0.036 0.075 0.016 0.183 0.196 0.145 0.105 0.037 0.464 4.068 1.285 l 0.508,-0.868 c 0,0 2.874,-4.641 2.976,-4.939 -0.002,-0.173 -0.004,-0.341 -0.008,-0.513 z m -0.956,0.127 -1.319,2.27 V 277.6 l 1.319,7.885 v 2.538 z"
   id="path302"
   style="fill:url(#SVGID_19_)" />
				</g>
			</g>
		</g>
	</g>
	<g
   id="g304">
		<g
   id="g306">
			<path
   d="m 492.428,320.759 v 2.988 h -0.609 v -2.988 h -1.021 v -0.602 h 2.652 v 0.602 h -1.022 z m 4.246,2.988 v -1.896 c 0,-0.127 0,-0.282 0,-0.409 -0.045,0.108 -0.1,0.236 -0.145,0.354 l -0.895,2.061 -0.873,-2.061 c -0.047,-0.118 -0.102,-0.246 -0.146,-0.346 0.01,0.127 0.01,0.283 0.01,0.4 v 1.896 h -0.584 v -3.59 h 0.611 l 0.811,1.858 c 0.064,0.155 0.137,0.355 0.191,0.492 0.055,-0.146 0.127,-0.328 0.191,-0.492 l 0.793,-1.858 h 0.619 v 3.59 h -0.583 z"
   id="path308"
   style="fill:#003d6e" />
		</g>
	</g>
	<g
   id="g310">
		<g
   id="g312">
			<g
   id="g314">
				<g
   id="g316">
					<path
   d="m 392.49,341.68 h -1.754 v 2.838 h -0.805 v -7.221 h 2.703 c 1.308,0 2.3,0.691 2.3,2.155 0,1.434 -1.002,2.228 -2.444,2.228 z m 0.112,-3.651 h -1.866 v 2.918 h 1.764 c 1.104,0 1.63,-0.504 1.63,-1.464 -10e-4,-0.927 -0.538,-1.454 -1.528,-1.454 z m 6.511,6.489 v -0.66 c -0.383,0.412 -0.918,0.773 -1.691,0.773 -0.845,0 -1.732,-0.424 -1.732,-1.733 0,-1.218 1,-1.731 2.072,-1.731 0.547,0 1.033,0.133 1.352,0.309 v -0.641 c 0,-0.804 -0.383,-1.196 -1.176,-1.196 -0.566,0 -1.031,0.155 -1.475,0.413 l -0.288,-0.629 c 0.475,-0.258 1.115,-0.434 1.816,-0.434 1.164,0 1.896,0.495 1.896,1.754 v 3.775 h -0.774 z m 0,-2.424 c -0.35,-0.195 -0.732,-0.311 -1.393,-0.311 -0.793,0 -1.268,0.382 -1.268,1.062 0,0.805 0.443,1.156 1.104,1.156 0.701,0 1.229,-0.361 1.557,-0.814 v -1.093 z m 5.668,2.424 v -0.66 c -0.383,0.412 -0.92,0.773 -1.693,0.773 -0.844,0 -1.732,-0.424 -1.732,-1.733 0,-1.218 1,-1.731 2.072,-1.731 0.547,0 1.033,0.133 1.354,0.309 v -0.641 c 0,-0.804 -0.383,-1.196 -1.178,-1.196 -0.566,0 -1.031,0.155 -1.475,0.413 l -0.289,-0.629 c 0.475,-0.258 1.113,-0.434 1.816,-0.434 1.166,0 1.896,0.495 1.896,1.754 v 3.775 h -0.771 z m 0,-2.424 c -0.354,-0.195 -0.734,-0.311 -1.393,-0.311 -0.795,0 -1.271,0.382 -1.271,1.062 0,0.805 0.443,1.156 1.105,1.156 0.701,0 1.229,-0.361 1.559,-0.814 v -1.093 z m 4.694,2.537 c -0.98,0 -1.855,-0.424 -2.422,-1.001 l 0.535,-0.599 c 0.547,0.526 1.176,0.867 1.92,0.867 0.957,0 1.557,-0.475 1.557,-1.237 0,-0.671 -0.402,-1.054 -1.723,-1.527 -1.557,-0.557 -2.084,-1.062 -2.084,-2.103 0,-1.156 0.906,-1.848 2.26,-1.848 0.969,0 1.588,0.288 2.197,0.773 l -0.516,0.629 c -0.525,-0.434 -1.012,-0.67 -1.734,-0.67 -0.99,0 -1.402,0.494 -1.402,1.062 0,0.598 0.268,0.938 1.713,1.454 1.6,0.577 2.092,1.113 2.092,2.187 -10e-4,1.135 -0.886,2.013 -2.393,2.013 z m 9.164,0 c -0.68,0 -1.145,-0.289 -1.525,-0.723 v 0.609 h -0.773 v -7.087 l 0.773,-0.433 v 2.765 c 0.381,-0.413 0.896,-0.774 1.631,-0.774 1.082,0 1.938,0.825 1.938,2.734 -10e-4,1.919 -0.91,2.909 -2.044,2.909 z m -0.092,-4.972 c -0.578,0 -1.053,0.31 -1.434,0.784 v 2.702 c 0.299,0.453 0.826,0.815 1.465,0.815 0.896,0 1.34,-0.773 1.34,-2.229 0,-1.36 -0.516,-2.072 -1.371,-2.072 z m 4.974,6.766 h -0.773 l 0.742,-1.97 -1.928,-5.353 h 0.814 l 1.32,3.929 0.184,0.557 0.188,-0.547 1.33,-3.938 h 0.814 l -2.691,7.322 z m 10.35,-5.043 1.588,3.136 h -0.928 l -1.549,-3.074 h -1.711 v 3.074 h -0.805 v -7.221 h 2.857 c 1.27,0 2.248,0.65 2.248,2.043 10e-4,1.125 -0.669,1.826 -1.7,2.042 z m -0.578,-3.353 h -2.021 v 2.691 h 1.92 c 1.072,0 1.576,-0.443 1.576,-1.351 0,-0.886 -0.516,-1.34 -1.475,-1.34 z m 7.771,4.043 h -3.609 c 0.07,1.155 0.619,1.889 1.504,1.889 0.631,0 1,-0.188 1.496,-0.517 l 0.361,0.558 c -0.65,0.411 -1.125,0.629 -1.939,0.629 -0.988,0 -2.195,-0.723 -2.195,-2.848 0,-1.723 0.947,-2.795 2.236,-2.795 1.414,0 2.178,1.113 2.178,2.662 0,0.185 -0.012,0.299 -0.032,0.422 z m -2.156,-2.413 c -0.805,0 -1.361,0.577 -1.453,1.784 h 2.918 c -0.062,-1.052 -0.516,-1.784 -1.465,-1.784 z m 7.018,4.859 v -0.66 c -0.383,0.412 -0.898,0.773 -1.631,0.773 -1.082,0 -1.939,-0.825 -1.939,-2.732 0,-1.92 0.906,-2.91 2.043,-2.91 0.68,0 1.145,0.289 1.527,0.723 v -2.28 l 0.771,-0.433 v 7.52 h -0.771 z m 0,-4.044 c -0.301,-0.454 -0.826,-0.814 -1.465,-0.814 -0.896,0 -1.342,0.773 -1.342,2.228 0,1.361 0.516,2.074 1.371,2.074 0.58,0 1.053,-0.311 1.436,-0.785 v -2.703 z m 9.865,4.044 v -3.404 h -3.59 v 3.404 h -0.805 v -7.221 h 0.805 v 3.084 h 3.59 v -3.084 h 0.803 v 7.221 h -0.803 z m 5.82,0 v -0.66 c -0.381,0.412 -0.918,0.773 -1.691,0.773 -0.846,0 -1.732,-0.424 -1.732,-1.733 0,-1.218 0.998,-1.731 2.072,-1.731 0.547,0 1.031,0.133 1.352,0.309 v -0.641 c 0,-0.804 -0.381,-1.196 -1.176,-1.196 -0.568,0 -1.031,0.155 -1.475,0.413 l -0.289,-0.629 c 0.475,-0.258 1.113,-0.434 1.814,-0.434 1.166,0 1.898,0.495 1.898,1.754 v 3.775 h -0.773 z m 0,-2.424 c -0.35,-0.195 -0.732,-0.311 -1.393,-0.311 -0.795,0 -1.27,0.382 -1.27,1.062 0,0.805 0.445,1.156 1.105,1.156 0.701,0 1.227,-0.361 1.557,-0.814 v -1.093 z m 3.551,-2.342 v 3.527 c 0,0.484 0.135,0.649 0.549,0.649 0.307,0 0.514,-0.052 0.76,-0.155 l -0.051,0.672 c -0.299,0.123 -0.588,0.186 -1,0.186 -0.67,0 -1.029,-0.33 -1.029,-1.228 v -3.651 h -0.672 v -0.649 h 0.672 v -1.672 l 0.771,-0.433 v 2.104 h 1.342 v 0.649 h -1.342 z m 9.492,4.879 c -1.762,0 -2.918,-1.6 -2.918,-3.714 0,-2.146 1.207,-3.733 2.951,-3.733 0.99,0 1.732,0.371 2.301,1.154 l -0.641,0.484 c -0.465,-0.627 -0.898,-0.906 -1.682,-0.906 -1.238,0 -2.125,1.229 -2.125,2.98 0,1.765 0.92,3.002 2.135,3.002 0.783,0 1.32,-0.352 1.785,-0.949 l 0.557,0.484 c -0.525,0.713 -1.308,1.198 -2.363,1.198 z m 3.936,-0.113 v -7.087 l 0.771,-0.433 v 7.52 h -0.771 z m 4.683,0.113 c -1.32,0 -2.33,-0.98 -2.33,-2.816 0,-1.836 1.051,-2.826 2.371,-2.826 1.32,0 2.332,0.949 2.332,2.785 0,1.836 -1.052,2.857 -2.373,2.857 z m 0.02,-4.972 c -0.938,0 -1.566,0.712 -1.566,2.135 0,1.423 0.629,2.167 1.566,2.167 0.941,0 1.58,-0.744 1.58,-2.167 0,-1.423 -0.639,-2.135 -1.58,-2.135 z m 7.244,4.859 v -0.66 c -0.309,0.453 -0.814,0.773 -1.494,0.773 -1.145,0 -1.898,-0.67 -1.898,-2.229 v -3.3 h 0.773 v 3.165 c 0,1.166 0.412,1.693 1.279,1.693 0.754,0 1.34,-0.506 1.34,-1.693 v -3.165 h 0.773 v 5.415 h -0.773 z m 5.873,0 v -0.66 c -0.381,0.412 -0.896,0.773 -1.629,0.773 -1.084,0 -1.939,-0.825 -1.939,-2.732 0,-1.92 0.908,-2.91 2.041,-2.91 0.682,0 1.146,0.289 1.527,0.723 v -2.28 l 0.775,-0.433 v 7.52 h -0.775 z m 0,-4.044 c -0.299,-0.454 -0.826,-0.814 -1.465,-0.814 -0.896,0 -1.342,0.773 -1.342,2.228 0,1.361 0.518,2.074 1.373,2.074 0.578,0 1.053,-0.311 1.434,-0.785 v -2.703 z"
   id="path318"
   style="fill:#003d6e" />
				</g>
			</g>
			<g
   id="g320">
				<g
   id="g322">
					<path
   d="m 468.539,339.24 c -0.777,0 -1.369,-0.553 -1.369,-1.368 0,-0.815 0.592,-1.369 1.369,-1.369 0.777,0 1.367,0.554 1.367,1.369 0,0.815 -0.59,1.368 -1.367,1.368 z m 0,-2.562 c -0.672,0 -1.184,0.489 -1.184,1.194 0,0.705 0.512,1.194 1.184,1.194 0.67,0 1.184,-0.489 1.184,-1.194 0,-0.705 -0.514,-1.194 -1.184,-1.194 z m 0.258,1.277 0.336,0.648 h -0.234 l -0.326,-0.633 h -0.326 v 0.633 h -0.201 v -1.513 h 0.615 c 0.273,0 0.484,0.137 0.484,0.437 0,0.227 -0.137,0.379 -0.348,0.428 z m -0.149,-0.685 h -0.402 v 0.512 h 0.379 c 0.217,0 0.32,-0.08 0.32,-0.254 0,-0.172 -0.107,-0.258 -0.297,-0.258 z"
   id="path324"
   style="fill:#003d6e" />
				</g>
			</g>
		</g>
	</g>
</g>
</svg>