<?xml version="1.0" encoding="UTF-8" standalone="no"?>
<!-- Created with Inkscape (http://www.inkscape.org/) -->

<svg
   xmlns:dc="http://purl.org/dc/elements/1.1/"
   xmlns:cc="http://creativecommons.org/ns#"
   xmlns:rdf="http://www.w3.org/1999/02/22-rdf-syntax-ns#"
   xmlns:svg="http://www.w3.org/2000/svg"
   xmlns="http://www.w3.org/2000/svg"
   version="1.1"
   width="175"
   height="200"
   id="svg3909"
   xml:space="preserve"><metadata
     id="metadata3915"><rdf:RDF><cc:Work
         rdf:about=""><dc:format>image/svg+xml</dc:format><dc:type
           rdf:resource="http://purl.org/dc/dcmitype/StillImage" /><dc:title></dc:title></cc:Work></rdf:RDF></metadata><defs
     id="defs3913"><clipPath
       id="clipPath3923"><path
         d="M 0,768 1024,768 1024,0 0,0 0,768 z"
         id="path3925" /></clipPath><clipPath
       id="clipPath3979"><path
         d="M 0,768 1024,768 1024,0 0,0 0,768 z"
         id="path3981" /></clipPath><clipPath
       id="clipPath3979-0"><path
         d="M 0,768 1024,768 1024,0 0,0 0,768 z"
         id="path3981-0" /></clipPath><clipPath
       id="clipPath3966"><rect
         width="252"
         height="20"
         x="792"
         y="-684"
         transform="scale(1,-1)"
         id="rect3968"
         style="fill:#e0e1dd;fill-opacity:1;stroke:none" /></clipPath><clipPath
       id="clipPath3978"><rect
         width="252"
         height="28"
         x="792"
         y="-664"
         transform="scale(1,-1)"
         id="rect3980"
         style="fill:#bcbdbc;fill-opacity:1;stroke:none" /></clipPath><clipPath
       id="clipPath3979-1"><path
         d="M 0,768 1024,768 1024,0 0,0 0,768 z"
         id="path3981-3" /></clipPath><clipPath
       id="clipPath355"><path
         d="M 0,792 612,792 612,0 0,0 0,792 z"
         id="path357" /></clipPath><clipPath
       id="clipPath369"><path
         d="m 56.975,20.648 278.442,0 0,36.036 -278.442,0 0,-36.036 z"
         id="path371" /></clipPath><clipPath
       id="clipPath549"><path
         d="m 58,549.09 137.837,0 0,44.253 -137.837,0 0,-44.253 z"
         id="path551" /></clipPath><clipPath
       id="clipPath613"><path
         d="m 58,415.177 49.184,0 0,58.147 -49.184,0 0,-58.147 z"
         id="path615" /></clipPath><clipPath
       id="clipPath731"><path
         d="m 135.716,436.992 132.466,0 0,28.517 -132.466,0 0,-28.517 z"
         id="path733" /></clipPath><clipPath
       id="clipPath857"><path
         d="m 135.716,298.062 241.617,0 0,28.517 -241.617,0 0,-28.517 z"
         id="path859" /></clipPath><clipPath
       id="clipPath1009"><path
         d="m 58,269.682 49.184,0 0,67.277 -49.184,0 0,-67.277 z"
         id="path1011" /></clipPath><clipPath
       id="clipPath1165"><path
         d="m 135.716,154.451 197.392,0 0,28.517 -197.392,0 0,-28.517 z"
         id="path1167" /></clipPath><clipPath
       id="clipPath1305"><path
         d="m 57.975,128.071 49.184,0 0,67.278 -49.184,0 0,-67.278 z"
         id="path1307" /></clipPath></defs><g
     transform="matrix(0.90075641,0,0,-0.90075641,-50.840916,648.10452)"
     id="g3917"><g
       id="g6610"><g
         transform="translate(-189.13862,237.44066)"
         clip-path="url(#clipPath3923)"
         id="g3921"><g
           transform="translate(304.9634,416.0308)"
           id="g3927"><path
             d="m 0,0 -25.748,-9.369 c 0.33,-4.128 1.041,-8.206 2.042,-12.201 L 0.75,-12.664 C -0.043,-8.529 -0.326,-4.268 0,0"
             id="path3929"
             style="fill:#c32034;fill-opacity:1;fill-rule:nonzero;stroke:none" /></g><g
           transform="translate(418.7466,444.5015)"
           id="g3931"><path
             d="M 0,0 C -1.795,3.704 -3.873,7.284 -6.279,10.657 L -32.02,1.288 c 2.995,-3.064 5.508,-6.508 7.563,-10.191 L 0,0 z"
             id="path3933"
             style="fill:#c32034;fill-opacity:1;fill-rule:nonzero;stroke:none" /></g><g
           transform="translate(362.1055,451.793)"
           id="g3935"><path
             d="m 0,0 c 5.356,-2.499 9.995,-5.908 13.907,-9.906 l 25.742,9.37 C 32.519,9.469 22.807,17.83 10.906,23.383 c -36.797,17.159 -80.702,1.18 -97.861,-35.613 -5.553,-11.907 -7.617,-24.556 -6.648,-36.801 l 25.745,9.368 c 0.427,5.578 1.789,11.167 4.284,16.526 C -52.424,0.772 -23.906,11.146 0,0"
             id="path3937"
             style="fill:#db212f;fill-opacity:1;fill-rule:nonzero;stroke:none" /></g><g
           transform="translate(282.8599,395.0469)"
           id="g3939"><path
             d="m 0,0 -24.46,-8.909 c 2.248,-8.918 6.145,-17.391 11.502,-24.932 L 12.73,-24.49 C 6.135,-17.719 1.751,-9.153 0,0"
             id="path3941"
             style="fill:#ea2227;fill-opacity:1;fill-rule:nonzero;stroke:none" /></g><g
           transform="translate(389.5596,404.7539)"
           id="g3943"><path
             d="m 0,0 c -0.409,-5.575 -1.817,-11.167 -4.319,-16.53 -11.15,-23.91 -39.668,-34.285 -63.574,-23.136 -5.363,2.501 -10.035,5.883 -13.936,9.888 l -25.687,-9.352 c 7.113,-10.006 16.816,-18.369 28.721,-23.926 36.799,-17.156 80.698,-1.177 97.857,35.619 5.557,11.905 7.608,24.549 6.626,36.785 L 0,0 z"
             id="path3945"
             style="fill:#db212f;fill-opacity:1;fill-rule:nonzero;stroke:none" /></g><g
           transform="translate(395.8906,436.1816)"
           id="g3947"><path
             d="m 0,0 -24.458,-8.903 c 4.542,-8.139 6.689,-17.513 5.986,-26.938 l 25.688,9.345 C 6.481,-17.277 4.021,-8.279 0,0"
             id="path3949"
             style="fill:#ea2227;fill-opacity:1;fill-rule:nonzero;stroke:none" /></g><g
           transform="translate(279.2158,406.6621)"
           id="g3951"><path
             d="M 0,0 25.684,9.263 25.579,4.183 0.799,-5.03 0,0 z"
             id="path3953"
             style="fill:#ad213a;fill-opacity:1;fill-rule:nonzero;stroke:none" /></g><g
           transform="translate(386.7266,445.8594)"
           id="g3955"><path
             d="M 0,0 26.085,8.814 28.797,4.786 3.452,-4.035 0,0 z"
             id="path3957"
             style="fill:#ad213a;fill-opacity:1;fill-rule:nonzero;stroke:none" /></g><g
           transform="translate(282.0435,365.709)"
           id="g3959"><path
             d="M 0,0 25.716,9.213 33.493,1.988 6.526,-7.979 0,0 z"
             id="path3961"
             style="fill:#ba2034;fill-opacity:1;fill-rule:nonzero;stroke:none" /></g><g
           transform="translate(415.6782,414.0278)"
           id="g3963"><path
             d="M 0,0 -26.119,-9.274 -28.043,-19.567 -0.195,-9.796 0,0 z"
             id="path3965"
             style="fill:#ba2034;fill-opacity:1;fill-rule:nonzero;stroke:none" /></g></g><path
         d="m 248.95043,546.4701 c -0.069,0.0613 -0.17237,0.0919 -0.31027,0.0919 l -0.56693,0 0,-0.72397 0.53245,0 c 0.30261,0 0.45201,0.11875 0.45201,0.36007 0,0.12258 -0.0345,0.21068 -0.10726,0.27197 m 0.25665,-0.67035 c -0.0881,-0.10342 -0.20685,-0.17237 -0.35624,-0.21068 l 0.47498,-0.9155 -0.33325,0 -0.45967,0.89252 -0.45967,0 0,-0.89252 -0.28729,0 0,2.14128 0.86954,0 c 0.19536,0 0.35624,-0.0498 0.49031,-0.14939 0.13024,-0.0996 0.19536,-0.25665 0.19536,-0.46733 0,-0.16088 -0.0421,-0.29495 -0.13407,-0.39838 m 0.82357,0.59757 c -0.0881,0.20685 -0.20685,0.38305 -0.35625,0.53245 -0.14939,0.14939 -0.32559,0.2643 -0.52861,0.34475 -0.20685,0.0843 -0.42519,0.1264 -0.66269,0.1264 -0.23366,0 -0.45583,-0.0421 -0.65885,-0.1264 -0.20302,-0.0804 -0.37923,-0.19536 -0.53245,-0.34475 -0.14939,-0.1494 -0.26431,-0.3256 -0.35241,-0.53245 -0.0843,-0.21068 -0.12641,-0.44051 -0.12641,-0.6895 0,-0.24899 0.0421,-0.47882 0.12641,-0.68567 0.0881,-0.20685 0.20302,-0.38688 0.35241,-0.53244 0.15322,-0.1494 0.32943,-0.26431 0.53245,-0.34858 0.20302,-0.0843 0.42519,-0.12258 0.65885,-0.12258 0.2375,0 0.45584,0.0383 0.66269,0.12258 0.20302,0.0843 0.37922,0.19918 0.52861,0.34858 0.1494,0.14556 0.26814,0.32559 0.35625,0.53244 0.0843,0.20685 0.1264,0.43668 0.1264,0.68567 0,0.24899 -0.0421,0.47882 -0.1264,0.6895 m 0.24515,-1.48242 c -0.0996,-0.23367 -0.23749,-0.43669 -0.40987,-0.60906 -0.17237,-0.16854 -0.37922,-0.29878 -0.61289,-0.39455 -0.23749,-0.0919 -0.49414,-0.1379 -0.76994,-0.1379 -0.2758,0 -0.52861,0.046 -0.76611,0.1379 -0.23749,0.0958 -0.44051,0.22601 -0.61289,0.39455 -0.17237,0.17237 -0.31027,0.37539 -0.40986,0.60906 -0.0996,0.24132 -0.1494,0.50563 -0.1494,0.79292 0,0.29112 0.0498,0.55543 0.1494,0.79292 0.0996,0.2375 0.23749,0.44052 0.40986,0.60906 0.17238,0.17238 0.3754,0.30262 0.61289,0.39838 0.2375,0.0919 0.49031,0.1379 0.76611,0.1379 0.2758,0 0.53245,-0.046 0.76994,-0.1379 0.23367,-0.0958 0.44052,-0.226 0.61289,-0.39838 0.17238,-0.16854 0.31028,-0.37156 0.40987,-0.60906 0.0958,-0.23749 0.14556,-0.5018 0.14556,-0.79292 0,-0.28729 -0.0498,-0.5516 -0.14556,-0.79292"
         id="path689"
         style="fill:#231f20;fill-opacity:1;fill-rule:nonzero;stroke:none" /><path
         d="m 242.4268,544.89304 0,2.45328 -16.93112,0 0,-2.45328 7.11798,0 0,-21.73404 2.69516,0 0,21.73404 7.11798,0 z m -20.20775,0 0,2.45328 -14.20142,0 0,-24.18732 2.69516,0 0,11.26438 6.63424,0 0,2.45329 -6.63424,0 0,8.01637 11.50626,0 z m -20.71418,-21.73404 0,24.18732 -2.69516,0 0,-24.18732 2.69516,0 z m -9.20846,0 0,24.18732 -2.69516,0 0,-10.33144 -12.02455,0 0,10.33144 -2.69516,0 0,-24.18732 2.69516,0 0,11.40259 12.02455,0 0,-11.40259 2.69516,0 z m -23.00549,6.35781 q 0,1.34758 -0.34553,2.38418 -0.34554,1.0366 -1.17482,1.90043 -0.79472,0.86383 -2.1423,1.58945 -1.34758,0.72562 -3.35167,1.45124 -1.83133,0.65652 -2.97159,1.20937 -1.10571,0.55285 -1.72767,1.1057 -0.62196,0.58741 -0.82927,1.17482 -0.20732,0.62196 -0.20732,1.38213 0,0.72562 0.24187,1.34758 0.27642,0.65651 0.82928,1.14026 0.5874,0.48375 1.48579,0.76017 0.89839,0.31098 2.14231,0.31098 1.83132,0 3.14435,-0.5874 1.34758,-0.55286 2.6606,-1.65856 l 1.72767,2.10775 q -1.52035,1.20937 -3.24801,1.90043 -1.69311,0.69107 -4.11185,0.69107 -1.69311,0 -3.1098,-0.41464 -1.38213,-0.41464 -2.38417,-1.24392 -0.9675,-0.79473 -1.52035,-1.93499 -0.55285,-1.14026 -0.55285,-2.5915 0,-1.31302 0.34553,-2.31507 0.38009,-1.00205 1.17481,-1.83132 0.82928,-0.79473 2.14231,-1.52035 1.34758,-0.69107 3.31712,-1.38213 1.65856,-0.58741 2.76426,-1.17482 1.10571,-0.55285 1.76222,-1.14026 0.69107,-0.5874 0.9675,-1.27847 0.27642,-0.69107 0.27642,-1.52035 0,-1.93498 -1.41668,-3.04069 -1.38214,-1.1057 -3.80087,-1.1057 -1.86588,0 -3.45533,0.79472 -1.58945,0.79473 -2.97159,2.10775 l -1.79677,-2.00409 q 1.45124,-1.45124 3.52444,-2.41873 2.10775,-0.93294 4.59559,-0.93294 1.90043,0 3.38623,0.5183 1.48579,0.5183 2.52239,1.41669 1.0366,0.89838 1.5549,2.1423 0.55285,1.24392 0.55285,2.66061 z m -21.11532,-6.35781 0,24.18732 -4.76836,0 0,-10.22778 q 0,-0.5183 0,-1.27847 0.0345,-0.76018 0.0345,-1.5549 0,-0.76018 0,-1.45124 0.0346,-0.65652 0.0346,-1.00205 -0.24188,0.48375 -0.76018,1.24392 -0.48374,0.79473 -0.93294,1.48579 l -8.56922,12.78473 -4.63015,0 0,-24.18732 4.76836,0 0,10.64242 q 0,0.5183 -0.0345,1.27847 0,0.76018 0,1.52035 0,0.79473 -0.0345,1.45124 0,0.69106 0,1.0366 0.24187,-0.48375 0.72562,-1.27847 0.5183,-0.76018 0.96749,-1.45124 l 8.8802,-13.19937 4.31908,0 z m -24.75368,0 0,4.7338 -12.47375,0 0,5.83951 6.94522,0 0,4.69925 -6.94522,0 0,4.18096 11.95545,0 0,4.7338 -16.79291,0 0,-24.18732 17.31121,0 z m -21.89601,16.51648 q 0,1.93499 -0.65651,3.35168 -0.65651,1.45124 -1.796771,2.41873 -1.140259,0.96749 -2.660606,1.41669 -1.520346,0.48374 -3.213459,0.48374 l -10.573316,0 0,-24.18732 4.837465,0 0,8.56922 5.321212,0 q 1.865879,0 3.455332,0.44919 1.624006,0.4492 2.798819,1.41669 1.174814,0.96749 1.831324,2.45329 0.65651,1.52034 0.65651,3.62809 z m -4.975673,-0.10366 q 0,-3.14435 -3.455333,-3.14435 l -5.632191,0 0,6.2196 5.563085,0 q 1.624006,0 2.556946,-0.76017 0.967493,-0.72562 0.967493,-2.31508 z m -18.788368,-4.28461 q 0,2.93703 -0.794727,5.21755 -0.760173,2.31508 -2.176859,3.90453 -1.382133,1.62401 -3.351672,2.45329 -1.934986,0.86383 -4.284612,0.86383 -2.384179,0 -4.353719,-0.86383 -1.969539,-0.86384 -3.386225,-2.48784 -1.416686,-1.58946 -2.211413,-3.90453 -0.760173,-2.31507 -0.760173,-5.2521 0,-2.93704 0.760173,-5.25211 0.794727,-2.28052 2.176859,-3.90452 1.416687,-1.58946 3.351673,-2.45329 1.969539,-0.82928 4.353718,-0.82928 2.349626,0 4.319165,0.86383 1.96954,0.86384 3.386226,2.45329 1.416686,1.62401 2.176859,3.93908 0.794727,2.31507 0.794727,5.2521 z m -4.975679,-0.0691 q 0,-3.69721 -1.554899,-5.66675 -1.520346,-1.96954 -4.077292,-1.96954 -2.556946,0 -4.146399,2.00409 -1.589453,2.0041 -1.589453,5.7013 0,3.69721 1.520347,5.66675 1.554899,1.96954 4.111845,1.96954 2.556946,0 4.146398,-2.0041 1.589453,-2.00409 1.589453,-5.70129 z"
         id="path6598"
         style="font-size:34.55332184px;font-style:normal;font-variant:normal;font-weight:normal;font-stretch:normal;text-align:center;line-height:125%;writing-mode:lr-tb;text-anchor:middle;color:#000000;fill:#000000;fill-opacity:1;fill-rule:evenodd;stroke:none;stroke-width:6;marker:none;visibility:visible;font-family:Interstate-Light;-inkscape-font-specification:Interstate-Light" /><path
         d="m 111.97773,507.99756 c -0.82357,0 -1.54371,-0.55543 -1.99955,-1.12618 l 0,-3.71564 c 0.38689,-0.51712 1.19513,-1.15682 2.0685,-1.15682 1.2411,0 1.91527,0.93848 1.91527,2.80396 0,2.22172 -0.70482,3.19468 -1.98422,3.19468 m 0.23749,-7.59981 c -0.89251,0 -1.7314,0.47116 -2.22171,1.01126 l 0,-0.82356 -1.71226,0 0,11.36141 1.71226,0.89252 0,-4.26724 c 0.6397,0.58608 1.37899,1.02276 2.30216,1.02276 1.89995,0 3.39769,-1.379 3.39769,-4.74222 0,-3.02231 -1.64713,-4.45493 -3.47814,-4.45493"
         id="path693"
         style="fill:#231f20;fill-opacity:1;fill-rule:nonzero;stroke:none" /><path
         d="m 120.36701,497.4758 -1.831,0 1.27557,3.27895 -3.24448,8.65704 1.89996,0 1.44411,-4.32086 c 0.27197,-0.77377 0.67418,-2.08382 0.77378,-2.57413 0.15322,0.52479 0.52095,1.78504 0.79292,2.53966 l 1.49391,4.35533 1.83101,0 -4.43578,-11.93599 z"
         id="path697"
         style="fill:#231f20;fill-opacity:1;fill-rule:nonzero;stroke:none" /><path
         d="m 136.11555,510.68699 -3.42834,0 0,-3.78075 3.42834,0 c 1.17598,0 1.99955,0.60522 1.99955,1.8808 0,1.2296 -0.80442,1.89995 -1.99955,1.89995 m 1.19513,-5.29382 2.40176,-4.80734 -2.0302,0 -2.34046,4.65412 -2.65457,0 0,-4.65412 -1.73141,0 0,11.76745 5.15975,0 c 2.04934,0 3.78075,-1.09554 3.78075,-3.51645 0,-1.8808 -0.98828,-3.04145 -2.58562,-3.44366"
         id="path701"
         style="fill:#231f20;fill-opacity:1;fill-rule:nonzero;stroke:none" /><path
         d="m 145.04227,508.03242 c -1.16066,0 -1.86548,-0.80825 -2.01487,-2.21789 l 4.09869,0 c -0.0843,1.21046 -0.65502,2.21789 -2.08382,2.21789 m 3.78075,-3.65051 -5.83009,0 c 0.18386,-1.69311 1.1415,-2.41708 2.21788,-2.41708 0.7393,0 1.32921,0.26814 1.91528,0.70482 l 1.02659,-1.11086 c -0.77377,-0.7393 -1.69694,-1.16066 -3.04146,-1.16066 -2.0685,0 -3.81523,1.66629 -3.81523,4.59283 0,2.99166 1.57819,4.60432 3.86503,4.60432 2.50518,0 3.71563,-2.03402 3.71563,-4.42045 0,-0.32177 -0.0345,-0.60523 -0.0536,-0.79292"
         id="path705"
         style="fill:#231f20;fill-opacity:1;fill-rule:nonzero;stroke:none" /><path
         d="m 156.12137,506.83997 c -0.38689,0.52095 -1.1913,1.15683 -2.0685,1.15683 -1.24493,0 -1.9191,-0.94232 -1.9191,-2.80397 0,-2.22172 0.70482,-3.19468 1.98805,-3.19468 0.82357,0 1.54755,0.5516 1.99955,1.12619 l 0,3.71563 z m -0.0191,-6.25146 0,0.83889 c -0.63587,-0.5899 -1.37517,-1.02658 -2.29833,-1.02658 -1.90379,0 -3.3977,1.37899 -3.3977,4.73839 0,3.02613 1.64714,4.45493 3.48197,4.45493 0.88869,0 1.73141,-0.46733 2.21406,-1.00744 l 0,3.35939 1.71608,0.89252 0,-12.2501 -1.71613,0 z"
         id="path709"
         style="fill:#231f20;fill-opacity:1;fill-rule:nonzero;stroke:none" /><path
         d="m 171.87182,500.58659 0,5.27467 -5.41257,0 0,-5.27467 -1.76588,0 0,11.76745 1.76588,0 0,-4.76137 5.41257,0 0,4.76137 1.76205,0 0,-11.76745 -1.76205,0 z"
         id="path713"
         style="fill:#231f20;fill-opacity:1;fill-rule:nonzero;stroke:none" /><path
         d="m 181.26854,504.35088 c -0.47116,0.23749 -1.07638,0.38689 -2.01487,0.38689 -1.11086,0 -1.81951,-0.50564 -1.81951,-1.31005 0,-0.8772 0.55926,-1.46327 1.70076,-1.46327 0.92317,0 1.73141,0.57075 2.13362,1.12618 l 0,1.26025 z m 0,-3.76543 0,0.87336 c -0.60523,-0.60139 -1.46327,-1.06106 -2.42091,-1.06106 -1.42879,0 -3.05678,0.80825 -3.05678,2.98017 0,1.96507 1.51307,2.85376 3.51262,2.85376 0.82357,0 1.47476,-0.11875 1.96507,-0.33326 l 0,0.65503 c 0,0.95763 -0.5899,1.49774 -1.66246,1.49774 -0.90784,0 -1.61266,-0.16854 -2.30216,-0.55543 l -0.67418,1.31005 c 0.84273,0.52095 1.78121,0.78909 3.02614,0.78909 1.96507,0 3.30959,-0.95763 3.30959,-2.95718 l 0,-6.05227 -1.69693,0 z"
         id="path717"
         style="fill:#231f20;fill-opacity:1;fill-rule:nonzero;stroke:none" /><path
         d="m 189.43911,500.80532 c -0.42136,-0.23749 -1.01127,-0.40604 -1.70076,-0.40604 -1.22578,0 -1.9804,0.75845 -1.9804,2.33664 l 0,5.09463 -1.26025,0 0,1.58202 1.26025,0 0,2.5205 1.69694,0.90401 0,-3.42451 2.18341,0 0,-1.58202 -2.18341,0 0,-4.79202 c 0,-0.81974 0.26813,-1.05723 0.90784,-1.05723 0.452,0 0.95763,0.16854 1.27557,0.35241 l -0.19919,-1.52839 z"
         id="path721"
         style="fill:#231f20;fill-opacity:1;fill-rule:nonzero;stroke:none" /><path
         d="m 193.56231,511.2608 c -0.0536,0.046 -0.13024,0.0689 -0.23366,0.0689 l -0.42903,0 0,-0.54394 0.40604,0 c 0.22601,0 0.33709,0.0881 0.33709,0.26814 0,0.0919 -0.0268,0.16088 -0.0804,0.20685 m 0.19153,-0.5018 c -0.0651,-0.0804 -0.15706,-0.13407 -0.26814,-0.16089 l 0.36007,-0.68949 -0.25282,0 -0.34475,0.67417 -0.34858,0 0,-0.67417 -0.21068,0 0,1.60883 0.6512,0 c 0.14556,0 0.26814,-0.0345 0.36773,-0.11109 0.0996,-0.0766 0.14939,-0.19153 0.14939,-0.35241 0,-0.11875 -0.0345,-0.21834 -0.10342,-0.29495 m 0.62055,0.44434 c -0.0651,0.15705 -0.15706,0.29112 -0.26814,0.40221 -0.11109,0.11109 -0.24516,0.19919 -0.39838,0.26048 -0.15322,0.0613 -0.32177,0.0919 -0.49797,0.0919 -0.17621,0 -0.34092,-0.0306 -0.49414,-0.0919 -0.15322,-0.0613 -0.28729,-0.14939 -0.40221,-0.26048 -0.11109,-0.11109 -0.19919,-0.24516 -0.26431,-0.40221 -0.0651,-0.15705 -0.0958,-0.32943 -0.0958,-0.51712 0,-0.1877 0.0306,-0.35624 0.0958,-0.51713 0.0651,-0.15322 0.15322,-0.28729 0.26431,-0.39837 0.11492,-0.11109 0.24899,-0.19919 0.40221,-0.26048 0.15322,-0.0613 0.31793,-0.0919 0.49414,-0.0919 0.1762,0 0.34475,0.0306 0.49797,0.0919 0.15322,0.0613 0.28729,0.14939 0.39838,0.26048 0.11108,0.11108 0.20302,0.24515 0.26814,0.39837 0.0651,0.16089 0.0958,0.32943 0.0958,0.51713 0,0.18769 -0.0306,0.36007 -0.0958,0.51712 m 0.18003,-1.11086 c -0.0728,-0.1762 -0.17237,-0.32943 -0.30261,-0.45966 -0.13407,-0.12641 -0.28729,-0.22601 -0.4635,-0.29496 -0.1762,-0.069 -0.37156,-0.10725 -0.57841,-0.10725 -0.20685,0 -0.39838,0.0383 -0.57458,0.10725 -0.17621,0.0689 -0.33326,0.16855 -0.4635,0.29496 -0.13024,0.13023 -0.23366,0.28346 -0.30644,0.45966 -0.0728,0.18004 -0.11109,0.37923 -0.11109,0.59374 0,0.21834 0.0383,0.41753 0.11109,0.59756 0.0728,0.18004 0.1762,0.32943 0.30644,0.45967 0.13024,0.12641 0.28729,0.226 0.4635,0.29495 0.1762,0.0728 0.36773,0.10726 0.57458,0.10726 0.20685,0 0.40221,-0.0345 0.57841,-0.10726 0.17621,-0.069 0.32943,-0.16854 0.4635,-0.29495 0.13024,-0.13024 0.22983,-0.27963 0.30261,-0.45967 0.0766,-0.18003 0.11492,-0.37922 0.11492,-0.59756 0,-0.21451 -0.0383,-0.4137 -0.11492,-0.59374"
         id="path725"
         style="fill:#231f20;fill-opacity:1;fill-rule:nonzero;stroke:none" /></g><g
       transform="translate(115.82478,378.47146)"
       id="g5723" /><g
       transform="translate(93.72128,357.48756)"
       id="g5735" /></g></svg>