<?xml version="1.0" encoding="UTF-8" standalone="no"?>
<!-- Created with Inkscape (http://www.inkscape.org/) -->

<svg
   xmlns:svg="http://www.w3.org/2000/svg"
   xmlns="http://www.w3.org/2000/svg"
   version="1.1"
   width="300"
   height="104.99999"
   id="svg2881"
   xml:space="preserve"><defs
     id="defs2885"><clipPath
       id="clipPath2901"><path
         d="m 277.789,320.074 -63.067,16.901 -16.896,63.067 46.168,46.168 63.064,-16.9 16.899,-63.068 -46.168,-46.168 z"
         id="path2903" /></clipPath><radialGradient
       cx="0"
       cy="0"
       r="1"
       fx="0"
       fy="0"
       id="radialGradient2909"
       gradientUnits="userSpaceOnUse"
       gradientTransform="matrix(47.727615,0,0,-47.727615,302.44238,325.19336)"
       spreadMethod="pad"><stop
         id="stop2911"
         style="stop-color:#317abe;stop-opacity:1"
         offset="0" /><stop
         id="stop2913"
         style="stop-color:#ffffff;stop-opacity:1"
         offset="1" /></radialGradient><clipPath
       id="clipPath2921"><path
         d="m 277.789,320.074 -63.067,16.901 -16.896,63.067 46.168,46.168 63.064,-16.9 16.899,-63.068 -46.168,-46.168 z"
         id="path2923" /></clipPath><radialGradient
       cx="0"
       cy="0"
       r="1"
       fx="0"
       fy="0"
       id="radialGradient2929"
       gradientUnits="userSpaceOnUse"
       gradientTransform="matrix(47.727615,0,0,-47.727615,302.44238,325.19336)"
       spreadMethod="pad"><stop
         id="stop2931"
         style="stop-color:#ffffff;stop-opacity:1"
         offset="0" /><stop
         id="stop2933"
         style="stop-color:#f1f1f2;stop-opacity:1"
         offset="1" /></radialGradient><clipPath
       id="clipPath2941"><path
         d="M 197.825,400.042 214.722,336.974 277.12,320.254 262.501,346 c -10.769,-0.782 -21.844,2.691 -30.47,10.56 l 0,0 c -12.607,11.487 -16.37,29.04 -10.889,44.074 l 0,0 29.777,-27.144 c 0,0 7.401,2.559 12.94,8.635 l 0,0 c 5.537,6.077 7.409,13.681 7.409,13.681 l 0,0 -29.927,27.288 c 14.556,7.134 32.641,5.096 45.39,-6.529 l 0,0 c 14.341,-13.073 17.236,-33.981 8.098,-50.117 l 0,0 10.623,-18.71 18.505,18.504 -16.899,63.068 -63.064,16.9 -46.169,-46.168 z"
         id="path2943" /></clipPath><radialGradient
       cx="0"
       cy="0"
       r="1"
       fx="0"
       fy="0"
       id="radialGradient2949"
       gradientUnits="userSpaceOnUse"
       gradientTransform="matrix(139.4928,0,0,-139.4928,243.94531,418.18945)"
       spreadMethod="pad"><stop
         id="stop2951"
         style="stop-color:#ffffff;stop-opacity:1"
         offset="0" /><stop
         id="stop2953"
         style="stop-color:#317abe;stop-opacity:1"
         offset="1" /></radialGradient><clipPath
       id="clipPath2961"><path
         d="M 0,612 792,612 792,0 0,0 0,612 z"
         id="path2963" /></clipPath></defs><g
     transform="matrix(1.25,0,0,-1.25,-237.88301,491.65399)"
     id="g2891"><g
       transform="matrix(0.57961104,0,0,0.58003195,201.31206,322.11963)"
       id="g2893"><path
         d="m 0,0 -18.988,70.874 51.883,51.884 70.873,-18.993 18.99,-70.874 L 73.732,-16.135 70.875,-18.994 0,0 z"
         id="path2895"
         style="fill:#317abe;fill-opacity:1;fill-rule:nonzero;stroke:none" /></g><g
       transform="matrix(0.57961104,0,0,0.58003195,80.002707,129.90586)"
       id="g2897"><g
         clip-path="url(#clipPath2901)"
         id="g2899"><g
           id="g2905"><g
             id="g2907"><path
               d="m 277.789,320.074 -63.067,16.901 -16.896,63.067 46.168,46.168 63.064,-16.9 16.899,-63.068 -46.168,-46.168 z"
               id="path2915"
               style="fill:url(#radialGradient2909);stroke:none" /></g></g></g></g><g
       transform="matrix(0.57961104,0,0,0.58003195,80.002707,129.90586)"
       id="g2917"><g
         clip-path="url(#clipPath2921)"
         id="g2919"><g
           id="g2925"><g
             id="g2927"><path
               d="m 277.789,320.074 -63.067,16.901 -16.896,63.067 46.168,46.168 63.064,-16.9 16.899,-63.068 -46.168,-46.168 z"
               id="path2935"
               style="fill:url(#radialGradient2929);stroke:none" /></g></g></g></g><g
       transform="matrix(0.57961104,0,0,0.58003195,80.002707,129.90586)"
       id="g2937"><g
         clip-path="url(#clipPath2941)"
         id="g2939"><g
           id="g2945"><g
             id="g2947"><path
               d="M 197.825,400.042 214.722,336.974 277.12,320.254 262.501,346 c -10.769,-0.782 -21.844,2.691 -30.47,10.56 l 0,0 c -12.607,11.487 -16.37,29.04 -10.889,44.074 l 0,0 29.777,-27.144 c 0,0 7.401,2.559 12.94,8.635 l 0,0 c 5.537,6.077 7.409,13.681 7.409,13.681 l 0,0 -29.927,27.288 c 14.556,7.134 32.641,5.096 45.39,-6.529 l 0,0 c 14.341,-13.073 17.236,-33.981 8.098,-50.117 l 0,0 10.623,-18.71 18.505,18.504 -16.899,63.068 -63.064,16.9 -46.169,-46.168 z"
               id="path2955"
               style="fill:url(#radialGradient2949);stroke:none" /></g></g></g></g><g
       transform="matrix(0.57961104,0,0,0.58003195,80.002707,129.90586)"
       id="g2957"><g
         clip-path="url(#clipPath2961)"
         id="g2959"><g
           transform="translate(259.2437,428.2314)"
           id="g2965"><path
             d="m 0,0 c -6.34,0 -12.683,-1.466 -18.342,-4.24 l -1.32,-0.647 1.086,-0.989 29.471,-26.873 c -0.548,-1.837 -2.578,-7.81 -7.019,-12.684 -4.442,-4.873 -10.204,-7.441 -11.982,-8.154 l -29.322,26.729 -1.102,1.004 -0.511,-1.401 c -5.818,-15.956 -1.439,-33.681 11.155,-45.155 7.726,-7.048 17.733,-10.929 28.176,-10.929 0.799,0 1.606,0.024 2.408,0.069 l 15.65,-27.532 0.64,-1.127 0.928,0.906 28.259,27.597 0.552,0.539 -0.381,0.671 -11.613,20.437 c 4.366,7.968 5.997,17.303 4.597,26.355 -1.452,9.379 -6.129,18.079 -13.169,24.497 C 20.434,-3.881 10.433,0 0,0 m 0,-1 c 9.806,0 19.654,-3.523 27.487,-10.666 14.342,-13.074 17.237,-33.981 8.099,-50.118 L 47.477,-82.71 19.217,-110.308 3.258,-82.231 c -0.988,-0.072 -1.977,-0.108 -2.968,-0.108 -9.811,0 -19.667,3.521 -27.503,10.668 -12.607,11.486 -16.37,29.04 -10.889,44.073 l 29.778,-27.143 c 0,0 7.4,2.558 12.939,8.635 5.537,6.077 7.409,13.68 7.409,13.68 L -17.902,-5.138 C -12.291,-2.387 -6.153,-1 0,-1"
             id="path2967"
             style="fill:#317abe;fill-opacity:1;fill-rule:nonzero;stroke:none" /></g><g
           transform="translate(367.2686,411.1436)"
           id="g2969"><path
             d="m 0,0 c 0,-7.705 -3.456,-13.825 -11.809,-13.825 -1.584,0 -3.672,0.288 -5.184,0.864 l 0,4.393 c 1.296,-0.649 3.24,-0.936 4.68,-0.936 5.544,0 7.345,4.392 7.345,9.36 l 0,37.443 4.968,0 L 0,0 z"
             id="path2971"
             style="fill:#317abe;fill-opacity:1;fill-rule:nonzero;stroke:none" /></g><g
           transform="translate(381.2358,426.481)"
           id="g2973"><path
             d="m 0,0 5.544,0 c 5.257,0 12.242,1.368 12.242,9.361 0,7.273 -6.697,8.281 -10.946,8.281 L 0,17.642 0,0 z m -0.144,-23.978 5.185,0 c 6.696,0 14.256,1.8 14.256,9.793 0,8.929 -7.704,9.865 -15.049,9.865 l -4.392,0 0,-19.658 z m -4.968,45.94 11.952,0 c 8.209,0 15.914,-2.736 15.914,-12.385 0,-6.409 -2.953,-10.225 -9.145,-11.449 l 0,-0.144 c 6.337,-1.152 10.657,-5.329 10.657,-11.953 0,-10.945 -8.929,-14.329 -19.37,-14.329 l -10.008,0 0,50.26 z"
             id="path2975"
             style="fill:#317abe;fill-opacity:1;fill-rule:nonzero;stroke:none" /></g><g
           transform="translate(427.5322,401.207)"
           id="g2977"><path
             d="m 0,0 c 7.921,0 12.169,6.84 12.169,15.337 0,8.497 -4.248,15.337 -12.169,15.337 -7.921,0 -12.169,-6.84 -12.169,-15.337 C -12.169,6.84 -7.921,0 0,0 m 0,34.563 c 11.882,0 17.138,-9.217 17.138,-19.226 C 17.138,5.328 11.882,-3.889 0,-3.889 c -11.881,0 -17.138,9.217 -17.138,19.226 0,10.009 5.257,19.226 17.138,19.226"
             id="path2979"
             style="fill:#317abe;fill-opacity:1;fill-rule:nonzero;stroke:none" /></g><g
           transform="translate(447.5469,403.5112)"
           id="g2981"><path
             d="m 0,0 c 2.736,-1.368 6.049,-2.304 9.576,-2.304 4.32,0 8.137,2.376 8.137,6.552 0,8.713 -17.641,7.345 -17.641,18.002 0,7.272 5.905,10.009 11.953,10.009 1.944,0 5.832,-0.432 9.073,-1.656 l -0.432,-3.961 c -2.377,1.08 -5.617,1.728 -8.137,1.728 -4.68,0 -7.921,-1.44 -7.921,-6.12 0,-6.841 18.074,-5.977 18.074,-18.002 0,-7.776 -7.273,-10.441 -12.817,-10.441 -3.529,0 -7.056,0.432 -10.297,1.729 L 0,0 z"
             id="path2983"
             style="fill:#317abe;fill-opacity:1;fill-rule:nonzero;stroke:none" /></g><g
           transform="translate(472.6738,403.5112)"
           id="g2985"><path
             d="m 0,0 c 2.736,-1.368 6.049,-2.304 9.578,-2.304 4.32,0 8.137,2.376 8.137,6.552 0,8.713 -17.643,7.345 -17.643,18.002 0,7.272 5.905,10.009 11.953,10.009 1.944,0 5.832,-0.432 9.073,-1.656 l -0.432,-3.961 c -2.377,1.08 -5.617,1.728 -8.137,1.728 -4.679,0 -7.92,-1.44 -7.92,-6.12 0,-6.841 18.073,-5.977 18.073,-18.002 0,-7.776 -7.272,-10.441 -12.817,-10.441 -3.529,0 -7.056,0.432 -10.297,1.729 L 0,0 z"
             id="path2987"
             style="fill:#317abe;fill-opacity:1;fill-rule:nonzero;stroke:none" /></g><g
           transform="translate(372.3726,380.1206)"
           id="g2989"><path
             d="m 0,0 -23.599,0 0,12.979 63.719,0 0,-12.979 -23.6,0 0,-69.382 -16.52,0 L 0,0 z"
             id="path2991"
             style="fill:#4a5d75;fill-opacity:1;fill-rule:nonzero;stroke:none" /></g><g
           transform="translate(431.627,321.5942)"
           id="g2993"><path
             d="m 0,0 c 12.154,0 15.34,10.855 15.34,21.003 0,9.322 -4.955,18.054 -15.34,18.054 -10.266,0 -15.221,-8.968 -15.221,-18.054 C -15.221,10.974 -12.035,0 0,0 m 0,51.329 c 18.055,0 31.859,-12.154 31.859,-32.213 0,-17.464 -11.681,-31.387 -31.859,-31.387 -20.059,0 -31.74,13.923 -31.74,31.387 0,20.059 13.804,32.213 31.74,32.213"
             id="path2995"
             style="fill:#4a5d75;fill-opacity:1;fill-rule:nonzero;stroke:none" /></g><g
           transform="translate(499.0039,321.5942)"
           id="g2997"><path
             d="m 0,0 c 12.154,0 15.34,10.855 15.34,21.003 0,9.322 -4.955,18.054 -15.34,18.054 -10.266,0 -15.221,-8.968 -15.221,-18.054 C -15.221,10.974 -12.035,0 0,0 m 0,51.329 c 18.055,0 31.859,-12.154 31.859,-32.213 0,-17.464 -11.681,-31.387 -31.859,-31.387 -20.059,0 -31.74,13.923 -31.74,31.387 0,20.059 13.804,32.213 31.74,32.213"
             id="path2999"
             style="fill:#4a5d75;fill-opacity:1;fill-rule:nonzero;stroke:none" /></g><path
           d="m 536.529,399.236 15.811,0 0,-88.497 -15.811,0 0,88.497 z"
           id="path3001"
           style="fill:#4a5d75;fill-opacity:1;fill-rule:nonzero;stroke:none" /><g
           transform="translate(600.3652,358.7632)"
           id="g3003"><path
             d="m 0,0 c -4.838,1.652 -8.377,2.596 -14.16,2.596 -4.248,0 -9.32,-1.534 -9.32,-6.726 0,-9.676 27.492,-3.54 27.492,-25.487 0,-14.159 -12.625,-19.823 -25.487,-19.823 -6.017,0 -12.154,1.062 -17.935,2.595 l 0.943,12.98 c 4.955,-2.478 10.149,-4.012 15.576,-4.012 4.012,0 10.383,1.534 10.383,7.434 0,11.918 -27.492,3.776 -27.492,25.723 0,13.098 11.445,18.88 23.834,18.88 7.434,0 12.271,-1.181 17.229,-2.243 L 0,0 z"
             id="path3005"
             style="fill:#4a5d75;fill-opacity:1;fill-rule:nonzero;stroke:none" /></g></g></g></g></svg>