<?xml version="1.0" encoding="utf-8"?>
<!-- Generator: Adobe Illustrator 13.0.2, SVG Export Plug-In  -->
<!DOCTYPE svg PUBLIC "-//W3C//DTD SVG 1.1//EN" "http://www.w3.org/Graphics/SVG/1.1/DTD/svg11.dtd" [
	<!ENTITY ns_flows "http://ns.adobe.com/Flows/1.0/">
]>
<svg version="1.1"
	 xmlns="http://www.w3.org/2000/svg" xmlns:xlink="http://www.w3.org/1999/xlink" xmlns:a="http://ns.adobe.com/AdobeSVGViewerExtensions/3.0/"
	 x="0px" y="0px" width="450px" height="135px" viewBox="-0.713 -0.771 450 135" enable-background="new -0.713 -0.771 450 135"
	 xml:space="preserve">
<defs>
</defs>
<path fill="#4A5D75" d="M122.598,63.873h14.993c7.423,0,10.915,1.162,13.899,3.129c4.001,2.693,6.697,7.278,6.697,12.952
	c0,5.679-2.696,10.261-6.697,12.956c-2.984,1.962-6.477,3.129-13.899,3.129h-9.604v21.684h-5.388V63.873z M127.986,91.165h7.785
	c5.751,0,7.714,0,10.773-1.385c4.218-1.965,6.259-5.751,6.259-9.826c0-4.071-2.041-7.857-6.259-9.823
	c-3.059-1.383-5.021-1.383-10.773-1.383h-7.785V91.165z"/>
<path fill="#4A5D75" d="M161.291,77.919h5.092v5.747h0.146c2.403-5.603,6.915-6.476,11.209-6.769v5.387
	c-3.568,0.289-6.623,1.604-8.59,3.931c-1.744,2.184-2.765,5.02-2.765,8.222v23.286h-5.092V77.919z"/>
<path fill="#4A5D75" d="M186.45,110.353c5.901,5.092,15.715,4.365,21.072-1.284c4.9-5.382,5.341-12.086,3.001-16.812l3.708-3.905
	c3.851,7.466,2.975,17.164-3.33,23.816c-7.662,8.081-20.821,8.843-29.376,0.734c-8.187-7.764-8.792-20.875-0.989-29.422
	c6.06-6.286,14.066-7.217,19.61-5.874c4.967,1,8.591,3.629,11.238,6.446L186.45,110.353z M204.503,84.646
	c-7.912-5.296-16.238-2.655-20.592,1.94c-4.306,4.539-6.6,13.1-0.788,20.613L204.503,84.646z"/>
<path fill="#4A5D75" d="M223.167,105.937c0.144,7.566,5.312,8.149,7.136,8.149c4.799,0,7.418-2.838,7.418-7.131
	c0-5.461-4.947-6.697-7.932-7.935c-4.078-1.382-10.551-3.564-10.551-11.062c0-5.602,4.003-11.061,11.352-11.061
	c5.967,0,10.914,4.586,10.84,10.845h-5.09c-0.365-4.876-3.713-6.259-5.971-6.259c-4.072,0-6.038,3.274-6.038,5.964
	c0,4.225,4.219,5.679,7.131,6.627c4.654,1.53,11.35,4.073,11.35,12.297c0.072,6.84-4.076,12.297-12.51,12.297
	c-5.538,0-12.448-3.782-12.231-12.731H223.167z"/>
<path fill="#4A5D75" d="M249.113,105.937c0.148,7.566,5.311,8.149,7.131,8.149c4.803,0,7.424-2.838,7.424-7.131
	c0-5.461-4.953-6.697-7.934-7.935c-4.076-1.382-10.551-3.564-10.551-11.062c0-5.602,4.004-11.061,11.348-11.061
	c5.971,0,10.922,4.586,10.846,10.845h-5.092c-0.369-4.876-3.713-6.259-5.967-6.259c-4.076,0-6.039,3.274-6.039,5.964
	c0,4.225,4.219,5.679,7.133,6.627c4.654,1.53,11.348,4.073,11.348,12.297c0.074,6.84-4.074,12.297-12.516,12.297
	c-5.531,0-12.447-3.782-12.229-12.731H249.113z"/>
<path fill="#231F20" d="M322.99,71.76c10.619,12.043,7.82,28.808-1.406,38.307c-11.207,11.537-29.475,11.646-40.123,1.3
	c-10.021-9.734-11.93-27.718,0.092-40.091c9.938-10.233,23.322-9.91,28.709-7.619l-4.359,4.485
	c-5.941-1.503-14.564,0.058-20.801,6.482c-9.484,9.756-8.445,24.566,0.164,32.93c8.617,8.366,23.342,8.876,32.977-1.042
	c7.957-8.194,7.785-20.13,3.727-26.71l-20.941,21.556l-3.494-3.397L322.99,71.76z"/>
<path fill="#231F20" d="M370.271,117.727h-5.1v-6.984h-0.141c-4.371,6.547-11.357,7.93-15.504,7.93
	c-12.514,0-21.395-9.53-21.395-20.957c0-10.626,8.369-20.813,21.395-20.813c4.293,0,11.279,1.384,15.504,8.009h0.141v-6.988h5.1
	V117.727z M349.527,114.09c8.584,0,15.939-6.913,15.939-16.229c0-8.732-6.768-16.374-15.939-16.374
	c-8.732,0-16.301,6.332-16.301,16.445C333.227,106.812,339.773,114.09,349.527,114.09z"/>
<path fill="#231F20" d="M372.641,77.922h5.1v5.095h0.145c1.525-2.404,5.457-6.115,12.225-6.115c4.877,0,8.949,1.237,12.59,4.876
	c2.982,2.911,4.949,7.499,4.949,14.047v21.902h-5.092V95.824c0-5.165-1.602-8.805-3.787-10.914c-2.766-2.695-6.404-3.424-8.66-3.424
	s-5.895,0.729-8.66,3.424c-2.182,2.109-3.785,5.749-3.709,10.914v21.902h-5.1V77.922z"/>
<path fill="#231F20" d="M443.627,78.079h5.125v31.715c0,5.584-0.453,9.671-1.355,12.258c-1.236,3.655-3.391,6.477-6.459,8.446
	c-3.066,1.979-6.754,2.965-11.064,2.965c-3.158,0-5.992-0.481-8.51-1.445c-2.512-0.97-4.559-2.267-6.139-3.892
	c-1.574-1.627-3.031-4.006-4.363-7.137h5.143c1.398,2.634,3.207,4.583,5.424,5.854c2.211,1.267,4.953,1.896,8.229,1.896
	c3.229,0,5.953-0.646,8.18-1.947c2.225-1.303,3.811-2.933,4.758-4.904c0.947-1.969,1.033-5.148,1.033-9.53v-2.053
	c-1.926,2.442-4.279,4.313-7.064,5.614c-2.781,1.312-5.738,1.958-8.861,1.958c-3.662,0-7.104-0.908-10.324-2.723
	c-3.227-1.817-5.713-4.264-7.473-7.335c-1.76-3.075-2.637-6.449-2.637-10.132c0-3.686,0.918-7.121,2.748-10.301
	c1.832-3.183,4.361-5.699,7.598-7.553c3.232-1.856,6.646-2.779,10.238-2.779c2.973,0,5.754,0.614,8.326,1.844
	c2.576,1.232,5.061,3.263,7.449,6.093V78.079z M428.521,81.99c-2.902,0-5.6,0.701-8.08,2.104c-2.492,1.406-4.441,3.341-5.855,5.818
	c-1.416,2.478-2.121,5.152-2.121,8.029c0,4.365,1.461,7.978,4.387,10.831c2.93,2.853,6.719,4.278,11.377,4.278
	c4.709,0,8.496-1.414,11.359-4.243c2.869-2.83,4.299-6.549,4.299-11.158c0-2.999-0.658-5.676-1.975-8.026
	c-1.316-2.355-3.186-4.216-5.6-5.584C433.9,82.675,431.305,81.99,428.521,81.99z"/>
<path fill="#B0C2CC" d="M99.229,19.601c-33.593-24.719-73.365-5.087-73.365-5.087l1.426,15.613l2.66,1.004
	c-0.305-3.227-0.369-5.497-0.369-5.497l0.374-2.987l-0.374,2.987c0,0,0.063,2.27,0.369,5.497l10.175,3.841L99.229,19.601z"/>
<path fill="#5A6D82" d="M103.875,60.722c-0.258-5.748-3.89-10.894-3.913-21.736c-0.022-9.367-6.045-13.719-6.045-13.719
	c-12.092-4.788-29.776-4.05-29.776-4.05l-0.684,0.012c0,0-17.7-0.083-29.605,5.149c0,0-2.226,1.753-3.849,5.302
	c0.591,5.915,1.98,14.63,5.179,18.844c5.102,6.72,7.277,13.333,7.277,13.333L42.4,64.586l0.059-0.729c0,0-2.175-6.613-7.277-13.333
	c-3.199-4.214-4.588-12.929-5.179-18.844c-1,2.189-1.773,5.058-1.649,8.63c0.376,10.837-3.027,16.112-3.073,21.865
	c-0.045,5.752,0.833,12.144,3.618,14.887l71.912-1.331C103.492,72.888,104.132,66.468,103.875,60.722z"/>
<path fill="#4A5D75" d="M27.971,39.959c0.002,0.119,0.005,0.241,0.01,0.365c0.01,0.258,0.015,0.519,0.02,0.774
	c0.195,10.275-3.033,15.313-3.092,21.074c-0.004,0.46-0.004,0.926,0.005,1.394c0.113,5.402,1.016,11.062,3.723,13.76l0.522-0.531
	c-2.424-2.351-3.415-7.918-3.5-13.242c-0.008-0.46-0.009-0.92-0.004-1.376c0.024-5.47,3.28-10.656,3.092-21.092
	c-0.005-0.26-0.012-0.523-0.021-0.789c-0.005-0.118-0.007-0.233-0.009-0.35c-0.058-3.087,0.564-5.287,1.404-7.155
	c-0.071-0.637-0.133-1.25-0.188-1.83C28.822,33.182,27.903,36.166,27.971,39.959z"/>
<polygon fill="#4A5D75" points="101.079,75.986 101.082,75.986 101.081,75.984 "/>
<path fill="#4A5D75" d="M104.291,62.098c-0.01-0.467-0.025-0.934-0.044-1.392c-0.274-5.753-3.72-10.667-3.905-20.942
	c-0.006-0.26-0.009-0.519-0.009-0.776c0-0.124-0.003-0.244-0.004-0.363c-0.178-9.312-6.133-13.607-6.166-13.638l-0.049-0.042
	l-0.06-0.025c-10.494-4.148-25.03-4.172-28.934-4.103c-0.64,0.011-0.993,0.027-0.996,0.027l-0.674,0.012
	c0.007,0-0.347-0.002-0.987,0.009c-3.905,0.077-18.43,0.635-28.762,5.171l-0.061,0.026l-0.046,0.044
	c-0.018,0.02-2.044,1.624-3.661,4.854c0.054,0.58,0.116,1.193,0.188,1.83c0.382-0.851,0.81-1.631,1.238-2.396
	c1.233-2.195,2.471-3.463,2.708-3.705c10.121-4.432,24.557-5.011,28.409-5.08c0.632-0.012,0.978-0.009,0.978-0.009l0.693-0.012
	c0.009,0,0.352-0.016,0.985-0.028c3.851-0.074,18.301-0.027,28.584,4.027c0.109,0.103,0.415,0.393,0.84,0.876
	c1.626,1.844,4.902,5.438,5.025,12.174c0.002,0.116,0.004,0.232,0.006,0.35c-0.001,0.264,0.003,0.528,0.008,0.79
	c0.197,10.433,3.677,15.497,3.906,20.959c0.02,0.453,0.035,0.913,0.043,1.374c0.111,5.321-0.674,10.926-3.007,13.364l0.542,0.509
	C103.682,73.192,104.375,67.502,104.291,62.098z"/>
<path fill="#4A5D75" d="M97.992,63.049l-55.551,1.028L42.4,64.586l0.041-0.509l-11.196,0.206c0,0-2.117,16.965-6.707,23.459
	l4.526,6.489c0,0,2.031,3.084,6.257,1.526c4.225-1.556,11.632-3.667,11.549,0.115c-0.033,1.512-2.479,4.102-5.022,7.117
	c-3.813,4.526-8.247,9.783-8.307,11.947c-0.098,3.607-0.428,3.792,0.125,6.666c0.552,2.874,16.729,7.983,31.391,7.712l1.581-0.03
	c14.66-0.27,30.638-5.973,31.084-8.864c0.448-2.893,0.111-3.067-0.121-6.668c-0.131-2.017-4.12-6.743-7.937-10.882
	c-3-3.252-6.02-6.016-6.118-7.677c-0.221-3.774,7.258-1.94,11.537-0.542c4.28,1.4,6.197-1.757,6.197-1.757l4.283-6.652
	C100.736,79.924,97.992,63.049,97.992,63.049z"/>
<path fill="#4A5D75" d="M105.857,86.018c-2.349-3.064-4.25-8.848-5.529-13.834c-1.285-4.992-1.967-9.186-1.969-9.194l-0.736,0.118
	c0.016,0.028,2.657,16.517,7.483,23.15l-4.142,6.438c-0.006,0.007-0.066,0.108-0.213,0.286c-0.446,0.536-1.567,1.618-3.476,1.654
	c-0.606,0.011-1.296-0.081-2.079-0.339c-2.469-0.805-5.973-1.758-8.567-1.715c-0.949,0.021-1.788,0.168-2.432,0.556
	c-0.649,0.386-1.059,1.079-1.032,1.951c0.001,0.04,0.003,0.089,0.009,0.146c0.167,2.135,4.978,6.022,7.979,9.72
	c3.009,3.622,5.992,7.335,6.035,8.824c0.143,2.199,0.321,3.139,0.34,4.126c0.01,0.64-0.042,1.326-0.215,2.452
	c-0.008,0.404-1.002,1.366-2.767,2.265c-5.28,2.8-17.002,6.058-27.919,6.256l-1.58,0.029c-7.281,0.136-14.962-1.071-20.873-2.663
	c-2.954-0.798-5.468-1.69-7.256-2.555c-1.801-0.836-2.83-1.76-2.854-2.164c-0.216-1.115-0.292-1.803-0.304-2.44
	c-0.021-0.989,0.125-1.932,0.188-4.136c-0.015-1.49,2.83-5.311,5.703-9.042c2.865-3.804,7.5-7.866,7.589-10.027
	c0-0.046,0.001-0.088,0-0.126c-0.006-0.875-0.44-1.552-1.103-1.913c-0.659-0.367-1.502-0.48-2.452-0.464
	c-2.594,0.051-6.061,1.136-8.495,2.03c-0.775,0.287-1.46,0.403-2.066,0.414c-1.275,0.023-2.207-0.429-2.835-0.889
	c-0.312-0.233-0.545-0.463-0.698-0.636c-0.153-0.172-0.216-0.273-0.217-0.271l-4.384-6.286c4.581-6.809,6.608-23.383,6.622-23.411
	l-0.737-0.09c-0.004,0.008-0.529,4.224-1.627,9.26c-1.093,5.03-2.782,10.879-5.016,14.028l-0.151,0.215l4.677,6.702
	c0.02,0.031,1.434,2.171,4.38,2.125c0.694-0.014,1.465-0.15,2.312-0.462c2.392-0.887,5.842-1.943,8.25-1.985
	c0.878-0.018,1.607,0.105,2.073,0.37c0.461,0.272,0.699,0.616,0.723,1.276c0,0.033,0.001,0.066,0,0.098
	c0.006,1.623-4.624,5.811-7.495,9.546c-2.863,3.807-5.757,7.396-5.871,9.513c-0.059,2.176-0.204,3.09-0.185,4.176
	c0.012,0.698,0.096,1.444,0.317,2.582c0.253,1.033,1.453,1.824,3.301,2.746c5.562,2.674,17.426,5.495,28.5,5.296l1.581-0.028
	c7.38-0.139,15.067-1.637,20.985-3.469c2.959-0.915,5.475-1.916,7.297-2.878c1.813-0.988,2.984-1.825,3.198-2.867
	c0.176-1.15,0.234-1.893,0.218-2.592c-0.019-1.086-0.2-1.995-0.338-4.164c-0.193-2.114-3.217-5.591-6.218-9.29
	c-3.008-3.629-7.818-7.643-7.87-9.262c-0.005-0.042-0.005-0.068-0.006-0.1c-0.002-0.659,0.225-1.011,0.675-1.301
	c0.454-0.281,1.177-0.433,2.056-0.445c2.411-0.05,5.896,0.881,8.323,1.677c0.855,0.281,1.631,0.39,2.324,0.377
	c2.946-0.062,4.282-2.255,4.307-2.294l4.42-6.863L105.857,86.018z"/>
<path fill="#8598A8" d="M60.104,63.832l-17.688-0.1c0.026,0.074,0.042,0.124,0.042,0.124L42.4,64.586l0.059-0.729
	c0,0-0.017-0.05-0.042-0.124L31.11,63.669c0,0-1.438,14.652-6.572,24.073l4.521,6.241c0,0,1.864-6.112,8.861-5.586
	c6.998,0.528,6.904,3.651,6.904,3.651s6.696,0.533,11.303-4.973c4.609-5.509,6.907-17.712,6.907-17.712S64.093,65.895,60.104,63.832
	z"/>
<path fill="#4A5D75" d="M60.275,63.501l-0.171,0.331l0.002-0.374v-0.002l-17.825-0.098c0.115,0.313,0.177,0.498,0.177,0.498
	l-0.022-0.022l17.683,0.046c2.348,1.259,2.636,3.265,2.669,4.357c0.013,0.623-0.118,1.015-0.11,1.018
	c-0.012,0.045-0.582,3.07-1.726,6.789c-1.141,3.717-2.869,8.115-5.111,10.791c-3.604,4.309-8.542,4.822-10.326,4.853
	c-0.141,0.004-0.261,0.004-0.359,0.002c-0.205-0.931-1.4-3.265-7.21-3.664c-0.37-0.028-0.726-0.038-1.07-0.032
	c-5.076,0.104-7.233,3.705-7.915,5.22l-3.985-5.5c4.638-8.684,6.233-21.652,6.483-23.879h10.882l0.116,0.022
	c0,0-0.062-0.185-0.177-0.498l-11.51-0.063l-0.032,0.337c-0.002,0.01-0.358,3.643-1.357,8.465
	c-0.997,4.821-2.636,10.814-5.173,15.467l-0.113,0.207l5.101,7.038l0.218-0.715c0-0.004,0.094-0.311,0.336-0.81
	c0.74-1.495,2.715-4.462,7.139-4.544c0.319-0.006,0.652,0.001,1,0.029c6.609,0.541,6.522,3.201,6.559,3.272
	c0.001,0.017,0.001,0.028,0.003,0.035l0.023,0.317l0.317,0.026c0.011,0,0.278,0.021,0.737,0.013
	c1.885-0.034,7.064-0.565,10.883-5.121c4.709-5.652,6.972-17.854,6.987-17.881c-0.001,0.014,0.146-0.476,0.134-1.209
	C63.523,66.938,62.943,64.868,60.275,63.501z"/>
<path fill="#8598A8" d="M69.136,63.665l28.873-1.233c0,0,3.074,16.787,7.553,23.812l-4.287,6.405c0,0-2.087-6.041-9.063-5.255
	c-6.973,0.787-6.763,3.904-6.763,3.904s-6.671,0.779-11.48-4.555c-4.809-5.331-7.558-17.441-7.558-17.441
	S65.227,65.873,69.136,63.665"/>
<path fill="#4A5D75" d="M100.922,92.77c-0.003,0.002-0.106-0.308-0.366-0.793l0,0c-0.26-0.486-0.671-1.135-1.265-1.781l0,0
	c-1.19-1.284-3.08-2.55-6.038-2.498l0,0c-0.323,0.007-0.655,0.025-0.999,0.066l0,0c-6.506,0.777-6.401,3.377-6.435,3.509l0,0
	l0.049,0.353l-0.379,0.042c-0.008,0.003-0.276,0.031-0.733,0.039l0,0c-1.884,0.034-7.083-0.301-11.062-4.709l0,0
	c-4.915-5.481-7.629-17.589-7.634-17.573l0,0c-0.011-0.026-0.175-0.511-0.189-1.244l0,0c-0.037-1.283,0.465-3.376,3.083-4.839l0,0
	l0.182,0.322l-0.017-0.371l29.198-1.247l0.058,0.319c0.003,0.009,0.766,4.185,2.091,9.246l0,0
	c1.323,5.056,3.217,10.996,5.411,14.432l0,0l0.13,0.205l-4.84,7.23L100.922,92.77L100.922,92.77z M101.342,91.874l3.774-5.638
	c-4.112-6.68-6.967-21.096-7.415-23.419l0,0l-28.367,1.086c-2.3,1.345-2.729,3.169-2.721,4.263l0,0
	c0.012,0.626,0.149,1.013,0.16,1.054l0,0c0.003,0.006,0.683,3.008,1.965,6.681l0,0c1.278,3.671,3.167,8.005,5.507,10.594l0,0
	c3.756,4.175,8.711,4.502,10.496,4.469l0,0c0.141-0.002,0.26-0.008,0.358-0.013l0,0c0.171-0.936,1.277-3.312,7.07-3.927l0,0
	c0.367-0.041,0.725-0.067,1.069-0.072l0,0C98.315,86.87,100.604,90.385,101.342,91.874L101.342,91.874z"/>
<path fill="#5A6D82" d="M36.982,92.69c-0.477,1.548-1.636,2.521-2.591,2.174c-0.956-0.345-1.343-1.882-0.868-3.43
	c0.477-1.548,1.637-2.521,2.593-2.175S37.459,91.141,36.982,92.69z"/>
<path fill="#231F20" d="M68.447,91.991c-0.581-5.218-3.606-14.199-3.606-14.199s-2.612,9.085-3,14.321
	c-0.364,4.941,1.553,1.838,2.882-0.188c0.158-0.236,0.292-0.43,0.407-0.585c0.121,0.149,0.262,0.34,0.428,0.57
	C66.962,93.887,68.993,96.913,68.447,91.991z"/>
<path fill="#5A6D82" d="M93.308,91.648c0.533,1.528,1.73,2.46,2.671,2.079c0.942-0.382,1.273-1.932,0.74-3.463
	c-0.534-1.529-1.73-2.457-2.672-2.076C93.105,88.569,92.775,90.118,93.308,91.648z"/>
<path fill="#B0C2CC" d="M29.203,56.948c0,0-1.825,3.121-0.002,6.572l13.142,0.005c-0.312-0.868-1.283-3.396-3.019-6.573
	L29.203,56.948z"/>
<path fill="#B0C2CC" d="M67.635,56.965l-28.311-0.013c1.736,3.178,2.707,5.705,3.019,6.573l25.289,0.011L67.635,56.965z"/>
<path fill="#B0C2CC" d="M67.635,57.337v-0.746L39.122,56.58c0.142,0.254,0.271,0.498,0.404,0.745L67.635,57.337z"/>
<path fill="#B0C2CC" d="M28.764,60.281c0-0.921,0.193-1.715,0.385-2.274c0.106-0.309,0.209-0.54,0.281-0.688l10.095,0.006
	c-0.132-0.247-0.262-0.491-0.404-0.745l-10.133-0.006l-0.107,0.186c-0.017,0.032-0.859,1.468-0.863,3.521
	c0,1.024,0.213,2.204,0.852,3.413l0.105,0.198l13.479,0.007l0.003-0.043c0,0-0.083-0.254-0.253-0.703l-12.776-0.007
	C28.931,62.125,28.764,61.146,28.764,60.281z"/>
<path fill="#B0C2CC" d="M42.456,63.899l25.176,0.01v-0.746l-25.426-0.01c0.169,0.449,0.253,0.703,0.253,0.703L42.456,63.899z"/>
<path fill="#B0C2CC" d="M61.479,56.961l38.431,0.018c0,0,1.821,3.121-0.002,6.571l-38.432-0.016"/>
<path fill="#B0C2CC" d="M61.478,63.906l0.001-0.746l38.201,0.017c0.498-1.021,0.667-2,0.667-2.866l0,0
	c0-0.92-0.192-1.715-0.384-2.274l0,0c-0.105-0.309-0.207-0.54-0.278-0.687l0,0L61.48,57.333l0-0.744l38.643,0.017l0.109,0.184
	c0.016,0.033,0.856,1.472,0.858,3.521l0,0c0.001,1.026-0.215,2.204-0.853,3.413l0,0l-0.107,0.197L61.478,63.906L61.478,63.906z"/>
<linearGradient id="SVGID_1_" gradientUnits="userSpaceOnUse" x1="64.0835" y1="-4.7979" x2="64.6435" y2="68.0103">
	<stop  offset="0" style="stop-color:#FFFFFF"/>
	<stop  offset="0.2684" style="stop-color:#F9FBFC"/>
	<stop  offset="0.6133" style="stop-color:#E9EFF2"/>
	<stop  offset="0.9988" style="stop-color:#CFDBE2"/>
	<stop  offset="1" style="stop-color:#CFDBE2"/>
</linearGradient>
<polyline fill="url(#SVGID_1_)" points="62.592,62.896 64.571,70.651 64.656,71.895 64.762,71.404 64.885,71.89 64.925,70.646 
	66.615,62.819 "/>
<polygon fill="#4A5D75" points="64.781,72.518 64.535,72.544 64.523,72.498 64.293,72.483 64.21,71.271 62.242,63.55 62.243,63.55 
	62.963,63.363 64.742,70.338 66.262,63.304 66.99,63.461 65.307,71.253 65.269,72.465 65.039,72.49 65.03,72.535 64.781,72.518 "/>
<path fill="#4A5D75" d="M27.306,30.093l2.782,2.403c-0.267-2.467-0.398-4.532-0.459-5.734
	C28.031,28.718,27.306,30.093,27.306,30.093z"/>
<path fill="#4A5D75" d="M70.589,14.597c-23.935-4.387-36.25,6.409-40.959,12.166c0.061,1.202,0.192,3.267,0.459,5.734l8.974,7.75
	l56.107-14.962C95.169,25.285,102.65,20.475,70.589,14.597z"/>
<path fill="#B0C2CC" d="M29.818,59.976c-0.045-0.528-0.458-1.793-1.022-3.024l0,0c-0.558-1.249-1.251-2.542-1.792-3.468l0,0
	c-0.262-0.453-0.512-0.841-0.642-1.032l0,0c-1.327-1.06-8.349-7.326-13.714-23.903l0,0c-0.608-1.924-2.361-4.902-4.303-7.677l0,0
	c-1.942-2.796-4.066-5.468-5.448-7.148l0,0c-0.919-1.119-1.498-1.783-1.5-1.785l0,0L0,10.331l1.533-1.477
	c0.057-0.052,2.26-2.177,5.419-4.346l0,0C10.132,2.362,14.189,0.049,18.52,0l0,0c2.028-0.012,4.178,0.611,5.915,2.124l0,0
	c2.854,2.447,4.553,5.167,5.45,7.868l0,0c0.902,2.698,1.04,5.322,1.042,7.697l0,0c-0.002,1.337-0.044,2.603-0.044,3.775l0,0
	c-0.003,1.655,0.096,3.111,0.435,4.319l0,0c0.349,1.211,0.877,2.187,1.916,3.159l0,0c1.752,1.592,3.467,2.145,5.5,2.165l0,0
	c4.723,0.084,11.029-3.835,16.351-7.318l0,0c2.973-1.899,7.921-3.905,14.023-5.535l0,0c6.086-1.617,13.267-2.802,20.477-2.804l0,0
	c6.627,0.003,13.297,1,19.144,3.705l0,0c7.754,3.598,12.411,7.168,15.193,10.499l0,0c2.783,3.315,3.617,6.449,3.604,8.724l0,0
	c-0.002,2.11-0.661,3.423-0.783,3.652l0,0l-0.802,1.49l-1.65-0.362c-0.001,0.001-0.027-0.007-0.155-0.03l0,0
	c-0.128-0.021-0.329-0.053-0.59-0.087l0,0c-0.522-0.066-1.29-0.134-2.206-0.134l0,0c-2.66-0.003-6.472,0.576-9.601,3.149l0,0
	c-1.67,1.365-3.246,2.834-4.467,4.115l0,0c-1.213,1.25-2.102,2.439-2.233,2.751l0,0l-0.149,0.299l-5.758,6.108l-0.076,0.056
	c-0.024,0.037-0.062,0.104-0.104,0.189l0,0c-0.117,0.236-0.259,0.624-0.379,1.059l0,0c-0.248,0.873-0.424,1.925-0.514,2.598l0,0
	c-0.062,0.451-0.086,0.712-0.086,0.712l0,0v0.002l-4.459-0.422c0.024-0.1,0.243-2.956,1.149-5.313l0,0
	c0.312-0.727,0.623-1.474,1.422-2.179l0,0l5.123-5.432c0.63-1.095,1.578-2.195,2.823-3.52l0,0c1.364-1.431,3.056-3.005,4.873-4.49
	l0,0c4.283-3.493,9.188-4.159,12.438-4.162l0,0c0.631,0,1.203,0.025,1.704,0.062l0,0c0.001-0.037,0.001-0.073,0.001-0.111l0,0
	c-0.014-1.249-0.376-3.208-2.566-5.855l0,0c-2.192-2.634-6.283-5.897-13.635-9.303l0,0c-5.028-2.336-11.081-3.293-17.26-3.29l0,0
	c-6.716-0.002-13.562,1.121-19.327,2.654l0,0c-5.752,1.518-10.485,3.503-12.751,4.974l0,0c-5.37,3.388-11.892,7.944-18.773,8.028
	l0,0c-2.964,0.021-6.017-0.998-8.538-3.352l0,0c-1.677-1.535-2.684-3.391-3.194-5.248l0,0c-0.516-1.864-0.595-3.718-0.598-5.522l0,0
	c0-1.278,0.044-2.539,0.042-3.775l0,0c0.001-2.198-0.143-4.292-0.81-6.274l0,0c-0.673-1.982-1.831-3.908-4.125-5.896l0,0
	C20.639,4.781,19.73,4.494,18.52,4.48l0,0c-2.235-0.034-5.329,1.317-7.938,2.998l0,0c-1.747,1.106-3.295,2.317-4.374,3.219l0,0
	c0.965,1.169,2.321,2.853,3.754,4.765l0,0c2.725,3.666,5.721,8.008,6.948,11.704l0,0c5.096,15.696,11.496,21.169,12.241,21.775l0,0
	c0.097,0.069,0.154,0.132,0.224,0.172l0,0c0.146,0.126,0.218,0.207,0.284,0.28l0,0c0.125,0.144,0.204,0.252,0.293,0.376l0,0
	c0.174,0.24,0.354,0.52,0.56,0.854l0,0c0.412,0.666,0.913,1.545,1.42,2.527l0,0c1.008,1.999,2.062,4.216,2.336,6.313l0,0
	c0.477,4.161,0.477,4.161,0.477,4.161l0,0l-4.363,0.114C30.382,63.74,30.288,63.74,29.818,59.976L29.818,59.976z"/>
<linearGradient id="SVGID_2_" gradientUnits="userSpaceOnUse" x1="77.4888" y1="35.8232" x2="77.4888" y2="63.6385">
	<stop  offset="0" style="stop-color:#FFFFFF"/>
	<stop  offset="0.2684" style="stop-color:#F9FBFC"/>
	<stop  offset="0.6133" style="stop-color:#E9EFF2"/>
	<stop  offset="0.9988" style="stop-color:#CFDBE2"/>
	<stop  offset="1" style="stop-color:#CFDBE2"/>
</linearGradient>
<path fill="url(#SVGID_2_)" d="M107.787,21.186c-17.261-8.003-43.843-0.43-51.49,4.486c-7.648,4.917-17.481,11.472-24.583,4.917
	c-0.919-0.849-1.567-1.774-2.023-2.759c0.313,5.034,1.478,17.407,5.492,22.695c5.102,6.72,7.278,13.38,7.278,13.38l53.259,0.024
	c0,0,0.5-5.247,1.926-6.286l5.388-5.715c0.753-1.52,3.803-4.754,7.289-7.606c6.286-5.143,14.45-3.353,14.45-3.353
	S129.903,31.44,107.787,21.186z"/>
<linearGradient id="SVGID_3_" gradientUnits="userSpaceOnUse" x1="8.6572" y1="1.834" x2="39.2717" y2="51.8626">
	<stop  offset="0" style="stop-color:#FFFFFF"/>
	<stop  offset="0.1755" style="stop-color:#F9FBFB"/>
	<stop  offset="0.4012" style="stop-color:#E9EFF1"/>
	<stop  offset="0.6543" style="stop-color:#CFDBE0"/>
	<stop  offset="0.9256" style="stop-color:#AAC0C8"/>
	<stop  offset="1" style="stop-color:#9FB7C1"/>
</linearGradient>
<path fill="url(#SVGID_3_)" d="M29.69,27.829c-0.004-0.01-0.01-0.019-0.015-0.03c-3.034-6.617,2.581-15.98-6.702-23.979
	c-6.852-5.903-19.887,6.647-19.887,6.647s9.655,11.103,11.693,17.389C20.461,45.387,27.89,50.8,27.89,50.8
	c0.27,0.036,3.821,6.007,4.155,8.921c0.475,4.159,0.475,4.159,0.475,4.159l9.939-0.023c0,0-2.175-6.613-7.277-13.333
	C31.167,45.235,30.003,32.863,29.69,27.829z"/>
<path fill="#B0C2CC" d="M20.05,12.069c2.6-1.564,5.62-2.908,8.607-2.928l0,0c0.027,0,0.079,0,0.152,0.003l0,0l-0.091,2.238
	c0,0-0.02,0-0.062,0l0,0c-2.338-0.036-5.128,1.204-7.591,2.693"/>
<path fill="#B0C2CC" d="M31.315,15.779l0.096-2.331c-0.076-0.002-0.129-0.002-0.156-0.002c-3.784,0.026-7.608,2.143-10.593,4.17
	c-2.974,2.043-5.069,4.061-5.099,4.089l0.861,2.249l0.758-0.569c0.002,0,0.484-0.465,1.336-1.189
	c2.526-2.197,8.416-6.487,12.737-6.417C31.299,15.779,31.315,15.779,31.315,15.779z"/>
<path fill="#B0C2CC" d="M32.256,21.397l0.1-2.607c-0.078-0.003-0.129-0.001-0.15-0.001c-3.57,0.028-7.107,2.002-9.872,3.877
	c-2.75,1.888-4.685,3.751-4.716,3.783l0.744,2.732c0.002,0,1.504-1.276,2.284-1.938c2.301-2.012,7.719-5.92,11.56-5.845
	C32.249,21.397,32.256,21.397,32.256,21.397z"/>
<path fill="#B0C2CC" d="M29.711,24.603c-1.934,0.753-3.753,1.851-5.323,2.916c-2.75,1.889-4.685,3.752-4.716,3.783l1.012,2.359
	c0.002,0,1.236-0.903,2.016-1.565c1.464-1.279,4.191-3.319,6.97-4.619c-0.067-1.152-0.087-1.843-0.087-1.843L29.711,24.603z"/>
<path fill="#B0C2CC" d="M30.544,24.303c-0.28,0.092-0.558,0.192-0.833,0.3l-0.129,1.031c0,0,0.02,0.69,0.087,1.843
	c0.521-0.244,1.041-0.47,1.556-0.651L30.544,24.303z"/>
<path fill="#B0C2CC" d="M29.09,33.671c0.311-0.186,0.708-0.423,1.057-0.619l-0.286-2.472c-0.754,0.381-1.189,0.605-1.631,0.869
	L29.09,33.671z"/>
<path fill="#ABBCC4" d="M29.436,36.656c-2.974,2.043-5.456,4.443-5.486,4.472l1.248,1.866l0.757-0.569
	c0.002,0,0.485-0.465,1.337-1.188c0.875-0.761,2.152-1.772,3.628-2.767l-0.029-0.256c-0.136-0.765-0.259-1.518-0.369-2.264
	C30.15,36.186,29.787,36.418,29.436,36.656z"/>
<path fill="#A2B4BC" d="M31.107,41.706c-2.75,1.889-4.325,3.403-4.357,3.436l1.68,2.053c0.002,0,0.209-0.249,0.989-0.911
	c0.664-0.58,1.747-1.466,2.815-2.22l-0.71-2.637C31.384,41.52,31.245,41.613,31.107,41.706z"/>
<path fill="#A2B4BC" d="M30.404,48.942l1.292,2.172c0.001,0,0.956-0.716,1.736-1.378c0.163-0.143,0.592-0.608,0.785-0.768
	l-0.458-0.786l-0.656-1.5C31.562,47.897,30.428,48.92,30.404,48.942z"/>
<polygon fill="#8E9FA5" points="34.186,56.87 34.684,59.235 40.377,58.814 39.059,56.504 "/>
<polygon fill="#8E9FA5" points="35.306,61.475 35.306,63.591 42.342,63.505 41.499,61.395 "/>
<path fill="#C6D4DB" d="M111.619,37.893c-2.445-2.237-5.947-4.601-10.947-6.992c-5.046-2.408-10.865-3.313-16.683-3.316
	c-12.673,0.025-25.286,4.246-30.263,7.512c-4.753,3.18-10.429,7.165-15.067,6.871c-2.948-0.187-6.084-2.112-7.801-3.734l0.639,3.003
	c0,0,3.188,2.69,7.123,2.972c0.014,0.001,0.026,0,0.04,0c5.696-0.043,11.465-4.096,16.243-7.229
	c4.363-2.921,16.93-7.18,29.087-7.154c5.599-0.001,11.121,0.885,15.769,3.107c4.856,2.321,7.478,3.903,9.718,5.955l2.145-0.993
	L111.619,37.893z"/>
<path fill="#C6D4DB" d="M95.867,35.975c-4.574-2.184-9.844-3.003-15.107-3.005c-11.468,0.026-22.861,3.833-27.384,6.8
	c-4.292,2.875-9.403,6.15-13.549,6.187c-2.717,0.024-6.131-0.677-7.664-2.122l0.411,1.366l0.43,1.153c0,0,2.613,1.493,6.785,1.844
	c0.013,0,0.026,0,0.039,0c5.193-0.043,10.409-3.717,14.724-6.544c3.911-2.621,15.256-6.47,26.208-6.443
	c5.044-0.001,10.016,0.796,14.193,2.797c4.378,2.09,7.073,3.888,9.088,5.733l1.738-1.435
	C103.56,40.276,100.391,38.137,95.867,35.975z"/>
<path fill="#C6D4DB" d="M91.411,41.399c-4.103-1.826-8.82-2.509-13.528-2.511c-10.263,0.022-20.433,3.191-24.5,5.679
	c-3.83,2.395-8.385,5.174-12.032,5.134c-1.572-0.009-6.148-0.184-7.498-1.37l0.692,1.267l0.845,1.22c0,0,2.561,1.31,5.915,0.962
	c0.015,0,0.031,0,0.046,0c4.687-0.04,9.348-3.113,13.2-5.466c3.459-2.166,13.582-5.372,23.333-5.35
	c4.491-0.001,8.913,0.664,12.621,2.32c3.9,1.738,6.992,4.113,8.779,5.641l1.484-1.731v-0.347
	C98.774,45.147,95.455,43.204,91.411,41.399z"/>
<path fill="#C6D4DB" d="M53.68,49.063c-3.506,2.165-7.677,4.678-11.017,4.643c-1.439-0.009-4.948-0.327-6.184-1.399l0.376,0.599
	c0.507,0.692,0.925,1.422,1.36,2.087c0.882,0.344,2.425,0.795,4.406,0.592c0.014,0,0.027,0,0.042,0
	c4.292-0.035,8.56-2.814,12.086-4.941c3.167-1.959,12.437-4.857,21.364-4.838v-1.877C66.716,43.948,57.405,46.814,53.68,49.063z"/>
<path fill="#BFCCD1" d="M86.509,50.701c-3.438-1.531-7.394-2.104-11.339-2.106c-8.603,0.019-17.127,2.678-20.537,4.764
	c-3.21,2.01-7.028,4.34-10.085,4.309c-1.318-0.008-4.439-0.366-5.571-1.361l0.093,0.198c0.486,0.805,0.864,1.601,1.243,2.311
	c0.765,0.323,2.253,0.796,4.196,0.595c0.012,0,0.025,0,0.039,0c3.929-0.033,7.814-2.495,11.043-4.468
	c2.9-1.817,11.521-4.312,19.694-4.293c3.765-0.001,7.439,0.571,10.547,1.96c3.27,1.459,6.09,4.081,7.588,5.362l0.812-2.275
	C92.563,54.27,89.9,52.215,86.509,50.701z"/>
<path fill="#ABBCC4" d="M84.938,55.611c-3.147-1.256-6.767-1.728-10.377-1.729c-7.875,0.016-15.676,2.197-18.796,3.909
	c-2.938,1.647-6.432,3.559-9.231,3.532c-1.205-0.006-4.445-0.135-5.481-0.951l0.809,1.9c0,0,1.83,0.81,4.521,0.694
	c0.012,0,0.486,0,0.498,0c3.596-0.025,7.001-1.99,9.956-3.607c2.654-1.491,10.44-3.377,17.92-3.361
	c3.446-0.001,6.739,0.354,9.583,1.494c2.992,1.196,5.792,3.44,7.094,4.729l0.995-2.001C90.901,59.051,88.041,56.853,84.938,55.611z"
	/>
<path fill="#A1B1B7" d="M52.755,63.903c1.332-0.5,2.732-1.138,3.96-1.709c2.911-1.323,10.191-3.009,17.536-3.021
	c3.371,0.001,6.747,0.365,9.684,1.337c2.613,0.865,5.128,2.475,6.625,3.418h-3.893c-1.306-0.835-2.315-1.311-3.882-1.831
	c-2.654-0.88-5.373-1.119-8.587-1.119c-6.979-0.011-13.018,1.337-15.494,2.489c-0.495,0.224-0.565,0.223-1.093,0.461L52.755,63.903z
	"/>
<circle fill="#C6D4DB" cx="77.805" cy="45.422" r="0.683"/>
<path fill="#4A5D75" d="M24.797,59.41l0,0.821l16.182,0.008c-0.122-0.264-0.25-0.537-0.387-0.822L24.797,59.41z"/>
<path fill="#4A5D75" d="M109.556,59.447l-68.965-0.03c0.138,0.285,0.266,0.559,0.387,0.822l68.578,0.028L109.556,59.447z"/>
<rect x="53.506" y="58.109" fill="#4A5D75" width="6.532" height="3.287"/>
<rect x="69.074" y="58.116" fill="#4A5D75" width="6.532" height="3.286"/>
<path fill="#4A5D75" d="M33.887,108.367c-0.241-0.395-0.33-0.838-0.329-1.222l0,0c0.045-1.21,0.611-2.069,1.33-3.052l0,0
	c0.74-0.956,1.728-1.943,2.858-2.864l0,0c0.999-0.853,1.979-1.569,2.88-2.101l0,0c0.925-0.517,1.673-0.906,2.685-0.94l0,0
	c0.501-0.031,1.357,0.227,1.78,0.933l0,0c0.272,0.433,0.338,0.868,0.338,1.225l0,0c-0.035,1.094-0.484,1.963-1.107,3.001l0,0
	c-0.637,1.015-1.51,2.094-2.571,3.126l0,0l-1.04-1.071l1.012,1.096c-1.987,1.772-3.856,2.891-5.712,2.959l0,0
	c-0.019,0.002-0.037,0.002-0.056,0.002l0,0C35.302,109.458,34.422,109.195,33.887,108.367L33.887,108.367z M39.662,103.521
	c-0.946,0.769-1.748,1.571-2.3,2.259l0,0c-0.097,0.117-0.186,0.233-0.266,0.346l0,0c0.725-0.346,1.691-0.949,2.577-1.796l0,0v-0.002
	c0.792-0.761,1.461-1.581,1.942-2.295l0,0C41.027,102.42,40.358,102.926,39.662,103.521L39.662,103.521z"/>
<path fill="#4A5D75" d="M36.336,110.101h-0.008c-0.034,0-0.054-0.001-0.06-0.001l0,0l0,0c-0.631-0.006-1.333-0.166-1.924-0.695l0,0
	l0.714-0.784c-0.001-0.002-0.004-0.003-0.005-0.005l0,0l-0.729,0.771c-0.581-0.532-0.82-1.321-0.808-1.948l0,0
	c0.006-0.702,0.204-1.31,0.464-1.896l0,0c0.61-1.347,1.664-2.745,3.006-4.124l0,0c0.972-1.009,1.935-1.907,2.886-2.604l0,0
	c0.956-0.682,1.874-1.221,3.021-1.323l0,0l0,0c0.022-0.003,0.068-0.006,0.143-0.006l0,0c0.539,0,1.159,0.166,1.661,0.667l0,0
	c0.567,0.574,0.73,1.332,0.722,1.91l0,0c-0.004,0.689-0.17,1.292-0.374,1.925l0,0c-0.289,0.832-0.726,1.717-1.294,2.617l0,0
	l0.146,0.062l-1.289,1.539l-0.68,0.851l-0.065-0.027c-1.648,1.721-3.455,2.937-5.465,3.073l0,0l-0.026,0.001H36.336L36.336,110.101z
	 M39.031,104.63c0.184-0.188,0.368-0.391,0.547-0.606l0,0l0.009-0.012c0.001,0,0.002-0.002,0.003-0.003l0,0
	C39.393,104.217,39.206,104.424,39.031,104.63L39.031,104.63z M39.727,103.839c0.009-0.012,0.018-0.023,0.027-0.034l0,0
	l-0.487-0.445c-0.006,0.006-0.012,0.011-0.018,0.017l0,0L39.727,103.839L39.727,103.839z"/>
<path fill="#4A5D75" d="M89.335,112.281c-1.174-0.019-2.178-0.537-3.119-1.265l0,0c-0.934-0.737-1.797-1.735-2.515-2.961l0,0
	c-0.957-1.733-1.486-3.421-1.498-4.902l0,0c0.014-0.917,0.184-2.037,1.297-2.729l0,0c0.389-0.234,0.831-0.326,1.216-0.325l0,0
	c1.184,0.04,2.015,0.6,2.91,1.297l0,0c0.872,0.708,1.737,1.648,2.537,2.749l0,0l0,0c1.257,1.695,2.046,3.39,2.074,5.053l0,0
	c0.023,0.926-0.361,2.068-1.393,2.689l0,0c-0.476,0.277-1.007,0.395-1.5,0.395l0,0C89.342,112.281,89.338,112.281,89.335,112.281
	L89.335,112.281z M86.293,106.574c0.521,0.896,1.171,1.627,1.769,2.094l0,0c0.501,0.406,0.972,0.585,1.184,0.621l0,0
	c0.002-0.027,0.003-0.058,0.003-0.092l0,0c0.029-0.559-0.454-1.943-1.468-3.251l0,0l1.191-0.899l-1.211,0.873
	c-0.627-0.87-1.306-1.608-1.9-2.11l0,0c-0.239-0.211-0.473-0.374-0.667-0.491l0,0C85.232,104.059,85.592,105.339,86.293,106.574
	L86.293,106.574z"/>
<path fill="#4A5D75" d="M95.023,108.394c-1.846-0.067-3.637-1.18-5.513-2.939l0,0c-0.973-0.998-1.77-2.042-2.348-3.03l0,0
	c-0.568-1.005-0.967-1.883-0.994-2.92l0,0c0.002-0.386,0.069-0.859,0.38-1.321l0,0l0,0c0.439-0.69,1.268-0.942,1.798-0.918l0,0
	c0.988,0.03,1.738,0.408,2.627,0.908l0,0c0.871,0.514,1.801,1.208,2.743,2.04l0,0l0,0c1.062,0.901,1.96,1.848,2.631,2.781l0,0
	c0.662,0.956,1.167,1.84,1.2,2.986l0,0c0.001,0.421-0.103,0.904-0.367,1.325l0,0l-0.021,0.029l-0.018,0.027
	c-0.513,0.756-1.385,1.031-2.053,1.031l0,0C95.066,108.394,95.045,108.394,95.023,108.394L95.023,108.394z M91.62,103.34
	c0.895,0.908,1.897,1.523,2.59,1.834l0,0c-0.082-0.136-0.179-0.284-0.29-0.438l0,0c-0.49-0.688-1.246-1.498-2.158-2.264l0,0
	l0.963-1.142l-0.99,1.118c-0.684-0.623-1.391-1.143-1.988-1.52l0,0C90.181,101.67,90.839,102.543,91.62,103.34L91.62,103.34z"/>
<path fill="#4A5D75" d="M94.782,108.965c-2.344-0.08-4.362-1.657-6.113-3.771l0,0c-0.906-1.171-1.587-2.366-2.03-3.503l0,0
	c-0.288-0.782-0.517-1.537-0.524-2.372l0,0c-0.007-0.619,0.164-1.409,0.781-2.02l0,0c0.48-0.466,1.094-0.648,1.64-0.655l0,0h0.047
	l0.028,0.001c1.154,0.057,2.092,0.573,3.037,1.226l0,0c0.94,0.667,1.874,1.532,2.801,2.5l0,0c1.128,1.174,2.018,2.372,2.595,3.548
	l0,0c0.336,0.704,0.593,1.423,0.6,2.251l0,0c0.014,0.664-0.233,1.471-0.86,2.072l0,0c-0.545,0.489-1.21,0.693-1.846,0.721l0,0
	l-0.043,0.005L94.782,108.965L94.782,108.965z M91.759,103.075c0.354,0.446,0.73,0.831,1.092,1.146l0,0
	c-0.185-0.267-0.397-0.544-0.634-0.827l0,0l-0.589-0.652c-0.011-0.011-0.022-0.023-0.035-0.038l0,0l-0.424-0.445
	C91.349,102.529,91.545,102.805,91.759,103.075L91.759,103.075z"/>
<path fill="#4A5D75" d="M29.258,119.092c-0.736-0.58-1.11-1.529-1.09-2.363l0,0c0.062-1.92,1.261-3.575,2.976-5.133l0,0
	c0.954-0.879,1.968-1.615,2.963-2.156l0,0c1.004-0.533,1.96-0.909,3.007-0.923l0,0c0.513,0,1.106,0.108,1.605,0.46l0,0
	c0.903,0.596,1.207,1.624,1.191,2.444l0,0c-0.036,1.731-0.935,3.516-2.418,5.26l0,0l-1.128-0.979l1.106,1.002
	c-1.764,1.908-3.891,3.077-5.958,3.114l0,0c-0.003,0-0.006,0-0.009,0l0,0C30.75,119.818,29.957,119.631,29.258,119.092
	L29.258,119.092z M31.512,116.831c0.775,0.037,2.487-0.701,3.746-2.133l0,0h0c1.091-1.228,1.634-2.598,1.665-3.178l0,0
	c-0.296,0.055-0.82,0.225-1.392,0.542l0,0c-0.737,0.4-1.58,1.006-2.39,1.751l0,0c-1.417,1.198-2.051,2.579-1.989,2.915l0,0
	c0,0.021,0.001,0.035,0.002,0.046l0,0C31.208,116.798,31.318,116.831,31.512,116.831L31.512,116.831z"/>
<path fill="#4A5D75" d="M31.318,120.224C31.318,120.224,31.318,120.224,31.318,120.224L31.318,120.224
	c-0.882-0.001-1.77-0.213-2.512-0.788l0,0l-0.021-0.015c-0.796-0.625-1.206-1.639-1.184-2.538l0,0
	c0.002-0.736,0.205-1.427,0.513-2.082l0,0c0.569-1.191,1.496-2.339,2.688-3.403l0,0c1.999-1.764,4.132-3.155,6.355-3.287l0,0
	c0.065-0.002,0.105,0,0.12,0l0,0c0.599,0.002,1.257,0.117,1.861,0.541l0,0c0.94,0.638,1.305,1.752,1.283,2.647l0,0
	c-0.002,0.716-0.164,1.397-0.405,2.088l0,0c-0.204,0.562-0.478,1.133-0.821,1.699l0,0l0.222,0.075l-1.519,1.687
	c-0.014,0.016-0.028,0.03-0.043,0.046l0,0l-0.595,0.682l-0.061-0.02c-1.681,1.573-3.707,2.594-5.764,2.668l0,0l-0.085,0.004
	L31.318,120.224L31.318,120.224z M31.81,116.425c0.512-0.024,1.94-0.626,3.025-1.87l0,0l0.038-0.042
	c0.659-0.756,1.117-1.544,1.343-2.149l0,0c0.037-0.096,0.066-0.186,0.092-0.27l0,0c-0.193,0.076-0.417,0.181-0.647,0.313l0,0
	c-0.657,0.36-1.433,0.908-2.142,1.566l0,0l-0.509-0.546c-0.003,0.003-0.007,0.005-0.01,0.01l0,0l0.499,0.556
	c-0.828,0.738-1.396,1.51-1.637,2.046l0,0c-0.074,0.157-0.114,0.289-0.135,0.383l0,0C31.748,116.424,31.776,116.424,31.81,116.425
	L31.81,116.425z M36.397,111.465L36.397,111.465C36.397,111.465,36.397,111.465,36.397,111.465L36.397,111.465L36.397,111.465
	L36.397,111.465z"/>
<path fill="#4A5D75" d="M99.09,118.526c-2.024-0.033-4.044-1.183-5.676-3.069l0,0c-1.338-1.667-2.122-3.41-2.147-5.072l0,0
	c-0.009-0.883,0.284-1.941,1.182-2.569l0,0c0.548-0.401,1.182-0.537,1.75-0.535l0,0c1.969,0.062,3.856,1.253,5.655,2.922l0,0h0.001
	c1.6,1.515,2.673,3.184,2.716,5.025l0,0c0.016,0.884-0.353,1.867-1.146,2.528l0,0c-0.688,0.554-1.527,0.771-2.318,0.771l0,0
	C99.102,118.526,99.095,118.526,99.09,118.526L99.09,118.526z M94.255,110.385c-0.025,0.588,0.447,1.957,1.454,3.162l0,0
	c1.111,1.347,2.648,2.028,3.381,1.994l0,0c0.293-0.003,0.411-0.07,0.424-0.08l0,0c0.043-0.054,0.053-0.019,0.068-0.233l0,0
	c0.043-0.438-0.511-1.717-1.755-2.83l0,0l1.014-1.099l-1.037,1.076c-1.314-1.325-3-2.11-3.545-2.113l0,0
	C94.257,110.295,94.254,110.338,94.255,110.385L94.255,110.385z"/>
<path fill="#4A5D75" d="M99.288,118.929L99.288,118.929c-2.37-0.026-4.633-1.352-6.307-3.323l0,0l0.659-0.553
	c-0.002-0.003-0.004-0.004-0.006-0.007l0,0l-0.667,0.545c-0.75-0.921-1.318-1.878-1.699-2.845l0,0
	c-0.31-0.814-0.516-1.635-0.519-2.476l0,0c-0.019-0.951,0.337-2.098,1.294-2.786l0,0c0.579-0.421,1.237-0.584,1.861-0.603l0,0
	c0.025-0.002,0.05-0.002,0.077-0.002l0,0c2.081,0.048,4.023,1.203,5.8,2.753l0,0h0.016l0.431,0.398
	c0.985,0.917,1.758,1.908,2.276,2.934l0,0c0.379,0.761,0.627,1.558,0.628,2.405l0,0c0.019,0.945-0.386,1.988-1.223,2.69l0,0
	c-0.739,0.6-1.644,0.852-2.581,0.869l0,0C99.312,118.93,99.298,118.93,99.288,118.929L99.288,118.929z M95.055,111.629
	c0.22,0.544,0.598,1.185,1.097,1.784l0,0c1.015,1.248,2.38,1.769,2.743,1.727l0,0l0.011-0.001c0.014,0,0.034,0,0.06,0l0,0
	c0.023-0.002,0.042-0.004,0.057-0.007l0,0c0.001-0.013,0.002-0.029,0.002-0.05l0,0c0.001-0.131-0.049-0.414-0.228-0.771l0,0
	c-0.212-0.436-0.577-0.961-1.071-1.471l0,0l-0.303-0.296c-0.019-0.02-0.038-0.036-0.056-0.054l0,0l-0.154-0.146
	c-0.579-0.532-1.193-0.963-1.723-1.253l0,0c-0.255-0.146-0.499-0.25-0.691-0.318l0,0C94.834,110.999,94.912,111.296,95.055,111.629
	L95.055,111.629z M94.367,110.667L94.367,110.667C94.367,110.667,94.367,110.667,94.367,110.667L94.367,110.667z"/>
<path fill="#FFFFFF" d="M35.349,108.3c-0.493-0.463-0.403-1.255-0.006-2.146l0,0c0.492-1.097,1.458-2.408,2.722-3.701l0,0
	c1.868-1.943,3.657-3.385,4.939-3.474l0,0c0.25-0.007,0.479,0.069,0.628,0.221l0,0c0.45,0.457,0.335,1.297,0.002,2.299l0,0
	c-0.38,1.103-1.129,2.44-2.174,3.751l0,0l-0.357-0.146l0.356,0.15c-1.661,1.98-3.59,3.292-5.122,3.355l0,0c-0.002,0-0.006,0-0.009,0
	l0,0C35.931,108.615,35.583,108.516,35.349,108.3L35.349,108.3z"/>
<path fill="#FFFFFF" d="M40.531,111.887c-0.872-0.518-0.886-1.618-0.439-2.879l0,0c0.353-0.981,0.991-2.09,1.857-3.192l0,0
	c1.688-2.171,3.485-3.8,4.95-3.899l0,0c0.219-0.005,0.432,0.041,0.603,0.141l0,0c0.799,0.489,0.788,1.681,0.438,3.109l0,0
	c-0.239,0.925-0.676,1.973-1.306,3.024l0,0c-1.407,2.236-3.36,3.828-5.142,3.909l0,0c-0.005,0.001-0.009,0.003-0.013,0.003l0,0
	C41.125,112.108,40.799,112.036,40.531,111.887L40.531,111.887z"/>
<path fill="#FFFFFF" d="M47.515,114.832c-1.362-0.49-1.58-1.95-1.156-3.643l0,0c0.205-0.792,0.56-1.653,1.056-2.514l0,0
	c1.395-2.445,3.129-4.324,4.778-4.439l0,0c0.166-0.006,0.332,0.017,0.485,0.066l0,0c1.21,0.452,1.423,2.042,1.15,3.954l0,0
	c-0.107,0.674-0.302,1.396-0.584,2.137l0,0l-0.463-0.066l0.463,0.068c-1.028,2.506-2.894,4.438-4.95,4.545l0,0
	C48.022,114.944,47.759,114.91,47.515,114.832L47.515,114.832z"/>
<path fill="#FFFFFF" d="M56.016,116.729c-1.9-0.336-2.461-2.192-2.167-4.331l0,0c0.082-0.545,0.223-1.112,0.426-1.688l0,0
	c0.961-2.71,2.513-4.875,4.336-5.014l0,0c0.087-0.001,0.182,0.002,0.27,0.015l0,0c1.636,0.327,2.224,2.34,2.143,4.761l0,0
	c-0.018,0.358-0.058,0.724-0.117,1.101l0,0l-0.491-0.024l0.492,0.026c-0.501,2.747-2.132,5.046-4.451,5.182l0,0
	C56.306,116.758,56.161,116.747,56.016,116.729L56.016,116.729z"/>
<path fill="#FFFFFF" d="M65.398,117.282c-2.364-0.056-3.433-2.303-3.375-4.89l0,0c0.009-0.241,0.029-0.492,0.059-0.74l0,0
	c0.173-1.479,0.625-2.804,1.232-3.796l0,0c0.591-0.978,1.346-1.703,2.348-1.743l0,0c1.008-0.002,1.758,0.715,2.304,1.672l0,0
	c0.565,0.976,0.955,2.287,1.052,3.76l0,0l-0.498,0.012l0.498-0.01c0.001,0.021,0.001,0.034,0.002,0.037l0,0
	c0.114,2.483-0.752,4.77-2.598,5.48l0,0L65.398,117.282L65.398,117.282z"/>
<path fill="#FFFFFF" d="M74.397,107.294L74.397,107.294c-0.59-0.754-1.192-1.089-1.563-1.067l0,0c-0.04,0-0.079,0.004-0.121,0.013
	l0,0c-0.853,0.036-1.865,2.167-1.564,4.807l0,0c0.009,0.092,0.019,0.188,0.029,0.282l0,0c0.157,1.283,0.62,2.406,1.219,3.177l0,0
	c0.616,0.779,1.314,1.139,1.866,1.119l0,0c0.073-0.002,0.148-0.009,0.224-0.021l0,0"/>
<path fill="#FFFFFF" d="M76.864,110.3c0.103,0.342,0.18,0.682,0.239,1.013l0,0c0.4,2.432-0.229,4.628-2.3,5.076l0,0
	c-0.143,0.024-0.29,0.039-0.435,0.041l0,0c-2.342-0.058-3.834-2.331-4.175-5.062l0,0c-0.011-0.101-0.021-0.202-0.031-0.301l0,0
	c-0.168-2.788,0.524-5.199,2.296-5.619l0,0c0.086-0.018,0.178-0.028,0.273-0.029l0,0C74.569,105.498,76.036,107.623,76.864,110.3
	L76.864,110.3"/>
<path fill="#FFFFFF" d="M82.599,114.304c-2.068-0.039-3.82-1.94-4.705-4.413l0,0c-0.161-0.47-0.281-0.935-0.367-1.387l0,0
	c-0.394-2.239-0.156-4.164,1.177-4.709l0,0c0.151-0.055,0.316-0.084,0.484-0.084l0,0c1.662,0.057,3.327,1.886,4.603,4.284l0,0
	l-0.002-0.001c0.34,0.638,0.595,1.274,0.773,1.887l0,0c0.544,1.946,0.321,3.687-1.187,4.285l0,0
	c-0.238,0.085-0.497,0.133-0.761,0.137l0,0C82.611,114.304,82.607,114.304,82.599,114.304L82.599,114.304z"/>
<path fill="#FFFFFF" d="M84.573,107.423c-0.446-0.796-0.777-1.588-0.997-2.328l0,0c-0.48-1.711-0.523-3.167,0.379-3.744l0,0
	c0.172-0.101,0.38-0.155,0.604-0.16l0,0c1.47,0.05,3.217,1.62,4.797,3.727l0,0l0,0c0.662,0.882,1.173,1.775,1.5,2.607l0,0
	c0.574,1.479,0.592,2.792-0.392,3.416l0,0c-0.267,0.161-0.598,0.245-0.954,0.25l0,0C87.716,111.169,85.854,109.61,84.573,107.423
	L84.573,107.423z"/>
<path fill="#FFFFFF" d="M94.794,107.474c-1.536-0.012-3.399-1.274-4.944-3.194l0,0c-0.824-1.063-1.44-2.154-1.813-3.114l0,0
	c-0.459-1.224-0.633-2.262-0.102-2.793l0,0c0.154-0.151,0.374-0.229,0.626-0.235l0,0c1.29,0.043,3.038,1.411,4.812,3.271l0,0l0,0
	c1.043,1.081,1.851,2.186,2.327,3.163l0,0c0.514,1.06,0.651,2.01,0.081,2.564l0,0c-0.238,0.214-0.581,0.331-0.976,0.338l0,0
	C94.801,107.474,94.798,107.475,94.794,107.474L94.794,107.474z"/>
<path fill="#FFFFFF" d="M29.726,118.26c-0.786-0.636-0.794-1.688-0.261-2.819l0,0c0.447-0.946,1.254-1.97,2.339-2.935l0,0
	c1.828-1.653,3.87-2.846,5.431-2.903l0,0c0.404-0.005,0.777,0.08,1.05,0.274l0,0c0.799,0.555,0.786,1.702,0.327,3.003l0,0
	c-0.338,0.936-0.951,1.968-1.822,2.965l0,0l-0.427-0.142l0.427,0.145c-1.566,1.737-3.629,2.838-5.392,2.885l0,0
	c-0.002,0-0.005,0-0.008,0l0,0C30.724,118.743,30.14,118.585,29.726,118.26L29.726,118.26z"/>
<path fill="#FFFFFF" d="M37.241,122.753c-1.341-0.663-1.567-2.07-1.011-3.617l0,0c0.296-0.818,0.81-1.69,1.519-2.532l0,0
	c1.681-2.034,3.82-3.527,5.646-3.601l0,0c0.337-0.007,0.662,0.048,0.941,0.166l0,0c1.277,0.56,1.512,2.09,1.087,3.848l0,0
	c-0.185,0.739-0.514,1.526-0.987,2.316l0,0l-0.501-0.096l0.5,0.098c-1.331,2.137-3.544,3.643-5.704,3.712l0,0
	C38.186,123.057,37.673,122.957,37.241,122.753L37.241,122.753z"/>
<path fill="#FFFFFF" d="M47.184,126.169c-2.022-0.539-2.633-2.333-2.164-4.323l0,0c0.149-0.622,0.404-1.269,0.768-1.912l0,0
	c1.351-2.436,3.479-4.299,5.589-4.395l0,0c0.219-0.002,0.442,0.016,0.654,0.063l0,0c1.817,0.453,2.477,2.374,2.211,4.62l0,0
	c-0.062,0.472-0.173,0.963-0.34,1.463l0,0c-0.877,2.524-3.08,4.498-5.661,4.6l0,0C47.879,126.293,47.522,126.253,47.184,126.169
	L47.184,126.169z"/>
<path fill="#FFFFFF" d="M58.96,127.931c-2.689-0.237-3.871-2.399-3.62-4.83l0,0c0.04-0.359,0.113-0.731,0.219-1.104l0,0
	c0.803-2.795,2.74-5.059,5.11-5.18l0,0c0.072-0.002,0.152,0,0.229,0.005l0,0c2.325,0.214,3.589,2.501,3.622,5.231l0,0
	c0,0.151-0.006,0.306-0.015,0.456l0,0l-0.569-0.006l0.569,0.01c-0.209,2.825-2.169,5.298-5.15,5.429l0,0
	C59.222,127.945,59.092,127.938,58.96,127.931L58.96,127.931z"/>
<path fill="#FFFFFF" d="M75.245,121.64c0.036,0.18,0.068,0.358,0.093,0.534l0,0c0.322,2.682-1.011,5.184-3.89,5.541l0,0
	c-0.128,0.013-0.255,0.019-0.38,0.021l0,0c-2.938-0.018-4.708-2.361-4.79-5.097l0,0c0-0.064-0.002-0.131,0-0.188l0,0
	c0.061-2.951,1.504-5.499,3.921-5.825l0,0c0.08-0.007,0.16-0.013,0.242-0.015l0,0C72.826,116.651,74.63,118.862,75.245,121.64
	L75.245,121.64l-0.563,0.034"/>
<path fill="#FFFFFF" d="M76.898,121.213c-0.074-0.279-0.132-0.554-0.173-0.825l0,0c-0.352-2.532,0.407-4.785,2.365-5.356l0,0
	c0.214-0.056,0.437-0.085,0.665-0.09l0,0c2.108,0.021,4.128,1.829,5.317,4.245l0,0l0,0c0.226,0.459,0.397,0.921,0.517,1.373l0,0
	c0.564,2.216-0.109,4.307-2.301,4.972l0,0c-0.337,0.094-0.686,0.146-1.042,0.153l0,0C79.652,125.677,77.595,123.723,76.898,121.213
	L76.898,121.213z"/>
<path fill="#FFFFFF" d="M86.412,118.471c-0.314-0.577-0.548-1.161-0.705-1.727l0,0c-0.538-2.008-0.279-3.812,1.115-4.485l0,0
	c0.282-0.131,0.604-0.199,0.942-0.203l0,0c1.824,0.006,3.877,1.451,5.42,3.454l0,0l-0.001,0.002
	c0.526,0.673,0.924,1.369,1.187,2.045l0,0c0.667,1.741,0.438,3.388-1.036,4.177l0,0c-0.43,0.217-0.935,0.332-1.466,0.342l0,0
	C89.7,122.081,87.59,120.594,86.412,118.471L86.412,118.471z"/>
<path fill="#FFFFFF" d="M94.125,114.646c-0.661-0.81-1.15-1.646-1.462-2.436l0,0c-0.579-1.505-0.623-2.87,0.266-3.521l0,0
	c0.279-0.205,0.645-0.309,1.053-0.315l0,0c1.544,0,3.516,1.133,5.229,2.752l0,0h0.001c0.875,0.813,1.54,1.679,1.958,2.509l0,0
	c0.648,1.294,0.672,2.519-0.206,3.271l0,0c-0.411,0.337-0.985,0.521-1.636,0.529l0,0C97.565,117.452,95.568,116.368,94.125,114.646
	L94.125,114.646z"/>
<path fill="#4A5D75" d="M112.792,68.263c0.028,1.611-1.429,2.941-3.256,2.977l0,0c-1.828,0.034-3.331-1.244-3.362-2.854
	l-0.329-17.863c-0.03-1.608,1.426-2.94,3.253-2.975l0,0c1.829-0.034,3.333,1.244,3.363,2.854L112.792,68.263z"/>
<path fill="#4A5D75" d="M24.502,51.459c0.007,1.762-1.018,3.194-2.29,3.198L4.519,54.723c-1.271,0.005-2.308-1.419-2.313-3.181l0,0
	c-0.007-1.762,1.018-3.193,2.29-3.198l17.692-0.066C23.459,48.272,24.496,49.696,24.502,51.459L24.502,51.459z"/>
<path fill="#4A5D75" d="M20.6,57.417c-0.646-1.646-0.668-3.115-0.671-3.433l0,0c0-0.038,0-0.062,0-0.075l0,0l2.005,0.076
	c-0.002,0.172,0.029,1.43,0.531,2.695l0,0c0.436,1.075,1.124,2.111,2.414,2.728c0.248,0.117,0.267,2.235,0.267,2.235
	C22.595,60.932,21.228,59.053,20.6,57.417L20.6,57.417z M21.934,53.985l-0.019-0.001L21.934,53.985L21.934,53.985L21.934,53.985z"/>
<path fill="#231F20" d="M33.624,74.113c0,6.995,5.669,12.665,12.664,12.665s12.664-5.67,12.664-12.665
	c0-2.307-0.619-4.468-1.698-6.329H35.321C34.244,69.646,33.624,71.807,33.624,74.113z"/>
<path fill="#231F20" d="M94.331,67.784H72.4c-1.079,1.861-1.698,4.022-1.698,6.329c0,6.995,5.67,12.665,12.664,12.665
	c6.995,0,12.664-5.67,12.664-12.665C96.03,74.113,95.713,71.119,94.331,67.784z"/>
</svg>
