<?xml version="1.0" encoding="UTF-8" standalone="no"?>
<!-- Created with Inkscape (http://www.inkscape.org/) -->

<svg
   xmlns:dc="http://purl.org/dc/elements/1.1/"
   xmlns:cc="http://creativecommons.org/ns#"
   xmlns:rdf="http://www.w3.org/1999/02/22-rdf-syntax-ns#"
   xmlns:svg="http://www.w3.org/2000/svg"
   xmlns="http://www.w3.org/2000/svg"
   xmlns:xlink="http://www.w3.org/1999/xlink"
   xmlns:sodipodi="http://sodipodi.sourceforge.net/DTD/sodipodi-0.dtd"
   xmlns:inkscape="http://www.inkscape.org/namespaces/inkscape"
   width="300"
   height="84"
   id="svg2943"
   version="1.1"
   inkscape:version="0.47 r22583"
   sodipodi:docname="title_logo.svg">
  <defs
     id="defs2945">
    <inkscape:perspective
       sodipodi:type="inkscape:persp3d"
       inkscape:vp_x="0 : 526.18109 : 1"
       inkscape:vp_y="0 : 1000 : 0"
       inkscape:vp_z="744.09448 : 526.18109 : 1"
       inkscape:persp3d-origin="372.04724 : 350.78739 : 1"
       id="perspective2951" />
    <inkscape:perspective
       id="perspective2951-9"
       inkscape:persp3d-origin="0.5 : 0.33333333 : 1"
       inkscape:vp_z="1 : 0.5 : 1"
       inkscape:vp_y="0 : 1000 : 0"
       inkscape:vp_x="0 : 0.5 : 1"
       sodipodi:type="inkscape:persp3d" />
    <linearGradient
       inkscape:collect="always"
       xlink:href="#linearGradient6009"
       id="linearGradient2940"
       gradientUnits="userSpaceOnUse"
       gradientTransform="matrix(0.64005389,0,0,0.64005384,-77.553153,111.79559)"
       x1="350.72498"
       y1="-78.39135"
       x2="350.72498"
       y2="-136.74741" />
    <linearGradient
       id="linearGradient6009">
      <stop
         style="stop-color:#000000;stop-opacity:1;"
         offset="0"
         id="stop6011" />
      <stop
         style="stop-color:#454d53;stop-opacity:1;"
         offset="1"
         id="stop6013" />
    </linearGradient>
    <linearGradient
       inkscape:collect="always"
       xlink:href="#linearGradient6009"
       id="linearGradient2959"
       gradientUnits="userSpaceOnUse"
       gradientTransform="matrix(0.64005389,0,0,0.64005384,-79.654473,160.04949)"
       x1="350.72498"
       y1="-78.39135"
       x2="350.72498"
       y2="-136.74741" />
    <linearGradient
       id="linearGradient2961">
      <stop
         style="stop-color:#000000;stop-opacity:1;"
         offset="0"
         id="stop2963" />
      <stop
         style="stop-color:#454d53;stop-opacity:1;"
         offset="1"
         id="stop2965" />
    </linearGradient>
    <linearGradient
       inkscape:collect="always"
       xlink:href="#linearGradient5870"
       id="linearGradient2984"
       gradientUnits="userSpaceOnUse"
       gradientTransform="translate(100,54)"
       x1="119.5"
       y1="107.36218"
       x2="141.2543"
       y2="135.61649" />
    <linearGradient
       id="linearGradient5870">
      <stop
         id="stop5872"
         offset="0"
         style="stop-color:#245ec9;stop-opacity:1;" />
      <stop
         id="stop5874"
         offset="1"
         style="stop-color:#4d80df;stop-opacity:0;" />
    </linearGradient>
    <filter
       inkscape:collect="always"
       x="-0.09565217"
       width="1.1913043"
       y="-0.16097561"
       height="1.3219512"
       id="filter5912"
       color-interpolation-filters="sRGB">
      <feGaussianBlur
         inkscape:collect="always"
         stdDeviation="2.75"
         id="feGaussianBlur5914" />
    </filter>
    <linearGradient
       inkscape:collect="always"
       xlink:href="#linearGradient5870"
       id="linearGradient2982"
       gradientUnits="userSpaceOnUse"
       gradientTransform="translate(48,14)"
       x1="119.5"
       y1="107.36218"
       x2="141.2543"
       y2="135.61649" />
    <linearGradient
       id="linearGradient2974">
      <stop
         id="stop2976"
         offset="0"
         style="stop-color:#245ec9;stop-opacity:1;" />
      <stop
         id="stop2978"
         offset="1"
         style="stop-color:#4d80df;stop-opacity:0;" />
    </linearGradient>
    <linearGradient
       inkscape:collect="always"
       xlink:href="#linearGradient5660"
       id="linearGradient2950"
       gradientUnits="userSpaceOnUse"
       gradientTransform="matrix(0.26089371,0,0,0.26089372,16.237266,37.992996)"
       x1="89.802315"
       y1="-127.68279"
       x2="86.001991"
       y2="-26.66445" />
    <linearGradient
       id="linearGradient5660">
      <stop
         style="stop-color:#dbeda9;stop-opacity:1;"
         offset="0"
         id="stop5662" />
      <stop
         style="stop-color:#afd642;stop-opacity:1;"
         offset="1"
         id="stop5664" />
    </linearGradient>
    <linearGradient
       inkscape:collect="always"
       xlink:href="#linearGradient5726"
       id="linearGradient2952"
       gradientUnits="userSpaceOnUse"
       gradientTransform="matrix(0.26089371,0,0,0.26089372,16.237266,37.992996)"
       x1="51.007153"
       y1="-18.21809"
       x2="58.08173"
       y2="-114.41708" />
    <linearGradient
       id="linearGradient5726">
      <stop
         style="stop-color:#789820;stop-opacity:1;"
         offset="0"
         id="stop5728" />
      <stop
         style="stop-color:#ffffff;stop-opacity:1;"
         offset="1"
         id="stop5730" />
    </linearGradient>
    <linearGradient
       inkscape:collect="always"
       xlink:href="#linearGradient5660"
       id="linearGradient2992"
       gradientUnits="userSpaceOnUse"
       gradientTransform="matrix(0.26089371,0,0,0.26089372,82.590234,74.897428)"
       x1="89.802315"
       y1="-127.68279"
       x2="86.001991"
       y2="-26.66445" />
    <linearGradient
       id="linearGradient2994">
      <stop
         style="stop-color:#dbeda9;stop-opacity:1;"
         offset="0"
         id="stop2996" />
      <stop
         style="stop-color:#afd642;stop-opacity:1;"
         offset="1"
         id="stop2998" />
    </linearGradient>
    <linearGradient
       inkscape:collect="always"
       xlink:href="#linearGradient5726"
       id="linearGradient3000"
       gradientUnits="userSpaceOnUse"
       gradientTransform="matrix(0.26089371,0,0,0.26089372,82.590234,74.897428)"
       x1="51.007153"
       y1="-18.21809"
       x2="58.08173"
       y2="-114.41708" />
    <linearGradient
       id="linearGradient3002">
      <stop
         style="stop-color:#789820;stop-opacity:1;"
         offset="0"
         id="stop3004" />
      <stop
         style="stop-color:#ffffff;stop-opacity:1;"
         offset="1"
         id="stop3006" />
    </linearGradient>
    <linearGradient
       inkscape:collect="always"
       xlink:href="#linearGradient5660"
       id="linearGradient3008"
       gradientUnits="userSpaceOnUse"
       gradientTransform="matrix(0.26089371,0,0,0.26089372,82.590234,74.897428)"
       x1="287.41901"
       y1="-119.63873"
       x2="287.41901"
       y2="-60.427364" />
    <linearGradient
       id="linearGradient3010">
      <stop
         style="stop-color:#dbeda9;stop-opacity:1;"
         offset="0"
         id="stop3012" />
      <stop
         style="stop-color:#afd642;stop-opacity:1;"
         offset="1"
         id="stop3014" />
    </linearGradient>
    <linearGradient
       inkscape:collect="always"
       xlink:href="#linearGradient5660"
       id="linearGradient3016"
       gradientUnits="userSpaceOnUse"
       gradientTransform="matrix(0.26089371,0,0,0.26089372,82.590234,74.897428)"
       x1="287.41901"
       y1="-119.63873"
       x2="287.41901"
       y2="-60.427364" />
    <linearGradient
       id="linearGradient3018">
      <stop
         style="stop-color:#dbeda9;stop-opacity:1;"
         offset="0"
         id="stop3020" />
      <stop
         style="stop-color:#afd642;stop-opacity:1;"
         offset="1"
         id="stop3022" />
    </linearGradient>
    <linearGradient
       inkscape:collect="always"
       xlink:href="#linearGradient5660"
       id="linearGradient2965"
       gradientUnits="userSpaceOnUse"
       gradientTransform="matrix(0.27793206,0,0,0.27793205,18.774357,102.24507)"
       x1="547.77307"
       y1="-117.08842"
       x2="547.77307"
       y2="-57.556679" />
    <linearGradient
       id="linearGradient3025">
      <stop
         style="stop-color:#dbeda9;stop-opacity:1;"
         offset="0"
         id="stop3027" />
      <stop
         style="stop-color:#afd642;stop-opacity:1;"
         offset="1"
         id="stop3029" />
    </linearGradient>
    <linearGradient
       inkscape:collect="always"
       xlink:href="#linearGradient5660"
       id="linearGradient3031"
       gradientUnits="userSpaceOnUse"
       gradientTransform="matrix(0.27793206,0,0,0.27793205,83.042016,222.9555)"
       x1="547.77307"
       y1="-117.08842"
       x2="547.77307"
       y2="-57.556679" />
    <linearGradient
       id="linearGradient3033">
      <stop
         style="stop-color:#dbeda9;stop-opacity:1;"
         offset="0"
         id="stop3035" />
      <stop
         style="stop-color:#afd642;stop-opacity:1;"
         offset="1"
         id="stop3037" />
    </linearGradient>
    <linearGradient
       inkscape:collect="always"
       xlink:href="#linearGradient5660"
       id="linearGradient2971"
       gradientUnits="userSpaceOnUse"
       gradientTransform="matrix(0.27793206,0,0,0.27793205,18.774357,102.24507)"
       x1="188.02406"
       y1="-102.96148"
       x2="192.05518"
       y2="-53.5322" />
    <linearGradient
       id="linearGradient3040">
      <stop
         style="stop-color:#dbeda9;stop-opacity:1;"
         offset="0"
         id="stop3042" />
      <stop
         style="stop-color:#afd642;stop-opacity:1;"
         offset="1"
         id="stop3044" />
    </linearGradient>
    <linearGradient
       inkscape:collect="always"
       xlink:href="#linearGradient5726"
       id="linearGradient2973"
       gradientUnits="userSpaceOnUse"
       gradientTransform="matrix(0.27793206,0,0,0.27793205,18.774357,102.24507)"
       x1="206.34718"
       y1="-71.272896"
       x2="146.60516"
       y2="-76.515343" />
    <linearGradient
       id="linearGradient3047">
      <stop
         style="stop-color:#789820;stop-opacity:1;"
         offset="0"
         id="stop3049" />
      <stop
         style="stop-color:#ffffff;stop-opacity:1;"
         offset="1"
         id="stop3051" />
    </linearGradient>
    <linearGradient
       inkscape:collect="always"
       xlink:href="#linearGradient5660"
       id="linearGradient3053"
       gradientUnits="userSpaceOnUse"
       gradientTransform="matrix(0.27793206,0,0,0.27793205,83.042016,222.9555)"
       x1="188.02406"
       y1="-102.96148"
       x2="192.05518"
       y2="-53.5322" />
    <linearGradient
       id="linearGradient3055">
      <stop
         style="stop-color:#dbeda9;stop-opacity:1;"
         offset="0"
         id="stop3057" />
      <stop
         style="stop-color:#afd642;stop-opacity:1;"
         offset="1"
         id="stop3059" />
    </linearGradient>
    <linearGradient
       inkscape:collect="always"
       xlink:href="#linearGradient5726"
       id="linearGradient3061"
       gradientUnits="userSpaceOnUse"
       gradientTransform="matrix(0.27793206,0,0,0.27793205,83.042016,222.9555)"
       x1="206.34718"
       y1="-71.272896"
       x2="146.60516"
       y2="-76.515343" />
    <linearGradient
       id="linearGradient3063">
      <stop
         style="stop-color:#789820;stop-opacity:1;"
         offset="0"
         id="stop3065" />
      <stop
         style="stop-color:#ffffff;stop-opacity:1;"
         offset="1"
         id="stop3067" />
    </linearGradient>
    <filter
       inkscape:collect="always"
       id="filter5812"
       color-interpolation-filters="sRGB">
      <feGaussianBlur
         inkscape:collect="always"
         stdDeviation="2.8756286"
         id="feGaussianBlur5814" />
    </filter>
    <linearGradient
       inkscape:collect="always"
       xlink:href="#linearGradient5660"
       id="linearGradient2979"
       gradientUnits="userSpaceOnUse"
       gradientTransform="matrix(0.25774657,0,0,0.25774657,-19.407445,94.666979)"
       x1="129.79414"
       y1="-232.97458"
       x2="115.98241"
       y2="-147.2603" />
    <linearGradient
       id="linearGradient3072">
      <stop
         style="stop-color:#dbeda9;stop-opacity:1;"
         offset="0"
         id="stop3074" />
      <stop
         style="stop-color:#afd642;stop-opacity:1;"
         offset="1"
         id="stop3076" />
    </linearGradient>
    <linearGradient
       inkscape:collect="always"
       xlink:href="#linearGradient5660"
       id="linearGradient3078"
       gradientUnits="userSpaceOnUse"
       gradientTransform="matrix(0.25774657,0,0,0.25774657,-54.297423,211.30463)"
       x1="129.79414"
       y1="-232.97458"
       x2="115.98241"
       y2="-147.2603" />
    <linearGradient
       id="linearGradient3080">
      <stop
         style="stop-color:#dbeda9;stop-opacity:1;"
         offset="0"
         id="stop3082" />
      <stop
         style="stop-color:#afd642;stop-opacity:1;"
         offset="1"
         id="stop3084" />
    </linearGradient>
    <linearGradient
       inkscape:collect="always"
       xlink:href="#linearGradient5660"
       id="linearGradient2966"
       gradientUnits="userSpaceOnUse"
       x1="287.41901"
       y1="-119.63873"
       x2="287.41901"
       y2="-60.427364" />
    <linearGradient
       id="linearGradient3087">
      <stop
         style="stop-color:#dbeda9;stop-opacity:1;"
         offset="0"
         id="stop3089" />
      <stop
         style="stop-color:#afd642;stop-opacity:1;"
         offset="1"
         id="stop3091" />
    </linearGradient>
    <filter
       inkscape:collect="always"
       x="-0.16718574"
       width="1.3343714"
       y="-0.030253248"
       height="1.0605065"
       id="filter5816"
       color-interpolation-filters="sRGB">
      <feGaussianBlur
         inkscape:collect="always"
         stdDeviation="1.7648875"
         id="feGaussianBlur5818" />
    </filter>
    <linearGradient
       inkscape:collect="always"
       xlink:href="#linearGradient5660"
       id="linearGradient3095"
       gradientUnits="userSpaceOnUse"
       x1="287.41901"
       y1="-119.63873"
       x2="287.41901"
       y2="-60.427364" />
    <linearGradient
       id="linearGradient3097">
      <stop
         style="stop-color:#dbeda9;stop-opacity:1;"
         offset="0"
         id="stop3099" />
      <stop
         style="stop-color:#afd642;stop-opacity:1;"
         offset="1"
         id="stop3101" />
    </linearGradient>
    <linearGradient
       inkscape:collect="always"
       xlink:href="#linearGradient5660"
       id="linearGradient2985"
       gradientUnits="userSpaceOnUse"
       gradientTransform="matrix(0.25774657,0,0,0.25774657,-19.407445,94.666979)"
       x1="117.72675"
       y1="-220.81551"
       x2="117.50276"
       y2="-155.6909" />
    <linearGradient
       id="linearGradient3104">
      <stop
         style="stop-color:#dbeda9;stop-opacity:1;"
         offset="0"
         id="stop3106" />
      <stop
         style="stop-color:#afd642;stop-opacity:1;"
         offset="1"
         id="stop3108" />
    </linearGradient>
    <linearGradient
       inkscape:collect="always"
       xlink:href="#linearGradient5726"
       id="linearGradient2987"
       gradientUnits="userSpaceOnUse"
       gradientTransform="matrix(0.25774657,0,0,0.25774657,-19.407445,94.666979)"
       x1="176.11484"
       y1="-120.64497"
       x2="175.11197"
       y2="-236.80659" />
    <linearGradient
       id="linearGradient3111">
      <stop
         style="stop-color:#789820;stop-opacity:1;"
         offset="0"
         id="stop3113" />
      <stop
         style="stop-color:#ffffff;stop-opacity:1;"
         offset="1"
         id="stop3115" />
    </linearGradient>
    <linearGradient
       inkscape:collect="always"
       xlink:href="#linearGradient5660"
       id="linearGradient3117"
       gradientUnits="userSpaceOnUse"
       gradientTransform="matrix(0.25774657,0,0,0.25774657,-54.297423,211.30463)"
       x1="117.72675"
       y1="-220.81551"
       x2="117.50276"
       y2="-155.6909" />
    <linearGradient
       id="linearGradient3119">
      <stop
         style="stop-color:#dbeda9;stop-opacity:1;"
         offset="0"
         id="stop3121" />
      <stop
         style="stop-color:#afd642;stop-opacity:1;"
         offset="1"
         id="stop3123" />
    </linearGradient>
    <linearGradient
       inkscape:collect="always"
       xlink:href="#linearGradient5726"
       id="linearGradient3125"
       gradientUnits="userSpaceOnUse"
       gradientTransform="matrix(0.25774657,0,0,0.25774657,-54.297423,211.30463)"
       x1="176.11484"
       y1="-120.64497"
       x2="175.11197"
       y2="-236.80659" />
    <linearGradient
       id="linearGradient3127">
      <stop
         style="stop-color:#789820;stop-opacity:1;"
         offset="0"
         id="stop3129" />
      <stop
         style="stop-color:#ffffff;stop-opacity:1;"
         offset="1"
         id="stop3131" />
    </linearGradient>
    <filter
       inkscape:collect="always"
       id="filter5752"
       color-interpolation-filters="sRGB">
      <feGaussianBlur
         inkscape:collect="always"
         stdDeviation="3.1582879"
         id="feGaussianBlur5754" />
    </filter>
    <linearGradient
       inkscape:collect="always"
       xlink:href="#linearGradient5708"
       id="linearGradient2960"
       gradientUnits="userSpaceOnUse"
       gradientTransform="matrix(0.64153166,0,0,0.63857951,-9.9499733,-49.720458)"
       x1="111.01576"
       y1="118.27412"
       x2="74.637543"
       y2="97.271141" />
    <linearGradient
       id="linearGradient5708">
      <stop
         style="stop-color:#588ddb;stop-opacity:1;"
         offset="0"
         id="stop5710" />
      <stop
         style="stop-color:#97b9e9;stop-opacity:1;"
         offset="1"
         id="stop5712" />
    </linearGradient>
    <linearGradient
       inkscape:collect="always"
       xlink:href="#linearGradient5700"
       id="linearGradient2958"
       gradientUnits="userSpaceOnUse"
       gradientTransform="matrix(0.64153166,0,0,0.63857951,-9.9499733,-49.720458)"
       x1="82.731491"
       y1="157.25667"
       x2="82.731491"
       y2="122.979" />
    <linearGradient
       id="linearGradient5700">
      <stop
         style="stop-color:#1f54b4;stop-opacity:1;"
         offset="0"
         id="stop5702" />
      <stop
         style="stop-color:#153a7e;stop-opacity:1;"
         offset="1"
         id="stop5704" />
    </linearGradient>
    <linearGradient
       inkscape:collect="always"
       xlink:href="#linearGradient5716"
       id="linearGradient2956"
       gradientUnits="userSpaceOnUse"
       gradientTransform="matrix(0.64153166,0,0,0.63857951,54.45002,35.241715)"
       x1="113.5061"
       y1="120.99213"
       x2="125.23831"
       y2="164.77731" />
    <linearGradient
       id="linearGradient5716">
      <stop
         style="stop-color:#245ec9;stop-opacity:1;"
         offset="0"
         id="stop5718" />
      <stop
         style="stop-color:#4d80df;stop-opacity:1;"
         offset="1"
         id="stop5720" />
    </linearGradient>
    <linearGradient
       inkscape:collect="always"
       xlink:href="#linearGradient5660"
       id="linearGradient3774"
       gradientUnits="userSpaceOnUse"
       gradientTransform="matrix(0.27793206,0,0,0.27793205,261.71674,518.72103)"
       x1="188.02406"
       y1="-102.96148"
       x2="192.05518"
       y2="-53.5322" />
    <linearGradient
       inkscape:collect="always"
       xlink:href="#linearGradient5726"
       id="linearGradient3776"
       gradientUnits="userSpaceOnUse"
       gradientTransform="matrix(0.27793206,0,0,0.27793205,261.71674,518.72103)"
       x1="206.34718"
       y1="-71.272896"
       x2="146.60516"
       y2="-76.515343" />
    <linearGradient
       inkscape:collect="always"
       xlink:href="#linearGradient5660"
       id="linearGradient3778"
       gradientUnits="userSpaceOnUse"
       gradientTransform="matrix(0.27793206,0,0,0.27793205,280.58161,503.92051)"
       x1="547.77307"
       y1="-117.08842"
       x2="547.77307"
       y2="-57.556679" />
    <linearGradient
       inkscape:collect="always"
       xlink:href="#linearGradient6009"
       id="linearGradient3780"
       gradientUnits="userSpaceOnUse"
       gradientTransform="matrix(0.64005389,0,0,0.64005384,170.88578,260.40021)"
       x1="350.72498"
       y1="-78.39135"
       x2="350.72498"
       y2="-136.74741" />
    <linearGradient
       inkscape:collect="always"
       xlink:href="#linearGradient5660"
       id="linearGradient3782"
       gradientUnits="userSpaceOnUse"
       gradientTransform="matrix(0.26089371,0,0,0.26089372,266.86858,138.53854)"
       x1="89.802315"
       y1="-127.68279"
       x2="86.001991"
       y2="-26.66445" />
    <linearGradient
       inkscape:collect="always"
       xlink:href="#linearGradient5726"
       id="linearGradient3784"
       gradientUnits="userSpaceOnUse"
       gradientTransform="matrix(0.26089371,0,0,0.26089372,266.86858,138.53854)"
       x1="51.007153"
       y1="-18.21809"
       x2="58.08173"
       y2="-114.41708" />
    <linearGradient
       inkscape:collect="always"
       xlink:href="#linearGradient5660"
       id="linearGradient3788"
       gradientUnits="userSpaceOnUse"
       x1="287.41901"
       y1="-119.63873"
       x2="287.41901"
       y2="-60.427364" />
  </defs>
  <sodipodi:namedview
     id="base"
     pagecolor="#ffffff"
     bordercolor="#666666"
     borderopacity="1.0"
     inkscape:pageopacity="0.0"
     inkscape:pageshadow="2"
     inkscape:zoom="4"
     inkscape:cx="149.2096"
     inkscape:cy="60.381905"
     inkscape:document-units="px"
     inkscape:current-layer="layer1"
     showgrid="false"
     inkscape:window-width="1680"
     inkscape:window-height="990"
     inkscape:window-x="-4"
     inkscape:window-y="-3"
     inkscape:window-maximized="1"
     showguides="true"
     inkscape:guide-bbox="true" />
  <metadata
     id="metadata2948">
    <rdf:RDF>
      <cc:Work
         rdf:about="">
        <dc:format>image/svg+xml</dc:format>
        <dc:type
           rdf:resource="http://purl.org/dc/dcmitype/StillImage" />
        <dc:title />
      </cc:Work>
    </rdf:RDF>
  </metadata>
  <g
     inkscape:label="Layer 1"
     inkscape:groupmode="layer"
     id="layer1"
     transform="translate(-243.16607,-280.62799)">
    <path
       style="fill:#4d80bf;fill-opacity:1;stroke:none"
       d="m 292.70174,315.36276 31.43505,-16.60306 0,35.12187 -31.43505,16.60306 0,-35.12187 z"
       id="rect3205"
       sodipodi:nodetypes="ccccc" />
    <path
       sodipodi:nodetypes="ccccc"
       id="path3208"
       d="m 292.66354,315.45115 -30.67075,-19.15738 0,35.21026 30.67075,18.9806 0,-35.03348 z"
       style="fill:#1f54b3;fill-opacity:1;stroke:none" />
    <path
       style="fill:#7da7e2;fill-opacity:1;stroke:none"
       d="m 323.96001,298.86795 -30.41041,-18.45027 -31.75255,15.96448 31.1175,19.15738 31.04546,-16.67159 z"
       id="path3210"
       sodipodi:nodetypes="ccccc" />
    <text
       xml:space="preserve"
       style="font-size:33.31528473000000190px;fill:#b9db58;fill-opacity:1;stroke:#d8e1be;stroke-width:0.64;stroke-miterlimit:4;stroke-opacity:1;stroke-dasharray:none"
       x="-93.376953"
       y="453.29773"
       id="use5724"
       transform="matrix(0.94398009,-0.56576173,0.8345113,0.55919129,0,0)"><tspan
         sodipodi:role="line"
         id="tspan2929"
         x="-93.376953"
         y="453.29773"
         style="font-weight:bold;letter-spacing:-1.60451316999999993;fill:#b9db58;stroke:#d8e1be;stroke-width:0.64;font-family:Liberation Sans;fill-opacity:1;stroke-opacity:1;stroke-miterlimit:4;stroke-dasharray:none">p</tspan></text>
    <text
       id="use5784"
       y="507.27179"
       x="299.38333"
       style="font-size:35.92438889000000302px;fill:#b3d84c;fill-opacity:1;stroke:#89a53f;stroke-width:0.64;stroke-miterlimit:4;stroke-opacity:0.94117647000000004;stroke-dasharray:none"
       xml:space="preserve"
       transform="matrix(1.0020591,-0.55238064,0,0.99794513,0,0)"><tspan
         style="font-weight:bold;letter-spacing:-1.73017108000000008;fill:#b3d84c;stroke:#89a53f;stroke-width:0.64;font-family:Liberation Sans;fill-opacity:1;stroke-opacity:0.94117647000000004;stroke-miterlimit:4;stroke-dasharray:none"
         y="507.27179"
         x="299.38333"
         id="tspan2947"
         sodipodi:role="line">a</tspan></text>
    <text
       id="use5762"
       y="131.78647"
       x="279.99762"
       style="font-size:33.72207259999999707px;fill:#badc5b;fill-opacity:1;stroke:#3e664e;stroke-width:0.64005392999999999;stroke-opacity:1"
       xml:space="preserve"
       transform="matrix(0.97056688,0.70740751,0,1.0303257,0,0)"><tspan
         style="font-weight:bold;letter-spacing:-1.62410462000000000;fill:#badc5b;stroke:#3e664e;stroke-width:0.64005392999999999;font-family:Liberation Sans;fill-opacity:1;stroke-opacity:1"
         y="131.78647"
         x="279.99762"
         id="tspan2973"
         sodipodi:role="line">i</tspan></text>
    <g
       transform="scale(1.0023088,0.99769651)"
       style="font-size:15.10413647px;fill:#749b00;fill-opacity:1"
       id="text5945">
      <path
         d="m 379.74815,343.77792 0,-1.26851 1.32751,0 0,1.26851 -1.32751,0 m 0,9.67609 0,-7.97982 1.32751,0 0,7.97982 -1.32751,0"
         style="font-weight:normal;letter-spacing:-0.72743744;fill:#749b00;font-family:Liberation Sans"
         id="path3806" />
      <path
         d="m 387.42829,352.17075 c -0.24585,0.51134 -0.57281,0.87763 -0.98089,1.09888 -0.40317,0.22126 -0.90468,0.33188 -1.50451,0.33188 -1.00793,0 -1.75035,-0.33925 -2.22727,-1.01776 -0.47201,-0.6785 -0.70801,-1.70609 -0.70801,-3.08278 0,-2.78285 0.97843,-4.17428 2.93528,-4.17428 0.60475,0 1.10871,0.11063 1.51189,0.33187 0.40316,0.22126 0.72766,0.57281 0.97351,1.05464 l 0.0147,0 c -10e-6,-0.0492 -0.002,-0.12537 -0.007,-0.22863 -10e-6,-0.10816 -0.002,-0.21878 -0.007,-0.33188 -1e-5,-0.11799 -1e-5,-0.22862 0,-0.33187 -1e-5,-0.10325 -1e-5,-0.177 0,-0.22126 l 0,-3.09015 1.32751,0 0,9.29996 c -1e-5,0.19175 -1e-5,0.37613 0,0.55313 0.005,0.177 0.01,0.33925 0.0147,0.48675 0.005,0.14751 0.01,0.27534 0.0147,0.38351 0.005,0.10325 0.01,0.177 0.0147,0.22125 l -1.26851,0 c -0.01,-0.0492 -0.0197,-0.118 -0.0295,-0.2065 -0.005,-0.0934 -0.0123,-0.19913 -0.0221,-0.31713 -0.005,-0.118 -0.01,-0.24092 -0.0147,-0.36875 -0.005,-0.13275 -0.007,-0.26305 -0.007,-0.39088 l -0.0295,0 m -4.02679,-2.71403 c 0,0.55068 0.0344,1.02268 0.10325,1.41602 0.0688,0.39334 0.17946,0.71784 0.33188,0.97351 0.15241,0.25075 0.34662,0.43513 0.58263,0.55313 0.236,0.118 0.52362,0.177 0.86288,0.177 0.34908,0 0.65638,-0.0565 0.92188,-0.16963 0.27042,-0.11308 0.49413,-0.295 0.67114,-0.54575 0.18191,-0.25567 0.31958,-0.58755 0.413,-0.99564 0.0934,-0.40808 0.14012,-0.90713 0.14013,-1.49714 -1e-5,-0.56541 -0.0467,-1.04233 -0.14013,-1.43076 -0.0934,-0.39333 -0.23109,-0.71046 -0.413,-0.95138 -0.18193,-0.24092 -0.40564,-0.413 -0.67114,-0.51626 -0.26059,-0.10816 -0.56296,-0.16224 -0.90713,-0.16225 -0.32451,10e-6 -0.60476,0.0566 -0.84076,0.16963 -0.236,0.11309 -0.43267,0.29501 -0.59,0.54575 -0.15734,0.25076 -0.27534,0.57772 -0.35401,0.98089 -0.0737,0.39825 -0.11062,0.88255 -0.11062,1.45288"
         style="font-weight:normal;letter-spacing:-0.72743744;fill:#749b00;font-family:Liberation Sans"
         id="path3808" />
      <path
         d="m 391.08901,349.74435 c 0,0.41793 0.0418,0.80389 0.12538,1.15789 0.0885,0.34909 0.22125,0.65146 0.39825,0.90713 0.18192,0.25075 0.413,0.44742 0.69326,0.59001 0.28025,0.13766 0.61704,0.2065 1.01038,0.2065 0.57525,0 1.03496,-0.11554 1.37914,-0.34663 0.34908,-0.23108 0.58508,-0.52363 0.70801,-0.87763 l 1.16526,0.33187 c -0.0836,0.22126 -0.2016,0.44497 -0.35401,0.67114 -0.14751,0.22125 -0.34663,0.42283 -0.59738,0.60475 -0.25076,0.177 -0.56542,0.3245 -0.94401,0.4425 -0.37367,0.11309 -0.82601,0.16963 -1.35701,0.16963 -1.18001,0 -2.07977,-0.35154 -2.69927,-1.05463 -0.61459,-0.70309 -0.92189,-1.74789 -0.92189,-3.13441 0,-0.74733 0.0934,-1.37913 0.28026,-1.89539 0.18683,-0.52116 0.4425,-0.944 0.767,-1.26851 0.3245,-0.3245 0.70309,-0.55804 1.13576,-0.70063 0.43267,-0.14749 0.89484,-0.22125 1.38652,-0.22125 0.66866,0 1.22671,0.10817 1.67414,0.3245 0.45233,0.21634 0.81371,0.51626 1.08413,0.89976 0.27533,0.37859 0.46954,0.82601 0.58263,1.34226 0.118,0.51626 0.177,1.07431 0.177,1.67414 l 0,0.177 -5.69355,0 m 4.32179,-1.01776 c -0.0738,-0.84075 -0.28763,-1.45288 -0.64163,-1.83639 -0.35401,-0.38841 -0.86289,-0.58262 -1.52664,-0.58263 -0.22125,10e-6 -0.4548,0.0369 -0.70063,0.11063 -0.24092,0.0688 -0.46463,0.19421 -0.67113,0.37612 -0.20651,0.18193 -0.38105,0.43022 -0.52363,0.74489 -0.14259,0.30975 -0.22371,0.70555 -0.24338,1.18738 l 4.30704,0"
         style="font-weight:normal;letter-spacing:-0.72743744;fill:#749b00;font-family:Liberation Sans"
         id="path3810" />
      <path
         d="m 402.81806,353.45401 0,-5.0593 c 0,-0.38841 -0.0295,-0.71291 -0.0885,-0.9735 -0.0541,-0.26058 -0.14505,-0.46954 -0.27288,-0.62689 -0.12784,-0.16224 -0.29746,-0.27532 -0.50888,-0.33925 -0.2065,-0.0688 -0.46463,-0.10324 -0.77438,-0.10325 -0.31467,1e-5 -0.59984,0.0566 -0.85551,0.16963 -0.25075,0.10817 -0.46709,0.26796 -0.649,0.47938 -0.17701,0.2065 -0.31467,0.46463 -0.41301,0.77438 -0.0983,0.30484 -0.1475,0.65638 -0.1475,1.05463 l 0,4.62417 -1.32751,0 0,-6.27618 c 0,-0.16716 -0.002,-0.34171 -0.007,-0.52363 -1e-5,-0.18683 -0.002,-0.36137 -0.007,-0.52363 -0.005,-0.16716 -0.01,-0.30975 -0.0147,-0.42776 -0.005,-0.11799 -0.01,-0.1942 -0.0147,-0.22862 l 1.25376,0 c 0.005,0.0246 0.01,0.091 0.0147,0.19912 0.005,0.10818 0.01,0.23356 0.0147,0.37613 0.01,0.13768 0.0172,0.28026 0.0221,0.42776 0.005,0.14259 0.007,0.26305 0.007,0.36138 l 0.0221,0 c 0.12783,-0.23108 0.26796,-0.44004 0.42038,-0.62689 0.15241,-0.18682 0.32941,-0.34416 0.531,-0.472 0.20158,-0.13274 0.43267,-0.23354 0.69326,-0.30238 0.26058,-0.0737 0.56296,-0.11062 0.90713,-0.11062 0.4425,0 0.82354,0.0541 1.14314,0.16225 0.31958,0.10817 0.58262,0.27534 0.78913,0.5015 0.20649,0.22618 0.35645,0.51872 0.44988,0.87764 0.0983,0.354 0.14749,0.77684 0.1475,1.26851 l 0,5.31742 -1.33489,0"
         style="font-weight:normal;letter-spacing:-0.72743744;fill:#749b00;font-family:Liberation Sans"
         id="path3812" />
      <path
         d="m 408.49956,353.39501 c -0.20159,0.0541 -0.40809,0.0959 -0.61951,0.12538 -0.2065,0.0344 -0.44742,0.0516 -0.72275,0.0516 -1.06202,0 -1.59302,-0.6023 -1.59302,-1.80689 l 0,-5.3248 -0.92188,0 0,-0.96613 0.97351,0 0.39088,-1.78477 0.885,0 0,1.78477 1.47502,0 0,0.96613 -1.47502,0 0,5.03717 c 0,0.38351 0.0615,0.65393 0.18438,0.81126 0.12783,0.15242 0.34662,0.22863 0.65638,0.22863 0.12783,0 0.25075,-0.01 0.36875,-0.0295 0.12292,-0.0197 0.25567,-0.0443 0.39826,-0.0738 l 0,0.98088"
         style="font-weight:normal;letter-spacing:-0.72743744;fill:#749b00;font-family:Liberation Sans"
         id="path3814" />
      <path
         d="m 408.88575,343.77792 0,-1.26851 1.32752,0 0,1.26851 -1.32752,0 m 0,9.67609 0,-7.97982 1.32752,0 0,7.97982 -1.32752,0"
         style="font-weight:normal;letter-spacing:-0.72743744;fill:#749b00;font-family:Liberation Sans"
         id="path3816" />
      <path
         d="m 414.59675,353.39501 c -0.20159,0.0541 -0.40809,0.0959 -0.61951,0.12538 -0.2065,0.0344 -0.44742,0.0516 -0.72275,0.0516 -1.06201,0 -1.59302,-0.6023 -1.59302,-1.80689 l 0,-5.3248 -0.92188,0 0,-0.96613 0.97351,0 0.39088,-1.78477 0.88501,0 0,1.78477 1.47501,0 0,0.96613 -1.47501,0 0,5.03717 c -10e-6,0.38351 0.0614,0.65393 0.18437,0.81126 0.12783,0.15242 0.34663,0.22863 0.65638,0.22863 0.12783,0 0.25075,-0.01 0.36876,-0.0295 0.12291,-0.0197 0.25566,-0.0443 0.39825,-0.0738 l 0,0.98088"
         style="font-weight:normal;letter-spacing:-0.72743744;fill:#749b00;font-family:Liberation Sans"
         id="path3818" />
      <path
         d="m 418.4271,353.45401 c -0.18683,0.48184 -0.37859,0.91451 -0.57525,1.29801 -0.19176,0.38842 -0.40809,0.71784 -0.64901,0.98826 -0.24092,0.27533 -0.50888,0.48429 -0.80388,0.62688 -0.295,0.1475 -0.63426,0.22125 -1.01776,0.22125 -0.16717,0 -0.32204,-0.005 -0.46463,-0.0147 -0.14258,-0.01 -0.29254,-0.032 -0.44988,-0.0664 l 0,-0.99564 c 0.0934,0.0148 0.19913,0.0246 0.31713,0.0295 0.118,0.01 0.21879,0.0147 0.30238,0.0147 0.38842,0 0.7498,-0.14504 1.08413,-0.43512 0.33434,-0.29009 0.62688,-0.75226 0.87764,-1.38652 l 0.12537,-0.31713 -3.1639,-7.94294 1.41601,0 1.68152,4.41029 c 0.0492,0.13275 0.11062,0.30975 0.18437,0.531 0.0787,0.22126 0.15488,0.44251 0.22863,0.66376 0.0787,0.22125 0.1475,0.42038 0.2065,0.59738 0.059,0.177 0.0934,0.28763 0.10325,0.33188 0.0147,-0.0541 0.0492,-0.15979 0.10326,-0.31713 0.059,-0.16225 0.12291,-0.34171 0.19175,-0.53838 0.0737,-0.19667 0.14749,-0.39579 0.22125,-0.59738 0.0738,-0.20158 0.1352,-0.37613 0.18438,-0.52363 l 1.56351,-4.55779 1.40126,0 -3.06803,7.97982"
         style="font-weight:normal;letter-spacing:-0.72743744;fill:#749b00;font-family:Liberation Sans"
         id="path3820" />
      <path
         d="m 429.07003,356.65479 0,-14.14538 1.22426,0 0,14.14538 -1.22426,0"
         style="fill:#888a85;fill-opacity:1"
         id="path3822" />
      <path
         d="m 445.60564,349.42722 c -10e-6,0.60476 -0.0492,1.16281 -0.1475,1.67414 -0.0983,0.51134 -0.26305,0.95139 -0.49413,1.32014 -0.22618,0.36875 -0.52855,0.65884 -0.90713,0.87026 -0.37368,0.2065 -0.83585,0.30975 -1.38652,0.30975 -0.57034,0 -1.06938,-0.10817 -1.49713,-0.3245 -0.42776,-0.21634 -0.75472,-0.57034 -0.98089,-1.06201 l -0.0369,0 c 0.005,0.01 0.007,0.0541 0.007,0.13275 0.005,0.0787 0.007,0.177 0.007,0.295 0.005,0.118 0.007,0.25076 0.007,0.39826 0.005,0.14258 0.007,0.28517 0.007,0.42775 l 0,3.11965 -1.32752,0 0,-9.48433 c 0,-0.19175 -0.002,-0.37612 -0.007,-0.55313 0,-0.177 -0.002,-0.33679 -0.007,-0.47938 -0.005,-0.1475 -0.01,-0.27287 -0.0147,-0.37613 -0.005,-0.10324 -0.01,-0.17699 -0.0147,-0.22125 l 1.28327,0 c 0.005,0.0148 0.01,0.0664 0.0147,0.15487 0.01,0.0885 0.0172,0.19668 0.0221,0.32451 0.01,0.12292 0.0172,0.25567 0.0221,0.39825 0.01,0.14259 0.0147,0.2778 0.0147,0.40563 l 0.0295,0 c 0.12291,-0.25566 0.26304,-0.472 0.42038,-0.64901 0.15733,-0.18191 0.33679,-0.32941 0.53837,-0.4425 0.20159,-0.11799 0.4253,-0.20158 0.67114,-0.25075 0.25074,-0.0541 0.531,-0.0811 0.84075,-0.0811 0.55067,10e-6 1.01284,0.0983 1.38652,0.295 0.37858,0.19668 0.68095,0.47447 0.90713,0.83339 0.23108,0.35401 0.39579,0.78422 0.49413,1.29063 0.0983,0.50151 0.14749,1.05956 0.1475,1.67414 m -1.39389,0.0295 c 0,-0.49166 -0.0295,-0.92925 -0.0885,-1.31276 -0.059,-0.3835 -0.16226,-0.708 -0.30975,-0.97351 -0.14259,-0.26549 -0.33434,-0.46708 -0.57526,-0.60475 -0.24092,-0.13766 -0.5433,-0.2065 -0.90713,-0.2065 -0.29501,0 -0.5728,0.0418 -0.83338,0.12537 -0.26059,0.0836 -0.48922,0.24339 -0.68588,0.47938 -0.19176,0.23601 -0.34418,0.56297 -0.45726,0.98089 -0.11308,0.413 -0.16963,0.95138 -0.16962,1.61513 -1e-5,0.56543 0.0467,1.04481 0.14012,1.43814 0.0934,0.38843 0.22863,0.70309 0.40563,0.94401 0.18192,0.24092 0.40563,0.41546 0.67113,0.52363 0.2655,0.10325 0.57034,0.15488 0.91451,0.15488 0.36875,0 0.67358,-0.0713 0.91451,-0.21388 0.24583,-0.14258 0.44004,-0.34908 0.58263,-0.61951 0.14749,-0.27041 0.25074,-0.59983 0.30975,-0.98825 0.059,-0.39334 0.0885,-0.84076 0.0885,-1.34227"
         style="font-weight:normal;letter-spacing:-0.72743744;fill:#749b00;font-family:Liberation Sans"
         id="path3824" />
      <path
         d="m 453.28577,349.45672 c 0,1.39635 -0.3073,2.43624 -0.92188,3.11966 -0.61459,0.68342 -1.50698,1.02513 -2.67715,1.02513 -0.55559,0 -1.05218,-0.0836 -1.48976,-0.25075 -0.43759,-0.16717 -0.8088,-0.42284 -1.11364,-0.76701 -0.29992,-0.34417 -0.531,-0.77438 -0.69325,-1.29063 -0.15734,-0.52117 -0.23601,-1.1333 -0.23601,-1.8364 0,-2.75335 1.19231,-4.13003 3.57691,-4.13003 0.6195,0 1.15297,0.0861 1.60039,0.25812 0.45233,0.1721 0.82109,0.43022 1.10626,0.77439 0.29008,0.34417 0.50396,0.77438 0.64163,1.29063 0.13766,0.51626 0.2065,1.11856 0.2065,1.80689 m -1.39388,0 c -10e-6,-0.6195 -0.0492,-1.13083 -0.1475,-1.53401 -0.0934,-0.40316 -0.23355,-0.72521 -0.42038,-0.96613 -0.18193,-0.24092 -0.40564,-0.40808 -0.67113,-0.50151 -0.26551,-0.0983 -0.56543,-0.14749 -0.89976,-0.1475 -0.33926,10e-6 -0.64655,0.0516 -0.92189,0.15488 -0.27042,0.0983 -0.5015,0.27042 -0.69325,0.51625 -0.19176,0.24093 -0.33926,0.56297 -0.44251,0.96614 -0.0983,0.40317 -0.1475,0.90713 -0.1475,1.51188 0,0.61951 0.0541,1.13331 0.16225,1.54139 0.10817,0.40318 0.25567,0.72522 0.44251,0.96614 0.19175,0.24092 0.41546,0.41054 0.67113,0.50888 0.26058,0.0983 0.54329,0.1475 0.84813,0.1475 0.33925,0 0.64654,-0.0467 0.92188,-0.14013 0.27534,-0.0983 0.50888,-0.26796 0.70064,-0.50888 0.19174,-0.24092 0.33924,-0.56542 0.4425,-0.97351 0.10324,-0.40808 0.15487,-0.92188 0.15488,-1.54139"
         style="font-weight:normal;letter-spacing:-0.72743744;fill:#749b00;font-family:Liberation Sans"
         id="path3826" />
      <path
         d="m 454.21773,353.45401 0,-10.9446 1.32751,0 0,10.9446 -1.32751,0"
         style="font-weight:normal;letter-spacing:-0.72743744;fill:#749b00;font-family:Liberation Sans"
         id="path3828" />
      <path
         d="m 456.84595,343.77792 0,-1.26851 1.32751,0 0,1.26851 -1.32751,0 m 0,9.67609 0,-7.97982 1.32751,0 0,7.97982 -1.32751,0"
         style="font-weight:normal;letter-spacing:-0.72743744;fill:#749b00;font-family:Liberation Sans"
         id="path3830" />
      <path
         d="m 460.4993,349.42722 c -1e-5,0.45726 0.0319,0.87764 0.0959,1.26114 0.0688,0.38351 0.18192,0.71538 0.33926,0.99563 0.15733,0.27534 0.36383,0.48922 0.6195,0.64163 0.26058,0.15242 0.58017,0.22863 0.95876,0.22863 0.472,0 0.86534,-0.12783 1.18001,-0.3835 0.31958,-0.25567 0.51625,-0.64901 0.59001,-1.18001 l 1.34226,0.0885 c -0.0443,0.32942 -0.14014,0.64655 -0.28763,0.95138 -0.14751,0.30484 -0.34909,0.5728 -0.60476,0.80388 -0.25075,0.23109 -0.55805,0.41793 -0.92188,0.56051 -0.36384,0.13767 -0.78422,0.2065 -1.26113,0.2065 -0.62443,0 -1.15543,-0.10571 -1.59302,-0.31713 -0.43759,-0.21141 -0.79405,-0.5015 -1.06938,-0.87025 -0.27042,-0.37367 -0.46709,-0.81126 -0.59001,-1.31277 -0.12292,-0.50641 -0.18438,-1.05463 -0.18438,-1.64464 0,-0.53591 0.0443,-1.00792 0.13276,-1.41601 0.0885,-0.413 0.21141,-0.77192 0.36875,-1.07676 0.16225,-0.30974 0.35154,-0.56787 0.56788,-0.77438 0.21633,-0.21141 0.44988,-0.37858 0.70063,-0.50151 0.25567,-0.12782 0.52363,-0.21878 0.80388,-0.27287 0.28025,-0.059 0.56296,-0.0885 0.84813,-0.0885 0.44742,0 0.84567,0.0615 1.19477,0.18437 0.34908,0.12293 0.649,0.29256 0.89975,0.50888 0.25567,0.21143 0.46217,0.46218 0.61951,0.75226 0.15733,0.29009 0.26795,0.6023 0.33188,0.93663 l -1.36439,0.10325 c -0.0688,-0.44249 -0.24338,-0.79404 -0.52363,-1.05463 -0.28026,-0.26058 -0.67851,-0.39087 -1.19476,-0.39088 -0.37859,10e-6 -0.69572,0.0639 -0.95138,0.19175 -0.25076,0.12293 -0.4548,0.31222 -0.61213,0.56788 -0.15734,0.25076 -0.27043,0.56789 -0.33926,0.95139 -0.0639,0.3835 -0.0959,0.83338 -0.0959,1.34963"
         style="font-weight:normal;letter-spacing:-0.72743744;fill:#749b00;font-family:Liberation Sans"
         id="path3832" />
      <path
         d="m 469.75032,353.45401 c -0.18684,0.48184 -0.37859,0.91451 -0.57525,1.29801 -0.19176,0.38842 -0.40809,0.71784 -0.64901,0.98826 -0.24092,0.27533 -0.50888,0.48429 -0.80388,0.62688 -0.295,0.1475 -0.63426,0.22125 -1.01776,0.22125 -0.16717,0 -0.32204,-0.005 -0.46463,-0.0147 -0.14258,-0.01 -0.29254,-0.032 -0.44988,-0.0664 l 0,-0.99564 c 0.0934,0.0148 0.19913,0.0246 0.31713,0.0295 0.118,0.01 0.21879,0.0147 0.30238,0.0147 0.38842,0 0.7498,-0.14504 1.08413,-0.43512 0.33434,-0.29009 0.62688,-0.75226 0.87764,-1.38652 l 0.12537,-0.31713 -3.1639,-7.94294 1.41601,0 1.68152,4.41029 c 0.0492,0.13275 0.11062,0.30975 0.18437,0.531 0.0787,0.22126 0.15488,0.44251 0.22863,0.66376 0.0787,0.22125 0.1475,0.42038 0.2065,0.59738 0.059,0.177 0.0934,0.28763 0.10325,0.33188 0.0147,-0.0541 0.0492,-0.15979 0.10325,-0.31713 0.059,-0.16225 0.12292,-0.34171 0.19176,-0.53838 0.0737,-0.19667 0.14749,-0.39579 0.22125,-0.59738 0.0737,-0.20158 0.1352,-0.37613 0.18438,-0.52363 l 1.56351,-4.55779 1.40126,0 -3.06803,7.97982"
         style="font-weight:normal;letter-spacing:-0.72743744;fill:#749b00;font-family:Liberation Sans"
         id="path3834" />
      <path
         d="m 480.39325,356.65479 0,-14.14538 1.22427,0 0,14.14538 -1.22427,0"
         style="fill:#888a85;fill-opacity:1"
         id="path3836" />
      <path
         d="m 492.2162,353.60151 c -0.80143,0 -1.40373,-0.21142 -1.8069,-0.63425 -0.40317,-0.42284 -0.60475,-1.00301 -0.60475,-1.74052 0,-0.52609 0.0983,-0.9563 0.295,-1.29064 0.20159,-0.33925 0.46217,-0.60475 0.78176,-0.7965 0.3245,-0.19175 0.69325,-0.3245 1.10626,-0.39826 0.413,-0.0737 0.83338,-0.11554 1.26114,-0.12537 l 1.79214,-0.0295 0,-0.43513 c -10e-6,-0.32942 -0.0344,-0.60967 -0.10325,-0.84076 -0.0688,-0.23108 -0.17455,-0.41791 -0.31713,-0.56051 -0.14259,-0.14257 -0.32205,-0.24582 -0.53838,-0.30975 -0.21143,-0.0688 -0.46218,-0.10324 -0.75226,-0.10325 -0.25567,1e-5 -0.48676,0.0197 -0.69326,0.059 -0.2065,0.0344 -0.38596,0.1008 -0.53838,0.19913 -0.15242,0.0934 -0.27533,0.22372 -0.36875,0.39088 -0.0934,0.16225 -0.15488,0.36876 -0.18438,0.6195 l -1.38651,-0.12537 c 0.0492,-0.31467 0.14259,-0.60229 0.28025,-0.86289 0.13767,-0.26549 0.33188,-0.49412 0.58263,-0.68588 0.25567,-0.19174 0.5728,-0.33924 0.95139,-0.4425 0.3835,-0.10816 0.84567,-0.16225 1.38651,-0.16225 1.003,0 1.75772,0.23109 2.26415,0.69325 0.50641,0.45726 0.75962,1.12102 0.75963,1.99127 l 0,3.43678 c -10e-6,0.39334 0.0516,0.6908 0.15487,0.89238 0.10325,0.19667 0.29992,0.29501 0.59001,0.29501 0.0737,0 0.14749,-0.005 0.22125,-0.0147 0.0737,-0.01 0.14504,-0.0221 0.21388,-0.0369 l 0,0.82601 c -0.16718,0.0393 -0.33435,0.0688 -0.50151,0.0885 -0.16225,0.0197 -0.3368,0.0295 -0.52363,0.0295 -0.25075,0 -0.46709,-0.032 -0.649,-0.0959 -0.17701,-0.0688 -0.32205,-0.16962 -0.43513,-0.30237 -0.11309,-0.13767 -0.19913,-0.30484 -0.25813,-0.50151 -0.059,-0.20158 -0.0959,-0.43513 -0.11062,-0.70063 l -0.0443,0 c -0.14259,0.25567 -0.29993,0.48676 -0.47201,0.69326 -0.16717,0.2065 -0.36384,0.3835 -0.59,0.531 -0.22618,0.14259 -0.4843,0.25321 -0.77439,0.33188 -0.28517,0.0787 -0.61459,0.118 -0.98825,0.118 m 0.30237,-0.99563 c 0.42284,0 0.79159,-0.0762 1.10626,-0.22863 0.31958,-0.15733 0.58263,-0.35646 0.78914,-0.59738 0.21141,-0.24092 0.36874,-0.50396 0.472,-0.78913 0.10324,-0.28517 0.15487,-0.55805 0.15488,-0.81863 l 0,-0.65639 -1.45289,0.0295 c -0.32451,0.005 -0.63426,0.0295 -0.92926,0.0738 -0.29009,0.0393 -0.54576,0.12046 -0.76701,0.24337 -0.22125,0.12292 -0.39825,0.29501 -0.531,0.51626 -0.12784,0.22125 -0.19176,0.51134 -0.19175,0.87026 -1e-5,0.43267 0.11554,0.767 0.34662,1.003 0.236,0.23601 0.57034,0.35401 1.00301,0.35401"
         style="font-weight:normal;letter-spacing:-0.72743744;fill:#749b00;font-family:Liberation Sans"
         id="path3838" />
      <path
         d="m 499.15883,345.47419 0,5.05929 c -1e-5,0.38843 0.027,0.71293 0.0811,0.97351 0.059,0.26059 0.15242,0.47201 0.28025,0.63426 0.12784,0.15733 0.295,0.27042 0.50151,0.33925 0.21141,0.0639 0.472,0.0959 0.78176,0.0959 0.31466,0 0.59737,-0.0541 0.84813,-0.16225 0.25566,-0.11309 0.472,-0.27288 0.64901,-0.47938 0.18191,-0.21142 0.32203,-0.46955 0.42037,-0.77439 0.0983,-0.30975 0.1475,-0.66375 0.14751,-1.06201 l 0,-4.62416 1.32751,0 0,6.27618 c -1e-5,0.16717 -1e-5,0.34417 0,0.531 0.005,0.18192 0.01,0.35647 0.0147,0.52363 0.005,0.16226 0.01,0.30238 0.0147,0.42038 0.005,0.118 0.01,0.19421 0.0147,0.22863 l -1.25376,0 c -0.005,-0.0246 -0.01,-0.091 -0.0147,-0.19913 -0.005,-0.10816 -0.0123,-0.23108 -0.0221,-0.36875 -0.005,-0.14258 -0.01,-0.28517 -0.0147,-0.42775 -0.005,-0.1475 -0.007,-0.27042 -0.007,-0.36876 l -0.0221,0 c -0.12784,0.23109 -0.26797,0.44005 -0.42038,0.62688 -0.15242,0.18684 -0.32942,0.34663 -0.531,0.47938 -0.20159,0.12784 -0.43268,0.22617 -0.69326,0.29501 -0.26059,0.0738 -0.56297,0.11062 -0.90713,0.11062 -0.44251,0 -0.82355,-0.0541 -1.14314,-0.16225 -0.31959,-0.10817 -0.58263,-0.27534 -0.78913,-0.5015 -0.2065,-0.22617 -0.35892,-0.51626 -0.45725,-0.87026 -0.0934,-0.354 -0.14013,-0.7793 -0.14013,-1.27589 l 0,-5.31742 1.33489,0"
         style="font-weight:normal;letter-spacing:-0.72743744;fill:#749b00;font-family:Liberation Sans"
         id="path3840" />
      <path
         d="m 510.57812,352.17075 c -0.24584,0.51134 -0.5728,0.87763 -0.98088,1.09888 -0.40318,0.22126 -0.90468,0.33188 -1.50451,0.33188 -1.00793,0 -1.75036,-0.33925 -2.22727,-1.01776 -0.47201,-0.6785 -0.70801,-1.70609 -0.70801,-3.08278 0,-2.78285 0.97842,-4.17428 2.93528,-4.17428 0.60475,0 1.10871,0.11063 1.51188,0.33187 0.40317,0.22126 0.72767,0.57281 0.97351,1.05464 l 0.0147,0 c 0,-0.0492 -0.002,-0.12537 -0.007,-0.22863 -1e-5,-0.10816 -0.002,-0.21878 -0.007,-0.33188 0,-0.11799 0,-0.22862 0,-0.33187 0,-0.10325 0,-0.177 0,-0.22126 l 0,-3.09015 1.32752,0 0,9.29996 c -1e-5,0.19175 -1e-5,0.37613 0,0.55313 0.005,0.177 0.01,0.33925 0.0147,0.48675 0.005,0.14751 0.01,0.27534 0.0147,0.38351 0.005,0.10325 0.01,0.177 0.0147,0.22125 l -1.26852,0 c -0.01,-0.0492 -0.0197,-0.118 -0.0295,-0.2065 -0.005,-0.0934 -0.0123,-0.19913 -0.0221,-0.31713 -0.005,-0.118 -0.01,-0.24092 -0.0147,-0.36875 -0.005,-0.13275 -0.007,-0.26305 -0.007,-0.39088 l -0.0295,0 m -4.02678,-2.71403 c -10e-6,0.55068 0.0344,1.02268 0.10325,1.41602 0.0688,0.39334 0.17946,0.71784 0.33188,0.97351 0.15241,0.25075 0.34662,0.43513 0.58263,0.55313 0.23599,0.118 0.52362,0.177 0.86288,0.177 0.34908,0 0.65638,-0.0565 0.92188,-0.16963 0.27042,-0.11308 0.49413,-0.295 0.67113,-0.54575 0.18192,-0.25567 0.31958,-0.58755 0.41301,-0.99564 0.0934,-0.40808 0.14012,-0.90713 0.14012,-1.49714 0,-0.56541 -0.0467,-1.04233 -0.14012,-1.43076 -0.0934,-0.39333 -0.23109,-0.71046 -0.41301,-0.95138 -0.18192,-0.24092 -0.40563,-0.413 -0.67113,-0.51626 -0.26059,-0.10816 -0.56297,-0.16224 -0.90713,-0.16225 -0.32451,10e-6 -0.60476,0.0566 -0.84076,0.16963 -0.236,0.11309 -0.43267,0.29501 -0.59,0.54575 -0.15734,0.25076 -0.27534,0.57772 -0.35401,0.98089 -0.0738,0.39825 -0.11063,0.88255 -0.11062,1.45288"
         style="font-weight:normal;letter-spacing:-0.72743744;fill:#749b00;font-family:Liberation Sans"
         id="path3842" />
      <path
         d="m 513.21372,343.77792 0,-1.26851 1.32751,0 0,1.26851 -1.32751,0 m 0,9.67609 0,-7.97982 1.32751,0 0,7.97982 -1.32751,0"
         style="font-weight:normal;letter-spacing:-0.72743744;fill:#749b00;font-family:Liberation Sans"
         id="path3844" />
      <path
         d="m 518.92472,353.39501 c -0.20159,0.0541 -0.4081,0.0959 -0.61951,0.12538 -0.20651,0.0344 -0.44742,0.0516 -0.72276,0.0516 -1.06201,0 -1.59301,-0.6023 -1.59301,-1.80689 l 0,-5.3248 -0.92188,0 0,-0.96613 0.9735,0 0.39088,-1.78477 0.88501,0 0,1.78477 1.47501,0 0,0.96613 -1.47501,0 0,5.03717 c 0,0.38351 0.0615,0.65393 0.18438,0.81126 0.12783,0.15242 0.34662,0.22863 0.65638,0.22863 0.12783,0 0.25075,-0.01 0.36875,-0.0295 0.12292,-0.0197 0.25567,-0.0443 0.39826,-0.0738 l 0,0.98088"
         style="font-weight:normal;letter-spacing:-0.72743744;fill:#749b00;font-family:Liberation Sans"
         id="path3846" />
    </g>
    <g
       transform="scale(1.0023088,0.99769651)"
       style="font-size:63.0018959px;fill:#292d31;fill-opacity:1"
       id="use6007">
      <path
         d="m 352.77197,304.46888 0,29.25527 -5.53727,0 0,-29.25527 -4.67593,0 0,-4.02991 4.67593,0 0,-3.75304 c -10e-6,-1.20996 0.11279,-2.32767 0.33838,-3.35313 0.22559,-1.04589 0.63576,-1.94826 1.23051,-2.70711 0.61525,-0.77928 1.44584,-1.38428 2.49177,-1.815 1.04592,-0.45114 2.39948,-0.67673 4.06067,-0.67678 0.65626,5e-5 1.33304,0.0308 2.03034,0.0923 0.71778,0.0616 1.34328,0.15386 1.87652,0.27686 l 0,4.21449 c -0.34866,-0.0615 -0.75883,-0.11276 -1.23051,-0.15382 -0.4512,-0.0615 -0.86137,-0.0922 -1.2305,-0.0923 -0.82035,4e-5 -1.49713,0.11283 -2.03034,0.33838 -0.51272,0.22564 -0.92289,0.55377 -1.2305,0.98441 -0.28713,0.41021 -0.49222,0.92292 -0.61526,1.53813 -0.10255,0.61529 -0.15382,1.32283 -0.15381,2.12262 l 0,2.98398 6.49092,0 0,4.02991 -6.49092,0"
         style="letter-spacing:-3.6909194;fill:#292d31;font-family:Liberation Sans"
         id="path3748" />
      <path
         d="m 359.81721,333.72415 0,-25.53299 c 0,-0.69726 -0.0102,-1.4048 -0.0308,-2.12263 0,-0.73827 -0.0103,-1.44581 -0.0308,-2.12262 -0.0205,-0.67675 -0.041,-1.31251 -0.0615,-1.90728 -0.0205,-0.59471 -0.041,-1.12793 -0.0615,-1.59966 l 5.22965,0 c 0.0205,0.47173 0.041,1.0152 0.0615,1.63042 0.041,0.59478 0.0718,1.21003 0.0923,1.84576 0.041,0.63579 0.0615,1.25104 0.0615,1.84576 0.0205,0.57426 0.0308,1.06646 0.0308,1.4766 l 0.12305,0 c 0.38965,-1.27149 0.79982,-2.36869 1.23051,-3.2916 0.45117,-0.94336 0.97413,-1.71242 1.56889,-2.3072 0.59473,-0.61522 1.30227,-1.0664 2.12262,-1.35355 0.82033,-0.3076 1.81498,-0.46141 2.98398,-0.46144 0.45117,3e-5 0.88184,0.0411 1.29203,0.12305 0.41015,0.0616 0.72803,0.12308 0.95364,0.18457 l 0,5.07584 c -0.36917,-0.10251 -0.79984,-0.17429 -1.29203,-0.21534 -0.49222,-0.0615 -1.04595,-0.0923 -1.66118,-0.0923 -1.27154,3e-5 -2.35848,0.28715 -3.26084,0.86136 -0.88188,0.57426 -1.60993,1.37409 -2.18415,2.39948 -0.55374,1.00494 -0.96391,2.21494 -1.2305,3.63 -0.26662,1.39459 -0.39993,2.92247 -0.39992,4.58363 l 0,17.35013 -5.53728,0"
         style="letter-spacing:-3.6909194;fill:#292d31;font-family:Liberation Sans"
         id="path3750" />
      <path
         d="m 381.29014,318.25054 c -1e-5,1.74323 0.17431,3.35314 0.52296,4.82974 0.36915,1.4561 0.92287,2.71737 1.66119,3.7838 0.7588,1.04594 1.72269,1.86627 2.89168,2.46101 1.16897,0.57424 2.5738,0.86136 4.21449,0.86136 2.39946,0 4.317,-0.48195 5.75261,-1.44585 1.45607,-0.96389 2.44048,-2.18414 2.95322,-3.66075 l 4.86049,1.38432 c -0.34867,0.92288 -0.84087,1.85602 -1.4766,2.7994 -0.61529,0.92288 -1.44588,1.76373 -2.49178,2.52254 -1.04595,0.7383 -2.35849,1.35355 -3.93762,1.84575 -1.55866,0.4717 -3.44543,0.70754 -5.66032,0.70754 -4.92204,0 -8.67508,-1.46635 -11.25913,-4.39905 -2.56356,-2.9327 -3.84533,-7.29074 -3.84533,-13.07413 0,-3.11726 0.38966,-5.75259 1.16898,-7.906 0.77931,-2.17386 1.84575,-3.93759 3.19931,-5.29117 1.35355,-1.35353 2.9327,-2.32768 4.73745,-2.92245 1.80473,-0.61522 3.73252,-0.92285 5.78338,-0.92288 2.78912,3e-5 5.11683,0.45122 6.98312,1.35355 1.88675,0.90241 3.39412,2.15342 4.52211,3.75305 1.14844,1.57917 1.95852,3.44544 2.43025,5.5988 0.49217,2.1534 0.73827,4.48111 0.7383,6.98312 l 0,0.7383 -23.74876,0 m 18.02691,-4.24524 c -0.30765,-3.50692 -1.19977,-6.06022 -2.67635,-7.6599 -1.47663,-1.62014 -3.59925,-2.43022 -6.36787,-2.43025 -0.9229,3e-5 -1.89704,0.15384 -2.92245,0.46144 -1.00493,0.28715 -1.93806,0.81011 -2.7994,1.56889 -0.86137,0.75884 -1.58941,1.79452 -2.18415,3.10703 -0.59475,1.29206 -0.93314,2.94298 -1.01517,4.95279 l 17.96539,0"
         style="letter-spacing:-3.6909194;fill:#292d31;font-family:Liberation Sans"
         id="path3752" />
      <path
         d="m 412.66864,318.25054 c -10e-6,1.74323 0.17431,3.35314 0.52296,4.82974 0.36914,1.4561 0.92287,2.71737 1.66118,3.7838 0.7588,1.04594 1.7227,1.86627 2.89169,2.46101 1.16897,0.57424 2.57379,0.86136 4.21448,0.86136 2.39947,0 4.31701,-0.48195 5.75262,-1.44585 1.45607,-0.96389 2.44048,-2.18414 2.95321,-3.66075 l 4.8605,1.38432 c -0.34867,0.92288 -0.84088,1.85602 -1.47661,2.7994 -0.61528,0.92288 -1.44587,1.76373 -2.49177,2.52254 -1.04596,0.7383 -2.35849,1.35355 -3.93762,1.84575 -1.55866,0.4717 -3.44543,0.70754 -5.66033,0.70754 -4.92203,0 -8.67507,-1.46635 -11.25912,-4.39905 -2.56356,-2.9327 -3.84534,-7.29074 -3.84533,-13.07413 -10e-6,-3.11726 0.38965,-5.75259 1.16898,-7.906 0.77931,-2.17386 1.84575,-3.93759 3.19931,-5.29117 1.35355,-1.35353 2.9327,-2.32768 4.73745,-2.92245 1.80473,-0.61522 3.73252,-0.92285 5.78338,-0.92288 2.78912,3e-5 5.11683,0.45122 6.98312,1.35355 1.88675,0.90241 3.39411,2.15342 4.52211,3.75305 1.14844,1.57917 1.95852,3.44544 2.43024,5.5988 0.49217,2.1534 0.73828,4.48111 0.73831,6.98312 l 0,0.7383 -23.74876,0 m 18.02691,-4.24524 c -0.30766,-3.50692 -1.19977,-6.06022 -2.67635,-7.6599 -1.47663,-1.62014 -3.59925,-2.43022 -6.36787,-2.43025 -0.9229,3e-5 -1.89705,0.15384 -2.92245,0.46144 -1.00493,0.28715 -1.93806,0.81011 -2.7994,1.56889 -0.86137,0.75884 -1.58942,1.79452 -2.18415,3.10703 -0.59475,1.29206 -0.93314,2.94298 -1.01517,4.95279 l 17.96539,0"
         style="letter-spacing:-3.6909194;fill:#292d31;font-family:Liberation Sans"
         id="path3754" />
      <path
         d="m 441.37078,333.72415 0,-43.34456 5.87567,0 0,43.34456 -5.87567,0"
         style="letter-spacing:-3.6909194;fill:#292d31;font-family:Liberation Sans"
         id="path3756" />
      <path
         d="m 488.03831,303.42295 c -4e-5,1.8868 -0.31792,3.65052 -0.95364,5.29117 -0.61529,1.62019 -1.54842,3.03527 -2.7994,4.24525 -1.23054,1.18951 -2.77892,2.13289 -4.64516,2.83016 -1.8663,0.6973 -4.04019,1.04595 -6.52168,1.04593 l -12.73574,0 0,16.88869 -5.87566,0 0,-43.34456 18.24225,0 c 2.56353,4e-5 4.79894,0.31792 6.70625,0.95364 1.90726,0.61529 3.49666,1.49715 4.76821,2.64558 1.27149,1.12801 2.22513,2.50207 2.86093,4.1222 0.63572,1.59969 0.9536,3.37367 0.95364,5.32194 m -5.90643,0.0615 c -3e-5,-2.74809 -0.84087,-4.8297 -2.52253,-6.24481 -1.68172,-1.43556 -4.20426,-2.15335 -7.56761,-2.15339 l -11.65905,0 0,17.10403 11.90515,0 c 3.38386,2e-5 5.86538,-0.74853 7.44456,-2.24567 1.59962,-1.49709 2.39945,-3.65048 2.39948,-6.46016"
         style="letter-spacing:-3.6909194;fill:#292d31;font-family:Liberation Sans"
         id="path3758" />
      <path
         d="m 518.95537,333.72415 -4.95279,-12.67421 -19.74962,0 -4.98355,12.67421 -6.091,0 17.68852,-43.34456 6.67549,0 17.41166,43.34456 -5.99871,0 m -12.2743,-31.56247 c -0.32816,-0.82031 -0.64604,-1.6509 -0.95364,-2.49178 -0.28714,-0.84081 -0.5435,-1.59962 -0.76907,-2.27643 -0.22561,-0.69725 -0.42044,-1.27149 -0.58449,-1.72271 -0.14358,-0.47165 -0.22561,-0.75877 -0.2461,-0.86135 -0.041,0.10258 -0.13333,0.3897 -0.27686,0.86135 -0.14358,0.47173 -0.33841,1.05622 -0.58449,1.75347 -0.22562,0.69732 -0.49223,1.46639 -0.79983,2.3072 -0.28714,0.84088 -0.58451,1.67147 -0.89212,2.49177 l -5.53728,14.24311 16.21192,0 -5.56804,-14.30463"
         style="letter-spacing:-3.6909194;fill:#292d31;font-family:Liberation Sans"
         id="path3760" />
    </g>
  </g>
</svg>
