<?xml version="1.0" encoding="UTF-8" standalone="no"?>
<!-- Created with Inkscape (http://www.inkscape.org/) -->

<svg
   xmlns:dc="http://purl.org/dc/elements/1.1/"
   xmlns:cc="http://creativecommons.org/ns#"
   xmlns:rdf="http://www.w3.org/1999/02/22-rdf-syntax-ns#"
   xmlns:svg="http://www.w3.org/2000/svg"
   xmlns="http://www.w3.org/2000/svg"
   xmlns:xlink="http://www.w3.org/1999/xlink"
   xmlns:sodipodi="http://sodipodi.sourceforge.net/DTD/sodipodi-0.dtd"
   xmlns:inkscape="http://www.inkscape.org/namespaces/inkscape"
   width="300"
   height="86.999992"
   id="svg2"
   version="1.1"
   inkscape:version="0.47 r22583"
   sodipodi:docname="title_logo.svg"
   style="display:inline;enable-background:new">
  <defs
     id="defs4">
    <linearGradient
       id="linearGradient4063">
      <stop
         id="stop4065"
         offset="0"
         style="stop-color:#153a7e;stop-opacity:1;" />
      <stop
         id="stop4067"
         offset="1"
         style="stop-color:#1e55b6;stop-opacity:1;" />
    </linearGradient>
    <linearGradient
       id="linearGradient4057">
      <stop
         id="stop4059"
         offset="0"
         style="stop-color:#000000;stop-opacity:1;" />
      <stop
         id="stop4061"
         offset="1"
         style="stop-color:#000000;stop-opacity:0;" />
    </linearGradient>
    <linearGradient
       id="linearGradient4049">
      <stop
         style="stop-color:#000000;stop-opacity:1;"
         offset="0"
         id="stop4051" />
      <stop
         style="stop-color:#000000;stop-opacity:0;"
         offset="1"
         id="stop4053" />
    </linearGradient>
    <linearGradient
       id="linearGradient4036">
      <stop
         style="stop-color:#245ec9;stop-opacity:1;"
         offset="0"
         id="stop4038" />
      <stop
         id="stop4044"
         offset="1"
         style="stop-color:#487ddd;stop-opacity:1;" />
    </linearGradient>
    <linearGradient
       id="linearGradient3981">
      <stop
         style="stop-color:#788ddb;stop-opacity:1;"
         offset="0"
         id="stop3983" />
      <stop
         style="stop-color:#9fbeea;stop-opacity:1;"
         offset="1"
         id="stop3985" />
    </linearGradient>
    <linearGradient
       id="linearGradient3967">
      <stop
         id="stop3975"
         offset="0"
         style="stop-color:#98b3e3;stop-opacity:0.49803922;" />
      <stop
         style="stop-color:#98b3e3;stop-opacity:0;"
         offset="1"
         id="stop3971" />
    </linearGradient>
    <linearGradient
       id="linearGradient3943">
      <stop
         style="stop-color:#000000;stop-opacity:1;"
         offset="0"
         id="stop3945" />
      <stop
         id="stop3947"
         offset="0.31696653"
         style="stop-color:#444c52;stop-opacity:1;" />
      <stop
         id="stop3949"
         offset="1"
         style="stop-color:#000000;stop-opacity:1;" />
    </linearGradient>
    <linearGradient
       id="linearGradient3927">
      <stop
         style="stop-color:#000000;stop-opacity:1;"
         offset="0"
         id="stop3929" />
      <stop
         id="stop3931"
         offset="0.32110396"
         style="stop-color:#444c52;stop-opacity:1;" />
      <stop
         id="stop3933"
         offset="1"
         style="stop-color:#000000;stop-opacity:1;" />
    </linearGradient>
    <linearGradient
       id="linearGradient3911">
      <stop
         style="stop-color:#000000;stop-opacity:1;"
         offset="0"
         id="stop3913" />
      <stop
         id="stop3915"
         offset="0.12518424"
         style="stop-color:#444c52;stop-opacity:1;" />
      <stop
         id="stop3917"
         offset="1"
         style="stop-color:#000000;stop-opacity:1;" />
    </linearGradient>
    <linearGradient
       id="linearGradient3895">
      <stop
         style="stop-color:#000000;stop-opacity:1;"
         offset="0"
         id="stop3897" />
      <stop
         id="stop3899"
         offset="0.12518425"
         style="stop-color:#444c52;stop-opacity:1;" />
      <stop
         id="stop3901"
         offset="1"
         style="stop-color:#000000;stop-opacity:1;" />
    </linearGradient>
    <linearGradient
       id="linearGradient3879">
      <stop
         style="stop-color:#000000;stop-opacity:1;"
         offset="0"
         id="stop3881" />
      <stop
         id="stop3883"
         offset="0.13888773"
         style="stop-color:#444c52;stop-opacity:1;" />
      <stop
         id="stop3885"
         offset="1"
         style="stop-color:#000000;stop-opacity:1;" />
    </linearGradient>
    <linearGradient
       id="linearGradient3855">
      <stop
         id="stop3857"
         offset="0"
         style="stop-color:#000000;stop-opacity:1;" />
      <stop
         style="stop-color:#444c52;stop-opacity:1;"
         offset="0.35236052"
         id="stop3859" />
      <stop
         style="stop-color:#000000;stop-opacity:1;"
         offset="1"
         id="stop3861" />
    </linearGradient>
    <linearGradient
       id="linearGradient3821">
      <stop
         style="stop-color:#000000;stop-opacity:1;"
         offset="0"
         id="stop3823" />
      <stop
         id="stop3833"
         offset="0.31123206"
         style="stop-color:#444c52;stop-opacity:1;" />
      <stop
         id="stop3831"
         offset="1"
         style="stop-color:#000000;stop-opacity:1;" />
    </linearGradient>
    <inkscape:perspective
       sodipodi:type="inkscape:persp3d"
       inkscape:vp_x="78.64934 : 302.88493 : 1"
       inkscape:vp_y="0 : 1427.3605 : 0"
       inkscape:vp_z="1140.7405 : 302.88493 : 1"
       inkscape:persp3d-origin="609.69488 : 52.534883 : 1"
       id="perspective10" />
    <inkscape:perspective
       id="perspective2938"
       inkscape:persp3d-origin="0.5 : 0.33333333 : 1"
       inkscape:vp_z="1 : 0.5 : 1"
       inkscape:vp_y="0 : 1000 : 0"
       inkscape:vp_x="0 : 0.5 : 1"
       sodipodi:type="inkscape:persp3d" />
    <inkscape:perspective
       id="perspective3772"
       inkscape:persp3d-origin="0.5 : 0.33333333 : 1"
       inkscape:vp_z="1 : 0.5 : 1"
       inkscape:vp_y="0 : 1000 : 0"
       inkscape:vp_x="0 : 0.5 : 1"
       sodipodi:type="inkscape:persp3d" />
    <linearGradient
       inkscape:collect="always"
       xlink:href="#linearGradient3821"
       id="linearGradient3841"
       x1="227.03839"
       y1="21.046074"
       x2="227.03839"
       y2="66.4533"
       gradientUnits="userSpaceOnUse" />
    <linearGradient
       inkscape:collect="always"
       xlink:href="#linearGradient3855"
       id="linearGradient3853"
       x1="113.72979"
       y1="18.693535"
       x2="113.72979"
       y2="66.4533"
       gradientUnits="userSpaceOnUse" />
    <linearGradient
       inkscape:collect="always"
       xlink:href="#linearGradient3879"
       id="linearGradient3877"
       x1="134.98326"
       y1="30.939629"
       x2="134.98326"
       y2="66.4533"
       gradientUnits="userSpaceOnUse" />
    <linearGradient
       inkscape:collect="always"
       xlink:href="#linearGradient3895"
       id="linearGradient3893"
       x1="162.68193"
       y1="30.939629"
       x2="162.68193"
       y2="67.097832"
       gradientUnits="userSpaceOnUse" />
    <linearGradient
       inkscape:collect="always"
       xlink:href="#linearGradient3911"
       id="linearGradient3909"
       x1="199.42023"
       y1="30.939629"
       x2="199.42023"
       y2="67.097832"
       gradientUnits="userSpaceOnUse" />
    <linearGradient
       inkscape:collect="always"
       xlink:href="#linearGradient3927"
       id="linearGradient3925"
       x1="253.90886"
       y1="21.046074"
       x2="253.06886"
       y2="66.4533"
       gradientUnits="userSpaceOnUse" />
    <linearGradient
       inkscape:collect="always"
       xlink:href="#linearGradient3943"
       id="linearGradient3941"
       x1="297.37286"
       y1="21.046074"
       x2="297.37286"
       y2="66.4533"
       gradientUnits="userSpaceOnUse" />
    <linearGradient
       inkscape:collect="always"
       xlink:href="#linearGradient3981"
       id="linearGradient4015"
       x1="60.41975"
       y1="29.393326"
       x2="27.210985"
       y2="29.393326"
       gradientUnits="userSpaceOnUse" />
    <linearGradient
       inkscape:collect="always"
       xlink:href="#linearGradient4036"
       id="linearGradient4042"
       x1="78.392853"
       y1="31.737181"
       x2="46.69643"
       y2="84.147896"
       gradientUnits="userSpaceOnUse"
       gradientTransform="translate(0.5357145,0.17857179)" />
    <linearGradient
       inkscape:collect="always"
       xlink:href="#linearGradient4063"
       id="linearGradient4055"
       x1="13.035714"
       y1="28.969322"
       x2="45.178574"
       y2="84.594322"
       gradientUnits="userSpaceOnUse"
       gradientTransform="translate(-0.08928548,0.08928572)" />
    <linearGradient
       inkscape:collect="always"
       xlink:href="#linearGradient3855"
       id="linearGradient4210"
       gradientUnits="userSpaceOnUse"
       x1="113.72979"
       y1="18.693535"
       x2="113.72979"
       y2="66.4533" />
    <linearGradient
       inkscape:collect="always"
       xlink:href="#linearGradient3879"
       id="linearGradient4212"
       gradientUnits="userSpaceOnUse"
       x1="134.98326"
       y1="30.939629"
       x2="134.98326"
       y2="66.4533" />
    <linearGradient
       inkscape:collect="always"
       xlink:href="#linearGradient3895"
       id="linearGradient4214"
       gradientUnits="userSpaceOnUse"
       x1="162.68193"
       y1="30.939629"
       x2="162.68193"
       y2="67.097832" />
    <linearGradient
       inkscape:collect="always"
       xlink:href="#linearGradient3911"
       id="linearGradient4216"
       gradientUnits="userSpaceOnUse"
       x1="199.42023"
       y1="30.939629"
       x2="199.42023"
       y2="67.097832" />
    <linearGradient
       inkscape:collect="always"
       xlink:href="#linearGradient3821"
       id="linearGradient4218"
       gradientUnits="userSpaceOnUse"
       x1="227.03839"
       y1="21.046074"
       x2="227.03839"
       y2="66.4533" />
    <linearGradient
       inkscape:collect="always"
       xlink:href="#linearGradient3927"
       id="linearGradient4220"
       gradientUnits="userSpaceOnUse"
       x1="253.90886"
       y1="21.046074"
       x2="253.06886"
       y2="66.4533" />
    <linearGradient
       inkscape:collect="always"
       xlink:href="#linearGradient3943"
       id="linearGradient4222"
       gradientUnits="userSpaceOnUse"
       x1="297.37286"
       y1="21.046074"
       x2="297.37286"
       y2="66.4533" />
    <linearGradient
       inkscape:collect="always"
       xlink:href="#linearGradient3981"
       id="linearGradient4224"
       gradientUnits="userSpaceOnUse"
       x1="60.41975"
       y1="29.393326"
       x2="27.210985"
       y2="29.393326" />
    <linearGradient
       inkscape:collect="always"
       xlink:href="#linearGradient4036"
       id="linearGradient4226"
       gradientUnits="userSpaceOnUse"
       gradientTransform="translate(0.5357145,0.17857179)"
       x1="78.392853"
       y1="31.737181"
       x2="46.69643"
       y2="84.147896" />
    <linearGradient
       inkscape:collect="always"
       xlink:href="#linearGradient4063"
       id="linearGradient4228"
       gradientUnits="userSpaceOnUse"
       gradientTransform="translate(-0.08928548,0.08928572)"
       x1="13.035714"
       y1="28.969322"
       x2="45.178574"
       y2="84.594322" />
  </defs>
  <sodipodi:namedview
     id="base"
     pagecolor="#ffffff"
     bordercolor="#666666"
     borderopacity="1.0"
     inkscape:pageopacity="0.0"
     inkscape:pageshadow="2"
     inkscape:zoom="3.3145631"
     inkscape:cx="158.4002"
     inkscape:cy="47.770594"
     inkscape:document-units="px"
     inkscape:current-layer="layer7"
     showgrid="false"
     showguides="true"
     inkscape:guide-bbox="true"
     inkscape:window-width="1680"
     inkscape:window-height="990"
     inkscape:window-x="-4"
     inkscape:window-y="-3"
     inkscape:window-maximized="1"
     borderlayer="false"
     inkscape:showpageshadow="false"
     showborder="false" />
  <metadata
     id="metadata7">
    <rdf:RDF>
      <cc:Work
         rdf:about="">
        <dc:format>image/svg+xml</dc:format>
        <dc:type
           rdf:resource="http://purl.org/dc/dcmitype/StillImage" />
      </cc:Work>
    </rdf:RDF>
  </metadata>
  <g
     inkscape:groupmode="layer"
     id="layer2"
     inkscape:label="freeIPA"
     style="display:inline"
     transform="translate(-2.1143528,-7.4975157)" />
  <g
     inkscape:groupmode="layer"
     id="layer3"
     inkscape:label="identity | policy | audit"
     style="display:inline"
     transform="translate(-2.1143528,-7.4975157)" />
  <g
     inkscape:groupmode="layer"
     id="layer7"
     inkscape:label="cube"
     style="display:inline"
     transform="translate(-2.1143528,-7.4975157)">
    <g
       id="g4182"
       transform="matrix(1.0705204,0,0,1.07538,-10.72714,-3.8442343)">
      <g
         transform="matrix(0.89864268,0,0,1,5.3372188,-0.75761441)"
         id="text2947"
         style="font-size:66px;font-style:normal;font-variant:normal;font-weight:normal;font-stretch:normal;fill:#000000;fill-opacity:1;stroke:none;display:inline;enable-background:new;font-family:Liberation Sans;-inkscape-font-specification:Liberation Sans">
        <path
           style="fill:url(#linearGradient4210);fill-opacity:1"
           id="path2952"
           d="m 115.6795,35.80584 0,30.64746 -5.80078,0 0,-30.64746 -4.89844,0 0,-4.22168 4.89844,0 0,-3.931641 c -1e-5,-1.267538 0.11815,-2.438435 0.35449,-3.512695 0.23632,-1.09566 0.66601,-2.040971 1.28906,-2.835938 0.64452,-0.81636 1.51464,-1.450148 2.61035,-1.901367 1.09569,-0.472609 2.51366,-0.708936 4.25391,-0.708984 0.68748,4.8e-5 1.39647,0.03227 2.12695,0.09668 0.75194,0.0645 1.40721,0.16118 1.96582,0.290039 l 0,4.415039 c -0.36525,-0.06441 -0.79494,-0.118121 -1.28906,-0.161133 -0.47267,-0.06441 -0.90236,-0.09664 -1.28906,-0.09668 -0.85939,4.3e-5 -1.56838,0.118207 -2.12696,0.354492 -0.53712,0.236371 -0.96681,0.580121 -1.28906,1.03125 -0.30079,0.429729 -0.51564,0.966838 -0.64453,1.611328 -0.10743,0.644571 -0.16114,1.385781 -0.16113,2.223633 l 0,3.125977 6.7998,0 0,4.22168 -6.7998,0" />
        <path
           style="fill:url(#linearGradient4212);fill-opacity:1"
           id="path2954"
           d="m 126.92657,66.4533 0,-26.748046 c -1e-5,-0.730442 -0.0108,-1.471652 -0.0322,-2.223633 0,-0.773408 -0.0108,-1.514618 -0.0322,-2.223633 -0.0215,-0.708952 -0.043,-1.374967 -0.0645,-1.998047 -0.0215,-0.623013 -0.043,-1.181606 -0.0644,-1.675781 l 5.47851,0 c 0.0215,0.494175 0.043,1.06351 0.0645,1.708008 0.043,0.623079 0.0752,1.26761 0.0967,1.933593 0.0429,0.666047 0.0644,1.310577 0.0644,1.933594 0.0215,0.601591 0.0322,1.117216 0.0322,1.546875 l 0.1289,0 c 0.40819,-1.332002 0.83788,-2.481415 1.28906,-3.448242 0.47265,-0.988249 1.0205,-1.793912 1.64356,-2.416992 0.62303,-0.644497 1.36424,-1.117153 2.22363,-1.417969 0.85936,-0.32223 1.90135,-0.483363 3.12598,-0.483398 0.47264,3.5e-5 0.92381,0.043 1.35351,0.128906 0.42967,0.06449 0.76268,0.128941 0.99903,0.193359 l 0,5.317383 c -0.38674,-0.107392 -0.83791,-0.182587 -1.35352,-0.225586 -0.51564,-0.06442 -1.09572,-0.09665 -1.74023,-0.09668 -1.33205,3.1e-5 -2.47072,0.300812 -3.41602,0.902344 -0.92384,0.601591 -1.68653,1.439481 -2.28808,2.513672 -0.58009,1.05276 -1.00978,2.320337 -1.28907,3.802734 -0.2793,1.460959 -0.41895,3.061544 -0.41894,4.801758 l 0,18.175781 -5.80078,0" />
        <path
           style="fill:url(#linearGradient4214);fill-opacity:1"
           id="path2956"
           d="m 153.2879,50.24334 c -1e-5,1.826186 0.1826,3.512708 0.54785,5.05957 0.38671,1.5254 0.96678,2.846688 1.74023,3.963867 0.79491,1.095709 1.80468,1.955083 3.0293,2.578125 1.22459,0.601567 2.69627,0.902347 4.41504,0.902344 2.51365,3e-6 4.52243,-0.504879 6.02636,-1.514649 1.52537,-1.009759 2.55662,-2.288078 3.09375,-3.834961 l 5.0918,1.450196 c -0.36527,0.966803 -0.88089,1.944341 -1.54687,2.932617 -0.64457,0.9668 -1.51468,1.847659 -2.61036,2.642578 -1.09573,0.773439 -2.47072,1.417969 -4.125,1.933594 -1.63283,0.49414 -3.60939,0.74121 -5.92968,0.741211 -5.15627,-10e-7 -9.0879,-1.536132 -11.79492,-4.608399 -2.68556,-3.072258 -4.02833,-7.637683 -4.02833,-13.696289 0,-3.265604 0.4082,-6.026343 1.22461,-8.282226 0.81641,-2.277316 1.93359,-4.12497 3.35157,-5.542969 1.41796,-1.417936 3.07225,-2.438443 4.96289,-3.061524 1.89061,-0.644496 3.91014,-0.966761 6.05859,-0.966796 2.92185,3.5e-5 5.36033,0.472691 7.31543,1.417968 1.97654,0.945346 3.55564,2.255892 4.73731,3.931641 1.20309,1.654325 2.05172,3.609402 2.54589,5.865234 0.5156,2.255882 0.77341,4.694356 0.77344,7.31543 l 0,0.773438 -24.8789,0 m 18.88476,-4.447266 c -0.32229,-3.673804 -1.25686,-6.348606 -2.80371,-8.024414 -1.5469,-1.697235 -3.77053,-2.545867 -6.6709,-2.545899 -0.96681,3.2e-5 -1.98732,0.161164 -3.06152,0.483399 -1.05275,0.300812 -2.03029,0.848663 -2.93262,1.643555 -0.90235,0.79495 -1.66505,1.87991 -2.28809,3.254882 -0.62305,1.35354 -0.97754,3.083031 -1.06347,5.188477 l 18.82031,0" />
        <path
           style="fill:url(#linearGradient4216);fill-opacity:1"
           id="path2958"
           d="m 190.02618,50.24334 c -1e-5,1.826186 0.1826,3.512708 0.54785,5.05957 0.38671,1.5254 0.96678,2.846688 1.74023,3.963867 0.79491,1.095709 1.80468,1.955083 3.0293,2.578125 1.22459,0.601567 2.69627,0.902347 4.41504,0.902344 2.51365,3e-6 4.52244,-0.504879 6.02637,-1.514649 1.52536,-1.009759 2.55661,-2.288078 3.09375,-3.834961 l 5.09179,1.450196 c -0.36526,0.966803 -0.88089,1.944341 -1.54687,2.932617 -0.64456,0.9668 -1.51468,1.847659 -2.61035,2.642578 -1.09573,0.773439 -2.47073,1.417969 -4.125,1.933594 -1.63284,0.49414 -3.6094,0.74121 -5.92969,0.741211 -5.15627,-10e-7 -9.0879,-1.536132 -11.79492,-4.608399 -2.68555,-3.072258 -4.02833,-7.637683 -4.02832,-13.696289 -1e-5,-3.265604 0.4082,-6.026343 1.22461,-8.282226 0.8164,-2.277316 1.93358,-4.12497 3.35156,-5.542969 1.41796,-1.417936 3.07225,-2.438443 4.96289,-3.061524 1.89061,-0.644496 3.91014,-0.966761 6.05859,-0.966796 2.92186,3.5e-5 5.36033,0.472691 7.31543,1.417968 1.97654,0.945346 3.55564,2.255892 4.73731,3.931641 1.20309,1.654325 2.05172,3.609402 2.5459,5.865234 0.51559,2.255882 0.7734,4.694356 0.77343,7.31543 l 0,0.773438 -24.8789,0 m 18.88476,-4.447266 c -0.32229,-3.673804 -1.25686,-6.348606 -2.80371,-8.024414 -1.5469,-1.697235 -3.77053,-2.545867 -6.6709,-2.545899 -0.96681,3.2e-5 -1.98732,0.161164 -3.06152,0.483399 -1.05275,0.300812 -2.03029,0.848663 -2.93262,1.643555 -0.90235,0.79495 -1.66505,1.87991 -2.28808,3.254882 -0.62306,1.35354 -0.97755,3.083031 -1.06348,5.188477 l 18.82031,0" />
        <path
           style="fill:url(#linearGradient4218);fill-opacity:1"
           id="path2960"
           d="m 223.96075,66.4533 0,-45.407226 6.15527,0 0,45.407226 -6.15527,0" />
        <path
           style="fill:url(#linearGradient4220);fill-opacity:1"
           id="path2962"
           d="m 276.71563,34.710136 c -4e-5,1.976593 -0.33305,3.824247 -0.99902,5.542969 -0.64457,1.69729 -1.62211,3.179711 -2.93262,4.447266 -1.2891,1.246114 -2.91117,2.234394 -4.86621,2.964844 -1.95511,0.730486 -4.23245,1.09572 -6.83203,1.095703 l -13.3418,0 0,17.692382 -6.15527,0 0,-45.407226 19.11035,0 c 2.68552,4.5e-5 5.02731,0.333053 7.02539,0.999023 1.99801,0.644575 3.66305,1.568403 4.99512,2.771485 1.33199,1.181681 2.33101,2.621132 2.99707,4.318359 0.66597,1.675817 0.99898,3.534214 0.99902,5.575195 m -6.1875,0.06445 c -3e-5,-2.878872 -0.88089,-5.059534 -2.64258,-6.541993 -1.76175,-1.503866 -4.40432,-2.255819 -7.92773,-2.255859 l -12.21387,0 0,17.917969 12.47168,0 c 3.54489,2.2e-5 6.1445,-0.784157 7.79883,-2.352539 1.67575,-1.568333 2.51364,-3.82419 2.51367,-6.767578" />
        <path
           style="fill:url(#linearGradient4222);fill-opacity:1"
           id="path2964"
           d="m 312.97051,66.4533 -5.18847,-13.277343 -20.68946,0 -5.2207,13.277343 -6.38086,0 18.53027,-45.407226 6.99317,0 18.24023,45.407226 -6.28418,0 m -12.8584,-33.064453 c -0.34377,-0.859341 -0.67678,-1.729457 -0.99902,-2.610351 -0.3008,-0.880823 -0.56936,-1.675744 -0.80566,-2.384766 -0.23635,-0.73043 -0.44046,-1.331992 -0.61231,-1.804687 -0.15041,-0.494101 -0.23635,-0.794882 -0.25781,-0.902344 -0.043,0.107462 -0.13967,0.408243 -0.29004,0.902344 -0.15041,0.49418 -0.35451,1.106484 -0.6123,1.836914 -0.23635,0.730506 -0.51565,1.536169 -0.8379,2.416992 -0.3008,0.880894 -0.61232,1.75101 -0.93457,2.610351 l -5.80078,14.920899 16.9834,0 -5.83301,-14.985352" />
      </g>
      <text
         transform="scale(0.94370058,1.0596581)"
         id="text2967"
         y="82.85009"
         x="146.90495"
         style="font-size:15.09920883px;font-style:normal;font-variant:normal;font-weight:normal;font-stretch:normal;fill:#749b00;fill-opacity:1;stroke:none;display:inline;enable-background:new;font-family:Liberation Sans;-inkscape-font-specification:Liberation Sans"
         xml:space="preserve"><tspan
           y="82.85009"
           x="146.90495"
           id="tspan2969"
           sodipodi:role="line">identity</tspan></text>
      <text
         transform="scale(0.95131558,1.0511759)"
         id="text3748"
         y="83.518631"
         x="212.07439"
         style="font-size:15.22104931px;font-style:normal;font-variant:normal;font-weight:normal;font-stretch:normal;fill:#749b00;fill-opacity:1;stroke:none;display:inline;enable-background:new;font-family:Liberation Sans;-inkscape-font-specification:Liberation Sans"
         xml:space="preserve"><tspan
           y="83.518631"
           x="212.07439"
           id="tspan3750"
           sodipodi:role="line">policy</tspan></text>
      <text
         transform="scale(0.96592605,1.0352759)"
         id="text3753"
         y="84.801323"
         x="265.67694"
         style="font-size:15.45481682px;font-style:normal;font-variant:normal;font-weight:normal;font-stretch:normal;fill:#749b00;fill-opacity:1;stroke:none;display:inline;enable-background:new;font-family:Liberation Sans;-inkscape-font-specification:Liberation Sans"
         xml:space="preserve"><tspan
           y="84.801323"
           x="265.67694"
           id="tspan3755"
           sodipodi:role="line">audit</tspan></text>
      <path
         id="path3762"
         d="m 192.81287,76.049746 0,14.89975"
         style="fill:#888a85;fill-opacity:1;stroke:#888a85;stroke-width:1px;stroke-linecap:butt;stroke-linejoin:miter;stroke-opacity:1;display:inline;enable-background:new" />
      <path
         id="path3762-5"
         d="m 247.86618,75.923477 0,14.89975"
         style="fill:#888a85;fill-opacity:1;stroke:#888a85;stroke-width:1px;stroke-linecap:butt;stroke-linejoin:miter;stroke-opacity:1;display:inline;enable-background:new" />
      <path
         id="path3952"
         d="m 45.835672,10.546737 33.840111,20.960666 -0.12627,36.996837 -33.587572,18.056476 -33.96638,-21.086934 0,-37.375644 33.840111,-17.551401 z"
         style="fill:#9ab4e3;fill-opacity:1;stroke:none" />
      <path
         id="path3965"
         d="M 13.637059,27.941231 46.08821,11.021176 78.034286,30.845419 46.214479,47.765475 13.637059,27.941231 z"
         style="fill:url(#linearGradient4224);fill-opacity:1;stroke:none;display:inline;enable-background:new" />
      <path
         sodipodi:nodetypes="ccccc"
         id="path4034"
         d="m 78.750003,31.915752 -31.339287,16.875 -0.178572,35.535715 31.607139,-16.160715 -0.08928,-36.25 z"
         style="fill:url(#linearGradient4226);fill-opacity:1;stroke:none;display:inline;enable-background:new" />
      <path
         sodipodi:nodetypes="ccccc"
         id="path4047"
         d="m 12.946429,29.058609 32.142858,19.821428 0,35.803572 -32.142858,-20.089286 0,-35.535714 z"
         style="fill:url(#linearGradient4228);fill-opacity:1;stroke:none;display:inline;enable-background:new" />
      <text
         transform="matrix(1.2156929,0.70187736,0,0.82257616,0,0)"
         id="text4070"
         y="67.134201"
         x="17.78134"
         style="font-size:47.03154755px;font-style:normal;font-variant:normal;font-weight:normal;font-stretch:normal;fill:#bfde69;fill-opacity:1;stroke:#748d30;stroke-width:1;stroke-opacity:1;display:inline;enable-background:new;font-family:Liberation Sans;-inkscape-font-specification:Liberation Sans"
         xml:space="preserve"><tspan
           style="stroke-width:1"
           y="67.134201"
           x="17.78134"
           id="tspan4072"
           sodipodi:role="line">i</tspan></text>
      <text
         transform="matrix(1,-0.57734758,0,1,0,0)"
         id="text4089"
         y="107.84119"
         x="50.65163"
         style="font-size:46.56347656px;font-style:normal;font-variant:normal;font-weight:bold;font-stretch:normal;fill:#bfde69;fill-opacity:1;stroke:#708929;stroke-opacity:1;display:inline;enable-background:new;font-family:Liberation Sans;-inkscape-font-specification:Liberation Sans Bold"
         xml:space="preserve"><tspan
           y="107.84119"
           x="50.65163"
           id="tspan4091"
           sodipodi:role="line">a</tspan></text>
      <text
         transform="matrix(1.1968639,-0.01602943,0.05325294,0.83480367,0,0)"
         id="text4101"
         y="42.553066"
         x="28.208729"
         style="font-size:34.11691666px;font-style:normal;font-variant:normal;font-weight:bold;font-stretch:normal;fill:#bfde69;fill-opacity:1;stroke:#708929;stroke-width:1;stroke-opacity:1;display:inline;enable-background:new;font-family:Liberation Sans;-inkscape-font-specification:Bitstream Vera Sans Bold"
         xml:space="preserve"><tspan
           style="stroke-width:1"
           y="42.553066"
           x="28.208729"
           id="tspan4103"
           sodipodi:role="line">p</tspan></text>
    </g>
  </g>
</svg>
