<?xml version="1.0" encoding="UTF-8" standalone="no"?>
<!-- Created with Inkscape (http://www.inkscape.org/) -->
<svg
   xmlns:svg="http://www.w3.org/2000/svg"
   xmlns="http://www.w3.org/2000/svg"
   version="1.0"
   width="300"
   height="140"
   id="svg2812">
  <defs
     id="defs3" />
  <g
     transform="translate(-13.714282,-252.57246)"
     id="layer1">
    <text
       x="32.526913"
       y="-38.54446"
       transform="translate(13.714282,252.57246)"
       id="text6292"
       xml:space="preserve"
       style="font-size:40px;font-style:normal;font-variant:normal;font-weight:normal;font-stretch:normal;fill:#000000;fill-opacity:1;stroke:none;stroke-width:1px;stroke-linecap:butt;stroke-linejoin:miter;stroke-opacity:1;font-family:Sans;-inkscape-font-specification:Sans"><tspan
         x="32.526913"
         y="-38.54446"
         id="tspan6294" /></text>
    <g
       transform="matrix(1.180816,0,0,1.180816,-38.566863,-240.29104)"
       id="g6398">
      <path
         d="M 142.86633,511.98534 L 118.34767,447.64026 C 117.19611,443.34258 112.8569,442.10234 109.95968,442.10234 L 109.6881,440.60213 L 126.81122,440.60213 L 148.18207,498.84682 L 168.5673,441.04484 L 176.14908,441.04484 L 150.61121,511.98534"
         id="path6319"
         style="font-size:66.07596588px;font-style:normal;font-variant:normal;font-weight:normal;font-stretch:normal;text-align:start;line-height:125%;writing-mode:lr-tb;text-anchor:start;fill:#2f2f30;fill-opacity:1;stroke:none;stroke-width:0.30000001;stroke-linecap:butt;stroke-linejoin:miter;stroke-miterlimit:4;stroke-dasharray:none;stroke-opacity:1;font-family:Palatino Linotype;-inkscape-font-specification:Palatino Linotype" />
      <path
         d="M 179.81315,443.7733 C 180.97374,442.6644 182.38045,442.10998 184.03337,442.11004 C 185.68629,442.1101 187.09306,442.66447 188.25363,443.7733 C 189.41418,444.88215 189.99446,446.243 189.99446,447.80546 C 189.99446,449.36791 189.41418,450.67836 188.25363,451.78721 C 187.09306,452.89605 185.66871,453.45047 184.03337,453.45047 C 182.39804,453.45047 180.9913,452.92964 179.81315,451.8376 C 178.63501,450.74556 178.07231,449.38471 178.07231,447.80546 C 178.07231,446.22619 178.65257,444.88221 179.81315,443.7733 z"
         id="path6317"
         style="font-size:66.07596588px;font-style:normal;font-variant:normal;font-weight:normal;font-stretch:normal;text-align:start;line-height:125%;writing-mode:lr-tb;text-anchor:start;fill:#82aa32;fill-opacity:1;stroke:#82aa32;stroke-width:0.25406161;stroke-linecap:butt;stroke-linejoin:miter;stroke-miterlimit:4;stroke-dasharray:none;stroke-opacity:1;font-family:Palatino Linotype;-inkscape-font-specification:Palatino Linotype" />
      <path
         d="M 188.84902,462.42943 L 188.84902,511.98534 L 180.66675,511.98534 C 180.66675,511.98534 180.66675,473.77468 180.66675,471.93421 C 180.66675,467.81041 176.4501,466.39517 172.808,466.39517 L 172.808,464.73262 L 188.84902,462.42943 z"
         id="path6315"
         style="font-size:66.07596588px;font-style:normal;font-variant:normal;font-weight:normal;font-stretch:normal;text-align:start;line-height:125%;writing-mode:lr-tb;text-anchor:start;fill:#2f2f30;fill-opacity:1;stroke:none;stroke-width:0.30000001;stroke-linecap:butt;stroke-linejoin:miter;stroke-miterlimit:4;stroke-dasharray:none;stroke-opacity:1;font-family:Palatino Linotype;-inkscape-font-specification:Palatino Linotype" />
      <path
         d="M 195.10858,464.90547 L 210.10894,461.61469 L 210.14,475.25136 C 209.19293,474.87752 214.97398,458.54668 224.98666,462.54924 C 224.98666,462.54924 225.04235,469.76438 224.98666,472.45338 C 218.79654,466.5765 210.14,475.21847 210.14,485.46293 L 210.14,511.98534 L 201.92178,511.98534 L 201.92178,476.28724 C 201.92178,475.2223 201.86605,473.7713 201.75459,471.93421 C 201.64313,470.09719 201.54559,468.96566 201.462,468.53965 C 200.91079,467.27083 199.97394,467.39811 198.66148,467.30163 L 195.15038,467.26169 L 195.10858,464.90547 z"
         id="path6313"
         style="font-size:66.07596588px;font-style:normal;font-variant:normal;font-weight:normal;font-stretch:normal;text-align:start;line-height:125%;writing-mode:lr-tb;text-anchor:start;fill:#2f2f30;fill-opacity:1;stroke:none;stroke-width:0.30000001;stroke-linecap:butt;stroke-linejoin:miter;stroke-miterlimit:4;stroke-dasharray:none;stroke-opacity:1;font-family:Palatino Linotype;-inkscape-font-specification:Palatino Linotype" />
      <path
         d="M 227.7976,466.67741 L 227.7976,462.5681 L 236.97788,462.5681 L 236.97788,452.54929 L 244.97186,445.78722 L 244.97186,462.5681 L 257.53738,462.5681 L 257.53738,466.67741 L 244.97186,466.67741 L 244.97186,501.58484 C 244.97186,506.53797 250.52089,508.53821 257.19787,508.53821 L 257.19787,511.78114 C 256.61991,512.24383 250.45715,512.41711 247.87561,512.41711 C 241.28448,512.41711 236.97788,508.35465 236.97788,502.55061 L 236.97788,466.67741 L 227.7976,466.67741 z"
         id="path6307"
         style="font-size:66.07596588px;font-style:normal;font-variant:normal;font-weight:normal;font-stretch:normal;text-align:start;line-height:125%;writing-mode:lr-tb;text-anchor:start;fill:#2f2f30;fill-opacity:1;stroke:none;stroke-width:0.30000001;stroke-linecap:butt;stroke-linejoin:miter;stroke-miterlimit:4;stroke-dasharray:none;stroke-opacity:1;font-family:Palatino Linotype;-inkscape-font-specification:Palatino Linotype" />
      <path
         d="M 102.22891,512.38385 C 87.948837,512.74618 81.4087,504.57089 81.4087,486.87154 C 81.4087,470.85445 88.472391,461.35785 102.22891,461.18622 C 115.98544,461.01457 123.18179,471.54801 123.18179,486.87154 C 123.18179,502.51046 116.50899,512.02152 102.22891,512.38385 z M 102.22891,465.06096 C 93.359497,465.06096 90.218725,473.86733 90.073864,486.87154 C 89.929002,499.87578 91.110013,508.0851 102.22891,508.0851 C 111.72383,508.0851 114.4198,498.45358 114.08116,486.87154 C 113.74251,475.28949 111.87204,465.06096 102.22891,465.06096 z M 102.22891,458.26211 L 102.22891,458.26211"
         id="path6309"
         style="font-size:77.78103638px;font-style:normal;font-variant:normal;font-weight:normal;font-stretch:normal;text-align:start;line-height:125%;writing-mode:lr-tb;text-anchor:start;fill:#2f2f30;fill-opacity:1;stroke:none;stroke-width:0.30000004;stroke-linecap:butt;stroke-linejoin:miter;stroke-miterlimit:4;stroke-opacity:1;font-family:Palatino Linotype;-inkscape-font-specification:Palatino Linotype" />
    </g>
  </g>
</svg>
