<?xml version="1.0" encoding="UTF-8" standalone="no"?>
<!-- Created with Inkscape (http://www.inkscape.org/) -->

<svg
   xmlns:svg="http://www.w3.org/2000/svg"
   xmlns="http://www.w3.org/2000/svg"
   xmlns:xlink="http://www.w3.org/1999/xlink"
   version="1.1"
   width="128"
   height="128"
   id="svg10098">
  <defs
     id="defs10100">
    <mask
       id="mask3242">
      <rect
         width="40.679314"
         height="35.836323"
         rx="11.947018"
         ry="5.9536586"
         x="165.49893"
         y="-310.15292"
         transform="matrix(0.9893285,-0.1457022,-0.3962711,-0.9181335,0,0)"
         id="rect3244"
         style="fill:url(#linearGradient3246);fill-opacity:1" />
    </mask>
    <linearGradient
       x1="154"
       y1="223.36218"
       x2="154"
       y2="282.66647"
       id="linearGradient3246"
       xlink:href="#linearGradient3234"
       gradientUnits="userSpaceOnUse"
       gradientTransform="matrix(0.4193744,0,0,0.3380785,127.33587,-384.31456)" />
    <linearGradient
       id="linearGradient3234">
      <stop
         id="stop3236"
         style="stop-color:#ffffff;stop-opacity:1"
         offset="0" />
      <stop
         id="stop3238"
         style="stop-color:#ffffff;stop-opacity:0"
         offset="1" />
    </linearGradient>
    <linearGradient
       x1="290.68979"
       y1="253.80943"
       x2="290.49808"
       y2="248.02303"
       id="linearGradient7008"
       xlink:href="#linearGradient3373"
       gradientUnits="userSpaceOnUse" />
    <linearGradient
       id="linearGradient3373">
      <stop
         id="stop3375"
         style="stop-color:#424242;stop-opacity:1"
         offset="0" />
      <stop
         id="stop3377"
         style="stop-color:#ffffff;stop-opacity:1"
         offset="1" />
    </linearGradient>
    <linearGradient
       x1="325.10495"
       y1="251.55127"
       x2="289.71945"
       y2="235.47911"
       id="linearGradient7010"
       xlink:href="#linearGradient3193"
       gradientUnits="userSpaceOnUse" />
    <linearGradient
       id="linearGradient3193">
      <stop
         id="stop3195"
         style="stop-color:#a60000;stop-opacity:1"
         offset="0" />
      <stop
         id="stop3197"
         style="stop-color:#e60000;stop-opacity:1"
         offset="1" />
    </linearGradient>
    <linearGradient
       x1="581.96393"
       y1="748.96356"
       x2="552.92682"
       y2="725.93524"
       id="linearGradient7012"
       xlink:href="#linearGradient3569"
       gradientUnits="userSpaceOnUse" />
    <linearGradient
       id="linearGradient3569">
      <stop
         id="stop3571"
         style="stop-color:#a70000;stop-opacity:1"
         offset="0" />
      <stop
         id="stop3573"
         style="stop-color:#cc0000;stop-opacity:1"
         offset="1" />
    </linearGradient>
    <linearGradient
       x1="323.86722"
       y1="247.82092"
       x2="296.9314"
       y2="235.29829"
       id="linearGradient7014"
       xlink:href="#linearGradient3827"
       gradientUnits="userSpaceOnUse" />
    <linearGradient
       id="linearGradient3827">
      <stop
         id="stop3829"
         style="stop-color:#9b0000;stop-opacity:1"
         offset="0" />
      <stop
         id="stop3831"
         style="stop-color:#620000;stop-opacity:0"
         offset="1" />
    </linearGradient>
    <linearGradient
       x1="307.84979"
       y1="232.17081"
       x2="290.71414"
       y2="244.37024"
       id="linearGradient7016"
       xlink:href="#linearGradient3183"
       gradientUnits="userSpaceOnUse"
       gradientTransform="matrix(0.9056038,0,0,0.9056038,28.760438,22.330775)" />
    <linearGradient
       id="linearGradient3183">
      <stop
         id="stop3185"
         style="stop-color:#9b0000;stop-opacity:1"
         offset="0" />
      <stop
         id="stop3187"
         style="stop-color:#f90000;stop-opacity:0"
         offset="1" />
    </linearGradient>
    <linearGradient
       x1="290.68979"
       y1="253.80943"
       x2="290.80704"
       y2="250.78365"
       id="linearGradient7018"
       xlink:href="#linearGradient3578"
       gradientUnits="userSpaceOnUse" />
    <linearGradient
       id="linearGradient3578">
      <stop
         id="stop3580"
         style="stop-color:#999999;stop-opacity:1"
         offset="0" />
      <stop
         id="stop3582"
         style="stop-color:#ffffff;stop-opacity:1"
         offset="1" />
    </linearGradient>
    <linearGradient
       x1="304.42413"
       y1="227.12573"
       x2="331.53369"
       y2="259.64145"
       id="linearGradient7020"
       xlink:href="#linearGradient3193"
       gradientUnits="userSpaceOnUse" />
    <linearGradient
       id="linearGradient10063">
      <stop
         id="stop10065"
         style="stop-color:#a60000;stop-opacity:1"
         offset="0" />
      <stop
         id="stop10067"
         style="stop-color:#e60000;stop-opacity:1"
         offset="1" />
    </linearGradient>
    <linearGradient
       x1="566.24548"
       y1="727.82666"
       x2="569.9043"
       y2="757.1687"
       id="linearGradient7022"
       xlink:href="#linearGradient3569"
       gradientUnits="userSpaceOnUse" />
    <linearGradient
       id="linearGradient10070">
      <stop
         id="stop10072"
         style="stop-color:#a70000;stop-opacity:1"
         offset="0" />
      <stop
         id="stop10074"
         style="stop-color:#cc0000;stop-opacity:1"
         offset="1" />
    </linearGradient>
    <linearGradient
       x1="290.80704"
       y1="275.42227"
       x2="288.08167"
       y2="222.71335"
       id="linearGradient7024"
       xlink:href="#linearGradient5788"
       gradientUnits="userSpaceOnUse"
       gradientTransform="matrix(0.7284148,0,0,0.7284148,79.96185,67.761462)" />
    <linearGradient
       id="linearGradient5788">
      <stop
         id="stop5790"
         style="stop-color:#ffffff;stop-opacity:1"
         offset="0" />
      <stop
         id="stop5792"
         style="stop-color:#cc0000;stop-opacity:0"
         offset="1" />
    </linearGradient>
    <linearGradient
       x1="292.32681"
       y1="250.37128"
       x2="298.30457"
       y2="241.10703"
       id="linearGradient7026"
       xlink:href="#linearGradient6497"
       gradientUnits="userSpaceOnUse"
       gradientTransform="translate(0.1352991,-0.01992597)" />
    <linearGradient
       id="linearGradient6497">
      <stop
         id="stop6499"
         style="stop-color:#ffffff;stop-opacity:0.56345177"
         offset="0" />
      <stop
         id="stop6501"
         style="stop-color:#f90000;stop-opacity:0"
         offset="1" />
    </linearGradient>
  </defs>
  <g
     transform="translate(0,-924.36218)"
     id="layer1">
    <g
       transform="matrix(0.8087476,0,0,0.8087476,-29.263412,808.48487)"
       id="g3263"
       style="enable-background:new">
      <g
         transform="matrix(0.70501684,0,0,0.70501684,-337.4354,157.0356)"
         id="g6039">
        <g
           transform="matrix(1.1372632,-0.07117441,-0.00779175,1.4397672,429.58865,-334.788)"
           id="g3512"
           style="enable-background:new">
          <g
             transform="matrix(0.7599177,-0.01192692,0,0.7500728,246.58115,378.18196)"
             id="g3514">
            <g
               transform="matrix(2.8294915,-0.5196682,1.922722,2.7658074,-1390.7458,-622.14861)"
               id="g3516">
              <path
                 d="m 281.53626,237.15326 27.51166,-0.60706 c 0.28726,0 0.54652,0.1161 0.73397,0.3043 0.18744,0.18821 0.30307,0.44853 0.30307,0.73697 l 5.50607,19.18448 c 0,0.28843 -0.11563,0.54874 -0.30307,0.73695 -0.18745,0.18821 -0.44671,0.30432 -0.73397,0.30432 l -27.12774,0.0421 c -0.57451,0 -1.03703,-0.46441 -1.03703,-1.04127 l -5.88999,-18.61951 c 0,-0.57687 0.46252,-1.04127 1.03703,-1.04127 z"
                 id="path3518"
                 style="fill:#8d0000;fill-opacity:1" />
              <path
                 d="m 293.04884,250.57475 24.09263,-0.46052 c -2.06778,1.70244 -3.74217,4.07456 -3.72168,6.23725 l -24.60495,0.081 c -2.80034,-0.14106 1.92301,-6.21234 4.234,-5.85776 z"
                 id="path3520"
                 style="fill:#e9e9e9;fill-opacity:1" />
              <g
                 transform="matrix(0.4446532,0.0482263,-0.1333755,0.1962764,116.26445,175.89592)"
                 id="g3522">
                <path
                   d="m 473.62579,276.25731 49.99465,-12.3175"
                   id="path3524"
                   style="fill:none;stroke:#c5c5c5;stroke-width:1.61703646;stroke-linecap:butt;stroke-linejoin:miter;stroke-miterlimit:4;stroke-opacity:1;stroke-dasharray:none" />
                <path
                   d="M 473.62579,279.2625 523.62044,266.945"
                   id="path3526"
                   style="fill:none;stroke:#c5c5c5;stroke-width:1.61703646;stroke-linecap:butt;stroke-linejoin:miter;stroke-miterlimit:4;stroke-opacity:1;stroke-dasharray:none" />
                <path
                   d="m 473.62579,282.26769 49.99465,-12.3175"
                   id="path3528"
                   style="fill:none;stroke:#c5c5c5;stroke-width:1.61703646;stroke-linecap:butt;stroke-linejoin:miter;stroke-miterlimit:4;stroke-opacity:1;stroke-dasharray:none" />
                <path
                   d="m 473.62579,285.27287 49.99465,-12.3175"
                   id="path3530"
                   style="fill:none;stroke:#c5c5c5;stroke-width:1.61703646;stroke-linecap:butt;stroke-linejoin:miter;stroke-miterlimit:4;stroke-opacity:1;stroke-dasharray:none" />
              </g>
              <path
                 d="m 297.97117,252.53831 c 3.55435,7.23743 1.84248,10.21442 1.84248,10.21442 2.34309,-1.31419 3.98813,-2.90075 4.59366,-4.89297 1.69632,2.05733 3.28001,4.14745 6.61694,5.72721 0,0 -2.85323,-6.91061 -4.0263,-10.8615 l -9.02678,-0.18716 z"
                 id="path3532"
                 style="fill:#0093d9;fill-opacity:1;stroke-width:2" />
              <path
                 d="m 284.57789,231.78049 26.77592,0.20008 c 0.68561,0 1.23756,0.55195 1.23756,1.23755 l 7.06718,15.78748 c 0,0.6856 -0.55195,1.23755 -1.23756,1.23755 l -27.04539,-0.34183 -8.03527,-16.88328 c 0,-0.6856 0.55195,-1.23755 1.23756,-1.23755 z"
                 id="path3534"
                 style="fill:#dd0000;fill-opacity:1" />
              <path
                 d="m 561.28654,723.79839 7.05997,0.94239 15.51773,31.2025 c -6.74743,-4.53087 -14.14776,-4.82637 -7.15901,1.64724 -1.81794,-1.55257 -2.51591,-2.4366 -2.80957,-3.2041 l -14.69935,-29.78476 c -0.60502,-1.17823 0.25705,-1.0455 2.09023,-0.80327 z"
                 transform="matrix(0.499065,-0.866565,0,1,0,0)"
                 id="path3536"
                 style="fill:#bc0000;fill-opacity:1" />
              <path
                 d="m 284.81403,231.70142 25.95424,-0.0282 c 0.46998,0 0.84832,0.37836 0.84832,0.84833 0.22453,6.59441 -14.1341,15.47802 -20.88485,16.08864 l -6.76604,-16.0604 c 0,-0.46997 0.37835,-0.84833 0.84833,-0.84833 z"
                 id="path3538"
                 style="fill:#eb2f1a;fill-opacity:1" />
              <path
                 d="m 319.47279,249.25686 c 0,0.6856 -0.36012,0.98755 -1.04573,0.98755 l -26.46288,0.44824 -0.60592,-0.84306 c 7.14032,-0.21334 18.76088,-0.20836 28.11453,-0.59273 z"
                 id="path3542"
                 style="fill:#a70000;fill-opacity:1" />
            </g>
          </g>
        </g>
        <path
           d="m 658.82432,-17.020356 c -0.5036,-0.10706 -15.8174,27.952138 -22.9825,40.640887 6.3947,-3.638796 17.3752,-10.427919 18.875,-10.10842 1.5006,0.319476 10.0567,11.310026 15.1437,17.390614 -3.4452,-14.92202 -10.5319,-47.815832 -11.0362,-47.923081 z m 63.7003,35.287713 c -0.3686,-0.376365 -30.1902,11.989424 -43.8941,17.438197 7.6525,0.975898 21.0867,2.215638 22.1845,3.335255 1.0997,1.121719 1.9254,14.506475 2.6749,22.094186 5.9196,-13.343915 19.4038,-42.491249 19.0347,-42.867638 z M 591.3819,-10.668159 c -0.44655,0.202358 4.65989,33.235522 6.76635,48.307858 2.6919,-6.862848 6.93513,-19.125454 8.26418,-19.728255 1.33083,-0.603546 14.41074,3.838789 21.88975,6.082812 -11.49465,-10.794677 -36.47343,-34.864998 -36.92028,-34.662415 z m 164.80532,92.959634 c -0.093,-0.50105 -33.043,-8.515696 -48.0418,-12.388137 5.9927,5.217537 16.7889,14.03283 17.065,15.524357 0.2765,1.4942 -6.9883,12.125493 -10.8618,18.328235 13.0181,-6.671812 41.9314,-20.962664 41.8386,-21.464455 z M 591.44011,44.036421 c -15.17767,-2.551087 -48.40493,-8.62733 -48.62353,-8.192372 -0.2186,0.435062 23.34828,25.836596 33.91707,37.544287 -2.03695,-7.460919 -6.10706,-20.495364 -5.45553,-21.791632 0.65022,-1.293839 13.13762,-5.113268 20.16199,-7.560283 z m 121.66251,69.088699 c 2.0371,7.46133 6.1069,20.49541 5.4556,21.79162 -0.6504,1.29384 -13.1376,5.11327 -20.1619,7.56024 15.1777,2.55107 48.4049,8.62735 48.6234,8.1924 0.2187,-0.43505 -23.3483,-25.83659 -33.9171,-37.54426 z M 573.53586,83.377933 c -13.01778,6.671695 -41.93132,20.962607 -41.83842,21.464707 0.0927,0.5009 33.04304,8.51537 48.04177,12.38784 -5.9926,-5.21758 -16.78891,-14.03301 -17.06485,-15.5244 -0.27658,-1.49439 6.9883,-12.125522 10.8615,-18.328147 z m 118.15226,65.495747 c -2.6919,6.86286 -6.935,19.12548 -8.2642,19.72831 -1.3309,0.60357 -14.4107,-3.83879 -21.8898,-6.0828 11.4947,10.79466 36.4736,34.8651 36.9205,34.66236 0.4463,-0.20228 -4.6601,-33.23545 -6.7665,-48.30787 z M 584.39476,125.99881 c -5.91956,13.34393 -19.40377,42.49127 -19.03459,42.86763 0.36839,0.37625 30.19004,-11.98943 43.89416,-17.43821 -7.65285,-0.97593 -21.08673,-2.21566 -22.1848,-3.33534 -1.09959,-1.12165 -1.92533,-14.50633 -2.67477,-22.09408 z m 67.64806,37.51449 c -6.3947,3.63883 -17.3751,10.42792 -18.87494,10.1084 -1.50045,-0.31953 -10.05685,-11.30997 -15.14376,-17.39075 3.44522,14.922 10.5321,47.81605 11.03634,47.92314 0.50342,0.10691 15.81746,-27.95194 22.98236,-40.64079 z"
           id="path3766"
           style="fill:#fcc917;fill-opacity:1;enable-background:new" />
      </g>
    </g>
  </g>
</svg>
