<?xml version="1.0" encoding="UTF-8" standalone="no"?>
<!-- Created with Inkscape (http://www.inkscape.org/) -->
<svg xmlns:svg="http://www.w3.org/2000/svg" xmlns="http://www.w3.org/2000/svg" xmlns:xlink="http://www.w3.org/1999/xlink" version="1.0" width="141.23" height="44.911358" id="logo">
  <defs id="defs12" />
  <g transform="translate(-21.69,-41.33)" id="shadowman-logo">
    <path d="M 55.68,68.5 C 55.68,79.69 46.62,88.76 35.43,88.76 C 24.25,88.76 15.18,79.69 15.18,68.5 C 15.18,57.32 24.25,48.25 35.43,48.25 C 46.62,48.25 55.68,57.32 55.68,68.5 z" transform="matrix(1.10693,0,0,1.10693,5.005761,-12.00975)" id="white" style="fill:#ffffff" />
    <path d="M 147.81,72.13 C 147.81,73.33 147.86,74.58 148.04,75.74 L 146.65,75.74 L 146.43,73.56 L 146.36,73.56 C 145.62,74.73 143.92,76.09 141.51,76.09 C 138.45,76.09 137.02,73.93 137.02,71.9 C 137.02,68.39 140.12,66.28 146.31,66.34 L 146.31,65.94 C 146.31,64.43 146.01,61.43 142.42,61.45 C 141.09,61.45 139.7,61.81 138.6,62.59 L 138.12,61.49 C 139.51,60.55 141.21,60.18 142.58,60.18 C 146.97,60.18 147.81,63.48 147.81,66.19 L 147.81,72.13 L 147.81,72.13 z M 146.31,67.61 C 143,67.51 138.62,68.02 138.62,71.67 C 138.62,73.85 140.07,74.84 141.65,74.84 C 144.19,74.84 145.63,73.27 146.15,71.79 C 146.26,71.46 146.31,71.13 146.31,70.87 L 146.31,67.61 L 146.31,67.61 z M 153.8,57.18 L 153.8,60.53 L 158.14,60.53 L 158.14,61.75 L 153.8,61.75 L 153.8,71.64 C 153.8,73.57 154.4,74.78 156.04,74.78 C 156.82,74.78 157.38,74.68 157.77,74.54 L 157.95,75.71 C 157.46,75.91 156.77,76.07 155.85,76.07 C 154.74,76.07 153.82,75.72 153.22,74.99 C 152.54,74.2 152.3,72.92 152.3,71.37 L 152.3,61.75 L 149.73,61.75 L 149.73,60.53 L 152.3,60.53 L 152.3,57.73 L 153.8,57.18 z M 129.03,60.18 C 127.87,60.18 126.83,60.51 125.96,61.05 C 125.06,61.58 124.32,62.4 123.89,63.25 L 123.82,63.25 L 123.82,55.72 L 122.32,55.31 L 122.32,75.74 L 123.82,75.74 L 123.82,66.44 C 123.82,65.82 123.87,65.39 124.03,64.94 C 124.68,63.05 126.46,61.49 128.62,61.49 C 131.73,61.49 132.81,63.99 132.81,66.73 L 132.81,75.74 L 134.31,75.74 L 134.31,66.56 C 134.31,60.9 130.47,60.18 129.03,60.18 z" id="hat" style="fill:#000000" />
    <path d="M 78.21,65.27 C 78.21,63.21 78.17,61.69 78.08,60.31 L 81.46,60.31 L 81.6,63.24 L 81.71,63.24 C 82.47,61.07 84.27,59.96 85.94,59.96 C 86.32,59.96 86.54,59.98 86.85,60.05 L 86.85,63.72 C 86.49,63.65 86.15,63.61 85.68,63.61 C 83.82,63.61 82.53,64.79 82.18,66.56 C 82.12,66.9 82.08,67.32 82.08,67.74 L 82.08,75.74 L 78.18,75.74 L 78.21,65.27 z M 91.56,69.08 C 91.67,71.87 93.83,73.09 96.33,73.09 C 98.12,73.09 99.41,72.81 100.59,72.38 L 101.16,75.06 C 99.84,75.62 98.01,76.04 95.77,76.04 C 90.76,76.04 87.83,72.95 87.83,68.22 C 87.83,63.96 90.41,59.93 95.37,59.93 C 100.39,59.93 102.02,64.06 102.02,67.44 C 102.02,68.16 101.96,68.74 101.88,69.1 L 91.56,69.08 z M 98.35,66.36 C 98.37,64.93 97.74,62.6 95.13,62.6 C 92.73,62.6 91.73,64.78 91.55,66.36 L 98.35,66.36 z M 118.83,54.36 L 114.93,53.31 L 114.93,61.97 L 114.87,61.97 C 114.18,60.83 112.65,59.96 110.54,59.96 C 106.83,59.96 103.6,63.03 103.63,68.2 C 103.63,72.95 106.54,76.09 110.23,76.09 C 112.45,76.09 114.32,75.02 115.24,73.3 L 115.31,73.3 L 115.48,75.74 L 118.96,75.74 C 118.89,74.69 118.83,72.99 118.83,71.41 L 118.83,54.36 L 118.83,54.36 z M 114.93,69.05 C 114.93,69.46 114.9,69.84 114.81,70.19 C 114.42,71.88 113.04,72.97 111.44,72.97 C 108.99,72.97 107.58,70.89 107.58,68.06 C 107.58,65.2 108.97,62.98 111.49,62.98 C 113.24,62.98 114.5,64.22 114.84,65.72 C 114.91,66.04 114.93,66.43 114.93,66.74 L 114.93,69.05 L 114.93,69.05 z" id="red" style="fill:#000000" />
    <path d="M 63.12,76.09 C 60.81,75.5 58.52,75.8 56.29,76.49 C 56.01,76.53 56.16,76.83 56.11,76.95 C 56.24,77.32 56.03,77.72 55,77.94 C 53.47,78.28 52.5,79.86 51.94,80.39 C 51.29,81.01 49.45,81.39 49.73,81.02 C 49.95,80.73 50.77,79.83 51.28,78.86 C 51.73,77.99 52.13,77.75 52.68,76.92 C 52.84,76.68 53.47,75.82 53.65,75.15 C 53.85,74.49 53.79,73.66 53.87,73.32 C 53.98,72.83 54.44,71.77 54.48,71.17 C 54.5,70.83 53.06,71.65 52.37,71.65 C 51.69,71.65 51.02,71.24 50.41,71.21 C 49.66,71.18 49.17,71.8 48.49,71.69 C 48.1,71.63 47.77,71.28 47.09,71.26 C 46.12,71.22 44.93,71.8 42.7,71.72 C 40.51,71.65 38.48,68.95 38.2,68.52 C 37.88,68.02 37.48,68.02 37.05,68.41 C 36.62,68.81 36.09,68.5 35.94,68.23 C 35.65,67.73 34.88,66.26 33.69,65.95 C 32.04,65.52 31.21,66.86 31.32,67.93 C 31.43,69.01 32.13,69.31 32.45,69.89 C 32.78,70.46 32.94,70.83 33.55,71.09 C 33.98,71.27 34.14,71.54 34.01,71.89 C 33.9,72.2 33.45,72.27 33.16,72.28 C 31.93,72.29 31.47,71.68 30.77,70.81 C 30.39,70.19 29.8,69.92 29.1,69.92 C 28.77,69.92 28.47,70.01 28.19,70.15 C 27.11,70.71 25.82,71.05 24.43,71.05 L 22.86,71.05 C 22.1,68.78 21.69,66.37 21.69,63.85 C 21.69,51.41 31.77,41.33 44.21,41.33 C 56.65,41.33 66.73,51.41 66.73,63.85 C 66.73,68.36 65.4,72.57 63.12,76.09 z M 49.17,74.03 C 49.29,74.14 49.49,74.52 49.24,75 C 49.11,75.26 48.96,75.44 48.69,75.65 C 48.38,75.9 47.76,76.19 46.91,75.66 C 46.45,75.36 46.42,75.27 45.79,75.35 C 45.34,75.41 45.16,74.95 45.33,74.58 C 45.49,74.2 46.15,73.89 46.98,74.38 C 47.35,74.6 47.93,75.06 48.44,74.65 C 48.65,74.48 48.78,74.37 49.07,74.03 C 49.08,74.02 49.1,74.01 49.12,74.01 C 49.14,74.01 49.16,74.01 49.17,74.03 z" id="black" />
    <path d="M 56.92,57.86 C 56.69,58.61 56.38,59.56 54.97,60.29 C 54.77,60.39 54.69,60.22 54.78,60.06 C 55.31,59.15 55.41,58.93 55.56,58.57 C 55.78,58.05 55.89,57.3 55.46,55.75 C 54.62,52.71 52.85,48.63 51.56,47.31 C 50.33,46.04 48.08,45.68 46.05,46.2 C 45.3,46.39 43.84,47.15 41.13,46.54 C 36.43,45.48 35.74,47.83 35.47,48.86 C 35.2,49.88 34.55,52.79 34.55,52.79 C 34.34,53.98 34.05,56.04 41.34,57.43 C 44.74,58.07 44.91,58.95 45.06,59.58 C 45.33,60.71 45.76,61.36 46.25,61.68 C 46.73,62.01 46.25,62.27 45.71,62.33 C 44.26,62.48 38.92,60.95 35.75,59.15 C 33.17,57.57 33.12,56.15 33.72,54.94 C 29.81,54.52 26.88,55.3 26.35,57.16 C 25.43,60.33 33.32,65.75 42.31,68.47 C 51.74,71.33 61.44,69.34 62.52,63.41 C 63.01,60.71 60.74,58.72 56.92,57.86 z M 42.46,52.05 C 39.86,52.24 39.59,52.52 39.1,53.04 C 38.41,53.77 37.51,52.09 37.51,52.09 C 36.97,51.98 36.31,51.1 36.66,50.28 C 37.01,49.47 37.66,49.72 37.86,49.97 C 38.11,50.27 38.63,50.78 39.32,50.76 C 40,50.74 40.79,50.6 41.88,50.6 C 43,50.6 43.75,51.01 43.79,51.37 C 43.82,51.68 43.7,51.96 42.46,52.05 z M 45.19,47.75 C 45.19,47.75 45.18,47.76 45.18,47.76 C 45.14,47.76 45.11,47.73 45.11,47.69 C 45.11,47.66 45.12,47.64 45.15,47.63 C 45.65,47.36 46.4,47.15 47.27,47.06 C 47.52,47.03 47.78,47.02 48.02,47.02 C 48.06,47.02 48.1,47.02 48.15,47.02 C 49.59,47.05 50.75,47.62 50.73,48.3 C 50.71,48.97 49.53,49.5 48.08,49.46 C 47.62,49.45 47.18,49.38 46.8,49.28 C 46.76,49.26 46.72,49.23 46.72,49.18 C 46.72,49.14 46.76,49.1 46.8,49.09 C 47.7,48.88 48.31,48.54 48.27,48.22 C 48.21,47.79 47.03,47.56 45.64,47.7 C 45.48,47.71 45.33,47.73 45.19,47.75 z" id="fedora" style="fill:#cc0000" />
    <path d="M 67.21,72.9 C 66.25,72.9 65.49,73.66 65.49,74.61 C 65.49,75.57 66.25,76.33 67.21,76.33 C 68.16,76.33 68.92,75.57 68.92,74.61 C 68.92,73.65 68.16,72.9 67.21,72.9 z M 67.21,73.19 C 67.99,73.19 68.63,73.83 68.63,74.61 C 68.63,75.4 67.99,76.04 67.21,76.04 C 66.42,76.04 65.78,75.4 65.78,74.61 C 65.78,73.83 66.42,73.19 67.21,73.19 z M 66.62,73.74 L 66.62,75.49 L 66.88,75.49 L 66.88,74.72 L 67.21,74.72 L 67.68,75.49 L 67.97,75.49 L 67.46,74.72 C 67.72,74.69 67.94,74.53 67.94,74.21 C 67.94,73.86 67.73,73.74 67.32,73.74 L 66.62,73.74 z M 66.88,73.96 L 67.24,73.96 C 67.43,73.96 67.65,74 67.65,74.21 C 67.65,74.48 67.43,74.5 67.21,74.5 L 66.88,74.5 L 66.88,73.96 z" id="r1" style="fill:#000000" />
    <use transform="translate(94,0)" id="use2182" x="0" y="0" width="190" height="120" xlink:href="#r1" />
  </g>
</svg>
