<?xml version="1.0" encoding="utf-8"?>
<!-- Generator: Adobe Illustrator 13.0.1, SVG Export Plug-In . SVG Version: 6.00 Build 14948)  -->
<!DOCTYPE svg PUBLIC "-//W3C//DTD SVG 1.1//EN" "http://www.w3.org/Graphics/SVG/1.1/DTD/svg11.dtd">
<svg version="1.1" id="Layer_1" xmlns="http://www.w3.org/2000/svg" xmlns:xlink="http://www.w3.org/1999/xlink" x="0px" y="0px"
	 width="367.469px" height="307.711px" viewBox="0 0 367.469 307.711" enable-background="new 0 0 367.469 307.711"
	 xml:space="preserve">
<g>
	<g>
		<path fill="#233345" d="M0,131.863c1.309,0.434,3.781,0.871,5.531,0.871c9.32,0,10.043-6.551,10.043-14.266V34.93h9.164v84.707
			c0,11.934-3.344,20.953-16.734,20.953c-3.926,0-6.551-0.434-8.004-0.723V131.863z M24.738,15.137h-9.164V2.91h9.164V15.137z"/>
		<path fill="#233345" d="M47.008,0h9.168v47.445h0.293c1.305-3.637,8.582-14.262,23.137-14.262
			c21.828,0,30.562,16.301,30.562,38.859c0,21.98-10.184,38.863-30.562,38.863c-10.621,0-18.195-4.082-23.137-13.539h-0.293v11.785
			h-9.168V0z M78.152,41.043c-16.742,0-21.977,17.465-21.977,31s5.68,31,21.977,31c17.465,0,21.977-16.59,21.977-31
			C100.129,57.637,95.617,41.043,78.152,41.043z"/>
		<path fill="#233345" d="M157.766,33.184c24.016,0,34.633,18.633,34.633,38.859c0,20.23-10.617,38.863-34.633,38.863
			c-24.012,0-34.641-18.633-34.641-38.863C123.125,51.816,133.754,33.184,157.766,33.184z M157.766,103.043
			c16.012,0,24.598-13.828,24.598-31s-8.586-31-24.598-31s-24.598,13.828-24.598,31S141.754,103.043,157.766,103.043z"/>
		<path fill="#233345" d="M204.047,98.383c5.531,2.766,12.223,4.66,19.355,4.66c8.734,0,16.449-4.805,16.449-13.242
			c0-17.613-35.66-14.848-35.66-36.387c0-14.703,11.934-20.23,24.164-20.23c3.926,0,11.789,0.871,18.336,3.348l-0.875,8.004
			c-4.801-2.184-11.352-3.492-16.449-3.492c-9.457,0-16.004,2.91-16.004,12.371c0,13.828,36.535,12.078,36.535,36.387
			c0,15.715-14.711,21.105-25.91,21.105c-7.129,0-14.262-0.875-20.816-3.496L204.047,98.383z"/>
		<path fill="#233345" d="M260.661,98.383c5.535,2.766,12.227,4.66,19.352,4.66c8.734,0,16.449-4.805,16.449-13.242
			c0-17.613-35.652-14.848-35.652-36.387c0-14.703,11.93-20.23,24.156-20.23c3.926,0,11.785,0.871,18.332,3.348l-0.867,8.004
			c-4.805-2.184-11.359-3.492-16.453-3.492c-9.449,0-16,2.91-16,12.371c0,13.828,36.527,12.078,36.527,36.387
			c0,15.715-14.703,21.105-25.906,21.105c-7.129,0-14.262-0.875-20.805-3.496L260.661,98.383z"/>
	</g>
	<g>
		<path fill="#233345" d="M348.551,149.055c-0.664,0.703,0.316,1.414,0.703,2.117C349.93,150.469,348.946,149.758,348.551,149.055z
			 M159.863,225.25c0.859-1.184-1.863-2.363-0.703-3.543C156.082,220.238,157.816,224.41,159.863,225.25z M367.469,126.34h-31.488
			v17.223h-0.48c-9.117-14.516-22.152-20.176-38.887-20.176c-9.016,0-16.73,2.047-23.32,5.496c1.406,0.07,3.184-0.309,3.457,1.141
			c-2.973,0.117,2.98,4.586,0,4.691c-0.199-1.312-1.066-1.828-1.934-2.34c1.488,2.301-0.738,5.863,0.969,7.031
			c0.055-0.715,0.145-1.387,0.965-1.168c-0.301,5.59-5.496,0.68-5.777-1.176c-1.094-0.121-1.504,1.703-1.934,0
			c1.359-0.309,1.102-2.574,1.934-3.52c4.418,1.898,1.93-0.195,1.93-4.457c-4.855,2.598-9.102,5.938-12.707,9.906v-14.621
			c-3.449-0.984-6.891-0.984-10.09-0.984c-4.797,0-9.215,1.207-13.195,3.176c2.059,1.066,4.109-1.207,6.168,2.043
			c-0.648,0.941-0.312,1.879,0,2.82c-3.883,1.238-4.066,5.371-7.07,5.656c2.418-4.16-3.133-5.504,0.516-10.34
			c-2.438,1.246-4.711,2.789-6.789,4.523c2.766,1.07,2.184-1.922,3.656-2.41c0.145,2.91-0.504,4.863-1.926,5.859
			c-0.09-1.773-2.25-1.02-1.961-3.254c-4.074,3.445-7.383,7.641-9.789,11.844c0.246,0.211,0.492,0.473,0.742,0.844
			c-2.336,0.738-2,4.027-3.012,3.832c-0.152,0.375-0.328,0.746-0.465,1.117c0.207,0,0.414,0,0,0.004
			c-0.801,2.133-1.348,4.18-1.574,6.031h-0.492v-7.969c-0.969-0.512-1.719-1.707-0.812-2.305c0.391,0.07,0.648,0.113,0.812,0.129
			v-0.156c-0.629-0.383-2.492-1.387-0.812-2.801c0.336-0.074,0.602-0.074,0.812-0.035V126.34h-3c0.465,1.16,0.746,2.555,0.281,4.863
			h-2.898c0.074-2.047-0.211-3.652-0.965-4.695c0.875,0.09,1.293,0.02,1.43-0.168h-9.469c-0.957,1.188-2.289,1.957-4.379,2.09
			c-0.691-0.695-1.395-1.395-2.09-2.09h-8.195v37.68c1.508-0.801,3.02-1.512,3.215-3.082c4.539-0.133,10.864,2.555,9.899,8.477
			c-1.997-2.422-0.254,3.832-2.836,1.41c-0.867-2.199-3.602-5.465-7.062-4.238c3.051-0.062,1.184,2.996,3.535,4.945
			c1.285-0.734,2.043-0.336,2.121-2.113c1.992,1.855,0.238,2.598,2.829,2.824c-2.075,2.277-5.668,0.695-5.665,4.238
			c-1.172-1.043-2.352-2.543-3.527-0.711c-3.461-2.82-4.645-5.645-5.656-8.477c0.215-1.16,0.969-1.898,1.855-2.5
			c-0.438-1.238-0.922-2.445-1.426-3.633c-0.094,0.863-0.352,1.73-1.129,2.602c-3.605,0.551-6.016-7.062-2.121-6.359
			c-0.445,0.84,0.258,5.004,2.121,3.539c-1.387-1.215-0.812-2.422-0.641-3.633c-10.891-21.598-32.781-33.922-59.004-33.922
			c-14.605,0-27.883,3.879-38.66,11.082c0.496,0.148,1,0.031,1.5,0.344c-0.711,0.707-1.414,1.41-2.121,2.117
			c-0.402-0.398-0.805-0.801-1.207-1.203C65.879,147.129,55.934,166,55.934,190.574c0,10.062,1.875,19.566,5.457,28.047H46.793
			c-0.246,2.078-0.605,4.031-1.578,5.238c-0.176-1.719-5.188,1.57-4.82-3.523c2.68,0.543,3.586,0.301,4.957-1.715H30.098v34.457
			h34.453V225.07c10.52,18.645,30.348,30.961,57.586,30.961c8.195,0,15.695-1.121,22.496-3.172
			c-1.488-4.324,1.863-8.957-2.438-11.363c2.43,1.547,1.734-0.16,4.941-0.703c-4.629-6.109,2.934-9.113-1.406-14.133
			c-2.184,3.004-2.512,3.191-5.66,7.066c-3.375-0.379-7.059-2.012-9.027-4.422c-2.68,0.711-5.621,1.137-8.906,1.137
			c-4.582,0-8.531-0.785-11.949-2.148c-0.043,0.082-0.074,0.145-0.125,0.262c-2.012,4.059-0.535,1.07,0.121-0.262
			c-0.719-0.293-1.383-0.641-2.059-0.984c-0.891-0.031-1.754-0.102-1.914-1.031c-10.996-6.824-15.047-21.062-15.711-35.23
			c-0.098-0.125-0.199-0.254-0.289-0.391l-6.41-6.406c3.082-2.398,4.305,3.324,6.41,6.406l0.281,0.281
			c-0.066-1.438-0.105-2.879-0.105-4.305c0-6.859,1.379-13.68,4.121-19.594c-0.137-0.129-0.414-0.109-1.012,0.215
			c0.465,2.129-2.227-1.012-2.82,2.828c-1.648-2.707-3.301,0.586-4.949-2.121c-3.504-8.328,4.695-9.344,1.418-18.367
			c0.324-0.211,0.59-0.418,0.883-0.625c-0.371-0.48-0.68-0.965-0.23-1.441c0.195,0.352,0.543,0.707,0.754,1.062
			c1.547-1.148,2.762-2.238,3.898-3.246c-0.918-1.035-1.453-2.848,0.297-1.348c0.176,0.191,0.41,0.367,0.656,0.531
			c1.262-1.051,2.582-1.98,4.398-2.723c-0.844-0.043-1.363-0.402-0.816-2.055c1.012,2.496,5.234-0.371,4.32,2.562
			c2.348,1.684,4.695,2.105,7.035,4.449c-0.398,1.254-0.164,2.914,0.469,4.645c0.387-0.074,0.773-0.129,1.16-0.008
			c2.727-1.168,5.738-1.949,9.055-2.246c-1.215-1.25-1.934-2.504-0.84-3.754c0.941,0.727,1.887,2.133,2.824,1.418
			c-0.387-0.707-1.375-1.418-0.703-2.125c2.047-0.008,3.008,2.32,1.508,4.305c0.113,0,0.211-0.016,0.324-0.016
			c16.027,0,25.836,9.98,29.863,23.055c3.004-1.176,6.762-1.543,11.402-1.199c1.684,1.828,0.859,3.504,3.539,3.527
			c0.219,6.73-1.164,11.262-4.023,13.977c0.043,0.109,0.086,0.211,0.121,0.328c-0.5,0.137-0.82,0.289-1.074,0.449
			c-0.113,0.082-0.215,0.18-0.336,0.262c-0.621,0.695-0.168,1.762-1.469,3.984c1.301-0.375,1.84-1.668,3.852-1.172
			c0.406,2.957-3.016,7.133-3.852,4.691c2.285-2.352-1.75-0.305-1.926,1.176c-0.312-2.719,0.152-4.504,0.953-5.867
			c-0.336-0.531-0.664-0.934-0.98-1.281c-1.277,0.363-2.691,0.559-4.234,0.613c-0.25,5.012-0.906,10.008-2.16,14.66
			c0.191,0.016,0.395,0.031,0.629,0.086c0.176,1.758-0.34,4.332,0.969,4.688c1.051-0.457,2.32-1.406,0.973,0
			c-0.957,1.129-3.066,1.207-4.305,0.355c-0.879,2.223-1.934,4.32-3.168,6.262c0.668,0.281,1.062,0.895-0.242,1.594
			c-0.203-0.164-0.367-0.305-0.512-0.438c-0.773,1.09-1.625,2.105-2.523,3.074c2.109,1.039,4.223,2.23,6.336,3.434
			c3.207-2.227-5.07-3.973-1.414-4.227c0.352,0.289,0.984,0.348,1.738,0.262c-0.273-0.062-0.52-0.305-0.73-0.934
			c1.129-0.168,2.18-2.086,2.879,0c-0.551,0.086-1.094,0.59-1.574,0.824c3.168-0.637,7.652-3.418,4.047-3.688
			c6.848-6.648,14.496,6.578,11.305,9.883c0.453-2.258-3.125-3.598-3.531-3.531c-0.352,3.891-1.262,5.547-6.359,6.359
			c7.684,5.91,6.07,6.84,9.355,11.695c3.363-2.715,6.395-5.754,9.051-9.098c-1.191-0.316-2.258-1.895-1.586-4.465
			c1.895-0.355,1.898,1.578,2.879,2.344c0.055-0.723,0.152-1.395,0.973-1.176c0.008,0.09,0.004,0.164,0.008,0.246
			c3.777-5.441,6.672-11.551,8.621-18.141v41.484h32.977v-46.512c0-6.492,0.004-14.93,1.223-23.098
			c-0.098-0.848-0.113-1.809-0.895-1.836c-0.965-0.004-1.148,0.949-1.934,1.176c-0.656-3.156,2-2.27,2.898-3.52
			c-0.215,1.277-0.055,1.879,0.266,2.141c1.191-6.816,3.336-13.297,7.125-18.156c-0.863-0.418-1.73-1.32-2.59-0.746
			c0.391,0.707,1.379,1.418,0.703,2.113c-0.938-1.004-1.887-1.223-2.824-1.402c1.688-1.66,0.855-3.309,3.527-4.961
			c0.992,0.992,1.977,1.98,2.969,2.965c3.758-3.801,8.855-6.211,15.797-6.332c0.027-0.09,0.074-0.137,0.074-0.25
			c-1.648,0.062-2.469-0.91-2.879-2.348c1.262-0.016,0.875-2.055,1.922-2.352c-0.688,3.121,0.805,3.574,1.578,4.93
			c1.445,0.004,2.898,0.062,4.305,0.184c-3.902,8.781-6.055,18.535-6.684,28.098c0.172-0.191,0.414-0.34,0.801-0.363
			c-0.918,2.184,2.883,3.914,0,4.695c-0.129-0.34-0.641-1.332-0.934-2.316c-0.059,1.309-0.094,2.609-0.094,3.906
			c0,27.23,9.195,51.918,32.129,60.637c0.055-2.035-2.387-3.344-0.273-3.582c0.477,2.09,1.027-0.508,1.934-1.176
			c0.418,2.621,1.699,4.184,3.855,4.695c0.168,0.758,0.18,1.324,0.133,1.809c2.68,0.656,5.527,1.117,8.535,1.363
			c0.41-5.598,3.691-5.488,3.855-11.391c3.68,4.043,6.281-8.191,10.598-3.512c-3.648,6.047,1.785,7.137,0,12.902
			c-5.137,0.398-3.129-7.922-8.668-7.035c-0.645,7.359,3.133,3.051,3.777,7.441c0.836,0.738,2.281,2.02,0.93,0.828
			c-0.418-0.367-0.699-0.617-0.93-0.82c0.031,0.238,0.07,0.477,0.082,0.754c-3.492-3.512-5.285-0.754-4.383,1.07h0.109
			c6.613,0,12.738-1.211,18.18-3.254c-0.242-0.352-0.418-0.766-0.426-1.328c1.277-0.012,0.891-2.059,1.934-2.348
			c0.156,1.477,1.469,1.559,2.516,1.957c7.785-3.75,13.781-9.254,17.168-15.203h0.5c0,21.898-1.734,49.215-38.148,49.215
			c-5.742,0-13.391-1.777-20.785-4.266c0.254,0.32,0.184,0.766-0.73,1.258c-1.484-1.156-1.293-1.656-0.719-1.742
			c-5.383-1.895-10.562-4.117-14.676-6.324l-2.711,28.059c15.754,6.645,30.762,8.609,43.809,8.609
			c32.02,0,49.742-11.805,58.77-28.719h-1.633v-2.348h1.926v1.777c5.734-11.039,7.852-24.188,7.852-37.645v-27.02
			c-1.398-0.461-2.547-1.227-3.031-2.801c1.059,0.328,2.07,0.719,3.031,1.156V126.34z M44.535,233.246
			C41.34,231.539,48.293,230.324,44.535,233.246L44.535,233.246z M45.488,252.008c-0.02-1.547-1.68-1.07-1.914-2.34
			C47.266,247.48,46.227,250.559,45.488,252.008z M49.355,248.496c-0.977-0.012-1.164,0.949-1.941,1.172
			c0.051-1.613-0.457-2.578-0.965-3.52h2.906V248.496z M47.414,235.594c-0.129,3.746,0.953,8.969-2.879,8.211
			c-0.094-5.188,1.387-8.473,3.844-10.559c-0.289,2.305,1.305,2.324,1.93,3.52C48.98,236.816,48.191,236.215,47.414,235.594z
			 M137.039,247.152c-0.398-0.129-0.508-0.156,0.137-0.086c0.16-0.098,0.305-0.215,0.484-0.289c-0.008,0.109-0.008,0.23-0.016,0.344
			c0.105,0.012,0.188,0.023,0.309,0.035c0.641-0.492,4.48,0.191,2.82,1.41c-0.469-0.383-0.938-0.73-1.41,0
			c1.48,2.027-1.398,1.02-1.879,0.617c-0.18,0.863-0.609,1.414-1.746,1.113C135.695,248.664,136.219,247.727,137.039,247.152z
			 M134.418,252.102c-0.035,0.395,0.059,0.688,0.219,0.906c0.652-0.309,2.488-4.457,3.316-1.613
			c0.508,1.766-2.469,2.805-3.316,1.613C134.453,253.098,134.359,252.891,134.418,252.102z M121.699,236.555
			c1.48-0.156,6.363-6.129,9.891-4.242c-2.777,2.125,3.441,4.238,2.125,6.363c-4.879-0.43-0.887,5.887-7.777,6.352
			C123.074,242.211,120.695,239.387,121.699,236.555z M79.219,185.156c0.914-2.188-2.898-3.918,0-4.695
			c0.203,1.418,1.07,0.715,1.926,0c0.375,2.02-1.438,3.008,0,3.52c-0.004-0.652,0.781-1.328,0.961,0
			C80.875,184.047,80.762,185.488,79.219,185.156z M80.023,149.648c-4.078,2.176,4.082,3.41,0,2.828
			c-0.938,0.703-1.887-0.352-2.824-1.414C78.137,150.344,79.086,148.93,80.023,149.648z M72.402,160.668
			c1.27,1.02,6.023,1.266,4.949,3.531c-5.379-2.82,4.941,3.789,0.004,2.824C78.871,165.898,70.883,163.535,72.402,160.668z
			 M75.938,167.023C70.785,168.391,72.207,162.332,75.938,167.023L75.938,167.023z M76.484,167.312
			c0.645,1.418,4.477,2.824,2.832,4.238c-1.184-0.488-2.355-0.844-3.535-0.703c0.641,1.988,4.488,0.246,2.828,2.828
			c-2.711,0.062-2.809-2.371-4.242-4.238C75.07,168.73,75.781,168.023,76.484,167.312z M72.25,167.312
			c2.391,1.418-0.098,2.828-0.008,4.238c-0.719-0.938-2.121-1.879-1.402-2.82C71.84,169.438,72.055,168.379,72.25,167.312z
			 M67.648,159.344c3.102,3.746-2.031,3.484-1.922,7.047c-1.801-0.168-3.223-0.773-3.863-2.352
			C65.316,161.523,67.504,163.047,67.648,159.344z M63.766,178.621c-0.391-0.465-0.723-0.941,0-1.41
			c1.891,1.645,1.129,3.301,0.711,4.949C61.566,182.18,59.875,176.859,63.766,178.621z M65.727,210.957
			c-0.18-1.715-5.188,1.574-4.82-3.52c3.66,0.738,4.008,0.047,6.742-4.684C67.277,205.809,67.16,209.184,65.727,210.957z
			 M70.539,232.07c0.016-1.754-3.582-4.797-0.957-5.863C68.535,229.203,73.727,230.312,70.539,232.07z M73.43,182.809
			c-3.027,1.344-2.332-1.844-3.848-2.348c-0.055,0.715-0.145,1.395-0.957,1.172c0.23-0.559,0.414-1.172,0.582-1.801
			c-0.793-0.473-1.441-1.09-1.477-1.781c-1.594-0.316-1.316-1.625-2.969,0.066c0.922-2.191-2.883-3.922,0-4.699
			c0.109,1.441,0.289,2.781,1.922,2.352c1.52-0.109,0.758-2.988,2.898-2.352c0.02,0.465,0.012,0.902-0.012,1.312
			c2.516-1.121,0.395-1.422,0.559-3.883c0.637,2.574,4.48,0.836,2.82,2.828c-1.121-0.645-0.887,0.141-0.742,1.027
			c0.098-0.027,0.164-0.09,0.266-0.102c-0.078,0.23-0.137,0.43-0.199,0.641c0.008,0.195,0.008,0.383-0.031,0.547
			c-0.035-0.02-0.074-0.047-0.113-0.074c-1.441,5.004,0.574,3.383,2.27,3.574C72.398,179.949,72.359,181.117,73.43,182.809z
			 M76.32,232.07c1.523-0.109,0.758-2.988,2.898-2.34C80.062,232.145,76.035,234.172,76.32,232.07z M81.145,236.766
			C77.387,233.844,84.34,235.059,81.145,236.766L81.145,236.766z M81.145,226.207c0.523-1.707-1.133-6.062,0.961-5.867
			C81.578,222.051,83.23,226.402,81.145,226.207z M83.07,215.648c-2.031,1.562-5.34,3.793-5.789-1.168
			c2.73-0.973,2.504,1.652,4.824,1.168c0.613-2.559-2.723-3.734,0.965-3.516V215.648z M85,210.957
			c1.375-1.789,5.023-1.141,4.82,2.348C88.105,212.652,85.82,212.707,85,210.957z M88.848,228.676v5.867
			C83.793,236.031,86.055,227.945,88.848,228.676z M89.805,235.719C90.926,243.23,86.867,238.293,89.805,235.719L89.805,235.719z
			 M90.777,231.023c0.148-1.383-0.164-3.324,0.965-3.516C91.578,228.887,91.91,230.836,90.777,231.023z M105.227,253.184
			C101.477,250.27,108.43,251.473,105.227,253.184L105.227,253.184z M103.301,227.383C99.551,224.465,106.5,225.672,103.301,227.383
			L103.301,227.383z M96.742,232.375c1.391-1.312,2.355-1.266,2.898,1.172c-1.32-0.047-2.125,0.562-2.898,1.176V232.375z
			 M95.59,238.066c0.09-1.324-1.395-1.824,0-2.348C96.57,235.73,96.816,237.773,95.59,238.066z M94.637,226.332
			c-0.09,2.043,0.207,3.648,0.953,4.691C92.309,231.91,91.828,226.547,94.637,226.332z M92.699,243.926
			c-0.148,1.387,0.168,3.328-0.957,3.52C91.887,246.066,91.574,244.113,92.699,243.926z M90.777,218.121
			c-0.801,3.316,1.355,3.043,0.965,5.871C88.824,225.797,89.207,217.922,90.777,218.121z M85,189.848
			c4.395,0.117,2.457,7.945,4.82,10.555c-3.629-2.445-5.309,1.328-6.75,4.691c-2.207-3.965,1.391-5.992-0.965-10.555
			C84.688,192.355,86.914,193.965,85,189.848z M86.383,157.414c-0.641-0.23-4.473-0.953-2.82-2.816
			C84.203,154.82,88.039,155.555,86.383,157.414z M87.094,143.996c1.004,0.703,1.219-0.355,1.41-1.422
			C92.57,144.43,84.961,147.672,87.094,143.996z M93.664,130.023c1.191,2.465,2.668,4.574,3.863,7.039
			C95.066,136.844,92.711,130.52,93.664,130.023z M104.27,142.93C100.516,140.016,107.457,141.223,104.27,142.93L104.27,142.93z
			 M146.996,132.762c0.098-1.316-1.402-1.824,0-2.348C147.965,130.43,148.211,132.473,146.996,132.762z M152.441,162.867
			c0.102-1.316-1.398-1.828,0-2.348C153.414,160.531,153.66,162.582,152.441,162.867z M159.164,145.395
			c-0.387-0.707-1.375-1.41-0.703-2.125C158.852,143.984,159.844,144.691,159.164,145.395z M161.285,158.824
			c-0.719-0.945-2.125-1.883-1.41-2.828C160.598,156.934,162.004,157.879,161.285,158.824z M161.293,144.691
			c-0.727-0.945-2.129-1.883-1.418-2.832c0.941,0.926,1.883-0.594,2.828,0C161.832,142.809,162.629,143.746,161.293,144.691z
			 M155.34,195.707c0.969,0.016,1.203,2.059,0,2.352C155.441,196.746,153.934,196.227,155.34,195.707z M156.305,215.648h-2.895
			v-2.344c1.234-0.066,1.34-1.5,2.895-1.172V215.648z M166.227,217.473C161.703,217.238,166.691,212.715,166.227,217.473
			L166.227,217.473z M168.34,226.652c1.234-1.648-0.52-3.289,0.703-4.945c0.953,0.945,1.887,1.887,2.828,2.832
			C170.695,225.477,169.512,227.391,168.34,226.652z M166.227,213.23c-1.656-2.672-3.301-1.855-4.957-3.543
			c3.711-5.496,2.16-5.203,7.777-9.176c2.824,2.359,3.141,4.711,4.246,7.07C171.164,211.34,169.746,211.012,166.227,213.23z
			 M213.692,161.414C213.696,160.492,213.692,162.008,213.692,161.414L213.692,161.414z M216.293,177.547
			c-3.098-0.852-4.402,0.484-3.961,3.949c1.051-1.355,1.645-3.266,3.711-3.379c0.359,3.641-3.328,8.355-5.773,4.691
			c0.559-0.074,0.977-0.309,1.352-0.602c-3.957-0.559-5.031-6.848-7.855-2.316c-2.289-4.848,3.285-8.012,2.887-10.551
			c0.02,1.547,1.691,1.062,1.926,2.34c-1.652-0.062-2.461,0.906-2.891,2.352c1.168,0.242,0.594,1.297,0,2.34
			c4.395-1.438,3.043,4.121,5.777,4.695c0.727-3.609-2.633-2.25-1.922-5.871c1.387,0.629,2.352-4.566,2.891-1.164
			C209.934,175.359,216.536,173.035,216.293,177.547z M205.688,182.242c1.234-0.074,1.336-1.512,2.891-1.176
			c-0.293,2.297,1.301,2.324,1.926,3.52c-1.324-0.047-2.109,0.547-2.895,1.172C207.903,183.445,206.325,183.434,205.688,182.242z
			 M206.813,159.117c-0.16-0.102-0.277-0.203-0.398-0.309v1.711c-3.285,0.703-3.242-3.465-1.16-4.473
			c0.41-2.145,3.242-3.883,5.09-1.879C204.77,154.121,207.922,156.98,206.813,159.117z M210.27,144.102
			c0.711,4.453-4.395,7.863-5.785,5.859c1.141-0.562,2.188-1.25,2.891-2.34c0.035-1.613-0.453-2.574-0.961-3.52H210.27z
			 M209.297,134.715c-1.375,0.281-1.621,1.938-2.883,2.348c0.039-1.617-0.461-2.578-0.969-3.52
			C206.735,132.02,208.344,132.824,209.297,134.715z M205.446,148.789C202.2,152.355,202.516,144.457,205.446,148.789
			L205.446,148.789z M215.559,192.758C212.368,191.047,219.317,189.84,215.559,192.758L215.559,192.758z M201.586,176.945
			c0.969,0.012,1.215,2.051,0,2.344C201.696,177.969,200.184,177.457,201.586,176.945z M210.524,184.949
			c6.973,3.238,3.488,11.121-1.418,12.727c-3.828-2.145-6.34-5.336-4.941-9.188c3.055-0.805,2.664,5.961,6.359,4.945
			c-4.406-3.797,1.199-1.789,2.824-2.828c-2.484-2.902-6.324-4.598-4.945-0.707c-1.184-1.285-2.352-2.035-3.535-2.113
			C206.754,185.523,208.641,187.203,210.524,184.949z M206.645,180.43C201.231,185.316,203.891,178.488,206.645,180.43
			L206.645,180.43z M198.817,206.074c3.016,0.355-2.454-3.391,0.965-3.523c0.215,0.914,0.805,1.367,1.934,1.176
			c-0.156,1.379,0.164,3.332-0.969,3.52c-0.062-0.719-0.152-1.391-0.965-1.172C199.782,206.719,198.997,207.402,198.817,206.074z
			 M193.777,250.68c-0.477-0.473-0.938-0.949-1.418-1.418c0.465-0.469,0.941-0.941,1.418-1.406c0.469,0.465,0.934,0.93,1.41,1.406
			C194.711,249.738,194.246,250.207,193.777,250.68z M206.528,213.105c-1.273,0.012-0.887,2.062-1.93,2.352
			c-1.242-3.18-2.348-6.516-1.926-11.73c1.824-0.262,2.133,1.324,3.855,1.168C205.094,209.297,204.313,209.207,206.528,213.105z
			 M206.528,202.551h-2.891c0.555-2.059-1.168-6.891,0.961-7.035c-0.051,2.012,0.742,3.008,1.93,3.516c0-0.645,0.773-1.328,0.965,0
			C206.375,199.223,206.446,200.895,206.528,202.551z M207.493,220.148c-0.574-3.742,1.809-3.633,0-5.867
			C210.993,213.145,209.54,220.836,207.493,220.148z M217.485,197.453c-1.391,1.316-2.352,1.266-2.891-1.172
			c1.332,0.043,2.113-0.559,2.891-1.176V197.453z M212.86,248.551C216.227,247.242,211.86,253.07,212.86,248.551L212.86,248.551z
			 M210.637,211.039c-0.949,1.008-1.887,1.219-2.836,1.41c-0.469-0.469-0.938-0.938-1.402-1.41c1.184-0.512,1.613-1.016,1.656-1.523
			c-0.59,0.207-1.145,0.344-1.355,0.418c-0.938-1.469-0.102-1.539,0.91-1.695c-0.438-0.715-0.973-1.43-0.508-2.141
			c0.664,0.719,1.336,1.258,2.004,1.621c0.18-0.152,0.328-0.344,0.414-0.613c0.324,0.359,0.395,0.668,0.359,0.953
			c0.258,0.07,0.504,0.137,0.758,0.152c-0.715,0.711-1.422,1.414-2.129,2.121C209.215,211.043,209.926,210.609,210.637,211.039z
			 M212.04,211.039c-0.875-0.875-0.289-3.812-2.824-4.238C214.204,202.59,213.356,215.25,212.04,211.039z M207.364,201.98
			c1.922-0.008,1.227-3.199,3.855-2.344c1.117,0.449,1.117,5.695,0,2.344c-0.055-0.715-0.137-1.387-0.965-1.176
			c-0.023,0.227-0.035,0.461-0.039,0.699c0.797,1.086,0.613,3.75-0.672,3.426c-0.02-0.242-0.055-0.465-0.109-0.664
			c-0.051,0.02-0.082,0.047-0.137,0.055c0-0.164-0.031-0.301-0.074-0.426c-0.137-0.141-0.328-0.223-0.648-0.141v-0.617
			C208.075,202.863,207.5,202.691,207.364,201.98z M213.149,168.441c0.023-2.656-1.52-3.418-1.922-5.574
			c1.816,0.266,2.121-1.324,3.855-1.172c-0.094,2.781-0.516,5.172-1.672,6.66c-0.023,3.086,2.406,3.195,4.801,3.324
			C218.004,179.695,211.29,170.832,213.149,168.441z M223.754,159.344h-1.926v-2.34h1.926V159.344z M225.594,148.207
			C230.106,147.207,224.274,151.582,225.594,148.207L225.594,148.207z M227.715,146.094c0.387,0.703,1.371,1.41,0.695,2.113
			C228.028,147.504,227.043,146.797,227.715,146.094z M233.891,137.785c-2.078-0.832-1.348-5,0.707-3.535
			C233.754,135.43,234.567,136.609,233.891,137.785z M238.313,148.207c-0.395-0.703-1.367-1.414-0.707-2.117
			C237.993,146.793,238.973,147.504,238.313,148.207z M245.918,205.094c1.891-0.344,1.91,1.582,2.879,2.344
			c0-0.652,0.793-1.32,0.973,0C248.333,209.289,245.461,208.75,245.918,205.094z M273.86,141.754c0.012,3.816,2.02,6.316-1.93,7.035
			C273.551,145.605,270.407,143.297,273.86,141.754z M271.508,222.395c-0.387-0.699-1.371-1.406-0.699-2.121
			C271.192,220.988,272.176,221.695,271.508,222.395z M269.395,223.098C273.907,222.113,268.083,226.477,269.395,223.098
			L269.395,223.098z M269.04,152.312C264.083,149.477,272.348,149.281,269.04,152.312L269.04,152.312z M264.446,206.855
			c5.355,3.746,1.348,10.547,6.363,12.008c-2.078,0.441-7.758,1.992-5.66,5.656c1.492-0.934,0.773-2.852,2.117-2.125
			c-2.781,3.207,3.434,2.516,2.129,4.945c-2.359,0.367-4.719-2.145-7.07-2.816c1.039-2.793,2.129-4.488,2.828-5.656
			c-4.637-0.789-5.293-3.836-6.363-7.773C260.672,208.512,262.559,209.871,264.446,206.855z M258.793,220.992
			c-0.391-0.715-1.375-1.418-0.711-2.125C258.473,219.574,259.458,220.277,258.793,220.992z M257.473,128.855
			c1.07,0.793,3.828,5.328,1.941,5.859c-0.066-0.711-0.148-1.383-0.977-1.172c-2.297-0.465,0.547,5.344-2.891,3.52
			C255.458,133.43,255.985,130.562,257.473,128.855z M255.547,168.734c-0.582,0.066-1.137,0.172-0.957,1.172
			c-0.742-0.266-1.902-0.027-1.93-1.172c1.164-0.25,0.59-1.305,0-2.344h1.93C254.59,167.566,255.368,167.781,255.547,168.734z
			 M253.625,135.891c0.145,2.91,0.176,5.695-1.934,5.863C252.122,139.539,250.391,134.688,253.625,135.891z M252.661,142.93
			c0.383,2.012-1.438,3.008,0,3.516c0.055-0.711,0.145-1.387,0.965-1.172c0.664,3.152-1.996,2.27-2.891,3.516
			C249.262,147.113,249.801,142.68,252.661,142.93z M250.735,166.391C254.524,166.719,250.547,171.551,250.735,166.391
			L250.735,166.391z M254.551,195.551c-3.57-1.922-2.027,1.656-2.117,3.535C248.247,196.312,254.497,191.348,254.551,195.551z
			 M255.969,219.574c-0.293,0.289-0.855,0.844-1.578,1.395c0.094,0.141,0.172,0.316,0.199,0.543
			c-1.52,0.109-0.762,2.988-2.898,2.352v-1.562c-0.062-0.188-0.066-0.414,0-0.672v-1.289c0.211,0.031,0.438,0.047,0.66,0.055
			C253.782,218.414,256.79,216.406,255.969,219.574z M256.516,202.754c1.41,2.57,7.441-0.457,5.785,5.852
			C259.54,208.613,254.875,206.426,256.516,202.754z M256.668,221.695C260.278,219.719,254.7,225.312,256.668,221.695
			L256.668,221.695z M259.938,232.812c0.062-0.148,0.148-0.316,0.258-0.52c2.16-1.184,1.031,0.34,0.203,0.977
			c0.043,0.258,0.055,0.605-0.023,1.148c-0.02,0.074-0.895-0.078-0.961,0C255.368,238.715,258.61,233.051,259.938,232.812z
			 M258.922,237.125c1.445-1.348,4.055-4.113,4.809,0C263.145,237.801,259.157,239.871,258.922,237.125z M269.04,241.449
			c0.543,0,1.098,0.953,0,1.172c-2.449-3.121,2.488-3.859,3.859-5.855C273.606,240.758,269.348,238.695,269.04,241.449z
			 M272.899,229.73C269.704,228.016,276.661,226.809,272.899,229.73L272.899,229.73z M273.86,176.945
			c0.148-1.383-0.168-3.336,0.957-3.527C274.672,174.801,274.993,176.754,273.86,176.945z M259.415,298.926
			C256.211,297.223,263.165,296.02,259.415,298.926L259.415,298.926z M289.278,302.445c2.195-0.316,3.625,0.289,3.852,2.352
			C290.934,305.121,289.508,304.508,289.278,302.445z M299.879,301.27C296.122,298.352,303.067,299.566,299.879,301.27
			L299.879,301.27z M306.625,307.145c0.102-1.316-1.406-1.828,0-2.348C307.598,304.809,307.833,306.848,306.625,307.145z
			 M311.434,303.621c-3.027,0.559-2.543-3.156-4.809-3.523c0.043,1.25-0.461,2.98-0.969,1.172c0-1.172,0.781-1.395,0.969-2.344
			C309.442,299.016,312.055,299.355,311.434,303.621z M319.157,287.195c-0.293-0.715-2.398-4.516,0-4.684
			C318.231,284.695,322.036,286.426,319.157,287.195z M328.79,294.234c-0.539-0.73-3.918-3.543-0.965-4.688
			c-0.055,2.016,0.738,3.004,1.922,3.516c-0.305-1.586-1.367-2.238-0.957-4.691C332.282,287.234,330.833,294.926,328.79,294.234z
			 M312.11,145.121c0.66,0.938-0.312,1.102-0.703,0.707c-0.676,0.707,0.316,1.41,0.703,2.117c3.969-3.203-2.488-2.512,0.715-4.938
			c0.707,0.703,1.402,1.406,2.121,2.113c-0.23,1.414-0.969,2.828-2.836,4.238c-0.703-0.938-1.414-1.105-2.121-0.703
			C308.551,146.82,310.258,145.145,312.11,145.121z M296.258,131.242C300.77,130.238,294.942,134.605,296.258,131.242
			L296.258,131.242z M276.75,217.992c0.02,1.941,2.676,0.656,2.898,2.348c-1.094,0.25-1.512,1.301-1.926,2.348
			c0.527,0,1.078,0.957,0,1.176C277.434,222.477,273.833,219.434,276.75,217.992z M278.68,228.555c0.094-1.32-1.402-1.828,0-2.348
			C279.649,226.223,279.887,228.266,278.68,228.555z M277.469,240.871c-0.148-0.23-0.289-0.449-0.445-0.684
			c0.621-0.246,1.234,0.547,1.852,0.887C278.411,241.52,277.934,241.223,277.469,240.871z M286.387,240.281
			c-0.012-1.531-2.672-1.496-2.891,0c5.832,2.406-1.348,0.344,2.891,4.691c-3.605-2.57-5.609-0.82-7.707-1.168
			c4.488-0.902,2.992-9.34,5.777-9.387C281.149,237.113,289.493,238.188,286.387,240.281z M283.122,224.109
			c0.133,1.84-0.219,0.348-0.711-0.707C286.333,220.492,288.016,222.668,283.122,224.109z M285.43,232.07
			C282.231,230.363,289.184,229.148,285.43,232.07L285.43,232.07z M319.157,242.621c0.09-1.312-1.406-1.82,0-2.34
			C320.122,240.297,320.36,242.34,319.157,242.621z M326.848,236.766c0.164-1.379-0.156-3.332,0.977-3.52
			C327.668,234.625,327.989,236.578,326.848,236.766z M329.762,226.934C326.145,228.902,331.735,223.316,329.762,226.934
			L329.762,226.934z M305.473,227.488c-0.785,0-1.512-0.094-2.258-0.16c0.668,0.711,1.328,1.422,0.801,2.133
			c-0.562-0.73-1.52-1.461-1.598-2.188c-16.863-2.145-25.004-21.906-25.004-38.18c0-10.973,2.281-22.328,8.289-30.148
			c1.23-4.684-5.891-5.285-8.719-9.156c-0.891-6.48,2-9.785,6.234-13.211c-0.605-0.602-1.203-1.203-1.801-1.801
			c1.422-1.633,4.121-7.238,4.238-2.836c-1.621-1.203-3.281,2.719-1.668,4.023c0.656-0.516,1.332-1.039,2.027-1.578
			c0.59-0.816,0.926-1.629,1.055-2.445c0.383,0.359,0.637,0.672,0.836,0.961c0.598-0.473,1.199-0.965,1.805-1.484
			c1.605,1.18,0.449,2.355,0.707,3.527c2.703-1.023,6.031-0.711,7.07,0c5.734,3.977,3.691,9.98,0.207,15.477
			c2.754-0.902,5.801-1.441,9.25-1.441c19.199,0,27.57,17.723,27.57,39.379C334.516,209.52,326.145,227.488,305.473,227.488z
			 M361.977,134.758v1.418c0.848,1.262,4.195,6.012,0.699,4.945C362.989,139,360.188,136.875,361.977,134.758z M363.481,247.324
			c-1.293,0.184-5.32-1.848-2.898-2.352C361.727,245.547,362.77,246.227,363.481,247.324z M357.692,214.48
			c1.594-0.023,0.539-3.25,1.926-3.523C362.102,212.441,358.969,218.09,357.692,214.48z M358.743,172.418c0,0.035,0,0.047,0,0.098
			c-0.004,0.277-0.004,0.082-0.004-0.098c-0.246,0.199-0.52,0.363-0.816,0.492c-0.055-2.016,0.738-3.008,1.934-3.52
			C359.891,170.895,359.454,171.828,358.743,172.418z M353.84,135.891c0.07,1.641-0.211,4.488-0.969,2.348
			C351.606,134.988,356.688,134.207,353.84,135.891z M350.668,128.562C354.286,126.582,348.704,132.168,350.668,128.562
			L350.668,128.562z M341.77,192.312c1.422,0.086,2.836-2.395,4.238-0.008c-0.695,0.438-1.402-0.008-2.113,0.703
			c1.418,2.449,2.824,0.02,4.234,1.414c2.43-1.414-3.824-2.828-1.402-4.238c-0.582-3.219,0.641,1.793,2.828,2.824
			c0.922-2.734,0.75-3.684-2.125-4.941c3.184-2.039,3.5,2.316,4.234,4.238C349.329,195.168,343.473,198.527,341.77,192.312z
			 M344.211,213.305c-0.098-1.848-2.465-0.918-1.941-3.52c1.141,0.188,2.734-0.195,2.895,1.172
			C343.356,211.242,345.708,212.887,344.211,213.305z M346.719,185.945c1.48,1.648-2.691,3.297-3.527,4.949
			c-0.199-0.945-0.41-1.887-1.414-2.828C344.977,187.984,344.293,186.801,346.719,185.945z M346.434,152.582
			c-0.164-0.281-0.336-0.488-0.5-0.656c-0.355,0.035-0.715-0.152-0.93-0.465c-0.941-0.098-1.875,0.637-2.809-0.285
			c1.676-1.652,0.852-3.305,3.531-4.949c8.34,0.793,5.742,9.977,0,12.727c-2.711-1.895-2.812-3.777-4.25-5.656
			C343.137,150.402,344.782,153.66,346.434,152.582z M297.36,140.902c-0.664,0.703,0.32,1.41,0.711,2.117
			C298.731,142.312,297.754,141.605,297.36,140.902z M295.247,144.434c-0.164-0.285-0.328-0.492-0.496-0.66
			c-0.355,0.031-0.727-0.156-0.938-0.465c-0.938-0.098-1.867,0.633-2.805-0.285c1.676-1.652,0.855-3.305,3.527-4.949
			c8.34,0.793,5.746,9.977,0,12.727c-2.707-1.898-2.809-3.781-4.242-5.66C291.946,142.25,293.594,145.508,295.247,144.434z
			 M339.54,261.727C337.211,267.754,337.047,257.684,339.54,261.727L339.54,261.727z M339.54,273.453
			C342.926,278.191,336.442,276.223,339.54,273.453L339.54,273.453z M344.211,269.605h-1.941v-2.344h1.941V269.605z M347.11,248.527
			c-3.809-2.414-3.09-4.828-3.758-7.246c-2.41-0.66-4.824,0.047-7.234-3.746c1.941-6.281,7.395-9.109,12.719-2.84
			c-0.082,0.543-0.164,0.98-0.258,1.367c0.387-0.086,0.82-0.168,1.367-0.25C356.219,241.137,353.395,246.578,347.11,248.527z
			 M354.805,207.438C349.84,204.602,358.114,204.41,354.805,207.438L354.805,207.438z M356.739,160.996
			C356.309,162.59,356.309,161.703,356.739,160.996c0.145-0.547,0.344-1.383,0.598-2.613c0.184-0.98,3.176,5.137,1.406,2.832
			C357.766,159.945,357.102,160.402,356.739,160.996z M358.661,275.469c0.141-1.379-0.172-3.332,0.957-3.52
			C359.473,273.332,359.786,275.277,358.661,275.469z M358.661,257.883c-0.133-1.223-0.066-2.223,0.172-3
			c-0.5,0.82-2.402,2.344-1.121,0.008c0.859-0.469,1.188-0.508,1.238-0.352c0.309-0.73,0.824-1.223,1.633-1.355
			C360.364,255.266,361.555,259.059,358.661,257.883z M365.407,253.184c-2.355,2.977-2.062-2.473-5.789-1.176
			c0.383-2.012-1.43-3.004,0-3.512C359.993,251.949,364.153,250.789,365.407,253.184z M364.395,209.262l-2.129-0.707
			C359.981,205.488,366.672,207.219,364.395,209.262z M137.641,247.352c-0.02,0.602-0.039,1.195-0.129,1.707
			c0.148-0.02,0.484,0.035,1.148,0.219C139.703,248.348,138.566,247.707,137.641,247.352z M126.652,242.914
			c4.414-1.129,1.754-3.48,4.938-6.359c-1.066-0.941-2.117-1.879-1.41-2.824c-2.844-0.629-0.297,4.652-2.121,6.363
			c-1.652,0.445-3.297-0.262-4.945-2.121C121.637,239.617,125.805,241.27,126.652,242.914z M126.648,235.852
			C126.863,239.93,126.871,231.773,126.648,235.852L126.648,235.852z"/>
	</g>
</g>
</svg>
