<?xml version="1.0" encoding="UTF-8" standalone="no"?>
<!-- Created with Inkscape (http://www.inkscape.org/) -->

<svg
   xmlns:dc="http://purl.org/dc/elements/1.1/"
   xmlns:cc="http://creativecommons.org/ns#"
   xmlns:rdf="http://www.w3.org/1999/02/22-rdf-syntax-ns#"
   xmlns:svg="http://www.w3.org/2000/svg"
   xmlns="http://www.w3.org/2000/svg"
   xmlns:sodipodi="http://sodipodi.sourceforge.net/DTD/sodipodi-0.dtd"
   xmlns:inkscape="http://www.inkscape.org/namespaces/inkscape"
   id="svg2"
   version="1.1"
   inkscape:version="0.47 r22583"
   width="393"
   height="129"
   xml:space="preserve"
   sodipodi:docname="title_logo.svg"><metadata
     id="metadata8"><rdf:RDF><cc:Work
         rdf:about=""><dc:format>image/svg+xml</dc:format><dc:type
           rdf:resource="http://purl.org/dc/dcmitype/StillImage" /><dc:title></dc:title></cc:Work></rdf:RDF></metadata><defs
     id="defs6"><inkscape:perspective
       sodipodi:type="inkscape:persp3d"
       inkscape:vp_x="0 : 0.5 : 1"
       inkscape:vp_y="0 : 1000 : 0"
       inkscape:vp_z="1 : 0.5 : 1"
       inkscape:persp3d-origin="0.5 : 0.33333333 : 1"
       id="perspective10" /><clipPath
       clipPathUnits="userSpaceOnUse"
       id="clipPath18"><path
         d="M 0,600 800,600 800,0 0,0 0,600 z"
         id="path20" /></clipPath></defs><sodipodi:namedview
     pagecolor="#ffffff"
     bordercolor="#666666"
     borderopacity="1"
     objecttolerance="10"
     gridtolerance="10"
     guidetolerance="10"
     inkscape:pageopacity="0"
     inkscape:pageshadow="2"
     inkscape:window-width="1680"
     inkscape:window-height="990"
     id="namedview4"
     showgrid="false"
     inkscape:zoom="1.2586667"
     inkscape:cx="175.83169"
     inkscape:cy="221.1969"
     inkscape:window-x="-4"
     inkscape:window-y="-3"
     inkscape:window-maximized="1"
     inkscape:current-layer="g12" /><g
     id="g12"
     inkscape:groupmode="layer"
     inkscape:label="jbosscommunity_logo_stack_white"
     transform="matrix(1.25,0,0,-1.25,-194.38838,415.28284)"><g
       id="g14"><g
         id="g16"
         clip-path="url(#clipPath18)"><g
           id="g22"
           transform="translate(173.8467,310.4873)"><path
             d="m 0,0 0,-0.886 c -0.363,0.002 -0.433,-0.357 -0.729,-0.442 -0.004,0.731 -1.007,0.248 -1.09,0.886 0.52,0.104 0.614,0.73 1.09,0.886 0.083,-0.343 0.012,-0.874 0.366,-0.886 C -0.342,-0.172 -0.309,0.082 0,0 m 0.407,-19.914 c 0.108,1.165 -1.412,0.35 -1.092,1.771 1.291,0.33 2.45,-1.432 1.092,-1.771 m 0.365,3.989 c 0.1,-1.01 -0.088,-1.667 -0.728,-1.772 0.083,0.784 -0.367,2.219 0.728,1.772 m -1.658,-3.957 c -1.031,0.463 -1.517,0.463 -2.548,0 0.112,1.022 -1.051,0.491 -1.092,1.33 0.929,-0.339 1.673,-0.654 2.185,0.443 -0.98,-0.305 -0.704,0.916 -1.093,1.328 1.006,-0.055 1.249,-0.846 0.728,0.443 0.68,-0.058 1.219,-0.289 1.456,-0.884 -2.094,-0.69 0.954,-2.61 0.364,-2.66 m -2.818,36.745 c 1.733,0.538 1.407,-1.7 2.186,0 0.15,-1.066 -0.666,-0.964 -0.364,-2.217 0.546,0.705 1.489,0.327 1.821,-0.443 -2.743,0.595 -0.677,-1.91 -2.551,-2.216 0.811,1.698 -0.515,1.943 -1.092,3.105 1.473,0.473 0.859,1.005 0,1.771 m 4.069,-5.781 c 0.317,-1.562 -0.888,-2.34 -1.094,-0.886 0.719,-0.133 0.725,0.597 1.094,0.886 M 0.21,4.759 C 0.266,4.687 0.318,4.583 0.365,4.434 -0.508,4.61 0.566,2.415 -0.729,3.104 -0.785,3.586 -0.498,4.5 -0.176,4.789 -0.612,5.633 -1.48,5.952 -1.902,6.813 c 0.444,0.05 0.864,0.132 0.727,0.885 -0.456,-0.094 -0.744,-0.689 -0.727,0.446 1.86,0.116 2.217,-0.68 3.359,-0.641 l 0,10.689 -1.155,0 c 0.416,1.395 -0.571,1.077 -0.728,1.775 0.683,0.106 -0.207,0.729 0.365,0.887 0.231,-0.78 0.964,-0.95 1.518,-1.338 l 0,1.96 -7.145,0 0,-34.729 c 0,-0.432 -0.012,-0.848 -0.03,-1.255 0.161,0.209 0.257,0.497 0.461,0.654 0.504,-1.65 0.052,1.306 0.728,0.886 1.035,-2.295 -1.117,-2.647 0.729,-3.545 -1.144,-0.503 -0.963,0.128 -1.823,-0.445 0.24,0.765 0.054,1.009 -0.194,1.178 -0.065,-0.608 -0.158,-1.184 -0.284,-1.722 0.709,0.182 1.664,0.647 1.999,-0.487 -1.432,0.711 -0.128,-1.913 -1.093,-1.772 -0.257,0.62 -1.019,0.626 -1.143,1.41 -0.15,-0.46 -0.329,-0.888 -0.541,-1.284 0.731,-0.165 1.389,-0.713 1.855,-1.798 0,0.247 0.295,0.503 0.363,0 -0.739,-0.889 -0.968,-0.114 -1.455,0.444 0.141,-2.978 -2.091,-3.071 -2.55,-5.319 0.284,-0.098 0.72,-0.01 0.73,-0.444 -2.012,-1.061 -0.357,3.502 -1.82,1.774 -0.004,0.696 0.107,1.253 0.237,1.726 -0.09,0.056 -0.18,0.127 -0.27,0.235 0.405,0.004 0.367,0.547 0.579,0.785 0.025,0.091 0.045,0.18 0.062,0.266 -0.84,-0.47 -1.874,-0.773 -3.115,-0.912 -0.026,-0.045 -0.646,-0.141 -0.969,-0.07 -0.2,-0.008 -0.392,-0.023 -0.602,-0.023 -1.358,0 -2.93,0.143 -4.502,0.715 l 0,-6.145 c 1.5,-0.572 3.501,-0.858 5.788,-0.858 10.79,0 14.005,6.717 14.005,13.72 l 0,18.013 C 1.167,1.855 0.792,1.338 0,1.329 -1.012,2.617 1.197,2.48 0.73,4.434 1.044,4.238 1.273,4.209 1.457,4.221 l 0,0.538 c -0.303,0.133 -0.699,0.255 -1.247,0"
             style="fill:#4a5d75;fill-opacity:1;fill-rule:nonzero;stroke:none"
             id="path24" /></g><g
           id="g26"
           transform="translate(247.4453,301.2119)"><path
             d="m 0,0 c 0.05,-0.331 -0.052,-0.604 -0.197,-0.736 0,-0.056 0.006,-0.112 0.006,-0.168 0,-0.375 -0.015,-0.752 -0.038,-1.129 0.359,-0.015 0.755,0.374 1.127,0.829 C 0.851,-1.246 0.796,-1.289 0.729,-1.331 0.551,-0.806 0.34,-0.324 0,0"
             style="fill:#4a5d75;fill-opacity:1;fill-rule:nonzero;stroke:none"
             id="path28" /></g><g
           id="g30"
           transform="translate(247.4453,291.9023)"><path
             d="M 0,0 C -0.02,0.763 0.281,1.136 0.729,1.33 0.746,0.568 0.447,0.196 0,0 m -14.928,-8.864 c -0.342,1.339 -1.643,0.827 -0.365,0 -1.049,-1.287 -1.139,0.864 -2.549,0.442 0.062,0.663 -0.131,1.637 0.364,1.774 -0.319,-0.911 0.945,-1.992 1.093,-0.885 -1.689,0.241 2.524,1.88 -0.728,1.328 -0.444,0.982 -0.885,2.816 0,2.217 0.002,-0.445 -0.297,-0.528 -0.365,-0.889 1.016,-1.085 2.452,0.341 2.55,0 -0.443,-1.412 -0.048,-1.315 -0.73,-2.656 0.466,0.023 0.505,0.565 1.092,0.441 -0.463,-1.109 0.187,-1.388 -0.362,-1.772 m -3.642,3.987 c -0.022,0.273 -0.054,0.527 -0.365,0.445 l 0,0.885 c 0.896,0.691 1.07,-1.504 0.365,-1.33 m 0,-1.771 c -0.201,-0.79 -0.188,-1.842 -0.729,-2.216 -1.302,0.912 1.717,3.151 0.729,2.216 m -8.054,6.618 c 2.114,0.467 0.152,-1.921 0,0 m -2.549,5.76 c -0.019,0.764 0.281,1.138 0.729,1.331 0.019,-0.762 -0.28,-1.137 -0.729,-1.331 m 11.652,17.731 c 0.995,0.043 0.734,-0.739 1.457,0 -0.24,-1.005 -1.337,-1.923 -1.822,-1.329 -0.08,-0.343 -0.01,-0.876 -0.362,-0.886 -0.058,1.103 0.571,1.371 0.727,2.215 m 2.549,0.889 c 0.934,-0.74 -0.059,2.294 1.092,2.215 -0.379,-1.255 0.602,-3.04 0,-3.104 -0.019,0.271 -0.055,0.526 -0.363,0.444 -0.484,0.065 -1.356,-1.491 -1.457,-0.444 0.482,0.006 0.334,0.778 0.728,0.889 m 5.462,1.658 c 1.107,-1.493 -1.345,-1.346 0,0 m 6.962,-3.844 c -0.32,-1.424 0.944,-0.919 1.091,-1.775 -1.543,-0.634 -2.514,1.358 -1.091,1.775 m 1.819,-2.217 c -1.419,1.102 1.208,0.645 0,0 m 0.688,-0.918 c -0.396,2.353 1.105,0.525 0,0 M 1.457,16.4 C 0.832,16.375 0.522,16.743 0.365,17.288 0.992,17.31 1.297,16.947 1.457,16.4 m 0,4.433 c 0,0.444 -0.296,0.527 -0.365,0.888 0.587,1.209 1.222,-0.651 0.365,-0.888 M 2.143,13.711 C 1.77,13.763 1.405,11.798 1.052,13.268 1.575,13.031 1.94,14.994 2.143,13.711 M 2.914,9.31 c -1.209,0.644 1.42,1.103 0,0 m 1.413,1.741 c -0.394,2.351 1.107,0.523 0,0 m 1.094,0 C 5.391,10.428 6.479,10.546 5.784,10.164 4.94,9.776 4.948,12.42 5.421,11.051 M 1.151,0.897 C 1.162,0.902 1.168,0.908 1.178,0.914 0.847,1.275 0.634,1.781 0.365,2.218 0.933,2.2 1.277,1.913 1.547,1.535 1.49,2.089 0.894,2.752 1.516,3.115 0.167,3.168 0.599,3.76 0.785,4.887 0.493,4.894 0.19,5.098 -0.079,5.379 -0.146,5.229 -0.233,5.065 -0.364,4.875 -0.419,4.967 -0.46,5.053 -0.497,5.137 -0.71,3.968 -1.044,2.824 -1.499,1.743 c -1.653,-3.93 -4.918,-6.986 -10.054,-6.986 -7.931,0 -11.433,7.145 -11.433,13.648 0,1.46 0.198,2.906 0.56,4.285 -0.237,-0.234 -0.464,-0.262 -0.515,0.164 0.222,0.027 0.431,0.067 0.365,0.444 -0.501,0.019 -0.799,-0.21 -1.092,-0.444 -0.585,1.746 1.572,0.156 1.457,1.331 -0.223,0.025 -0.432,0.066 -0.365,0.444 0.388,0.058 0.597,-0.054 0.695,-0.245 0.029,0.075 0.052,0.153 0.082,0.228 -0.07,0.902 0.119,1.992 -0.723,0.996 -0.014,2.505 1.454,3.273 0,4.434 0.872,0.679 1.848,1.07 2.731,0.934 -0.162,0.3 -0.482,0.409 -0.642,0.713 0.681,-0.023 0.772,0.341 0.364,0.886 0.926,-0.053 1.412,-0.646 1.457,-1.772 -0.18,0.007 -0.328,-0.026 -0.465,-0.072 0.36,-0.201 0.69,-0.524 0.975,-0.984 1.761,1.431 3.958,2.307 6.549,2.307 2.368,0 4.407,-0.749 6.084,-1.988 0.031,0.222 0.117,0.374 0.371,0.323 0.29,-0.271 0.398,-0.608 0.395,-0.936 1.569,-1.397 2.752,-3.264 3.514,-5.358 0.513,0.512 1.207,0.748 1.554,0.09 -0.481,-0.005 -0.334,-0.776 -0.729,-0.887 -0.051,0.528 -0.297,0.395 -0.591,0.141 0.081,-0.259 0.147,-0.525 0.216,-0.79 0.354,-0.31 0.564,-0.889 0.284,-1.306 0.083,-0.478 0.15,-0.959 0.192,-1.446 C -0.218,10.05 -0.146,10.168 0,10.196 -0.015,9.497 1.369,8.891 1.039,8.28 1.357,8.687 1.652,9.109 1.88,9.318 3.424,8.86 5.044,8.788 5.884,9.762 6.244,9.596 6.588,9.362 6.923,9.153 6.915,9.423 6.906,9.692 6.889,9.958 6.204,10.353 5.645,10.9 5.157,11.536 6.124,12.268 4.893,12.46 5.684,14.597 l -0.628,0 c 0.028,0.771 -0.081,1.379 -0.365,1.771 0.311,0.037 0.557,0.062 0.762,0.076 C 4.884,17.86 4.158,19.166 3.292,20.352 3.273,20.355 3.255,20.354 3.235,20.36 3.203,20.435 3.177,20.493 3.15,20.556 2.794,21.028 2.417,21.479 2.017,21.91 1.771,22.018 1.578,22.188 1.47,22.46 c -1.961,1.923 -13.023,5.024 -13.023,5.024 -2.267,0 -3.323,-0.21 -4.846,-0.569 0.217,-0.446 0.556,-0.727 -0.03,-0.793 -0.35,1.219 -0.947,-0.569 -1.429,0.393 -0.227,-0.074 -0.449,-0.154 -0.67,-0.235 0.202,-0.216 0.316,-0.554 0.28,-1.046 -0.258,0.37 -0.678,0.545 -1.074,0.75 -0.145,-0.061 -0.282,-0.134 -0.425,-0.199 0.284,-0.469 0.584,-0.916 0.043,-0.994 -0.096,0.358 -0.274,0.614 -0.544,0.759 -0.163,-0.08 -0.336,-0.149 -0.496,-0.233 0.121,-0.824 0.301,-2.199 -0.053,-2.742 -0.101,0.666 -1.567,1.867 -0.728,2.216 -0.004,0.021 0,0.04 -0.003,0.061 -5.211,-3.126 -8.388,-8.812 -8.576,-15.797 0.507,-0.285 0.971,-0.621 0.975,-1.52 l -0.963,0 c 0.411,-10.036 7.844,-18.209 18.539,-18.209 6.62,0 11.994,3.182 15.215,7.999 0.038,0.23 0.156,0.521 0.401,0.914 -1.197,0.612 -2.101,1.574 -2.912,2.658"
             style="fill:#4a5d75;fill-opacity:1;fill-rule:nonzero;stroke:none"
             id="path32" /></g><g
           id="g34"
           transform="translate(278.0332,293.2324)"><path
             d="m 0,0 c -1.207,0.646 1.42,1.104 0,0 m -2.591,-3.577 c -0.034,1.208 0.607,0.892 0,1.774 0.696,-0.188 1.567,-0.161 1.455,-1.33 -0.634,0.033 -1.132,-0.099 -1.455,-0.444 m -2.143,7.122 c 0.034,0.375 -0.008,0.846 0.035,1.212 -0.728,-0.086 -0.108,1.467 -1.17,0.973 0.859,1.301 -0.698,1.648 0,2.216 C -5.456,6.998 -4.917,6.201 -4.545,5.199 -4.499,5.254 -4.444,5.3 -4.369,5.32 -4.365,4.732 -3.732,4.913 -3.643,4.434 -4.16,4.327 -4.256,3.702 -4.734,3.545 m 0.686,-3.132 c -0.005,0.585 -0.639,0.404 -0.728,0.886 0.422,1.08 1.715,-0.495 0.728,-0.886 m -2.814,9.509 c 0.017,-0.228 0.284,-0.54 -0.1,-0.646 -0.254,0.855 -1.107,0.981 -1.669,1.461 -2.779,1.326 -5.002,2.767 -5.002,5.556 0,0.213 0.019,0.416 0.048,0.612 -0.217,0.355 -0.563,0.55 -0.881,0.781 -0.121,-2.66 1.437,-3.276 1.455,-5.764 -0.672,3.013 -2.584,2.57 -3.277,4.876 2.017,-0.521 1.978,1.727 1.457,3.102 1.163,0.208 1.039,1.988 1.82,2.662 -0.318,-2.069 0.946,0.608 1.092,-0.888 -0.289,-0.049 -1.102,-1.464 -0.361,-1.33 0.422,1.109 1.268,1.707 1.09,3.547 l 1.457,0 c 0.4,-1.417 -2.149,-1.466 -0.729,-2.66 0.223,0.026 0.432,0.066 0.364,0.443 -0.833,-0.253 1.586,1.795 1.822,0 -0.709,-0.359 -1.077,-0.758 -1.307,-1.206 0.745,0.17 1.55,0.256 2.381,0.256 1.572,0 5.574,-0.93 7.074,-1.859 l 0.572,5.86 c -2.644,0.786 -5.216,1.429 -8.361,1.429 -7.217,0 -12.862,-3.644 -12.862,-11.218 0,-0.236 0.017,-0.459 0.033,-0.684 0.143,0.008 0.282,-0.007 0.413,-0.057 -0.066,-1.378 0.859,-2.507 1.455,-1.773 0.149,-0.547 0.224,-1.185 0.339,-1.773 0.489,0.132 1.753,1.261 1.788,0.431 -0.505,0.009 -1.354,-1.411 -1.74,-0.656 0.169,-0.745 0.435,-1.371 1.071,-1.548 0.657,0.558 2.629,1.795 2.549,-0.444 -1.083,0.229 -1.799,0.046 -2.392,-0.345 0.519,-0.411 1.074,-0.791 1.652,-1.148 0.097,0.027 0.179,-0.011 0.231,-0.139 0.189,-0.113 0.379,-0.225 0.571,-0.334 0.069,0.049 0.135,0.1 0.201,0.152 0.04,-0.119 0.065,-0.22 0.081,-0.309 1.998,-1.103 4.143,-2.003 5.892,-3.009 -0.039,0.076 -0.083,0.147 -0.105,0.245 0.408,0.096 0.567,0.491 0.729,0.889 0.624,0.174 0.933,-0.66 1.091,0 -0.221,0.023 -0.43,0.065 -0.361,0.442 0.804,0.326 1.498,-1.634 0.726,-1.772 -0.086,0.903 -1.031,0.216 -1.353,-0.248 1.727,-1.109 2.921,-2.388 2.921,-4.212 0,-3.931 -3.787,-5.217 -6.86,-5.217 -0.861,0 -2.097,0.18 -3.431,0.521 -0.277,-0.245 -0.604,-0.253 -0.712,0.195 -0.252,0.074 -0.506,0.153 -0.76,0.239 -0.09,-0.595 -0.758,-1.145 -1.471,-1.381 0.003,-0.03 0.016,-0.064 0.014,-0.094 -0.019,0.029 -0.043,0.051 -0.064,0.077 -0.904,-0.28 -1.853,-0.047 -1.757,1.254 0.425,-0.611 1.304,-0.675 1.757,-1.254 0.017,0.005 0.033,0.012 0.05,0.017 -0.065,0.602 -1.169,1.562 -0.351,1.681 0.15,-0.56 0.47,-0.907 1.093,-0.889 -0.031,0.219 -0.083,0.546 -0.126,0.907 -0.916,0.36 -1.812,0.786 -2.603,1.299 l -0.183,-3.091 0,-0.001 c 0.019,-0.195 0.002,-0.346 -0.029,-0.481 l -0.144,-2.429 c 3.072,-1.643 6.573,-2.001 10.003,-2.001 6.503,0 12.72,3.573 12.72,11.361 0,6.379 -4.736,8.621 -9.021,10.565"
             style="fill:#4a5d75;fill-opacity:1;fill-rule:nonzero;stroke:none"
             id="path36" /></g><g
           id="g38"
           transform="translate(298.7471,290.541)"><path
             d="M 0,0 C 0.223,0.131 1.402,1.104 1.457,0 0.777,0.424 0.239,-1.327 0,0 m -15.617,-5.73 c 0.082,0.787 -0.366,2.22 0.729,1.772 0.102,-1.01 -0.088,-1.667 -0.729,-1.772 m 9.468,13.742 c 0.039,0.496 -0.53,0.69 0,0.884 0.367,-0.003 0.459,-0.777 0,-0.884 m -0.406,3.956 c -0.148,0.757 -0.468,-0.091 -1.092,0 l 0,2.218 c 0.678,-0.062 1.216,-0.293 1.456,-0.888 -1.29,-0.049 0.775,-1.466 -0.364,-1.33 m -4.692,2.248 c 0.629,0.022 0.934,-0.34 1.093,-0.888 -0.624,-0.021 -0.933,0.343 -1.093,0.888 m -0.771,8.391 c -0.545,0.076 -1.343,-0.16 -1.456,0.444 0.626,0.306 1.568,2.478 1.822,1.771 -0.206,-0.92 -1.041,-1.43 -0.366,-2.215 m 5.463,3.545 c 0.897,0.69 1.072,-1.506 0.364,-1.33 -0.02,0.568 -0.467,0.615 -0.364,1.33 m 6.994,-15.04 c -0.024,-0.01 -0.046,-0.026 -0.076,-0.031 0.003,0.023 0.003,0.047 0.005,0.07 -2.253,1.226 -4.719,2.116 -6.613,3.245 -0.183,-0.122 -0.37,-0.237 -0.675,-0.21 -0.045,0.249 -0.024,0.448 0.021,0.626 -1.505,1.032 -2.513,2.296 -2.513,4.172 0,3.001 3.002,4.431 6.432,4.431 1.572,0 5.573,-0.93 7.074,-1.858 l 0.572,5.859 c -2.645,0.786 -5.217,1.43 -8.361,1.43 -4.468,0 -8.329,-1.401 -10.626,-4.262 -0.03,-0.064 -0.068,-0.118 -0.121,-0.153 -1.339,-1.742 -2.115,-4.002 -2.115,-6.804 0,-0.285 0.016,-0.56 0.04,-0.828 0.877,-0.22 2.019,-1.562 1.222,-2.17 -0.076,0.534 -0.4,0.274 -0.723,0.003 0.81,-2.113 2.457,-3.627 4.391,-4.855 0.007,0.001 0.009,0.005 0.016,0.005 0.001,-0.007 0.003,-0.011 0.004,-0.017 0.127,-0.08 0.255,-0.158 0.384,-0.235 0.106,0.059 0.223,0.155 0.339,0.252 -0.009,-0.151 -0.029,-0.289 -0.048,-0.428 1.961,-1.148 4.123,-2.061 5.95,-3.047 2.272,2.298 2.364,2.412 4.285,4.791 0.092,-1.296 -0.685,-1.531 -1.091,-2.218 0.367,0.003 0.432,-0.359 0.726,-0.443 0.043,0.541 0.109,1.048 0.73,0.885 C -0.824,7.931 -0.445,7.802 0.762,7.552 0.791,5.32 0.03,4.118 -0.909,2.358 c 0.089,-0.323 0.144,-0.66 0.144,-1.023 0,-1.358 -0.459,-2.395 -1.178,-3.178 0.537,-0.563 1.062,-1.14 2.34,-0.803 0.481,-0.769 0.373,-3.374 -0.363,-2.215 0.945,1.373 -1.549,-1.524 -1.459,-0.443 0.646,0.544 1.056,1.375 1.822,1.774 -1.135,0.633 -2.6,-1.517 -1.822,-0.446 0,0.447 0.295,0.531 0.363,0.889 -0.642,0.713 -1.102,0.584 -1.615,0.59 -0.535,-0.389 -1.149,-0.684 -1.801,-0.899 0.198,-0.254 0.429,-0.473 0.506,-0.58 -0.283,-0.096 -0.721,-0.009 -0.731,-0.442 1.303,0.507 2.15,2.297 2.552,-0.443 -2.44,0.475 0.1,-2.225 -0.729,-2.216 -0.086,0.832 -0.602,-0.251 -0.73,0.445 1.001,0.222 -2.518,0.51 -1.093,0.442 0.446,0.051 0.864,0.131 0.731,0.886 l -1.083,0 c 0.023,-1.187 -0.605,-0.879 10e-4,-1.757 -1.383,-0.325 -0.435,1.597 -0.011,1.765 0.049,0.677 -0.017,1.214 -0.13,1.693 -0.807,-0.192 -1.642,-0.279 -2.43,-0.279 -1.93,0 -5.717,0.858 -8.361,2.572 l -0.357,-6.002 c 3.072,-1.643 6.574,-2.001 10.004,-2.001 6.503,0 12.719,3.574 12.719,11.362 0,4.852 -2.742,7.308 -5.941,9.063"
             style="fill:#4a5d75;fill-opacity:1;fill-rule:nonzero;stroke:none"
             id="path40" /></g><g
           id="g42"
           transform="translate(296.9595,298.5342)"><path
             d="m 0,0 -1.458,0 c 0.276,-1.053 -0.44,-1.889 -1.074,-2.058 0.528,-0.307 1.015,-0.626 1.453,-0.963 0.037,0.366 0.286,0.473 0.35,0.804 C -2.554,-1.961 -0.157,-0.637 0,0"
             style="fill:#4a5d75;fill-opacity:1;fill-rule:nonzero;stroke:none"
             id="path44" /></g><g
           id="g46"
           transform="translate(296.2832,295.1816)"><path
             d="M 0,0 C 0.253,-0.22 0.487,-0.447 0.691,-0.688 1.341,0.308 2.042,1.371 2.498,2.911 1.391,2.274 0.622,1.227 0,0"
             style="fill:#4a5d75;fill-opacity:1;fill-rule:nonzero;stroke:none"
             id="path48" /></g><g
           id="g50"
           transform="translate(220.7407,243.9434)"><path
             d="m 0,0 c -1.378,1.062 1.169,0.63 0,0 m -1.113,1.529 c 0.217,0.027 0.42,0.065 0.353,0.433 C -1.69,1.828 -1.673,2.854 -1.826,3.674 -1.3,4.358 -0.383,3.996 -0.061,3.25 -1.235,3.355 0.043,0.42 -1.113,1.529 m -1.561,-3.996 c -0.398,0.615 -0.386,1.044 0.347,1.287 -0.014,-0.59 0.169,-0.941 0.357,-1.285 -0.234,-0.001 -0.47,-0.002 -0.704,-0.002 m -8.708,-0.152 c -1.019,-0.081 -1.949,1.444 -0.712,1.715 -0.431,-1.392 1.144,-0.324 0.712,-1.715 m -4.863,5.141 c 1.153,0.358 -1.748,1.5 -0.359,2.149 0,-0.287 10e-4,-0.573 0.002,-0.861 0.477,0.137 0.673,0.613 1.411,0.433 -0.099,-0.64 -0.444,-3.103 -1.054,-1.721 m -1.049,-3.011 c -0.682,0.785 0.296,1.458 0.7,2.15 0.055,-1.067 -0.177,-1.783 -0.7,-2.15 m -0.36,2.147 c 0.002,-0.429 0.288,-0.51 0.356,-0.856 -0.565,-1.176 -1.186,0.623 -0.356,0.856 m -7.941,11.823 c 1.153,0.361 -1.748,1.502 -0.36,2.149 10e-4,-0.286 0.002,-0.573 0.003,-0.859 0.477,0.137 0.673,0.614 1.41,0.433 -0.097,-0.641 -0.444,-3.104 -1.053,-1.723 m -1.09,9.45 c -0.527,-0.074 -1.302,0.149 -1.409,-0.435 0.178,-1.211 1.324,-0.992 0.708,-1.283 0.163,-0.172 -2.726,0.468 -1.765,0.422 1.218,0.723 0.796,1.522 2.109,2.585 0.021,-0.264 0.054,-0.508 0.354,-0.428 10e-4,-0.285 0.002,-0.573 0.003,-0.861 m -0.333,-6.016 c -1.496,1.392 0.308,-1.45 -0.349,-1.289 -0.079,0.335 -0.298,0.498 -0.706,0.427 0.028,-0.605 -0.075,-1.645 -0.352,-0.862 -0.116,0.998 0.051,1.65 0.348,2.15 -2.142,0.19 2.518,0.945 1.059,-0.426 m 3.435,11.382 c -1.077,1.444 1.301,1.307 0,0 m 0.339,4.299 c -1.173,0.62 1.372,1.073 0,0 m 6.161,-1.038 c 0.021,-0.739 -0.267,-1.103 -0.7,-1.291 -0.021,0.738 0.267,1.102 0.7,1.291 m 5.382,4.191 c 0.723,0.495 1.687,-0.668 0.711,-0.857 -0.022,0.26 -0.056,0.508 -0.355,0.429 0.855,-0.996 -0.276,-1.482 -0.699,-2.15 -0.585,0.665 0.115,1.674 0.343,2.578 m 2.92,0.438 c -10e-4,0.242 0.286,0.49 0.355,0.001 -0.529,-0.686 -1.487,0.007 -1.767,0.855 1.108,0.495 0.858,-0.672 1.412,-0.856 m 3.174,1.733 c -0.032,-0.677 0.052,-1.491 -0.703,-1.294 -0.022,0.738 0.268,1.103 0.703,1.294 m 0.708,-0.859 c 0.749,-1.176 0.608,1.157 1.764,0.005 -0.018,0.654 0.668,-1.03 1.066,-2.144 -0.716,-0.131 -0.937,-0.864 -1.408,-1.294 0.772,1.615 -0.719,0.935 -0.007,2.146 -0.351,-10e-4 -0.705,-0.002 -1.058,-0.003 0.021,-0.549 0.455,-0.59 0.357,-1.286 -1.084,-0.429 -1.078,3.977 -0.714,2.576 M -8.248,3.169 c -3.757,-0.013 -6.853,1.138 -9.177,3.105 -0.04,-0.091 -0.109,-0.193 -0.243,-0.32 -1.495,1.391 0.309,-1.447 -0.349,-1.288 -0.078,0.335 -0.297,0.498 -0.706,0.426 0.027,-0.604 -0.075,-1.643 -0.352,-0.862 -0.115,0.998 0.052,1.651 0.348,2.152 -1.333,0.117 -0.028,0.454 0.793,0.361 -2.038,1.935 -3.4,4.547 -3.989,7.587 -0.806,0.948 -1.298,3.101 -2.269,2.165 0.573,0.129 0.955,-0.577 0.355,-0.857 -0.148,0.73 -0.454,-0.092 -1.059,-0.004 -0.24,2.482 1.516,2.27 0.337,4.727 -1.229,-0.132 0.034,-1.163 -0.7,-1.292 -0.077,0.521 -0.395,0.262 -0.707,-0.003 -0.442,1.39 1.142,0.333 0.701,1.721 -0.986,-1.595 -0.628,3.184 -0.361,2.148 0.08,-0.333 0.011,-0.847 0.356,-0.859 1.216,0.32 0.23,1.294 -0.006,2.15 0.692,-0.128 0.696,0.583 1.055,0.862 -0.421,-2.304 1.687,-1.513 2.7,-2.063 0.045,0.151 0.085,0.304 0.135,0.453 -0.187,0.546 -0.821,0.97 -0.01,1.19 0.134,-0.117 0.234,-0.242 0.316,-0.37 1.998,5.047 6.438,8.438 12.558,8.459 2.946,0.01 5.777,-0.392 8.908,-2.152 l 0.565,6.958 c -2.016,0.784 -4.29,1.269 -6.39,1.503 -0.239,-0.589 -0.697,-0.914 -1.228,-1.15 -0.021,0.698 -0.145,1.086 -0.329,1.284 -0.366,0.02 -0.721,0.033 -1.064,0.035 -0.421,-0.147 -0.836,-0.319 -1.082,-0.041 0.008,0.008 0.016,0.01 0.023,0.019 -13.517,-0.33 -21.797,-8.202 -21.75,-22.031 0.01,-3.172 0.522,-5.948 1.432,-8.369 1.038,0.35 0.126,1.285 -0.103,2.111 0.693,-0.127 0.697,0.583 1.056,0.863 -0.44,-2.406 1.881,-1.435 2.831,-2.141 0.336,0.802 -1.062,1.434 -0.006,1.719 1.265,-1.104 0.009,-2.756 -0.692,-3.87 0.466,-0.001 0.324,-0.75 0.708,-0.855 0.107,1.057 2.374,-1.041 1.065,-1.716 -0.864,0.723 -0.639,-1.893 -0.894,-2.32 4.018,-3.99 10.03,-5.942 17.246,-5.917 3.124,0.009 6.364,0.608 9.368,1.327 L 0.765,4.907 C -1.177,3.9 -5.005,3.18 -8.248,3.169"
             style="fill:#243446;fill-opacity:1;fill-rule:nonzero;stroke:none"
             id="path52" /></g><g
           id="g54"
           transform="translate(246.6074,257.2734)"><path
             d="m 0,0 c -1.043,-0.87 -1.208,-1.526 -1.402,-2.585 -0.466,0.031 -0.883,0.189 -1.272,0.374 -0.448,-4.287 -2.354,-8.206 -7.511,-8.224 -1.601,-0.004 -2.881,0.387 -3.911,1.048 0.063,-0.167 0.139,-0.32 0.221,-0.467 -0.354,-0.001 -0.707,-0.002 -1.059,-0.003 -0.001,0.285 -0.002,0.572 -0.003,0.857 0.093,0 0.163,0.024 0.226,0.061 -1.757,1.469 -2.617,3.848 -2.944,6.378 -1.15,0.287 -1.091,-1.583 -2.788,-1.65 0.742,2.422 -0.125,1.98 -1.021,0.617 -1.329,1.628 0.82,0.49 0.503,2.483 -1.042,-0.186 -0.998,-1.679 -2.036,-1.868 0.083,1.96 0.348,3.705 2.029,3.731 0.707,-0.38 0.543,1.432 1.486,1.338 0.451,0.65 1.211,-0.334 1.69,-1.162 0.129,1.878 0.694,3.69 1.7,5.132 -0.377,0.29 -1.045,0.225 -0.875,1.189 0.235,0.001 0.47,0.002 0.708,0.003 0.018,0.262 0.049,0.508 0.349,0.429 0.142,-0.738 -0.521,-1.102 0.004,-1.287 l 0.059,0 c 0.134,0.169 0.272,0.339 0.42,0.499 -0.287,0.97 -0.055,2.578 -0.139,3.798 0.94,-0.569 1.239,-0.143 1.349,0.892 -0.553,0.082 -0.289,0.634 0.052,0.754 10e-4,0.026 0.003,0.05 0.004,0.076 1.891,0.565 1.551,-0.742 3.175,0.44 0.045,-1.096 0.654,-1.499 1.067,-2.143 -10e-4,0.429 -0.002,0.858 -0.004,1.285 C -6.996,9.807 -1.72,8.278 -1.425,4.291 -0.016,3.144 1.063,1.591 2.823,0.866 2.819,1.107 3.104,1.357 3.175,0.868 2.756,0.661 2.375,0.409 2.119,0.007 3.445,-0.329 3.143,-2.365 3.188,-2.997 2.45,-0.782 0.899,-2.133 0,0 m -1.401,-9.503 c 0.336,0.801 -1.062,1.433 -0.005,1.719 0.005,-0.567 0.617,-0.393 0.706,-0.858 -0.464,-0.005 -0.319,-0.755 -0.701,-0.861 m -11.745,-5.799 c 0.513,1.676 -0.087,1.37 -0.708,0.427 -0.919,1.126 0.569,0.34 0.349,1.72 -0.722,-0.129 -0.691,-1.164 -1.409,-1.293 0.057,1.357 0.24,2.563 1.404,2.582 0.489,-0.264 0.056,-1.655 0.71,-1.718 0.432,0.621 1.344,0.656 1.762,1.297 -0.596,-1.607 0.21,-0.679 0.36,-2.148 -1.395,1.004 -1.077,-0.811 -2.468,-0.867 m -3.549,4.579 c -0.248,1.154 0.727,0.832 1.053,1.291 0.066,-0.936 -0.285,-1.365 -1.053,-1.291 m -2.844,5.576 c 0.466,0.007 0.32,0.753 0.702,0.862 0.087,-0.612 0.585,-0.724 0.712,-1.288 -0.887,0.546 -1.107,-0.221 -1.414,0.426 m -3.553,6.863 c -0.233,-10e-4 -0.47,-10e-4 -0.705,-0.002 -1.159,0.232 0.401,2.82 0.7,1.291 -0.548,-0.113 -0.24,-0.943 0.005,-1.289 m 2.751,4.127 c 0.007,-0.566 0.619,-0.392 0.708,-0.857 -0.465,-0.006 -0.319,-0.756 -0.702,-0.861 0.336,0.802 -1.062,1.432 -0.006,1.718 m 10.071,9.361 c -4.845,-0.016 -9.069,-1.818 -11.933,-5.044 0.624,-1.113 2.117,-1.158 1.918,-3.281 -1.054,-0.053 -1.182,-0.344 -1.05,-2.579 -2.225,0.318 0.085,3.071 -0.016,4.727 -0.345,-0.731 -1.083,-0.134 -1.332,0.575 -2.143,-2.684 -3.403,-6.248 -3.389,-10.541 0.029,-8.724 5.887,-15.659 15.907,-15.625 10.08,0.033 15.892,7.006 15.863,15.73 -0.033,10.022 -6.95,16.068 -15.968,16.038"
             style="fill:#243446;fill-opacity:1;fill-rule:nonzero;stroke:none"
             id="path56" /></g><g
           id="g58"
           transform="translate(296.603,242.9482)"><path
             d="M 0,0 C -0.816,-0.287 -0.769,1.676 -0.004,1.288 0.28,1.143 0.426,0.149 0,0 m -1.236,-0.301 c -1.381,1.066 1.168,0.63 0,0 M -8.177,27.43 c -0.001,0.286 -0.002,0.571 -0.003,0.858 0.507,0.482 0.86,0.465 1.06,-0.426 -0.486,0.016 -0.774,-0.205 -1.057,-0.432 m 0.366,-3.867 c 0.034,0.483 -0.514,0.666 -0.003,0.858 0.356,-0.004 0.446,-0.75 0.003,-0.858 m -10.564,-7.771 c -0.727,-0.118 -0.077,-1.902 -1.053,-1.72 -0.2,0.618 -0.555,1.047 -1.063,1.284 -0.362,-1.265 -1.394,-1.406 -1.762,-0.864 1.772,1.344 2.758,0.8 3.878,1.3 m 1.313,1.849 c -0.469,-0.559 -1.312,-0.57 -1.413,0.425 0.528,-0.071 1.302,0.161 1.413,-0.425 m -2.351,-4.34 c 0.466,0.007 0.32,0.753 0.702,0.861 0.006,-0.568 0.621,-0.392 0.71,-0.856 -0.216,-0.127 -1.354,-1.074 -1.412,-0.005 m -0.34,-7.393 c 0.355,-0.005 0.445,-0.754 0.003,-0.861 0.034,0.481 -0.515,0.664 -0.003,0.861 m -14.871,13.414 c -2.135,-0.352 -0.241,1.968 0,0 m -1.074,-1.516 c -0.726,-0.379 -1.344,1.413 -0.712,1.287 0.035,-0.679 0.903,-0.333 0.712,-1.287 m -3.155,-0.362 c 0.876,0.222 -0.512,-2.374 -0.704,-0.862 0.397,0.093 0.55,0.478 0.704,0.862 -0.608,0.168 -0.902,-0.641 -1.06,-0.004 0.216,0.026 0.418,0.067 0.352,0.43 -0.052,0.507 -0.631,0.973 -0.004,1.29 0.007,-0.71 0.981,-0.236 1.062,-0.853 -0.273,-0.097 -0.408,-0.363 -0.35,-0.863 m 0.016,-13.933 c -1.345,-0.571 0.557,-2.58 -1.404,-2.584 0.027,1.605 0.391,1.224 -0.009,2.579 0.658,-0.408 1.177,1.29 1.413,0.005 m -2.496,11.522 c 0.819,-0.144 1.654,-0.272 1.417,-1.714 -1.391,-0.553 -0.92,1.173 -1.417,1.714 m 1.76,6.42 c 1.064,-0.747 -0.496,-2.657 -1.052,-1.29 0.813,-0.131 0.386,1.241 1.052,1.29 m 2.057,-14.338 c 1.218,0.724 0.796,1.524 2.108,2.585 0.022,-0.261 0.054,-0.506 0.354,-0.426 0.001,-0.286 0.002,-0.574 0.003,-0.86 -0.527,-0.075 -1.301,0.149 -1.408,-0.435 0.179,-1.213 1.324,-0.995 0.708,-1.286 0.164,-0.17 -2.726,0.47 -1.765,0.422 m 37.23,1.622 C -0.802,7.722 -1.027,7.937 -0.633,6.588 -1.763,5.754 -3.096,5.085 -3.805,5.719 c 1.316,0.045 0.018,1.676 0.699,1.719 0.243,-0.939 1.171,0.819 1.408,1.294 -0.007,0.854 -0.964,0.543 -0.71,1.716 0.693,-0.125 0.698,0.583 1.054,0.865 0.542,-0.821 2.602,-1.161 1.06,0.003 0.668,-0.095 0.775,0.488 1.41,0.433 0.238,-0.233 0.399,-0.562 0.51,-0.93 l -0.023,7.01 c -0.023,6.777 -2.162,11.899 -9.648,11.874 -3.712,-0.013 -7.656,-1.734 -9.471,-5.395 -1.723,3.768 -4.734,5.347 -8.979,5.334 -2.946,-0.01 -6.537,-1.259 -9.002,-4.981 l -0.116,0 -0.014,4.243 -7.368,-0.024 0.042,-12.519 c 0.448,0.096 0.822,0.125 1.28,-0.215 -0.319,-0.136 -0.8,-0.45 -1.277,-0.651 l 0.037,-11.203 c 0.497,-0.02 0.997,-0.039 0.898,-0.792 -0.312,0.02 -0.611,0.021 -0.896,0.009 l 0.017,-4.985 7.898,0.027 -0.012,3.513 c -0.499,-0.313 -1.096,-0.343 -1.354,0.165 0.641,-0.01 1.003,0.319 1.352,0.664 l -0.032,9.667 c -1.658,-0.008 -1.77,1.882 -2.78,2.665 -0.056,-0.803 -0.157,-1.557 -1.075,-1.323 -0.249,4.903 2.752,3.989 3.903,1.244 0.223,3.791 1.332,8.341 5.809,8.357 2.597,0.009 3.709,-1.301 4.19,-2.951 0.033,0.039 0.082,0.067 0.157,0.07 0.242,-0.937 1.171,0.82 1.407,1.296 -0.007,0.853 -0.963,0.542 -0.711,1.716 0.695,-0.126 0.698,0.582 1.056,0.862 0.542,-0.817 2.602,-1.159 1.06,0.004 0.668,-0.096 0.776,0.489 1.41,0.435 1.007,-0.988 0.733,-3.622 0.367,-4.297 -0.531,0.5 -0.866,1.24 -1.769,1.285 -0.517,-1.016 -0.742,-0.801 -0.346,-2.151 -0.766,-0.566 -1.622,-1.044 -2.316,-1.104 0.049,-0.682 0.055,-1.363 0.057,-1.987 l 0.06,-18.096 7.897,0.026 -0.035,10.623 c -0.286,0.299 -0.613,0.55 -1.123,0.575 -0.516,-1.017 -0.742,-0.801 -0.346,-2.15 -1.13,-0.837 -2.463,-1.504 -3.173,-0.87 1.315,0.046 0.018,1.677 0.698,1.719 0.244,-0.939 1.173,0.82 1.409,1.297 -0.007,0.852 -0.964,0.541 -0.711,1.714 0.694,-0.125 0.697,0.582 1.054,0.863 0.543,-0.818 2.602,-1.158 1.06,0.003 0.552,-0.077 0.724,0.3 1.12,0.405 l -0.002,0.557 c 0,0.128 0.003,0.26 0.004,0.392 -0.192,-0.179 -0.419,-0.311 -0.688,-0.394 0.305,2.416 -1.652,3.352 0.691,3.868 0.213,-0.764 -1.028,-1.789 0.008,-2.148 0.01,0.034 0.023,0.064 0.033,0.094 0.058,1.01 0.177,2.071 0.405,3.089 -0.11,0.126 -0.205,0.373 -0.284,0.803 2.316,2.378 -3.536,1.522 -2.653,4.803 1.232,0.045 1.398,-0.611 0.662,-1.603 2.104,0.285 2.882,-0.404 3.897,-0.397 0.868,1.031 2.079,1.704 3.786,1.709 4.539,0.016 4.552,-3.991 4.562,-6.821 L -6.232,-1.354 1.667,-1.327 1.636,7.89 C 1.589,7.711 1.538,7.555 1.483,7.454 0.954,7.953 0.617,8.693 -0.286,8.737"
             style="fill:#243446;fill-opacity:1;fill-rule:nonzero;stroke:none"
             id="path60" /></g><g
           id="g62"
           transform="translate(308.6279,245.9521)"><path
             d="M 0,0 C -0.186,0.637 -0.527,1.081 -0.712,1.718 0.148,2.133 0.464,-0.21 0,0 M -1.771,2.143 C -1.466,4.561 -3.422,5.496 -1.079,6.011 -0.866,5.247 -2.109,4.224 -1.071,3.864 -0.903,4.371 -0.7,4.84 -0.372,5.156 -0.29,3.486 -0.735,2.46 -1.771,2.143 M -2.847,6.866 C -2.319,6.794 -1.545,7.024 -1.434,6.44 -1.903,5.881 -2.745,5.871 -2.847,6.866 M -3.536,1.708 c -0.185,0.634 -0.526,1.079 -0.711,1.715 0.78,0.321 1.458,-1.579 0.711,-1.715 M 0.326,7.735 C 0.306,7.997 0.272,8.245 -0.027,8.164 -0.028,7.732 0.26,7.654 0.328,7.306 -0.332,7.714 -0.848,6.014 -1.083,7.301 -0.292,8.113 -1.279,8.224 -1.974,8.65 -2.022,8.577 -2.068,8.51 -2.118,8.433 -2.153,8.608 -2.209,8.76 -2.283,8.888 -2.306,8.912 -2.325,8.937 -2.345,8.963 -2.908,9.774 -4.261,9.573 -5.107,8.916 -5.672,9.963 -6.029,11.164 -7.291,11.71 l 0.054,-16.031 7.599,0.025 c -0.027,0.11 -0.028,0.249 0.003,0.431 -0.528,0.071 -1.301,-0.158 -1.412,0.424 0.963,-0.308 0.706,0.857 1.407,0.865 0.057,-0.299 0.173,-0.522 0.296,-0.737 L 0.618,8.117 C 0.581,7.919 0.504,7.767 0.326,7.735"
             style="fill:#243446;fill-opacity:1;fill-rule:nonzero;stroke:none"
             id="path64" /></g><g
           id="g66"
           transform="translate(343.3506,260.918)"><path
             d="m 0,0 c -0.526,-0.073 -1.301,0.15 -1.409,-0.435 0.18,-1.21 1.326,-0.993 0.71,-1.285 0.162,-0.17 -2.727,0.47 -1.766,0.422 1.217,0.724 0.796,1.527 2.109,2.587 C -0.335,1.025 -0.302,0.781 -0.003,0.861 -0.002,0.575 -0.001,0.288 0,0 M 0.899,-0.691 C 0.628,-1.793 0.555,-3.128 -0.15,-3.704 c -0.083,1.527 0.229,2.573 1.049,3.013 M -2.126,2.571 C -1.771,2.567 -1.681,1.82 -2.124,1.713 -2.089,2.194 -2.637,2.382 -2.126,2.571 M -19.253,3.56 c 0.104,1.346 -1.017,-1.095 -1.062,0.429 0.275,0.096 0.697,0.012 0.706,0.431 -0.431,0.048 -0.836,0.127 -0.71,0.858 0.608,-0.028 1.93,-1.307 1.066,-1.718 m -2.827,1.283 c -1.546,-0.321 0.28,0.855 -0.711,0.857 -0.018,-0.264 -0.052,-0.511 -0.351,-0.431 0.323,0.75 -0.02,2.305 1.053,2.149 -0.393,-1.352 -0.031,-0.97 0.009,-2.575 m -3.548,5.143 c 0.779,-0.629 2.629,0.062 2.827,-1.279 -0.353,-0.002 -0.704,-0.003 -1.061,-0.004 0.002,-0.43 0.29,-0.512 0.36,-0.859 -0.941,0.433 -2.013,0.701 -2.126,2.142 m 7.507,-28.763 c -1.379,1.065 1.169,0.631 0,0 m 1.751,4.3 c -0.667,-0.046 -0.24,-1.418 -1.056,-1.289 -0.455,1.181 1.023,2.104 1.056,1.289 M -28.881,6.357 c 0.104,0.381 0.699,2.188 1.056,0.865 -0.725,0.372 -0.696,-2.189 -1.056,-0.865 m -3.444,0.599 c -1.173,0.622 1.372,1.074 0,0 M -36.88,5.874 c -0.102,0.901 -0.941,-0.626 -1.414,0.424 0.002,-0.569 0.003,-1.143 0.005,-1.715 -0.882,0.213 -1.452,0.808 -2.122,1.279 1.43,-0.065 2.634,1.417 3.882,0.872 -0.663,-0.102 0.201,-0.703 -0.351,-0.86 m 34.899,4.871 c -0.125,-0.207 -0.305,-0.345 -0.522,-0.439 -0.008,0.274 0.038,0.484 0.107,0.665 -1.263,0.599 -2.815,0.927 -4.716,0.921 -3.441,-0.012 -7.058,-1.515 -9.017,-4.645 0.094,-10e-4 0.195,0 0.31,0.014 0.266,-1.323 -0.965,-0.827 -0.7,-2.151 1.074,0.273 0.682,2.316 1.757,2.584 -0.207,-1.118 0.147,-1.546 1.063,-1.286 -0.163,-2.327 -0.964,-1.586 -1.751,-3.439 -0.851,0.758 -1.281,1.785 -3.536,1.702 -0.37,1.729 0.542,1.913 1.049,2.583 -0.214,0.023 -0.418,0.064 -0.354,0.429 0.481,0.329 0.733,0.331 0.936,0.213 -0.62,0.956 -1.364,1.706 -2.213,2.298 -0.01,-0.103 -0.117,-0.259 -0.41,-0.489 -0.654,0.348 -0.151,0.641 0.184,0.648 -1.562,1.011 -3.48,1.485 -5.767,1.477 -0.309,-10e-4 -0.627,-0.017 -0.95,-0.047 -0.216,-0.625 0.05,-1.229 -0.175,-2.66 -0.843,-0.262 -1.607,-0.622 -2.822,-0.438 -0.065,1.767 1.576,0.812 0.697,2.577 0.658,0.415 1.186,-1.279 1.414,0.005 -0.481,-0.1 -0.603,0.032 -0.594,0.272 -1.169,-0.275 -2.362,-0.766 -3.49,-1.532 -0.01,-0.449 0.005,-0.931 -0.331,-0.988 0.025,0.242 0.012,0.533 0.036,0.777 -1.01,-0.737 -1.961,-1.702 -2.786,-2.945 l -0.118,-0.001 -0.014,4.243 -3.013,-0.01 c 0.025,-0.08 0.051,-0.17 0.075,-0.278 -0.806,0.588 -1.323,-1.111 -1.412,-0.005 0.122,0.077 0.238,0.177 0.35,0.28 l -3.367,-0.012 0.014,-4.11 c 1.443,-0.842 2.286,0.832 3.141,2.164 1.17,-1.661 -2.073,-2.379 -2.219,-4.237 -0.115,-1.696 1.343,-2.255 2.583,-2.973 -0.839,-2.945 -0.851,-3.254 -1.881,-5.312 -0.433,-1.34 1.782,-0.769 1.751,-1.817 1.622,-0.217 0.831,2.913 2.892,2.087 0.293,-1.237 -0.066,-1.886 -0.659,-2.791 1.144,0.027 1.427,-0.517 2.332,-0.047 l -0.005,1.443 c -0.013,3.95 0.614,10.199 5.86,10.216 3.096,0.011 4.084,-1.852 4.405,-3.934 0.481,0.282 0.881,0.534 1.048,0.709 0.006,0.077 0.005,0.143 0.018,0.225 0.107,-0.038 0.084,-0.118 -0.018,-0.225 -0.129,-1.386 0.615,-1.699 0.383,-3.212 -0.497,-0.016 -0.909,0.075 -1.278,0.215 0.003,-0.203 0.003,-0.404 0.004,-0.599 l 0.06,-18.096 7.899,0.027 -0.049,14.734 c -0.003,0.936 0.031,2.001 0.154,3.078 -0.511,-0.393 -1.185,-0.93 -0.732,-2.791 -0.664,0.615 -3.595,1.434 -4.049,-0.012 -0.917,0.145 -0.027,1.426 0.734,1.105 0.101,0.594 -0.353,0.632 -0.372,1.105 -1.042,0.297 -0.953,-0.524 -1.839,-0.376 0.638,1.305 -0.249,0.904 -0.377,2.207 1.094,0.625 2.051,1.385 3.307,1.851 -0.043,0.916 -0.692,1.136 -0.006,1.841 0.695,-0.038 0.26,-1.216 1.108,-1.102 -0.268,-0.344 -0.666,-0.558 -1.102,-0.739 0.246,-1.101 0.785,0.354 1.473,0.005 -0.848,-1.192 0.14,-1.927 -1.465,-2.213 0.07,-0.297 0.371,-0.366 0.371,-0.735 0.968,-0.108 0.283,1.43 1.469,1.109 -0.286,-0.328 -0.394,-0.831 -0.364,-1.473 0.931,-0.04 1.483,2.155 1.096,2.211 0.443,0.266 0.894,0.524 1.311,0.817 0.747,2.39 2.233,4.32 5.143,4.329 4.538,0.016 4.552,-3.991 4.561,-6.821 l 0.034,-10.235 c 0.425,1.202 0.972,2.442 1.27,3.627 2.359,1.614 5.501,-2.177 2.314,-2.794 -0.07,0.853 -0.18,1.661 -1.155,1.401 2.79,-3.246 -0.897,-4.834 -2.279,-7.013 -0.053,0.057 -0.09,0.12 -0.135,0.183 l 0.011,-3.265 7.898,0.026 L 2.535,0.018 C 2.519,4.88 1.401,8.875 -1.981,10.745"
             style="fill:#243446;fill-opacity:1;fill-rule:nonzero;stroke:none"
             id="path68" /></g><g
           id="g70"
           transform="translate(376.2998,258.4668)"><path
             d="M 0,0 C -1.054,-0.053 -1.183,-0.346 -1.051,-2.579 -3.275,-2.261 -0.966,0.493 -1.066,2.149 -1.618,0.98 -3.173,3.202 -2.132,3.86 -1.78,2.135 0.228,2.44 0,0 m -4.336,-3.896 c 0.514,1.676 -0.087,1.369 -0.708,0.425 -0.919,1.128 0.569,0.339 0.349,1.72 -0.721,-0.129 -0.691,-1.163 -1.409,-1.293 0.056,1.357 0.239,2.565 1.404,2.584 0.49,-0.265 0.056,-1.654 0.711,-1.719 0.431,0.621 1.343,0.655 1.761,1.296 -0.595,-1.605 0.209,-0.679 0.36,-2.147 -1.395,1.004 -1.076,-0.812 -2.468,-0.866 m -1.285,14.877 c -2.591,1.386 3.047,2.386 0,0 M -2.292,2.152 C -2.205,1.539 -1.707,1.43 -1.58,0.864 -2.467,1.411 -2.688,0.645 -2.994,1.291 c 0.467,0.007 0.319,0.752 0.702,0.861 m -18.759,-12.71 c 0.609,0.026 0.904,-0.328 1.061,-0.856 -0.607,-0.025 -0.906,0.329 -1.061,0.856 m -3.287,1.449 c -0.364,0.563 -0.352,1.583 -0.714,2.145 0.853,0.279 1.33,-2.042 0.714,-2.145 m -0.458,19.654 c -0.032,-0.676 0.052,-1.489 -0.703,-1.291 -0.022,0.738 0.269,1.101 0.703,1.291 M -24.123,-0.9 c -0.48,0.071 -0.449,-2.49 -1.056,-0.864 0.476,-0.072 0.45,2.489 1.056,0.864 m -0.031,12.405 c 0.749,-1.176 0.609,1.157 1.764,0.006 -0.017,0.652 0.667,-1.031 1.064,-2.145 -0.715,-0.131 -0.934,-0.865 -1.406,-1.294 0.772,1.616 -0.72,0.936 -0.007,2.148 -0.352,-0.001 -0.705,-0.002 -1.058,-0.004 0.021,-0.55 0.455,-0.591 0.358,-1.286 -1.085,-0.431 -1.079,3.976 -0.715,2.575 m 1.801,-11.166 c 0.217,0.026 0.419,0.065 0.353,0.431 -0.931,-0.132 -0.914,0.894 -1.065,1.714 0.526,0.684 1.442,0.322 1.764,-0.423 -1.174,0.106 0.106,-2.834 -1.052,-1.722 m 22.224,9.402 c -1.593,0.081 -2.775,3.849 -1.421,3.003 0.147,0.428 -0.052,0.748 -0.281,1.019 l -5.399,-0.018 0.006,-1.814 c 0.255,0.158 0.602,0.095 0.663,-0.661 -0.303,-0.068 -0.512,-0.07 -0.661,-0.037 l 0.041,-12.34 c 0.011,-3.389 -0.912,-8.522 -4.928,-9.802 0.036,-0.214 0.055,-0.397 0.016,-0.519 1.82,0.636 2.243,-2.091 -0.347,-2.15 -1.179,1.427 -3.043,0.115 -3.176,-0.011 10e-4,0.026 0.003,0.051 0.005,0.075 0.051,0.482 -1.084,0.235 -1.415,-0.508 -0.056,1.785 -0.232,0.088 -0.706,-0.002 -0.525,2.083 -3.283,5.079 -4.601,3.423 -0.105,0.872 -0.957,0.837 -1.064,1.715 0.605,0.172 0.907,-0.635 1.058,0.003 -1.232,0.934 -1.677,2.834 -3.187,3.427 0.242,1.324 0.244,0.827 -0.007,2.148 1.049,0.729 1.888,1.709 3.168,2.158 0.815,-1.265 1.916,-2.163 3.125,-2.877 -0.009,0.342 -0.013,0.68 -0.016,1.014 -0.804,0.289 -1.317,1.412 -0.268,1.643 -0.19,-0.618 0.015,-0.75 0.263,-0.83 l -0.053,15.905 -0.952,-0.004 c 0.022,-0.489 0.18,-0.814 0.348,-1.124 -0.234,-10e-4 -0.471,-0.002 -0.704,-0.003 -0.32,0.497 -0.367,0.873 0.013,1.126 l -3.816,-0.012 c -0.135,-0.958 -0.699,-1.391 -1.375,-1.69 -0.052,1.744 -0.742,1.55 -1.411,1.315 l 0.062,-18.791 c 0.023,-6.836 3.164,-11.894 10.355,-11.871 3.495,0.012 6.471,1.383 8.763,3.597 -0.456,1.023 0.438,2.41 0.756,3.669 1.131,0.772 2.636,-1.043 1.109,-1.338 -0.033,0.407 -0.087,0.794 -0.554,0.67 0.788,-0.916 0.497,-1.556 -0.01,-2.139 l 0.012,-3.719 7.487,0.025 -0.037,11.116 c -0.541,-0.291 -1.289,0.322 -1.531,1.055 1.108,0.495 0.858,-0.669 1.412,-0.856 0,0.103 0.052,0.205 0.117,0.251 L 0.681,9.985 C 0.298,10.371 0.25,10.973 -0.129,9.741"
             style="fill:#243446;fill-opacity:1;fill-rule:nonzero;stroke:none"
             id="path72" /></g><g
           id="g74"
           transform="translate(385.4956,259.8672)"><path
             d="M 0,0 C 0.057,0.506 -0.063,1.218 0.351,1.29 0.3,0.785 0.414,0.068 0,0 M -1.344,1.471 C -1.3,0.66 -0.176,1.176 -0.279,0.185 -0.888,0.077 -2.372,0.989 -1.344,1.471 m -0.423,9.357 c 0.358,-0.006 0.447,-0.755 0.003,-0.86 0.035,0.481 -0.513,0.667 -0.003,0.86 M -3.501,1.8 c 0.66,-0.412 1.174,1.289 1.412,0.005 C -2.305,1.676 -3.445,0.728 -3.501,1.8 m 2.992,-0.461 c -1.752,0.569 -0.559,2.029 0,0 m 1.723,-7.477 c 0.391,-2.277 -1.07,-0.509 0,0 m 15.604,18.509 c 0.064,-0.206 0.085,-0.469 0.019,-0.833 -0.726,0.115 -1.753,-0.133 -1.856,0.75 0.309,0.034 0.59,0.108 0.622,0.477 -0.952,0.247 -1.994,0.386 -3.152,0.382 C 8.324,13.134 4.969,11.769 2.505,8.282 l -0.118,0 -0.013,4.125 -7.486,-0.025 0.031,-9.596 c 1.055,0.105 1.578,0.56 2.348,-0.01 C -3.308,2.532 -4.414,1.699 -5.078,2.011 l 0.001,-0.217 c 0.823,-0.023 0.636,-0.674 1.304,0.011 -0.206,-0.978 1.679,-2.499 0.71,-1.716 -0.665,0.453 -1.652,0.513 -2.013,1.341 l 0.065,-19.403 7.899,0.026 -0.039,11.745 c -0.177,-0.18 -0.497,-0.195 -0.992,0.249 0.467,0.717 0.803,0.792 0.989,0.633 l -0.003,0.756 c -1.105,-0.479 -2.169,-1 -2.732,-2.018 -2.517,2.871 -3.869,1.972 -2.574,7.01 C 0.042,0.286 1.313,-1.097 2.859,-2.201 2.998,0.938 3.968,5.013 7.146,6.462 6.967,6.592 6.814,6.756 6.719,6.989 7.185,6.917 7.941,7.195 8.146,6.802 8.643,6.926 9.171,7.007 9.76,7.009 c 5.07,0.016 5.145,-4.993 5.157,-8.706 l 0.032,-9.398 c 0.16,0.112 0.378,0.22 0.67,0.33 1.72,-0.022 2.151,-3.614 0.013,-4.131 0.07,0.96 -0.345,1.673 -0.678,2.249 l 0.017,-5.259 7.898,0.025 -0.064,19.156 c -0.017,5.247 -1.879,9.435 -5.987,11.096"
             style="fill:#243446;fill-opacity:1;fill-rule:nonzero;stroke:none"
             id="path76" /></g><g
           id="g78"
           transform="translate(416.208,279.499)"><path
             d="m 0,0 c 0.694,-0.125 0.697,0.583 1.055,0.864 0.543,-0.82 2.602,-1.16 1.059,0.004 0.668,-0.094 0.779,0.484 1.407,0.433 l -0.015,4.666 -7.9,-0.027 0.026,-7.543 5.059,0.017 C 0.586,-0.905 -0.238,-1.104 0,0"
             style="fill:#243446;fill-opacity:1;fill-rule:nonzero;stroke:none"
             id="path80" /></g><g
           id="g82"
           transform="translate(416.6689,267.7529)"><path
             d="m 0,0 c -1.173,0.621 1.373,1.075 0,0 m -0.338,-4.298 c -1.078,1.444 1.302,1.307 0,0 m -0.572,1.142 c -0.022,0.261 -0.055,0.51 -0.353,0.428 0.856,-0.994 -0.277,-1.481 -0.699,-2.151 -0.585,0.666 0.115,1.677 0.344,2.579 0.722,0.496 1.688,-0.668 0.708,-0.856 m -3.134,0.082 c 1.106,0.496 0.856,-0.671 1.414,-0.854 -0.003,0.24 0.284,0.489 0.354,10e-4 -0.531,-0.688 -1.488,0.005 -1.768,0.853 m 4.982,3.008 C 1.351,0.757 1.995,1.286 3.1,1.22 L 3.099,1.522 C 2.001,2.361 0.37,1.402 -0.996,3.292 -0.942,3.733 -0.89,4.174 -0.834,4.614 L -4.811,4.602 -4.71,-25.754 3.189,-25.728 3.11,-1.843 C 3.091,-1.858 3.079,-1.867 3.061,-1.888 2.341,-1.29 2.479,-0.018 0.938,-0.066"
             style="fill:#243446;fill-opacity:1;fill-rule:nonzero;stroke:none"
             id="path84" /></g><g
           id="g86"
           transform="translate(431.5029,265.2236)"><path
             d="M 0,0 C -0.021,0.739 0.269,1.102 0.699,1.292 0.722,0.551 0.435,0.188 0,0 m 0.38,-8.591 c 0.036,0.482 -0.516,0.667 -0.002,0.858 0.356,-0.002 0.446,-0.752 0.002,-0.858 m -2.534,-10.707 c -1.379,1.063 1.169,0.63 0,0 M 5.115,1.84 C 6.271,3.008 7.226,2.884 8.2,2.98 L 6.643,7.218 2.341,7.203 2.312,15.81 l -7.89,-2.562 0.02,-6.07 -5.728,-0.02 c 0.572,-1.149 1.772,-1.902 2.369,-2.202 0.006,0.008 0.008,0.017 0.015,0.023 C -8.388,4.754 -8.521,4.755 -8.917,4.956 -9.708,3.958 -8.888,2.8 -8.015,1.394 l 2.476,0.008 0.016,-4.455 c 1.146,0.123 2.031,-0.862 2.119,1.9 0.402,1.006 3.173,-4.321 0.883,-5.576 -1.299,0.73 0.058,1.414 0.279,2.311 -1.812,0.761 -2.517,0.105 -3.276,-0.478 l 0.031,-9.146 c 0.019,-6.013 3.449,-9.831 9.638,-9.811 2.358,0.008 4.186,0.25 5.834,0.726 l -0.256,6.247 c -0.824,-0.532 -2.176,-0.831 -3.592,-0.836 -0.045,0 -0.084,0.005 -0.125,0.006 -1.394,-0.386 -1.885,-1.868 -2.866,-2.758 1.638,3.429 -1.388,2.12 -0.114,4.49 -0.03,0.063 -0.065,0.124 -0.094,0.188 -0.7,-0.002 -1.409,-0.004 -2.113,-0.007 0.047,-1.197 0.994,-1.288 0.779,-2.805 -2.362,-0.934 -2.35,8.666 -1.557,5.614 1.202,-1.887 1.356,0.364 2.358,0.685 l -0.007,1.99 c -0.519,-0.038 -1.202,0.12 -1.303,-0.426 0.179,-1.211 1.324,-0.993 0.71,-1.285 0.164,-0.171 -2.728,0.469 -1.766,0.422 1.217,0.725 0.798,1.524 2.108,2.585 0.021,-0.224 0.055,-0.42 0.249,-0.429 L 2.359,1.428 5.576,1.438 C 5.424,1.538 5.271,1.664 5.115,1.84"
             style="fill:#243446;fill-opacity:1;fill-rule:nonzero;stroke:none"
             id="path88" /></g><g
           id="g90"
           transform="translate(458.9355,249.6074)"><path
             d="m 0,0 c -1.172,0.625 1.373,1.076 0,0 m -1.267,1.523 c 0.466,0.008 0.322,0.755 0.702,0.864 0.088,-0.614 0.587,-0.725 0.713,-1.289 -0.884,0.546 -1.105,-0.22 -1.415,0.425 m 0.711,-1.417 c -2.043,-0.46 -0.151,1.859 0,0 m -8.133,5.69 c 0.452,1.069 -1.045,1.78 -0.008,2.147 0.078,-0.331 0.01,-0.845 0.354,-0.856 0.019,0.261 0.05,0.509 0.351,0.431 C -8.037,6.717 -8.219,6.081 -8.689,5.796 m -2.101,-6.024 c -1.019,-0.077 -1.951,1.445 -0.711,1.718 -0.431,-1.393 1.144,-0.324 0.711,-1.718 m -1.114,16.754 c -0.016,-0.589 0.168,-0.941 0.358,-1.286 -0.235,0 -0.472,-10e-4 -0.705,-0.002 -0.399,0.616 -0.387,1.046 0.347,1.288 M 1.379,1.646 C 0.827,0.48 -0.731,2.701 0.313,3.361 0.597,1.97 1.948,1.896 2.348,0.648 l 8.336,22.29 -8.014,-0.026 -7.238,-22.186 -0.119,0 -2.688,8.066 c -0.689,-0.201 -1.231,1.423 -0.626,1.303 0.016,-0.29 0.181,-0.393 0.355,-0.491 l -4.421,13.259 -6.012,-0.02 0.013,-3.935 c 0.291,0.144 0.587,0.347 0.901,0.658 -0.644,-2.953 -0.333,-1.652 1.148,-0.693 0.002,-1.969 -0.911,-2.829 -2.072,-3.39 l 0.875,-2.375 c 0.1,1.162 0.654,1.778 1.435,2.119 -0.06,-1.319 0.07,-2.867 -1.224,-2.694 l 1.402,-3.807 c 1.094,0.296 2.348,-0.459 2.879,-1.688 -1.364,0.124 -1.249,-1.59 -1.185,-2.919 l 4.834,-13.133 c 0.01,-3.244 -1.927,-5.43 -5.111,-5.441 -1.945,-0.006 -3.065,0.167 -4.067,0.517 l -0.512,-5.835 c 1.829,-0.526 3.714,-0.815 5.603,-0.808 7.079,0.023 9.412,4.893 11.519,10.523 -0.667,-0.231 -0.837,-1.487 -2.179,-1.538 0.694,2.267 -0.118,1.851 -0.956,0.575 -1.245,1.526 0.768,0.459 0.471,2.326 -0.975,-0.173 -0.935,-1.571 -1.905,-1.747 0.076,1.837 0.323,3.467 1.899,3.492 0.661,-0.355 0.079,-2.237 0.961,-2.323 0.584,0.841 1.82,0.886 2.382,1.752 -0.315,-0.846 -0.338,-1.17 -0.24,-1.371 0.202,0.556 0.407,1.114 0.617,1.673 l 0.217,0.585 c -0.245,0.396 -0.491,0.788 -0.616,1.326 0.661,0.297 0.838,10e-4 0.991,-0.323 l 0.995,2.655 c -1.508,0.601 0.475,3.085 0.383,4.622"
             style="fill:#243446;fill-opacity:1;fill-rule:nonzero;stroke:none"
             id="path92" /></g><g
           id="g94"
           transform="translate(203.8491,309.1797)"><path
             d="M 0,0 C -1.262,-1.577 -0.209,1.626 -1.088,1.774 -1.177,0.944 -1.69,2.025 -1.82,1.33 c -0.097,-0.643 0.57,-1.968 0.712,-2.985 0.288,0.072 0.566,0.152 0.844,0.232 C -0.458,-1.001 -0.579,-1.175 0,0"
             style="fill:#4a5d75;fill-opacity:1;fill-rule:nonzero;stroke:none"
             id="path96" /></g><g
           id="g98"
           transform="translate(195.5781,287.834)"><path
             d="M 0,0 C -0.083,0.042 -0.154,0.082 -0.229,0.123 -0.503,0.117 -0.777,0.111 -1.055,0.111 l -0.567,0 c 0.228,-0.384 0.518,-0.834 0.895,-1.442 C -0.27,-1.149 0.018,-0.76 0,0"
             style="fill:#4a5d75;fill-opacity:1;fill-rule:nonzero;stroke:none"
             id="path100" /></g><g
           id="g102"
           transform="translate(207.3491,286.8799)"><path
             d="M 0,0 C 0.385,1.154 -0.663,0.654 0.575,1.216 1.229,1.015 1.754,0.223 1.64,-0.273 1.785,-0.338 1.949,-0.079 2.094,-0.144 2.214,0.698 1.639,0.547 2.436,1.57 2.81,1.329 3.612,0.82 4.274,0.299 c 1.691,1.97 2.694,4.622 2.694,8.198 0,6.399 -4.003,10.638 -9.87,11.761 -0.744,-0.2 -0.927,-0.447 -1.26,-0.419 0.014,-0.148 -1.414,-0.411 -1.52,1.133 0.282,0.099 0.717,0.012 0.727,0.442 -0.693,0.19 -0.912,0.955 -1.82,0.886 -0.8,-2.143 -2.006,-1.716 -2.913,-3.545 -0.287,1.739 -0.662,1.303 -1.458,1.773 0.757,0.248 0.774,0.691 0.365,1.329 1.068,-0.116 1.351,-0.612 1.82,0 -0.57,0.244 -0.094,1.761 -0.561,2.13 -0.275,-0.029 -0.553,-0.055 -0.835,-0.077 0.545,-1.323 -0.607,-1.076 -1.054,-0.062 -0.058,-0.003 -0.114,-0.007 -0.172,-0.01 -0.323,-0.977 -0.572,-2.042 -0.655,-3.31 0.446,-0.049 0.863,-0.131 0.73,-0.884 l -1.096,0 c -0.048,0.824 -0.238,1.479 -0.725,1.77 0.249,-1.191 -0.753,-0.856 -1.093,-1.329 -1.023,0.927 0.057,1.664 -1.093,2.215 0.314,0.542 0.452,1.03 0.469,1.489 l -3.139,0 0,15.435 7.503,0 c 4.144,0 9.218,-1.501 9.218,-7.432 0,-3.295 -1.181,-5.237 -3.099,-6.385 0.161,-0.321 0.261,-0.41 0.701,0.441 -0.033,-1.21 0.606,-0.893 0,-1.774 1.357,-0.036 1.174,-0.663 1.82,0.445 -0.116,-1.029 0.06,-1.702 0.364,-2.219 -0.551,-0.049 -0.756,-0.52 -0.911,-1.051 3.033,1.058 5.375,2.683 6.78,5.101 -0.646,0.142 -1.335,0.229 -1.235,1.278 0.633,-0.033 1.131,0.1 1.455,0.444 0.115,0.282 0.518,-0.144 0.518,-0.144 0.49,1.323 0.753,2.838 0.753,4.579 0,9.218 -7.146,12.576 -17.508,12.576 l -13.505,0 0,-43.356 c 0.524,-0.098 0.726,0.279 0.976,-0.251 -0.363,-0.328 -0.583,-0.829 -0.976,-1.12 l 0,-5.15 7.719,0 c 0.04,0.545 0.176,0.972 0.38,1.315 -1.809,1.732 -3.209,-0.826 -2.548,1.331 -0.468,-0.025 -0.504,-0.571 -1.095,-0.444 -0.589,0.904 -1.18,1.812 -1.455,3.102 1.397,-0.082 0.133,0.362 0.365,1.329 1.63,0.654 1.119,-1.296 2.548,-0.885 0.006,1.259 0.697,1.685 1.232,2.3 l 0,14.676 4.644,0 c 3.726,0 7.677,-0.406 10.22,-2.434 0.028,0.055 0.055,0.111 0.084,0.165 l 0.729,0 c -0.063,-0.646 0.211,-0.879 0.322,-1.313 0.5,-0.642 0.894,-1.398 1.164,-2.282 0.185,0.053 0.419,-0.032 0.658,-0.425 -0.192,-0.136 -0.347,-0.218 -0.48,-0.269 0.145,-0.679 0.237,-1.409 0.237,-2.231 0,-3.378 -1.465,-5.399 -3.738,-6.576 -0.016,-0.483 0.017,-1.027 -0.347,-1.089 0.034,0.306 0.008,0.684 0.066,0.961 -1.59,-0.755 -3.536,-1.134 -5.645,-1.285 0.005,-0.385 -0.068,-0.674 -0.406,-0.642 -0.034,0.125 -0.146,0.366 -0.286,0.603 -0.198,-0.009 -0.393,-0.021 -0.593,-0.027 0.451,-0.593 0.997,-1.065 0.879,-2.351 -1.468,0.175 -1.618,-0.822 -2.184,0.445 -0.76,-1.315 0.788,-4.03 0,-3.545 -1.727,1.452 -1.17,2.024 -3.278,0.886 0.432,-0.237 0.638,-0.75 0.802,-1.315 l 3.297,0 c 0.53,0 1.054,0.012 1.576,0.026 -1.074,0.935 -1.75,2.093 -0.946,1.175 1.761,1.764 2.997,0.243 4.665,1.892 -0.916,-1.655 -0.293,-1.087 1.049,-0.226 0,-0.199 -0.012,-0.39 -0.033,-0.573 0,0 -0.015,-0.028 0.083,-0.028 0.098,0 0.163,-0.033 0.292,0.081 0.13,0.113 0.244,0.243 0.244,0.243 l 0.342,0.329 -0.229,0.385 0.568,-0.13 c 0,0 0.016,-0.291 0.26,-0.048 0.243,0.243 0.08,0.521 0.08,0.521 0,0 0.585,0.323 0.601,0.274 0.016,-0.049 0.066,-0.309 0.114,-0.341 0.048,-0.032 1.273,-0.257 1.273,-0.257 L 0.016,-0.84 0,0 z"
             style="fill:#4a5d75;fill-opacity:1;fill-rule:nonzero;stroke:none"
             id="path104" /></g></g></g></g></svg>