<?xml version="1.0" encoding="UTF-8" standalone="no"?>
<!-- Created with Inkscape (http://www.inkscape.org/) -->

<svg
   xmlns:dc="http://purl.org/dc/elements/1.1/"
   xmlns:cc="http://creativecommons.org/ns#"
   xmlns:rdf="http://www.w3.org/1999/02/22-rdf-syntax-ns#"
   xmlns:svg="http://www.w3.org/2000/svg"
   xmlns="http://www.w3.org/2000/svg"
   xmlns:xlink="http://www.w3.org/1999/xlink"
   xmlns:sodipodi="http://sodipodi.sourceforge.net/DTD/sodipodi-0.dtd"
   xmlns:inkscape="http://www.inkscape.org/namespaces/inkscape"
   width="288"
   height="94.000008"
   id="svg2"
   version="1.1"
   inkscape:version="0.46+devel"
   sodipodi:docname="title_logo.svg">
  <defs
     id="defs4">
    <inkscape:perspective
       sodipodi:type="inkscape:persp3d"
       inkscape:vp_x="0 : 526.18109 : 1"
       inkscape:vp_y="0 : 1000 : 0"
       inkscape:vp_z="744.09448 : 526.18109 : 1"
       inkscape:persp3d-origin="372.04724 : 350.78739 : 1"
       id="perspective10" />
    <inkscape:perspective
       id="perspective2902"
       inkscape:persp3d-origin="0.5 : 0.33333333 : 1"
       inkscape:vp_z="1 : 0.5 : 1"
       inkscape:vp_y="0 : 1000 : 0"
       inkscape:vp_x="0 : 0.5 : 1"
       sodipodi:type="inkscape:persp3d" />
  </defs>
  <sodipodi:namedview
     id="base"
     pagecolor="#ffffff"
     bordercolor="#666666"
     borderopacity="1.0"
     inkscape:pageopacity="0.0"
     inkscape:pageshadow="2"
     inkscape:zoom="3.9939127"
     inkscape:cx="138.13317"
     inkscape:cy="28.989482"
     inkscape:document-units="px"
     inkscape:current-layer="layer1"
     showgrid="false"
     inkscape:window-width="1680"
     inkscape:window-height="990"
     inkscape:window-x="-4"
     inkscape:window-y="-3"
     inkscape:window-maximized="1" />
  <metadata
     id="metadata7">
    <rdf:RDF>
      <cc:Work
         rdf:about="">
        <dc:format>image/svg+xml</dc:format>
        <dc:type
           rdf:resource="http://purl.org/dc/dcmitype/StillImage" />
        <dc:title />
      </cc:Work>
    </rdf:RDF>
  </metadata>
  <g
     inkscape:label="Layer 1"
     inkscape:groupmode="layer"
     id="layer1"
     transform="translate(-228.14285,-485.36217)">
    <image
       y="482.36218"
       x="222.14285"
       id="image2904"
       height="100"
       width="300"
       xlink:href="file:///home/rlandmann/Packages/j-c/publican-jboss-community/en-US/images/title_logo.png" />
    <path
       style="fill:#000000"
       d="m 285.64285,533.36218 c -0.33992,-0.55 -1.15398,-0.99311 -1.80902,-0.98469 -0.71561,0.009 -0.59227,0.40223 0.30902,0.98469 1.92112,1.24152 2.26731,1.24152 1.5,0 z"
       id="path3080" />
    <path
       style="fill:#000000"
       d="m 368.14285,554.36218 c 0,-0.55 -0.45,-1 -1,-1 -0.55,0 -1,0.45 -1,1 0,0.55 0.45,1 1,1 0.55,0 1,-0.45 1,-1 z"
       id="path3074" />
    <path
       style="fill:#000000"
       d="m 430.16283,553.11218 c 1.01828,-2.10127 0.99195,-2.1277 -0.39828,-0.39986 -0.86841,1.07929 -1.99737,1.53572 -2.70967,1.09549 -0.78027,-0.48223 -0.96348,-0.33789 -0.50752,0.39986 1.0989,1.77806 2.41641,1.37885 3.61547,-1.09549 z"
       id="path3068" />
    <g
       id="g3884"
       style="fill:#243445;fill-opacity:1">
      <path
         id="path3072"
         d="m 379.14285,559.75519 c 0,-7.81676 0.16067,-8.53799 1.75,-7.85545 0.9625,0.41335 2.5375,0.78292 3.5,0.82128 1.51085,0.0602 1.75,1.13371 1.75,7.85545 l 0,7.78571 -3.5,0 -3.5,0 0,-8.60699 z"
         style="fill:#243445;fill-opacity:1" />
      <g
         style="fill:#243445;fill-opacity:1;stroke:none"
         id="g3097">
        <path
           style="fill:#243445;fill-opacity:1;stroke:none"
           d="m 490.14285,576.4558 c 0,-2.36186 0.35555,-2.8134 1.89777,-2.4101 2.79294,0.73037 6.10231,-1.42212 6.10173,-3.9687 -2.8e-4,-1.21815 -0.92156,-4.63815 -2.04729,-7.6 -1.12574,-2.96185 -1.90784,-6.10669 -1.73802,-6.98852 0.16983,-0.88183 -0.47368,-2.38579 -1.43003,-3.34214 -0.95634,-0.95634 -1.47586,-2.424 -1.15449,-3.26148 0.32799,-0.85474 0.045,-1.52268 -0.64513,-1.52268 -0.90671,0 -0.94104,-0.34749 -0.13078,-1.32379 0.79878,-0.96247 0.79596,-1.62649 -0.0103,-2.43279 -1.67344,-1.6734 -0.21229,-4.24342 2.4125,-4.24342 2.05188,0 2.69597,1.15087 5.59651,10 1.80277,5.5 3.46037,10 3.68354,10 0.22317,0 1.80381,-4.5 3.51253,-10 l 3.10677,-10 3.42234,0 c 1.893,0 3.42235,0.5089 3.42235,1.13881 0,2.68421 -6.59465,18.83174 -7.54492,18.47435 -0.57646,-0.21681 -0.9971,0.79054 -0.93824,2.24692 0.12748,3.15448 -1.25409,6.3137 -3.2828,7.50675 -1.15316,0.67816 -1.19878,1.03693 -0.20959,1.64828 0.97184,0.60063 0.76354,1.59186 -0.90026,4.28394 -2.49291,4.03361 -3.79977,4.70095 -9.20598,4.70095 -3.65885,0 -3.91821,-0.19238 -3.91821,-2.90638 z"
           id="path3086" />
        <path
           style="fill:#243445;fill-opacity:1;stroke:none"
           d="m 280.21875,530.375 c -13.35194,-0.0318 -20.0625,6.58023 -20.0625,19.78125 0,5.75684 0.25717,7.03469 1.40625,6.59375 1.58942,-0.60992 3.59375,2.41869 3.59375,5.4375 0,2.63824 2.19733,4.27798 7.78125,5.78125 5.73916,1.54507 5.82012,1.53708 11.5625,0.75 4.34727,-0.59586 4.65625,-0.81359 4.65625,-3.625 l 0,-3 2.625,2.625 c 5.04285,5.04285 15.44273,5.52802 20.5625,0.96875 4.52964,-4.03375 5.96466,-11.58331 3.375,-17.78125 -3.61866,-8.66065 -16.93819,-10.65384 -24,-3.59375 -2.83375,2.83305 -3.0919,3.66795 -3.1875,10.09375 -0.0573,3.85131 -0.38079,7.28705 -0.71875,7.625 -1.37629,1.37629 -8.41791,1.24776 -12.34375,-0.21875 -3.32369,-1.24158 -4.63852,-2.47748 -6.34375,-6 -1.18224,-2.44218 -2.62773,-4.4375 -3.1875,-4.4375 -0.55978,0 -0.71833,-0.73029 -0.375,-1.625 0.34334,-0.89471 0.12143,-2.25122 -0.5,-3 -0.87443,-1.05362 -0.72277,-1.4974 0.71875,-2 1.02444,-0.35718 3.26836,-2.29442 5,-4.28125 3.0671,-3.51911 3.35185,-3.59375 10.3125,-3.59375 6.67229,0 7.16626,-0.17371 7.71875,-2.375 0.81555,-3.2494 -0.95916,-4.1068 -8.59375,-4.125 z m 20.09375,12.25 c 0.87232,-0.0969 2.07375,0.4463 4.53125,1.75 2.4649,1.30762 4.8867,3.43445 5.375,4.71875 0.48829,1.28431 1.573,2.5865 2.40625,2.90625 0.83326,0.31974 1.53125,1.23263 1.53125,2.03125 0,0.79866 -0.43713,1.18425 -0.9375,0.875 -1.33945,-0.82782 -4.0625,0.48211 -4.0625,1.9375 0,0.69198 -0.95383,2.42583 -2.09375,3.875 -1.22208,1.55363 -3.06869,2.65625 -4.5,2.65625 -2.75736,0 -6.40625,-3.2196 -6.40625,-5.625 0,-0.98104 -0.56645,-1.39675 -1.4375,-1.0625 -0.78479,0.30115 -1.99515,-0.13452 -2.6875,-0.96875 -1.0209,-1.23011 -0.97686,-1.66947 0.1875,-2.40625 0.78964,-0.49966 1.96242,-0.9295 2.625,-0.9375 0.66258,-0.008 1.52191,-1.7013 1.90625,-3.75 0.38434,-2.04871 1.35211,-4.38336 2.15625,-5.1875 0.48104,-0.48103 0.88286,-0.75433 1.40625,-0.8125 z"
           id="path3084" />
        <path
           style="fill:#243445;fill-opacity:1;stroke:none"
           d="m 318.14285,554.36218 0,-14 3.5,0 c 2.324,0 3.5,0.46778 3.5,1.3922 0,1.09979 0.77954,0.99477 3.71144,-0.5 4.60986,-2.35024 4.97419,-2.34671 9.76286,0.0947 3.37152,1.7189 4.10817,1.79685 5.46144,0.57791 4.15906,-3.74621 11.80624,-2.62128 13.93454,2.04984 1.64422,3.60867 1.46192,12.32065 -0.27174,12.98592 -1.5934,0.61144 -2.88916,4.39943 -1.50492,4.39943 0.49851,0 0.90638,-0.45 0.90638,-1 0,-0.55 0.45,-1 1,-1 0.55,0 1,2.025 1,4.5 0,4.47619 -0.0185,4.5 -3.5,4.5 l -3.5,0 -0.0153,-9.75 c -0.008,-5.3625 -0.44375,-10.425 -0.96739,-11.25 -0.63693,-1.0035 -2.59257,-1.5 -5.90828,-1.5 -4.44987,0 -4.81077,0.16129 -3.53261,1.57874 1.58178,1.75418 1.89251,3.92126 0.56225,3.92126 -0.47373,0 -0.64627,1.125 -0.38342,2.5 0.32619,1.70635 0.0323,2.5 -0.92587,2.5 -0.77207,0 -1.47157,0.9 -1.55443,2 -0.16609,2.20493 1.26564,2.72549 2.06277,0.75 0.27741,-0.6875 0.53991,1.1125 0.58333,4 l 0.079,5.25 -3.5,0 -3.5,0 0,-9.5 c 0,-5.66667 0.40351,-9.5 1,-9.5 0.55,0 1,-0.70156 1,-1.55902 0,-0.85746 0.45,-1.2809 1,-0.94098 0.55,0.33992 1,-0.0694 1,-0.9096 0,-0.94705 -0.57008,-1.30887 -1.5,-0.95203 -0.825,0.31659 -1.5,1.27221 -1.5,2.12361 0,1.35832 -0.22407,1.34522 -1.82874,-0.10699 -1.00581,-0.91025 -2.51106,-1.65499 -3.34501,-1.65499 -1.91576,0 -4.82625,3.15707 -4.82625,5.23512 0,1.08531 -0.62413,1.41443 -2,1.05463 -2.30868,-0.60373 -2.74635,1.20987 -0.5,2.07188 1.13654,0.43613 1.5,2.27936 1.5,7.60699 l 0,7.03138 -3.5,0 -3.5,0 0,-14 z"
           id="path3078" />
        <path
           style="fill:#243445;fill-opacity:1;stroke:none"
           d="m 362.14285,560.92554 c 0,-4.15985 0.39752,-7.56336 0.88337,-7.56336 1.63894,0 1.96269,-4.06821 0.54067,-6.79398 -2.41115,-4.62175 -1.8812,-6.20602 2.07596,-6.20602 2.59012,0 3.5,0.43024 3.5,1.65499 0,1.46232 0.24984,1.43322 2.1461,-0.25 1.54356,-1.37014 2.26886,-1.55404 2.58333,-0.65499 0.61121,1.74738 2.27057,1.56468 2.27057,-0.25 0,-1.80651 1.98674,-1.9188 5.51408,-0.31163 1.9959,0.90939 2.4787,1.70424 2.05664,3.38587 -0.4074,1.62321 -0.0316,2.33348 1.43788,2.71776 2.11441,0.55293 4.16479,-1.40087 2.16845,-2.06632 -1.99976,-0.66658 -1.31013,-2.1055 1.77329,-3.7 5.51644,-2.85266 11.27506,-1.18646 12.99988,3.76138 0.57738,1.65626 1.04978,7.66924 1.04978,13.36216 l 0,10.35078 -3.5,0 c -4.13124,0 -4.43048,-1.30864 -1.45313,-6.35486 1.96347,-3.32784 1.3785,-5.6441 -1.04687,-4.14514 -0.60291,0.37262 -1,-0.96792 -1,-3.37588 0,-6.11679 -1.49038,-9.12412 -4.52176,-9.12412 -1.80973,0 -3.07578,0.88664 -4.27475,2.99368 -0.93692,1.64652 -2.29255,2.99652 -3.01251,3 -0.73742,0.004 -0.99663,-0.49912 -0.59363,-1.1512 0.49166,-0.79552 0.0308,-0.9785 -1.47367,-0.58507 -1.59568,0.41728 -2.61797,-0.0822 -3.77138,-1.84248 -0.95617,-1.45931 -2.54629,-2.41493 -4.01834,-2.41493 -3.40663,0 -5.42273,5.30806 -5.65169,14.87998 l -0.18227,7.62002 -3.25,0.31336 -3.25,0.31336 0,-7.56336 z"
           id="path3076" />
        <path
           style="fill:#243445;fill-opacity:1;stroke:none"
           d="m 410.37181,567.69289 c -2.95152,-1.18754 -4.22896,-6.19485 -4.22896,-16.57666 l 0,-10.34528 3.5,-0.23571 3.5,-0.23571 0,8.15377 c 0,7.23399 -0.17399,8.00937 -1.54238,6.87371 -1.10185,-0.91445 -1.85002,-0.97243 -2.61947,-0.20298 -1.29319,1.29319 0.99302,7.23815 2.78352,7.23815 0.62339,0 1.61352,0.57846 2.20027,1.28546 1.1133,1.34144 5.52678,1.61436 5.88322,0.3638 0.11284,-0.39589 1.12534,-1.88961 2.25,-3.31939 1.71052,-2.17457 2.04484,-4.04899 2.04484,-11.46473 0,-8.61811 0.065,-8.86514 2.33102,-8.86514 3.7567,0 4.86692,3.56413 5.02554,16.13337 l 0.14344,11.36663 -3.25,0.31336 c -3.0708,0.29608 -3.25168,0.13066 -3.28041,-3 -0.0271,-2.95673 -0.14815,-3.09809 -1.12432,-1.31336 -0.60166,1.1 -1.79898,2.5625 -2.66072,3.25 -1.5354,1.22495 -8.44422,1.59115 -10.95559,0.58071 z"
           id="path3070" />
        <path
           style="fill:#243445;fill-opacity:1;stroke:none"
           d="m 479.7977,566.16401 c -2.18786,-1.9541 -2.60931,-3.24492 -2.78986,-8.54465 -0.22276,-6.53851 0.55855,-8.70785 2.24314,-6.22822 0.80419,1.18373 0.93298,1.08042 0.65937,-0.52896 -0.21173,-1.24544 -0.98656,-1.88914 -2.05375,-1.70616 -1.1296,0.19367 -1.71375,-0.36637 -1.71375,-1.64301 0,-1.06527 -0.61256,-2.17191 -1.36124,-2.45921 -0.74868,-0.28729 -1.60655,-1.46044 -1.90638,-2.60699 -0.41173,-1.57448 -0.0786,-2.08463 1.36124,-2.08463 1.43725,0 1.90638,-0.71417 1.90638,-2.90217 0,-2.35613 0.59253,-3.10874 3.14922,-4 4.62058,-1.61074 4.85078,-1.47302 4.85078,2.90217 0,3.25798 0.35116,4 1.89301,4 1.04116,0 2.13099,0.62016 2.42186,1.37814 0.60601,1.57925 -1.09428,3.62186 -3.01487,3.62186 -0.88611,0 -1.3,1.52821 -1.3,4.8 0,2.64 -0.5625,5.40602 -1.25,6.1467 -1.00955,1.08766 -0.9846,1.19553 0.12973,0.56081 0.94509,-0.53833 1.22073,-0.34827 0.875,0.60329 -0.2776,0.76406 -1.01098,1.2767 -1.62973,1.1392 -1.37444,-0.30543 -1.44171,1.71254 -0.125,3.75 0.82443,1.27571 0.97166,1.28319 0.98469,0.05 0.0115,-1.0897 0.30003,-1.16528 1.16114,-0.30417 0.64944,0.64944 2.41699,0.89161 4.08003,0.559 2.75395,-0.55079 2.91392,-0.40925 2.60417,2.30416 -0.2979,2.60952 -0.73255,2.9204 -4.46401,3.19284 -3.17966,0.23215 -4.72892,-0.22954 -6.71117,-2 z"
           id="path3064" />
        <path
           style="fill:#243445;fill-opacity:1;stroke:none"
           d="m 435.20786,553.86218 0.0673,-13.5 2.93385,0 c 1.9283,0 2.93385,0.50908 2.93385,1.4853 0,1.21194 0.59815,1.1206 3.25,-0.49626 3.67133,-2.23845 6.10848,-2.45724 10.46294,-0.93926 4.28353,1.49324 5.28706,4.62458 5.28706,16.49727 l 0,10.45295 -3.5,0 c -2.86677,0 -3.5,-0.37252 -3.5,-2.05902 0,-1.13246 0.45,-1.7809 1,-1.44098 0.55,0.33992 1,0.16803 1,-0.38197 0,-0.55 -0.45,-1.27811 -1,-1.61803 -0.55,-0.33992 -1,-3.32106 -1,-6.62476 0,-7.50128 -1.181,-9.87524 -4.91274,-9.87524 -3.24278,0 -4.62414,1.30662 -5.63365,5.32881 -0.50362,2.00656 -1.01611,2.50869 -1.78039,1.74441 -1.68968,-1.68968 -3.67322,-1.25533 -3.67322,0.80433 0,2.66025 2.31062,4.41183 3.82379,2.89866 0.90161,-0.90161 1.17621,0.27125 1.17621,5.02379 l 0,6.2 -3.50115,0 -3.50114,0 0.0673,-13.5 z"
           id="path3062" />
        <path
           style="fill:#243445;fill-opacity:1;stroke:none"
           d="m 464.14285,553.86218 c 0,-7.425 0.39856,-13.5 0.88569,-13.5 0.48713,0 2.17463,0.67223 3.75,1.49384 1.57537,0.82161 2.21181,1.49661 1.41431,1.5 -1.12778,0.005 -1.18333,0.27283 -0.25,1.20616 0.78519,0.78519 1.2,4.93333 1.2,12 l 0,10.8 -3.5,0 -3.5,0 0,-13.5 z"
           id="path3060" />
        <path
           style="fill:#243445;fill-opacity:1;stroke:none"
           d="m 463.80952,534.69551 c -0.36667,-0.36666 -0.66667,-1.94166 -0.66667,-3.5 0,-2.63889 0.27451,-2.83333 4,-2.83333 3.16665,0 4,0.37037 4,1.77776 0,3.16307 -5.38228,6.50662 -7.33333,4.55557 z"
           id="path3058" />
      </g>
    </g>
    <path
       style="fill:#000000"
       d="m 411.14285,543.36218 c 0,-0.55 -0.47656,-1 -1.05902,-1 -0.58246,0 -0.7809,0.45 -0.44098,1 0.33992,0.55 0.81648,1 1.05902,1 0.24254,0 0.44098,-0.45 0.44098,-1 z"
       id="path3066" />
    <path
       style="fill:#000000"
       d="m 243.80952,521.86218 c 0,-0.825 -0.32686,-1.5 -0.72635,-1.5 -0.39949,0 -0.98536,0.675 -1.30195,1.5 -0.33001,0.85999 -0.0201,1.5 0.72635,1.5 0.71607,0 1.30195,-0.675 1.30195,-1.5 z"
       id="path3054" />
    <path
       style="fill:#000000"
       d="m 244.12754,492.61218 c -0.008,-0.4125 -0.45153,-1.425 -0.98469,-2.25 -0.78387,-1.21296 -0.97231,-1.06944 -0.98469,0.75 -0.008,1.2375 0.43469,2.25 0.98469,2.25 0.55,0 0.99311,-0.3375 0.98469,-0.75 z"
       id="path3052" />
    <g
       id="g3089"
       style="fill:#4b5d75;fill-opacity:1;stroke:none">
      <path
         id="path3056"
         d="m 228.14285,528.61218 c 0,-2.54167 0.30303,-2.75 4,-2.75 2.53333,0 4,0.45833 4,1.25 0,0.6875 0.4645,1.25 1.03222,1.25 1.17149,0 2.96414,-4.10737 2.29135,-5.25 -0.24288,-0.4125 -0.0746,-0.75 0.37405,-0.75 0.44861,0 0.65083,-8.325 0.44937,-18.5 l -0.36628,-18.5 3.35965,0.0153 c 2.26373,0.0103 2.91707,0.29574 2.00288,0.875 -0.94581,0.5993 -1.02153,1.06688 -0.25,1.54371 0.60872,0.37621 1.10676,2.89333 1.10676,5.59361 0,3.95325 -0.29219,4.79748 -1.5,4.334 -1.9002,-0.72918 -1.8855,0.0237 0.0814,4.16867 1.19628,2.52098 1.45387,5.23662 1.05773,11.15113 -0.28802,4.30021 -0.54579,9.01283 -0.57284,10.47247 -0.0315,1.69814 -1.16029,3.58885 -3.13445,5.25 -2.49144,2.0964 -4.12916,2.5961 -8.50857,2.5961 -5.24963,0 -5.42327,-0.088 -5.42327,-2.75 z"
         style="fill:#4b5d75;fill-opacity:1;stroke:none" />
      <path
         id="path3050"
         d="m 294.46356,529.80659 c -9.50076,-4.16107 -12.37495,-20.34757 -4.86572,-27.40213 2.39858,-2.25334 5.57017,-1.99844 3.69219,0.29675 -0.52247,0.63853 -1.24884,3.91727 -1.61417,7.28607 -0.69418,6.40138 0.90214,12.43734 3.90686,14.77241 0.78026,0.60637 1.59744,2.22749 1.81595,3.60249 0.37433,2.35545 0.4507,2.38436 1.32074,0.5 0.62464,-1.35286 1.99635,-2.05003 4.23929,-2.15461 3.81422,-0.17785 6.80352,-2.52749 8.6983,-6.837 0.97523,-2.2181 1.34413,-2.50368 1.40428,-1.08713 0.0449,1.05669 0.74746,2.65706 1.56134,3.55638 1.29308,1.42885 1.29745,1.89541 0.0346,3.69838 -3.40539,4.86186 -13.42697,6.73202 -20.19366,3.76839 z"
         style="fill:#4b5d75;fill-opacity:1;stroke:none" />
      <path
         id="path3048"
         d="m 323.43849,530.56606 c -1.80252,-1.14569 -1.21833,-5.30607 0.66715,-4.75122 5.51659,1.6234 7.21213,1.66275 9.41626,0.21854 2.43956,-1.59845 4.23241,-6.73773 2.22284,-6.37183 -0.60604,0.11035 -1.03423,-0.61781 -0.95154,-1.61812 0.10051,-1.21589 -0.33482,-1.63257 -1.31335,-1.25707 -1.86992,0.71755 -7.59551,-2.19688 -6.81068,-3.46677 0.32544,-0.52658 0.0523,-0.95741 -0.60706,-0.95741 -1.94764,0 -3.85329,-3.26531 -3.88746,-6.66111 -0.0491,-4.88495 4.64372,-8.34326 11.29493,-8.32358 6.19702,0.0183 7.78314,0.84855 7.04125,3.68554 -0.4996,1.91045 -0.88112,2.02033 -3.7124,1.06912 -1.73557,-0.58308 -3.79126,-1.55736 -4.5682,-2.16506 -1.04887,-0.82039 -1.52149,-0.78143 -1.83541,0.15132 -0.23254,0.69093 -0.79052,1.02896 -1.23997,0.75119 -0.44945,-0.27778 -1.30983,0.90818 -1.91196,2.63545 -1.24112,3.56028 -0.63647,4.31539 6.39996,7.9925 6.72745,3.51565 8.5,5.69485 8.5,10.45005 0,3.5034 -0.53259,4.68494 -3.07673,6.82569 -2.52598,2.12548 -4.09224,2.58615 -8.75,2.57358 -3.1203,-0.008 -6.21523,-0.35979 -6.87763,-0.78081 z"
         style="fill:#4b5d75;fill-opacity:1;stroke:none" />
      <path
         id="path3046"
         d="m 346.59487,530.59686 c -0.57638,-0.40408 -1.11257,-1.76916 -1.19153,-3.03352 -0.10751,-1.72173 0.2811,-2.17297 1.54798,-1.79749 0.93034,0.27574 3.04153,0.80976 4.69153,1.18672 1.65,0.37696 3.5625,1.12842 4.25,1.66993 0.84234,0.66347 1.25,0.6185 1.25,-0.13789 0,-0.61734 -0.1125,-1.27828 -0.25,-1.46875 -0.1375,-0.19046 0.27223,-0.97796 0.91051,-1.75 0.63829,-0.77203 1.4662,-3.03966 1.83981,-5.03917 0.75497,-4.04046 -0.45311,-5.54995 -3.20793,-4.00827 -1.22958,0.6881 -2.78848,0.42115 -5.44007,-0.93159 -4.53985,-2.31606 -5.17475,-3.28082 -5.61488,-8.53206 -0.30173,-3.60011 0.0519,-4.45832 2.78519,-6.75819 2.43868,-2.05201 4.20114,-2.63441 7.97231,-2.63441 6.50515,0 7.80189,0.61197 7.2636,3.42789 -0.40363,2.11144 -0.73825,2.23863 -3.60176,1.36899 -4.48699,-1.36268 -8.65678,0.38068 -8.65678,3.61935 0,1.35616 0.43035,2.73171 0.95633,3.05678 0.52598,0.32507 0.70283,1.25163 0.39301,2.05901 -0.30983,0.80739 -0.0652,1.46798 0.54367,1.46798 0.60885,0 1.10699,-0.46156 1.10699,-1.02568 0,-1.27859 5.71301,1.54002 8.75,4.31697 3.40503,3.11347 3.09418,9.01838 -0.67308,12.78563 -2.56715,2.56715 -3.63259,2.92122 -8.75,2.90777 -3.2048,-0.008 -6.29851,-0.34593 -6.8749,-0.75 z"
         style="fill:#4b5d75;fill-opacity:1;stroke:none" />
      <path
         id="path3044"
         d="m 253.14285,507.86217 0,-22.5 7.25,0.0239 c 14.25407,0.0469 19.90606,3.15072 20.11306,11.0452 0.0683,2.60485 -0.37345,4.43441 -1.13174,4.68717 -0.68408,0.22802 -1.02659,0.76602 -0.76113,1.19553 0.26545,0.42952 -0.387,1.56797 -1.44991,2.52989 -1.73424,1.56946 -2.08948,1.59201 -3.46177,0.21972 -1.329,-1.32901 -1.34638,-1.88164 -0.13272,-4.22097 1.80445,-3.47809 0.41365,-7.77689 -3.02262,-9.34256 -1.3735,-0.62581 -4.5011,-1.13784 -6.95022,-1.13784 l -4.45295,0 0,7 c 0,5.66667 0.38095,7.38095 2,9 1.1,1.1 2.00689,1.6625 2.01531,1.25 0.008,-0.4125 0.45153,-0.075 0.98469,0.75 0.78387,1.21296 0.97231,1.06944 0.98469,-0.75 0.008,-1.2375 0.45119,-2.25 0.98392,-2.25 0.53274,0 0.7096,0.675 0.39302,1.5 -0.68997,1.79803 0.76173,1.97664 2.43837,0.3 0.93333,-0.93333 1.2,-0.93333 1.2,0 0,0.66 1.09047,1.2 2.42327,1.2 3.57116,0 8.39587,4.51902 9.15714,8.57695 0.74287,3.95982 -1.14448,9.52756 -2.98963,8.81951 -0.67225,-0.25797 -2.54269,0.21952 -4.15653,1.06109 -1.61384,0.84157 -3.75133,1.5329 -4.74999,1.53629 -0.99866,0.003 -2.68616,0.47199 -3.75,1.04134 -1.33333,0.71358 -1.93426,0.71358 -1.93426,0 0,-0.56935 0.45,-1.03518 1,-1.03518 0.55,0 1,-0.675 1,-1.5 0,-0.93333 0.94444,-1.5 2.5,-1.5 3.51686,0 6.50312,-3.33869 6.48469,-7.25 -0.0265,-5.63334 -3.0087,-7.75 -10.91895,-7.75 l -5.06574,0 0,7.09362 c 0,6.25262 -0.23712,7.15563 -2,7.61663 -3.05478,0.79884 -2.11487,3.65492 1.5,4.55807 1.16879,0.29201 0.44148,0.54789 -1.75,0.61568 l -3.75,0.116 0,-22.5 z"
         style="fill:#4b5d75;fill-opacity:1;stroke:none" />
      <path
         id="path2908"
         d="m 312.3233,511.11217 c 0.3773,-2.65659 -4.79498,-8.36417 -8.39954,-9.26885 -1.29744,-0.32564 -3.65407,-0.0997 -5.23697,0.50215 -2.92602,1.11247 -4.49046,0.20853 -4.52863,-2.61667 -0.0358,-2.65241 8.12029,-3.06807 14.21445,-0.7244 5.98221,2.3006 7.9583,4.50768 8.75885,9.78269 0.68971,4.54469 0.67498,4.57508 -2.2167,4.57508 -2.44684,0 -2.86006,-0.35877 -2.59146,-2.25 z"
         style="fill:#4b5d75;fill-opacity:1;stroke:none" />
    </g>
  </g>
</svg>
