<?xml version="1.0" encoding="UTF-8" standalone="no"?>
<!-- Generator: Adobe Illustrator 13.0.1, SVG Export Plug-In . SVG Version: 6.00 Build 14948)  -->

<svg
   xmlns:dc="http://purl.org/dc/elements/1.1/"
   xmlns:cc="http://creativecommons.org/ns#"
   xmlns:rdf="http://www.w3.org/1999/02/22-rdf-syntax-ns#"
   xmlns:svg="http://www.w3.org/2000/svg"
   xmlns="http://www.w3.org/2000/svg"
   xmlns:sodipodi="http://sodipodi.sourceforge.net/DTD/sodipodi-0.dtd"
   xmlns:inkscape="http://www.inkscape.org/namespaces/inkscape"
   version="1.1"
   id="Layer_1"
   x="0px"
   y="0px"
   width="167.19278"
   height="140"
   viewBox="0 0 167.19278 140"
   enable-background="new 0 0 367.469 307.711"
   xml:space="preserve"
   inkscape:version="0.46+devel"
   sodipodi:docname="title_logo.svg"
   inkscape:export-filename="/home/jfearn/Build/src/fedora/publican/trunk/publican-jboss-community/en-US/images/title_logo.png"
   inkscape:export-xdpi="73.470001"
   inkscape:export-ydpi="73.470001"><metadata
   id="metadata25"><rdf:RDF><cc:Work
       rdf:about=""><dc:format>image/svg+xml</dc:format><dc:type
         rdf:resource="http://purl.org/dc/dcmitype/StillImage" /></cc:Work></rdf:RDF></metadata><defs
   id="defs23"><inkscape:perspective
     sodipodi:type="inkscape:persp3d"
     inkscape:vp_x="0 : 153.8555 : 1"
     inkscape:vp_y="0 : 1000 : 0"
     inkscape:vp_z="367.46899 : 153.8555 : 1"
     inkscape:persp3d-origin="183.7345 : 102.57033 : 1"
     id="perspective27" /></defs><sodipodi:namedview
   pagecolor="#ffffff"
   bordercolor="#666666"
   borderopacity="1"
   objecttolerance="10"
   gridtolerance="10"
   guidetolerance="10"
   inkscape:pageopacity="0"
   inkscape:pageshadow="2"
   inkscape:window-width="952"
   inkscape:window-height="1085"
   id="namedview21"
   showgrid="false"
   inkscape:zoom="0.76695341"
   inkscape:cx="183.7345"
   inkscape:cy="151.24278"
   inkscape:window-x="2269"
   inkscape:window-y="0"
   inkscape:window-maximized="0"
   inkscape:current-layer="Layer_1" />
<g
   id="g3"
   transform="matrix(0.45497976,0,0,0.45497976,0,-1.7208383e-6)">
	<g
   id="g5">
		<path
   d="m 0,131.863 c 1.309,0.434 3.781,0.871 5.531,0.871 9.32,0 10.043,-6.551 10.043,-14.266 V 34.93 h 9.164 v 84.707 c 0,11.934 -3.344,20.953 -16.734,20.953 -3.926,0 -6.551,-0.434 -8.004,-0.723 v -8.004 z M 24.738,15.137 H 15.574 V 2.91 h 9.164 v 12.227 z"
   id="path7"
   style="fill:#233345" />
		<path
   d="m 47.008,0 h 9.168 v 47.445 h 0.293 c 1.305,-3.637 8.582,-14.262 23.137,-14.262 21.828,0 30.562,16.301 30.562,38.859 0,21.98 -10.184,38.863 -30.562,38.863 -10.621,0 -18.195,-4.082 -23.137,-13.539 h -0.293 v 11.785 H 47.008 V 0 z m 31.144,41.043 c -16.742,0 -21.977,17.465 -21.977,31 0,13.535 5.68,31 21.977,31 17.465,0 21.977,-16.59 21.977,-31 0,-14.406 -4.512,-31 -21.977,-31 z"
   id="path9"
   style="fill:#233345" />
		<path
   d="m 157.766,33.184 c 24.016,0 34.633,18.633 34.633,38.859 0,20.23 -10.617,38.863 -34.633,38.863 -24.012,0 -34.641,-18.633 -34.641,-38.863 0,-20.227 10.629,-38.859 34.641,-38.859 z m 0,69.859 c 16.012,0 24.598,-13.828 24.598,-31 0,-17.172 -8.586,-31 -24.598,-31 -16.012,0 -24.598,13.828 -24.598,31 0,17.172 8.586,31 24.598,31 z"
   id="path11"
   style="fill:#233345" />
		<path
   d="m 204.047,98.383 c 5.531,2.766 12.223,4.66 19.355,4.66 8.734,0 16.449,-4.805 16.449,-13.242 0,-17.613 -35.66,-14.848 -35.66,-36.387 0,-14.703 11.934,-20.23 24.164,-20.23 3.926,0 11.789,0.871 18.336,3.348 l -0.875,8.004 c -4.801,-2.184 -11.352,-3.492 -16.449,-3.492 -9.457,0 -16.004,2.91 -16.004,12.371 0,13.828 36.535,12.078 36.535,36.387 0,15.715 -14.711,21.105 -25.91,21.105 -7.129,0 -14.262,-0.875 -20.816,-3.496 l 0.875,-9.028 z"
   id="path13"
   style="fill:#233345" />
		<path
   d="m 260.661,98.383 c 5.535,2.766 12.227,4.66 19.352,4.66 8.734,0 16.449,-4.805 16.449,-13.242 0,-17.613 -35.652,-14.848 -35.652,-36.387 0,-14.703 11.93,-20.23 24.156,-20.23 3.926,0 11.785,0.871 18.332,3.348 l -0.867,8.004 c -4.805,-2.184 -11.359,-3.492 -16.453,-3.492 -9.449,0 -16,2.91 -16,12.371 0,13.828 36.527,12.078 36.527,36.387 0,15.715 -14.703,21.105 -25.906,21.105 -7.129,0 -14.262,-0.875 -20.805,-3.496 l 0.867,-9.028 z"
   id="path15"
   style="fill:#233345" />
	</g>
	<g
   id="g17">
		<path
   d="m 348.551,149.055 c -0.664,0.703 0.316,1.414 0.703,2.117 0.676,-0.703 -0.308,-1.414 -0.703,-2.117 z M 159.863,225.25 c 0.859,-1.184 -1.863,-2.363 -0.703,-3.543 -3.078,-1.469 -1.344,2.703 0.703,3.543 z m 207.606,-98.91 h -31.488 v 17.223 h -0.48 c -9.117,-14.516 -22.152,-20.176 -38.887,-20.176 -9.016,0 -16.73,2.047 -23.32,5.496 1.406,0.07 3.184,-0.309 3.457,1.141 -2.973,0.117 2.98,4.586 0,4.691 -0.199,-1.312 -1.066,-1.828 -1.934,-2.34 1.488,2.301 -0.738,5.863 0.969,7.031 0.055,-0.715 0.145,-1.387 0.965,-1.168 -0.301,5.59 -5.496,0.68 -5.777,-1.176 -1.094,-0.121 -1.504,1.703 -1.934,0 1.359,-0.309 1.102,-2.574 1.934,-3.52 4.418,1.898 1.93,-0.195 1.93,-4.457 -4.855,2.598 -9.102,5.938 -12.707,9.906 V 124.37 c -3.449,-0.984 -6.891,-0.984 -10.09,-0.984 -4.797,0 -9.215,1.207 -13.195,3.176 2.059,1.066 4.109,-1.207 6.168,2.043 -0.648,0.941 -0.312,1.879 0,2.82 -3.883,1.238 -4.066,5.371 -7.07,5.656 2.418,-4.16 -3.133,-5.504 0.516,-10.34 -2.438,1.246 -4.711,2.789 -6.789,4.523 2.766,1.07 2.184,-1.922 3.656,-2.41 0.145,2.91 -0.504,4.863 -1.926,5.859 -0.09,-1.773 -2.25,-1.02 -1.961,-3.254 -4.074,3.445 -7.383,7.641 -9.789,11.844 0.246,0.211 0.492,0.473 0.742,0.844 -2.336,0.738 -2,4.027 -3.012,3.832 -0.152,0.375 -0.328,0.746 -0.465,1.117 0.207,0 0.414,0 0,0.004 -0.801,2.133 -1.348,4.18 -1.574,6.031 h -0.492 v -7.969 c -0.969,-0.512 -1.719,-1.707 -0.812,-2.305 0.391,0.07 0.648,0.113 0.812,0.129 v -0.156 c -0.629,-0.383 -2.492,-1.387 -0.812,-2.801 0.336,-0.074 0.602,-0.074 0.812,-0.035 V 126.34 h -3 c 0.465,1.16 0.746,2.555 0.281,4.863 h -2.898 c 0.074,-2.047 -0.211,-3.652 -0.965,-4.695 0.875,0.09 1.293,0.02 1.43,-0.168 h -9.469 c -0.957,1.188 -2.289,1.957 -4.379,2.09 -0.691,-0.695 -1.395,-1.395 -2.09,-2.09 h -8.195 v 37.68 c 1.508,-0.801 3.02,-1.512 3.215,-3.082 4.539,-0.133 10.864,2.555 9.899,8.477 -1.997,-2.422 -0.254,3.832 -2.836,1.41 -0.867,-2.199 -3.602,-5.465 -7.062,-4.238 3.051,-0.062 1.184,2.996 3.535,4.945 1.285,-0.734 2.043,-0.336 2.121,-2.113 1.992,1.855 0.238,2.598 2.829,2.824 -2.075,2.277 -5.668,0.695 -5.665,4.238 -1.172,-1.043 -2.352,-2.543 -3.527,-0.711 -3.461,-2.82 -4.645,-5.645 -5.656,-8.477 0.215,-1.16 0.969,-1.898 1.855,-2.5 -0.438,-1.238 -0.922,-2.445 -1.426,-3.633 -0.094,0.863 -0.352,1.73 -1.129,2.602 -3.605,0.551 -6.016,-7.062 -2.121,-6.359 -0.445,0.84 0.258,5.004 2.121,3.539 -1.387,-1.215 -0.812,-2.422 -0.641,-3.633 -10.891,-21.598 -32.781,-33.922 -59.004,-33.922 -14.605,0 -27.883,3.879 -38.66,11.082 0.496,0.148 1,0.031 1.5,0.344 -0.711,0.707 -1.414,1.41 -2.121,2.117 -0.402,-0.398 -0.805,-0.801 -1.207,-1.203 -15.772,11.402 -25.717,30.273 -25.717,54.847 0,10.062 1.875,19.566 5.457,28.047 H 46.793 c -0.246,2.078 -0.605,4.031 -1.578,5.238 -0.176,-1.719 -5.188,1.57 -4.82,-3.523 2.68,0.543 3.586,0.301 4.957,-1.715 H 30.098 v 34.457 H 64.551 V 225.07 c 10.52,18.645 30.348,30.961 57.586,30.961 8.195,0 15.695,-1.121 22.496,-3.172 -1.488,-4.324 1.863,-8.957 -2.438,-11.363 2.43,1.547 1.734,-0.16 4.941,-0.703 -4.629,-6.109 2.934,-9.113 -1.406,-14.133 -2.184,3.004 -2.512,3.191 -5.66,7.066 -3.375,-0.379 -7.059,-2.012 -9.027,-4.422 -2.68,0.711 -5.621,1.137 -8.906,1.137 -4.582,0 -8.531,-0.785 -11.949,-2.148 -0.043,0.082 -0.074,0.145 -0.125,0.262 -2.012,4.059 -0.535,1.07 0.121,-0.262 -0.719,-0.293 -1.383,-0.641 -2.059,-0.984 -0.891,-0.031 -1.754,-0.102 -1.914,-1.031 -10.996,-6.824 -15.047,-21.062 -15.711,-35.23 -0.098,-0.125 -0.199,-0.254 -0.289,-0.391 l -6.41,-6.406 c 3.082,-2.398 4.305,3.324 6.41,6.406 l 0.281,0.281 c -0.066,-1.438 -0.105,-2.879 -0.105,-4.305 0,-6.859 1.379,-13.68 4.121,-19.594 -0.137,-0.129 -0.414,-0.109 -1.012,0.215 0.465,2.129 -2.227,-1.012 -2.82,2.828 -1.648,-2.707 -3.301,0.586 -4.949,-2.121 -3.504,-8.328 4.695,-9.344 1.418,-18.367 0.324,-0.211 0.59,-0.418 0.883,-0.625 -0.371,-0.48 -0.68,-0.965 -0.23,-1.441 0.195,0.352 0.543,0.707 0.754,1.062 1.547,-1.148 2.762,-2.238 3.898,-3.246 -0.918,-1.035 -1.453,-2.848 0.297,-1.348 0.176,0.191 0.41,0.367 0.656,0.531 1.262,-1.051 2.582,-1.98 4.398,-2.723 -0.844,-0.043 -1.363,-0.402 -0.816,-2.055 1.012,2.496 5.234,-0.371 4.32,2.562 2.348,1.684 4.695,2.105 7.035,4.449 -0.398,1.254 -0.164,2.914 0.469,4.645 0.387,-0.074 0.773,-0.129 1.16,-0.008 2.727,-1.168 5.738,-1.949 9.055,-2.246 -1.215,-1.25 -1.934,-2.504 -0.84,-3.754 0.941,0.727 1.887,2.133 2.824,1.418 -0.387,-0.707 -1.375,-1.418 -0.703,-2.125 2.047,-0.008 3.008,2.32 1.508,4.305 0.113,0 0.211,-0.016 0.324,-0.016 16.027,0 25.836,9.98 29.863,23.055 3.004,-1.176 6.762,-1.543 11.402,-1.199 1.684,1.828 0.859,3.504 3.539,3.527 0.219,6.73 -1.164,11.262 -4.023,13.977 0.043,0.109 0.086,0.211 0.121,0.328 -0.5,0.137 -0.82,0.289 -1.074,0.449 -0.113,0.082 -0.215,0.18 -0.336,0.262 -0.621,0.695 -0.168,1.762 -1.469,3.984 1.301,-0.375 1.84,-1.668 3.852,-1.172 0.406,2.957 -3.016,7.133 -3.852,4.691 2.285,-2.352 -1.75,-0.305 -1.926,1.176 -0.312,-2.719 0.152,-4.504 0.953,-5.867 -0.336,-0.531 -0.664,-0.934 -0.98,-1.281 -1.277,0.363 -2.691,0.559 -4.234,0.613 -0.25,5.012 -0.906,10.008 -2.16,14.66 0.191,0.016 0.395,0.031 0.629,0.086 0.176,1.758 -0.34,4.332 0.969,4.688 1.051,-0.457 2.32,-1.406 0.973,0 -0.957,1.129 -3.066,1.207 -4.305,0.355 -0.879,2.223 -1.934,4.32 -3.168,6.262 0.668,0.281 1.062,0.895 -0.242,1.594 -0.203,-0.164 -0.367,-0.305 -0.512,-0.438 -0.773,1.09 -1.625,2.105 -2.523,3.074 2.109,1.039 4.223,2.23 6.336,3.434 3.207,-2.227 -5.07,-3.973 -1.414,-4.227 0.352,0.289 0.984,0.348 1.738,0.262 -0.273,-0.062 -0.52,-0.305 -0.73,-0.934 1.129,-0.168 2.18,-2.086 2.879,0 -0.551,0.086 -1.094,0.59 -1.574,0.824 3.168,-0.637 7.652,-3.418 4.047,-3.688 6.848,-6.648 14.496,6.578 11.305,9.883 0.453,-2.258 -3.125,-3.598 -3.531,-3.531 -0.352,3.891 -1.262,5.547 -6.359,6.359 7.684,5.91 6.07,6.84 9.355,11.695 3.363,-2.715 6.395,-5.754 9.051,-9.098 -1.191,-0.316 -2.258,-1.895 -1.586,-4.465 1.895,-0.355 1.898,1.578 2.879,2.344 0.055,-0.723 0.152,-1.395 0.973,-1.176 0.008,0.09 0.004,0.164 0.008,0.246 3.777,-5.441 6.672,-11.551 8.621,-18.141 v 41.484 h 32.977 v -46.512 c 0,-6.492 0.004,-14.93 1.223,-23.098 -0.098,-0.848 -0.113,-1.809 -0.895,-1.836 -0.965,-0.004 -1.148,0.949 -1.934,1.176 -0.656,-3.156 2,-2.27 2.898,-3.52 -0.215,1.277 -0.055,1.879 0.266,2.141 1.191,-6.816 3.336,-13.297 7.125,-18.156 -0.863,-0.418 -1.73,-1.32 -2.59,-0.746 0.391,0.707 1.379,1.418 0.703,2.113 -0.938,-1.004 -1.887,-1.223 -2.824,-1.402 1.688,-1.66 0.855,-3.309 3.527,-4.961 0.992,0.992 1.977,1.98 2.969,2.965 3.758,-3.801 8.855,-6.211 15.797,-6.332 0.027,-0.09 0.074,-0.137 0.074,-0.25 -1.648,0.062 -2.469,-0.91 -2.879,-2.348 1.262,-0.016 0.875,-2.055 1.922,-2.352 -0.688,3.121 0.805,3.574 1.578,4.93 1.445,0.004 2.898,0.062 4.305,0.184 -3.902,8.781 -6.055,18.535 -6.684,28.098 0.172,-0.191 0.414,-0.34 0.801,-0.363 -0.918,2.184 2.883,3.914 0,4.695 -0.129,-0.34 -0.641,-1.332 -0.934,-2.316 -0.059,1.309 -0.094,2.609 -0.094,3.906 0,27.23 9.195,51.918 32.129,60.637 0.055,-2.035 -2.387,-3.344 -0.273,-3.582 0.477,2.09 1.027,-0.508 1.934,-1.176 0.418,2.621 1.699,4.184 3.855,4.695 0.168,0.758 0.18,1.324 0.133,1.809 2.68,0.656 5.527,1.117 8.535,1.363 0.41,-5.598 3.691,-5.488 3.855,-11.391 3.68,4.043 6.281,-8.191 10.598,-3.512 -3.648,6.047 1.785,7.137 0,12.902 -5.137,0.398 -3.129,-7.922 -8.668,-7.035 -0.645,7.359 3.133,3.051 3.777,7.441 0.836,0.738 2.281,2.02 0.93,0.828 -0.418,-0.367 -0.699,-0.617 -0.93,-0.82 0.031,0.238 0.07,0.477 0.082,0.754 -3.492,-3.512 -5.285,-0.754 -4.383,1.07 h 0.109 c 6.613,0 12.738,-1.211 18.18,-3.254 -0.242,-0.352 -0.418,-0.766 -0.426,-1.328 1.277,-0.012 0.891,-2.059 1.934,-2.348 0.156,1.477 1.469,1.559 2.516,1.957 7.785,-3.75 13.781,-9.254 17.168,-15.203 h 0.5 c 0,21.898 -1.734,49.215 -38.148,49.215 -5.742,0 -13.391,-1.777 -20.785,-4.266 0.254,0.32 0.184,0.766 -0.73,1.258 -1.484,-1.156 -1.293,-1.656 -0.719,-1.742 -5.383,-1.895 -10.562,-4.117 -14.676,-6.324 l -2.711,28.059 c 15.754,6.645 30.762,8.609 43.809,8.609 32.02,0 49.742,-11.805 58.77,-28.719 h -1.633 v -2.348 h 1.926 v 1.777 c 5.734,-11.039 7.852,-24.188 7.852,-37.645 v -27.02 c -1.398,-0.461 -2.547,-1.227 -3.031,-2.801 1.059,0.328 2.07,0.719 3.031,1.156 V 126.34 z M 44.535,233.246 c -3.195,-1.707 3.758,-2.922 0,0 l 0,0 z m 0.953,18.762 c -0.02,-1.547 -1.68,-1.07 -1.914,-2.34 3.692,-2.188 2.653,0.891 1.914,2.34 z m 3.867,-3.512 c -0.977,-0.012 -1.164,0.949 -1.941,1.172 0.051,-1.613 -0.457,-2.578 -0.965,-3.52 h 2.906 v 2.348 z m -1.941,-12.902 c -0.129,3.746 0.953,8.969 -2.879,8.211 -0.094,-5.188 1.387,-8.473 3.844,-10.559 -0.289,2.305 1.305,2.324 1.93,3.52 -1.329,0.05 -2.118,-0.551 -2.895,-1.172 z m 89.625,11.558 c -0.398,-0.129 -0.508,-0.156 0.137,-0.086 0.16,-0.098 0.305,-0.215 0.484,-0.289 -0.008,0.109 -0.008,0.23 -0.016,0.344 0.105,0.012 0.188,0.023 0.309,0.035 0.641,-0.492 4.48,0.191 2.82,1.41 -0.469,-0.383 -0.938,-0.73 -1.41,0 1.48,2.027 -1.398,1.02 -1.879,0.617 -0.18,0.863 -0.609,1.414 -1.746,1.113 -0.043,-1.632 0.481,-2.569 1.301,-3.144 z m -2.621,4.95 c -0.035,0.395 0.059,0.688 0.219,0.906 0.652,-0.309 2.488,-4.457 3.316,-1.613 0.508,1.766 -2.469,2.805 -3.316,1.613 -0.184,0.09 -0.278,-0.117 -0.219,-0.906 z m -12.719,-15.547 c 1.48,-0.156 6.363,-6.129 9.891,-4.242 -2.777,2.125 3.441,4.238 2.125,6.363 -4.879,-0.43 -0.887,5.887 -7.777,6.352 -2.864,-2.817 -5.243,-5.641 -4.239,-8.473 z m -42.48,-51.399 c 0.914,-2.188 -2.898,-3.918 0,-4.695 0.203,1.418 1.07,0.715 1.926,0 0.375,2.02 -1.438,3.008 0,3.52 -0.004,-0.652 0.781,-1.328 0.961,0 -1.231,0.066 -1.344,1.507 -2.887,1.175 z m 0.804,-35.508 c -4.078,2.176 4.082,3.41 0,2.828 -0.938,0.703 -1.887,-0.352 -2.824,-1.414 0.938,-0.718 1.887,-2.132 2.824,-1.414 z m -7.621,11.02 c 1.27,1.02 6.023,1.266 4.949,3.531 -5.379,-2.82 4.941,3.789 0.004,2.824 1.516,-1.125 -6.472,-3.488 -4.953,-6.355 z m 3.536,6.355 c -5.153,1.368 -3.731,-4.691 0,0 l 0,0 z m 0.546,0.289 c 0.645,1.418 4.477,2.824 2.832,4.238 -1.184,-0.488 -2.355,-0.844 -3.535,-0.703 0.641,1.988 4.488,0.246 2.828,2.828 -2.711,0.062 -2.809,-2.371 -4.242,-4.238 0.703,-0.707 1.414,-1.414 2.117,-2.125 z m -4.234,0 c 2.391,1.418 -0.098,2.828 -0.008,4.238 -0.719,-0.938 -2.121,-1.879 -1.402,-2.82 1,0.708 1.215,-0.351 1.41,-1.418 z m -4.602,-7.968 c 3.102,3.746 -2.031,3.484 -1.922,7.047 -1.801,-0.168 -3.223,-0.773 -3.863,-2.352 3.453,-2.516 5.641,-0.992 5.785,-4.695 z m -3.882,19.277 c -0.391,-0.465 -0.723,-0.941 0,-1.41 1.891,1.645 1.129,3.301 0.711,4.949 -2.911,0.02 -4.602,-5.301 -0.711,-3.539 z m 1.961,32.336 c -0.18,-1.715 -5.188,1.574 -4.82,-3.52 3.66,0.738 4.008,0.047 6.742,-4.684 -0.372,3.056 -0.489,6.431 -1.922,8.204 z m 4.812,21.113 c 0.016,-1.754 -3.582,-4.797 -0.957,-5.863 -1.047,2.996 4.145,4.105 0.957,5.863 z m 2.891,-49.261 c -3.027,1.344 -2.332,-1.844 -3.848,-2.348 -0.055,0.715 -0.145,1.395 -0.957,1.172 0.23,-0.559 0.414,-1.172 0.582,-1.801 -0.793,-0.473 -1.441,-1.09 -1.477,-1.781 -1.594,-0.316 -1.316,-1.625 -2.969,0.066 0.922,-2.191 -2.883,-3.922 0,-4.699 0.109,1.441 0.289,2.781 1.922,2.352 1.52,-0.109 0.758,-2.988 2.898,-2.352 0.02,0.465 0.012,0.902 -0.012,1.312 2.516,-1.121 0.395,-1.422 0.559,-3.883 0.637,2.574 4.48,0.836 2.82,2.828 -1.121,-0.645 -0.887,0.141 -0.742,1.027 0.098,-0.027 0.164,-0.09 0.266,-0.102 -0.078,0.23 -0.137,0.43 -0.199,0.641 0.008,0.195 0.008,0.383 -0.031,0.547 -0.035,-0.02 -0.074,-0.047 -0.113,-0.074 -1.441,5.004 0.574,3.383 2.27,3.574 -2.001,0.661 -2.04,1.829 -0.969,3.521 z m 2.89,49.261 c 1.523,-0.109 0.758,-2.988 2.898,-2.34 0.844,2.415 -3.183,4.442 -2.898,2.34 z m 4.825,4.696 c -3.758,-2.922 3.195,-1.707 0,0 l 0,0 z m 0,-10.559 c 0.523,-1.707 -1.133,-6.062 0.961,-5.867 -0.528,1.711 1.124,6.062 -0.961,5.867 z m 1.925,-10.559 c -2.031,1.562 -5.34,3.793 -5.789,-1.168 2.73,-0.973 2.504,1.652 4.824,1.168 0.613,-2.559 -2.723,-3.734 0.965,-3.516 v 3.516 z M 85,210.957 c 1.375,-1.789 5.023,-1.141 4.82,2.348 -1.715,-0.653 -4,-0.598 -4.82,-2.348 z m 3.848,17.719 v 5.867 c -5.055,1.488 -2.793,-6.598 0,-5.867 z m 0.957,7.043 c 1.121,7.511 -2.938,2.574 0,0 l 0,0 z m 0.972,-4.696 c 0.148,-1.383 -0.164,-3.324 0.965,-3.516 -0.164,1.38 0.168,3.329 -0.965,3.516 z m 14.45,22.161 c -3.75,-2.914 3.203,-1.711 0,0 l 0,0 z m -1.926,-25.801 c -3.75,-2.918 3.199,-1.711 0,0 l 0,0 z m -6.559,4.992 c 1.391,-1.312 2.355,-1.266 2.898,1.172 -1.32,-0.047 -2.125,0.562 -2.898,1.176 v -2.348 z m -1.152,5.691 c 0.09,-1.324 -1.395,-1.824 0,-2.348 0.98,0.012 1.226,2.055 0,2.348 z m -0.953,-11.734 c -0.09,2.043 0.207,3.648 0.953,4.691 -3.281,0.887 -3.762,-4.476 -0.953,-4.691 z m -1.938,17.594 c -0.148,1.387 0.168,3.328 -0.957,3.52 0.145,-1.38 -0.168,-3.333 0.957,-3.52 z m -1.922,-25.805 c -0.801,3.316 1.355,3.043 0.965,5.871 -2.918,1.805 -2.535,-6.07 -0.965,-5.871 z M 85,189.848 c 4.395,0.117 2.457,7.945 4.82,10.555 -3.629,-2.445 -5.309,1.328 -6.75,4.691 -2.207,-3.965 1.391,-5.992 -0.965,-10.555 2.583,-2.184 4.809,-0.574 2.895,-4.691 z m 1.383,-32.434 c -0.641,-0.23 -4.473,-0.953 -2.82,-2.816 0.64,0.222 4.476,0.957 2.82,2.816 z m 0.711,-13.418 c 1.004,0.703 1.219,-0.355 1.41,-1.422 4.066,1.856 -3.543,5.098 -1.41,1.422 z m 6.57,-13.973 c 1.191,2.465 2.668,4.574 3.863,7.039 -2.461,-0.218 -4.816,-6.542 -3.863,-7.039 z m 10.606,12.907 c -3.754,-2.914 3.187,-1.707 0,0 l 0,0 z m 42.726,-10.168 c 0.098,-1.316 -1.402,-1.824 0,-2.348 0.969,0.016 1.215,2.059 0,2.348 z m 5.445,30.105 c 0.102,-1.316 -1.398,-1.828 0,-2.348 0.973,0.012 1.219,2.063 0,2.348 z m 6.723,-17.472 c -0.387,-0.707 -1.375,-1.41 -0.703,-2.125 0.391,0.714 1.383,1.421 0.703,2.125 z m 2.121,13.429 c -0.719,-0.945 -2.125,-1.883 -1.41,-2.828 0.723,0.938 2.129,1.883 1.41,2.828 z m 0.008,-14.133 c -0.727,-0.945 -2.129,-1.883 -1.418,-2.832 0.941,0.926 1.883,-0.594 2.828,0 -0.871,0.95 -0.074,1.887 -1.41,2.832 z m -5.953,51.016 c 0.969,0.016 1.203,2.059 0,2.352 0.101,-1.313 -1.406,-1.832 0,-2.352 z m 0.965,19.941 h -2.895 v -2.344 c 1.234,-0.066 1.34,-1.5 2.895,-1.172 v 3.516 z m 9.922,1.825 c -4.524,-0.235 0.464,-4.758 0,0 l 0,0 z m 2.113,9.179 c 1.234,-1.648 -0.52,-3.289 0.703,-4.945 0.953,0.945 1.887,1.887 2.828,2.832 -1.176,0.938 -2.359,2.852 -3.531,2.113 z m -2.113,-13.422 c -1.656,-2.672 -3.301,-1.855 -4.957,-3.543 3.711,-5.496 2.16,-5.203 7.777,-9.176 2.824,2.359 3.141,4.711 4.246,7.07 -2.129,3.759 -3.547,3.431 -7.066,5.649 z m 47.465,-51.816 c 0.004,-0.922 0,0.594 0,0 l 0,0 z m 2.601,16.133 c -3.098,-0.852 -4.402,0.484 -3.961,3.949 1.051,-1.355 1.645,-3.266 3.711,-3.379 0.359,3.641 -3.328,8.355 -5.773,4.691 0.559,-0.074 0.977,-0.309 1.352,-0.602 -3.957,-0.559 -5.031,-6.848 -7.855,-2.316 -2.289,-4.848 3.285,-8.012 2.887,-10.551 0.02,1.547 1.691,1.062 1.926,2.34 -1.652,-0.062 -2.461,0.906 -2.891,2.352 1.168,0.242 0.594,1.297 0,2.34 4.395,-1.438 3.043,4.121 5.777,4.695 0.727,-3.609 -2.633,-2.25 -1.922,-5.871 1.387,0.629 2.352,-4.566 2.891,-1.164 -2.501,1.328 4.101,-0.996 3.858,3.516 z m -10.605,4.695 c 1.234,-0.074 1.336,-1.512 2.891,-1.176 -0.293,2.297 1.301,2.324 1.926,3.52 -1.324,-0.047 -2.109,0.547 -2.895,1.172 0.293,-2.313 -1.285,-2.324 -1.922,-3.516 z m 1.125,-23.125 c -0.16,-0.102 -0.277,-0.203 -0.398,-0.309 v 1.711 c -3.285,0.703 -3.242,-3.465 -1.16,-4.473 0.41,-2.145 3.242,-3.883 5.09,-1.879 -5.575,-0.046 -2.423,2.813 -3.532,4.95 z m 3.457,-15.015 c 0.711,4.453 -4.395,7.863 -5.785,5.859 1.141,-0.562 2.188,-1.25 2.891,-2.34 0.035,-1.613 -0.453,-2.574 -0.961,-3.52 h 3.855 z m -0.973,-9.387 c -1.375,0.281 -1.621,1.938 -2.883,2.348 0.039,-1.617 -0.461,-2.578 -0.969,-3.52 1.29,-1.523 2.899,-0.719 3.852,1.172 z m -3.851,14.074 c -3.246,3.566 -2.93,-4.332 0,0 l 0,0 z m 10.113,43.969 c -3.191,-1.711 3.758,-2.918 0,0 l 0,0 z m -13.973,-15.813 c 0.969,0.012 1.215,2.051 0,2.344 0.11,-1.32 -1.402,-1.832 0,-2.344 z m 8.938,8.004 c 6.973,3.238 3.488,11.121 -1.418,12.727 -3.828,-2.145 -6.34,-5.336 -4.941,-9.188 3.055,-0.805 2.664,5.961 6.359,4.945 -4.406,-3.797 1.199,-1.789 2.824,-2.828 -2.484,-2.902 -6.324,-4.598 -4.945,-0.707 -1.184,-1.285 -2.352,-2.035 -3.535,-2.113 1.886,-2.262 3.773,-0.582 5.656,-2.836 z m -3.879,-4.519 c -5.414,4.886 -2.754,-1.942 0,0 l 0,0 z m -7.828,25.644 c 3.016,0.355 -2.454,-3.391 0.965,-3.523 0.215,0.914 0.805,1.367 1.934,1.176 -0.156,1.379 0.164,3.332 -0.969,3.52 -0.062,-0.719 -0.152,-1.391 -0.965,-1.172 0,0.644 -0.785,1.327 -0.965,-10e-4 z m -5.04,44.606 c -0.477,-0.473 -0.938,-0.949 -1.418,-1.418 0.465,-0.469 0.941,-0.941 1.418,-1.406 0.469,0.465 0.934,0.93 1.41,1.406 -0.476,0.476 -0.941,0.945 -1.41,1.418 z m 12.751,-37.575 c -1.273,0.012 -0.887,2.062 -1.93,2.352 -1.242,-3.18 -2.348,-6.516 -1.926,-11.73 1.824,-0.262 2.133,1.324 3.855,1.168 -1.433,4.402 -2.214,4.312 0.001,8.21 z m 0,-10.554 h -2.891 c 0.555,-2.059 -1.168,-6.891 0.961,-7.035 -0.051,2.012 0.742,3.008 1.93,3.516 0,-0.645 0.773,-1.328 0.965,0 -1.118,0.191 -1.047,1.863 -0.965,3.519 z m 0.965,17.597 c -0.574,-3.742 1.809,-3.633 0,-5.867 3.5,-1.136 2.047,6.555 0,5.867 z m 9.992,-22.695 c -1.391,1.316 -2.352,1.266 -2.891,-1.172 1.332,0.043 2.113,-0.559 2.891,-1.176 v 2.348 z m -4.625,51.098 c 3.367,-1.309 -1,4.519 0,0 l 0,0 z m -2.223,-37.512 c -0.949,1.008 -1.887,1.219 -2.836,1.41 -0.469,-0.469 -0.938,-0.938 -1.402,-1.41 1.184,-0.512 1.613,-1.016 1.656,-1.523 -0.59,0.207 -1.145,0.344 -1.355,0.418 -0.938,-1.469 -0.102,-1.539 0.91,-1.695 -0.438,-0.715 -0.973,-1.43 -0.508,-2.141 0.664,0.719 1.336,1.258 2.004,1.621 0.18,-0.152 0.328,-0.344 0.414,-0.613 0.324,0.359 0.395,0.668 0.359,0.953 0.258,0.07 0.504,0.137 0.758,0.152 -0.715,0.711 -1.422,1.414 -2.129,2.121 0.707,0.711 1.418,0.277 2.129,0.707 z m 1.403,0 c -0.875,-0.875 -0.289,-3.812 -2.824,-4.238 4.988,-4.211 4.14,8.449 2.824,4.238 z m -4.676,-9.059 c 1.922,-0.008 1.227,-3.199 3.855,-2.344 1.117,0.449 1.117,5.695 0,2.344 -0.055,-0.715 -0.137,-1.387 -0.965,-1.176 -0.023,0.227 -0.035,0.461 -0.039,0.699 0.797,1.086 0.613,3.75 -0.672,3.426 -0.02,-0.242 -0.055,-0.465 -0.109,-0.664 -0.051,0.02 -0.082,0.047 -0.137,0.055 0,-0.164 -0.031,-0.301 -0.074,-0.426 -0.137,-0.141 -0.328,-0.223 -0.648,-0.141 v -0.617 c -0.5,-0.273 -1.075,-0.445 -1.211,-1.156 z m 5.785,-33.539 c 0.023,-2.656 -1.52,-3.418 -1.922,-5.574 1.816,0.266 2.121,-1.324 3.855,-1.172 -0.094,2.781 -0.516,5.172 -1.672,6.66 -0.023,3.086 2.406,3.195 4.801,3.324 -0.207,8.016 -6.921,-0.847 -5.062,-3.238 z m 10.605,-9.097 h -1.926 v -2.34 h 1.926 v 2.34 z m 1.84,-11.137 c 4.512,-1 -1.32,3.375 0,0 l 0,0 z m 2.121,-2.113 c 0.387,0.703 1.371,1.41 0.695,2.113 -0.382,-0.703 -1.367,-1.41 -0.695,-2.113 z m 6.176,-8.309 c -2.078,-0.832 -1.348,-5 0.707,-3.535 -0.844,1.18 -0.031,2.359 -0.707,3.535 z m 4.422,10.422 c -0.395,-0.703 -1.367,-1.414 -0.707,-2.117 0.387,0.703 1.367,1.414 0.707,2.117 z m 7.605,56.887 c 1.891,-0.344 1.91,1.582 2.879,2.344 0,-0.652 0.793,-1.32 0.973,0 -1.437,1.851 -4.309,1.312 -3.852,-2.344 z m 27.942,-63.34 c 0.012,3.816 2.02,6.316 -1.93,7.035 1.621,-3.184 -1.523,-5.492 1.93,-7.035 z m -2.352,80.641 c -0.387,-0.699 -1.371,-1.406 -0.699,-2.121 0.383,0.714 1.367,1.421 0.699,2.121 z m -2.113,0.703 c 4.512,-0.985 -1.312,3.379 0,0 l 0,0 z m -0.355,-70.786 c -4.957,-2.835 3.308,-3.031 0,0 l 0,0 z m -4.594,54.543 c 5.355,3.746 1.348,10.547 6.363,12.008 -2.078,0.441 -7.758,1.992 -5.66,5.656 1.492,-0.934 0.773,-2.852 2.117,-2.125 -2.781,3.207 3.434,2.516 2.129,4.945 -2.359,0.367 -4.719,-2.145 -7.07,-2.816 1.039,-2.793 2.129,-4.488 2.828,-5.656 -4.637,-0.789 -5.293,-3.836 -6.363,-7.773 1.882,-2.582 3.769,-1.223 5.656,-4.239 z m -5.653,14.137 c -0.391,-0.715 -1.375,-1.418 -0.711,-2.125 0.391,0.707 1.376,1.41 0.711,2.125 z m -1.32,-92.137 c 1.07,0.793 3.828,5.328 1.941,5.859 -0.066,-0.711 -0.148,-1.383 -0.977,-1.172 -2.297,-0.465 0.547,5.344 -2.891,3.52 -0.088,-3.632 0.439,-6.5 1.927,-8.207 z m -1.926,39.879 c -0.582,0.066 -1.137,0.172 -0.957,1.172 -0.742,-0.266 -1.902,-0.027 -1.93,-1.172 1.164,-0.25 0.59,-1.305 0,-2.344 h 1.93 c 0,1.176 0.778,1.391 0.957,2.344 z m -1.922,-32.843 c 0.145,2.91 0.176,5.695 -1.934,5.863 0.431,-2.215 -1.3,-7.066 1.934,-5.863 z m -0.964,7.039 c 0.383,2.012 -1.438,3.008 0,3.516 0.055,-0.711 0.145,-1.387 0.965,-1.172 0.664,3.152 -1.996,2.27 -2.891,3.516 -1.473,-1.677 -0.934,-6.11 1.926,-5.86 z m -1.926,23.461 c 3.789,0.328 -0.188,5.16 0,0 l 0,0 z m 3.816,29.16 c -3.57,-1.922 -2.027,1.656 -2.117,3.535 -4.187,-2.774 2.063,-7.738 2.117,-3.535 z m 1.418,24.023 c -0.293,0.289 -0.855,0.844 -1.578,1.395 0.094,0.141 0.172,0.316 0.199,0.543 -1.52,0.109 -0.762,2.988 -2.898,2.352 v -1.562 c -0.062,-0.188 -0.066,-0.414 0,-0.672 v -1.289 c 0.211,0.031 0.438,0.047 0.66,0.055 1.43,-1.982 4.438,-3.99 3.617,-0.822 z m 0.547,-16.82 c 1.41,2.57 7.441,-0.457 5.785,5.852 -2.761,0.007 -7.426,-2.18 -5.785,-5.852 z m 0.152,18.941 c 3.61,-1.976 -1.968,3.617 0,0 l 0,0 z m 3.27,11.117 c 0.062,-0.148 0.148,-0.316 0.258,-0.52 2.16,-1.184 1.031,0.34 0.203,0.977 0.043,0.258 0.055,0.605 -0.023,1.148 -0.02,0.074 -0.895,-0.078 -0.961,0 -4.047,4.298 -0.805,-1.366 0.523,-1.605 z m -1.016,4.313 c 1.445,-1.348 4.055,-4.113 4.809,0 -0.586,0.676 -4.574,2.746 -4.809,0 z m 10.118,4.324 c 0.543,0 1.098,0.953 0,1.172 -2.449,-3.121 2.488,-3.859 3.859,-5.855 0.707,3.992 -3.551,1.929 -3.859,4.683 z m 3.859,-11.719 c -3.195,-1.714 3.762,-2.921 0,0 l 0,0 z m 0.961,-52.785 c 0.148,-1.383 -0.168,-3.336 0.957,-3.527 -0.145,1.383 0.176,3.336 -0.957,3.527 z m -14.445,121.981 c -3.204,-1.703 3.75,-2.906 0,0 l 0,0 z m 29.863,3.519 c 2.195,-0.316 3.625,0.289 3.852,2.352 -2.196,0.324 -3.622,-0.289 -3.852,-2.352 z m 10.601,-1.175 c -3.757,-2.918 3.188,-1.704 0,0 l 0,0 z m 6.746,5.875 c 0.102,-1.316 -1.406,-1.828 0,-2.348 0.973,0.012 1.208,2.051 0,2.348 z m 4.809,-3.524 c -3.027,0.559 -2.543,-3.156 -4.809,-3.523 0.043,1.25 -0.461,2.98 -0.969,1.172 0,-1.172 0.781,-1.395 0.969,-2.344 2.817,0.09 5.43,0.429 4.809,4.695 z m 7.723,-16.426 c -0.293,-0.715 -2.398,-4.516 0,-4.684 -0.926,2.184 2.879,3.915 0,4.684 z m 9.633,7.039 c -0.539,-0.73 -3.918,-3.543 -0.965,-4.688 -0.055,2.016 0.738,3.004 1.922,3.516 -0.305,-1.586 -1.367,-2.238 -0.957,-4.691 3.492,-1.137 2.043,6.555 0,5.863 z M 312.11,145.121 c 0.66,0.938 -0.312,1.102 -0.703,0.707 -0.676,0.707 0.316,1.41 0.703,2.117 3.969,-3.203 -2.488,-2.512 0.715,-4.938 0.707,0.703 1.402,1.406 2.121,2.113 -0.23,1.414 -0.969,2.828 -2.836,4.238 -0.703,-0.938 -1.414,-1.105 -2.121,-0.703 -1.438,-1.835 0.269,-3.51 2.121,-3.534 z m -15.852,-13.879 c 4.512,-1.004 -1.316,3.363 0,0 l 0,0 z m -19.508,86.75 c 0.02,1.941 2.676,0.656 2.898,2.348 -1.094,0.25 -1.512,1.301 -1.926,2.348 0.527,0 1.078,0.957 0,1.176 -0.288,-1.387 -3.889,-4.43 -0.972,-5.872 z m 1.93,10.563 c 0.094,-1.32 -1.402,-1.828 0,-2.348 0.969,0.016 1.207,2.059 0,2.348 z m -1.211,12.316 c -0.148,-0.23 -0.289,-0.449 -0.445,-0.684 0.621,-0.246 1.234,0.547 1.852,0.887 -0.465,0.446 -0.942,0.149 -1.407,-0.203 z m 8.918,-0.59 c -0.012,-1.531 -2.672,-1.496 -2.891,0 5.832,2.406 -1.348,0.344 2.891,4.691 -3.605,-2.57 -5.609,-0.82 -7.707,-1.168 4.488,-0.902 2.992,-9.34 5.777,-9.387 -3.308,2.696 5.036,3.771 1.93,5.864 z m -3.265,-16.172 c 0.133,1.84 -0.219,0.348 -0.711,-0.707 3.922,-2.91 5.605,-0.734 0.711,0.707 z m 2.308,7.961 c -3.199,-1.707 3.754,-2.922 0,0 l 0,0 z m 33.727,10.551 c 0.09,-1.312 -1.406,-1.82 0,-2.34 0.965,0.016 1.203,2.059 0,2.34 z m 7.691,-5.855 c 0.164,-1.379 -0.156,-3.332 0.977,-3.52 -0.157,1.379 0.164,3.332 -0.977,3.52 z m 2.914,-9.832 c -3.617,1.968 1.973,-3.618 0,0 l 0,0 z m -24.289,0.554 c -0.785,0 -1.512,-0.094 -2.258,-0.16 0.668,0.711 1.328,1.422 0.801,2.133 -0.562,-0.73 -1.52,-1.461 -1.598,-2.188 -16.863,-2.145 -25.004,-21.906 -25.004,-38.18 0,-10.973 2.281,-22.328 8.289,-30.148 1.23,-4.684 -5.891,-5.285 -8.719,-9.156 -0.891,-6.48 2,-9.785 6.234,-13.211 -0.605,-0.602 -1.203,-1.203 -1.801,-1.801 1.422,-1.633 4.121,-7.238 4.238,-2.836 -1.621,-1.203 -3.281,2.719 -1.668,4.023 0.656,-0.516 1.332,-1.039 2.027,-1.578 0.59,-0.816 0.926,-1.629 1.055,-2.445 0.383,0.359 0.637,0.672 0.836,0.961 0.598,-0.473 1.199,-0.965 1.805,-1.484 1.605,1.18 0.449,2.355 0.707,3.527 2.703,-1.023 6.031,-0.711 7.07,0 5.734,3.977 3.691,9.98 0.207,15.477 2.754,-0.902 5.801,-1.441 9.25,-1.441 19.199,0 27.57,17.723 27.57,39.379 0.002,21.16 -8.369,39.128 -29.041,39.128 z m 56.504,-92.73 v 1.418 c 0.848,1.262 4.195,6.012 0.699,4.945 0.313,-2.121 -2.488,-4.246 -0.699,-6.363 z m 1.504,112.566 c -1.293,0.184 -5.32,-1.848 -2.898,-2.352 1.144,0.575 2.187,1.255 2.898,2.352 z m -5.789,-32.844 c 1.594,-0.023 0.539,-3.25 1.926,-3.523 2.484,1.484 -0.649,7.133 -1.926,3.523 z m 1.051,-42.062 c 0,0.035 0,0.047 0,0.098 -0.004,0.277 -0.004,0.082 -0.004,-0.098 -0.246,0.199 -0.52,0.363 -0.816,0.492 -0.055,-2.016 0.738,-3.008 1.934,-3.52 0.034,1.505 -0.403,2.438 -1.114,3.028 z m -4.903,-36.527 c 0.07,1.641 -0.211,4.488 -0.969,2.348 -1.265,-3.251 3.817,-4.032 0.969,-2.348 z m -3.172,-7.329 c 3.618,-1.98 -1.964,3.606 0,0 l 0,0 z m -8.898,63.75 c 1.422,0.086 2.836,-2.395 4.238,-0.008 -0.695,0.438 -1.402,-0.008 -2.113,0.703 1.418,2.449 2.824,0.02 4.234,1.414 2.43,-1.414 -3.824,-2.828 -1.402,-4.238 -0.582,-3.219 0.641,1.793 2.828,2.824 0.922,-2.734 0.75,-3.684 -2.125,-4.941 3.184,-2.039 3.5,2.316 4.234,4.238 -2.335,2.864 -8.191,6.223 -9.894,0.008 z m 2.441,20.993 c -0.098,-1.848 -2.465,-0.918 -1.941,-3.52 1.141,0.188 2.734,-0.195 2.895,1.172 -1.809,0.285 0.543,1.93 -0.954,2.348 z m 2.508,-27.36 c 1.48,1.648 -2.691,3.297 -3.527,4.949 -0.199,-0.945 -0.41,-1.887 -1.414,-2.828 3.199,-0.082 2.515,-1.265 4.941,-2.121 z m -0.285,-33.363 c -0.164,-0.281 -0.336,-0.488 -0.5,-0.656 -0.355,0.035 -0.715,-0.152 -0.93,-0.465 -0.941,-0.098 -1.875,0.637 -2.809,-0.285 1.676,-1.652 0.852,-3.305 3.531,-4.949 8.34,0.793 5.742,9.977 0,12.727 -2.711,-1.895 -2.812,-3.777 -4.25,-5.656 1.661,-2.896 3.306,0.362 4.958,-0.716 z m -49.074,-11.68 c -0.664,0.703 0.32,1.41 0.711,2.117 0.66,-0.707 -0.317,-1.414 -0.711,-2.117 z m -2.113,3.532 c -0.164,-0.285 -0.328,-0.492 -0.496,-0.66 -0.355,0.031 -0.727,-0.156 -0.938,-0.465 -0.938,-0.098 -1.867,0.633 -2.805,-0.285 1.676,-1.652 0.855,-3.305 3.527,-4.949 8.34,0.793 5.746,9.977 0,12.727 -2.707,-1.898 -2.809,-3.781 -4.242,-5.66 1.653,-2.892 3.301,0.366 4.954,-0.708 z m 44.293,117.293 c -2.329,6.027 -2.493,-4.043 0,0 l 0,0 z m 0,11.726 c 3.386,4.738 -3.098,2.77 0,0 l 0,0 z m 4.671,-3.848 h -1.941 v -2.344 h 1.941 v 2.344 z m 2.899,-21.078 c -3.809,-2.414 -3.09,-4.828 -3.758,-7.246 -2.41,-0.66 -4.824,0.047 -7.234,-3.746 1.941,-6.281 7.395,-9.109 12.719,-2.84 -0.082,0.543 -0.164,0.98 -0.258,1.367 0.387,-0.086 0.82,-0.168 1.367,-0.25 6.273,5.325 3.449,10.766 -2.836,12.715 z m 7.695,-41.089 c -4.965,-2.836 3.309,-3.028 0,0 l 0,0 z m 1.934,-46.442 c -0.43,1.594 -0.43,0.707 0,0 0.145,-0.547 0.344,-1.383 0.598,-2.613 0.184,-0.98 3.176,5.137 1.406,2.832 -0.977,-1.27 -1.641,-0.813 -2.004,-0.219 z m 1.922,114.473 c 0.141,-1.379 -0.172,-3.332 0.957,-3.52 -0.145,1.383 0.168,3.328 -0.957,3.52 z m 0,-17.586 c -0.133,-1.223 -0.066,-2.223 0.172,-3 -0.5,0.82 -2.402,2.344 -1.121,0.008 0.859,-0.469 1.188,-0.508 1.238,-0.352 0.309,-0.73 0.824,-1.223 1.633,-1.355 -0.219,2.082 0.972,5.875 -1.922,4.699 z m 6.746,-4.699 c -2.355,2.977 -2.062,-2.473 -5.789,-1.176 0.383,-2.012 -1.43,-3.004 0,-3.512 0.375,3.453 4.535,2.293 5.789,4.688 z m -1.012,-43.922 -2.129,-0.707 c -2.285,-3.067 4.406,-1.336 2.129,0.707 z m -226.754,38.09 c -0.02,0.602 -0.039,1.195 -0.129,1.707 0.148,-0.02 0.484,0.035 1.148,0.219 1.043,-0.93 -0.094,-1.571 -1.019,-1.926 z m -10.989,-4.438 c 4.414,-1.129 1.754,-3.48 4.938,-6.359 -1.066,-0.941 -2.117,-1.879 -1.41,-2.824 -2.844,-0.629 -0.297,4.652 -2.121,6.363 -1.652,0.445 -3.297,-0.262 -4.945,-2.121 -1.477,1.644 2.691,3.297 3.538,4.941 z m -0.004,-7.062 c 0.215,4.078 0.223,-4.079 0,0 l 0,0 z"
   id="path19"
   style="fill:#233345" />
	</g>
</g>
</svg>