<?xml version="1.0" encoding="UTF-8" standalone="no"?>
<!-- Created with Inkscape (http://www.inkscape.org/) -->
<svg
   xmlns:dc="http://purl.org/dc/elements/1.1/"
   xmlns:cc="http://creativecommons.org/ns#"
   xmlns:rdf="http://www.w3.org/1999/02/22-rdf-syntax-ns#"
   xmlns:svg="http://www.w3.org/2000/svg"
   xmlns="http://www.w3.org/2000/svg"
   xmlns:xlink="http://www.w3.org/1999/xlink"
   xmlns:sodipodi="http://sodipodi.sourceforge.net/DTD/sodipodi-0.dtd"
   xmlns:inkscape="http://www.inkscape.org/namespaces/inkscape"
   version="1.0"
   width="319"
   height="234.22221"
   id="svg2"
   sodipodi:version="0.32"
   inkscape:version="0.46+devel"
   sodipodi:docname="engops.svg"
   inkscape:output_extension="org.inkscape.output.svg.inkscape"
   inkscape:export-filename="/home/afitzsim/engops3.png"
   inkscape:export-xdpi="90"
   inkscape:export-ydpi="90">
  <sodipodi:namedview
     inkscape:window-height="819"
     inkscape:window-width="1310"
     inkscape:pageshadow="2"
     inkscape:pageopacity="0.0"
     guidetolerance="10.0"
     gridtolerance="10.0"
     objecttolerance="10.0"
     borderopacity="1.0"
     bordercolor="#666666"
     pagecolor="#ffffff"
     id="base"
     showgrid="false"
     inkscape:zoom="1.4142136"
     inkscape:cx="232.33749"
     inkscape:cy="168.88394"
     inkscape:window-x="64"
     inkscape:window-y="60"
     inkscape:current-layer="g11717"
     showguides="false"
     inkscape:guide-bbox="true">
    <sodipodi:guide
       orientation="0,1"
       position="190,-138"
       id="guide5367" />
    <sodipodi:guide
       id="guide10424"
       position="299.75,109"
       orientation="1,0" />
    <sodipodi:guide
       id="guide10427"
       position="34.25,122"
       orientation="1,0" />
  </sodipodi:namedview>
  <metadata
     id="metadata69">
    <rdf:RDF>
      <cc:Work
         rdf:about="">
        <dc:format>image/svg+xml</dc:format>
        <dc:type
           rdf:resource="http://purl.org/dc/dcmitype/StillImage" />
      </cc:Work>
    </rdf:RDF>
  </metadata>
  <defs
     id="defs4">
    <linearGradient
       id="linearGradient10448">
      <stop
         offset="0"
         style="stop-color:#dc9f2e;stop-opacity:1"
         id="stop10450" />
      <stop
         offset="1"
         style="stop-color:#781f1c;stop-opacity:1;"
         id="stop10452" />
    </linearGradient>
    <linearGradient
       id="linearGradient9607">
      <stop
         offset="0"
         style="stop-color:#dc9f2e;stop-opacity:1"
         id="stop9609" />
      <stop
         id="stop9621"
         style="stop-color:#9e292b;stop-opacity:1"
         offset="0.61453801" />
      <stop
         offset="1"
         style="stop-color:#781f1c;stop-opacity:1"
         id="stop9611" />
    </linearGradient>
    <linearGradient
       id="linearGradient6039">
      <stop
         id="stop6041"
         style="stop-color:#dc9f2e;stop-opacity:1;"
         offset="0" />
      <stop
         id="stop6043"
         style="stop-color:#781f1c;stop-opacity:1;"
         offset="1" />
    </linearGradient>
    <radialGradient
       cx="338.75784"
       cy="439.22992"
       r="159.5"
       fx="338.75784"
       fy="439.22992"
       id="radialGradient6223"
       xlink:href="#linearGradient9607"
       gradientUnits="userSpaceOnUse"
       gradientTransform="matrix(1.2632589,0,0,1.1334569,-91.89164,-57.486037)" />
    <linearGradient
       inkscape:collect="always"
       xlink:href="#linearGradient10448"
       id="linearGradient12020"
       gradientUnits="userSpaceOnUse"
       x1="42.152302"
       y1="146.48262"
       x2="54.600597"
       y2="134.03433" />
    <linearGradient
       inkscape:collect="always"
       xlink:href="#linearGradient6039"
       id="linearGradient12022"
       gradientUnits="userSpaceOnUse"
       x1="43.321468"
       y1="122.28859"
       x2="39.594379"
       y2="128.74409" />
    <linearGradient
       inkscape:collect="always"
       xlink:href="#linearGradient6039"
       id="linearGradient12024"
       gradientUnits="userSpaceOnUse"
       x1="70.955635"
       y1="137.50508"
       x2="80.907471"
       y2="127.55325" />
    <linearGradient
       inkscape:collect="always"
       xlink:href="#linearGradient6039"
       id="linearGradient12026"
       gradientUnits="userSpaceOnUse"
       x1="138.8362"
       y1="151.44383"
       x2="145.769"
       y2="139.43587" />
    <linearGradient
       inkscape:collect="always"
       xlink:href="#linearGradient6039"
       id="linearGradient12028"
       gradientUnits="userSpaceOnUse"
       x1="124.1534"
       y1="125.05267"
       x2="130.96216"
       y2="118.24392" />
    <linearGradient
       inkscape:collect="always"
       xlink:href="#linearGradient6039"
       id="linearGradient12030"
       gradientUnits="userSpaceOnUse"
       x1="236.04309"
       y1="135.47752"
       x2="231.31049"
       y2="143.67465" />
    <linearGradient
       inkscape:collect="always"
       xlink:href="#linearGradient6039"
       id="linearGradient12032"
       gradientUnits="userSpaceOnUse"
       x1="229.37662"
       y1="148.81427"
       x2="241.15625"
       y2="137.28125" />
    <linearGradient
       inkscape:collect="always"
       xlink:href="#linearGradient6039"
       id="linearGradient12034"
       gradientUnits="userSpaceOnUse"
       x1="271.03125"
       y1="123.3125"
       x2="297.125"
       y2="123.3125" />
    <linearGradient
       inkscape:collect="always"
       xlink:href="#linearGradient6039"
       id="linearGradient12036"
       gradientUnits="userSpaceOnUse"
       x1="282.69397"
       y1="118.24638"
       x2="300.24353"
       y2="128.37862" />
    <linearGradient
       inkscape:collect="always"
       xlink:href="#linearGradient6039"
       id="linearGradient12038"
       gradientUnits="userSpaceOnUse"
       x1="288.58347"
       y1="148.38638"
       x2="295.00839"
       y2="137.25809" />
    <linearGradient
       inkscape:collect="always"
       xlink:href="#linearGradient6039"
       id="linearGradient12040"
       gradientUnits="userSpaceOnUse"
       x1="61.632977"
       y1="73.217781"
       x2="78.368378"
       y2="56.482384" />
    <linearGradient
       inkscape:collect="always"
       xlink:href="#linearGradient6039"
       id="linearGradient12042"
       gradientUnits="userSpaceOnUse"
       x1="146.7653"
       y1="85.906578"
       x2="168.21875"
       y2="64.453125" />
    <filter
       inkscape:collect="always"
       id="filter12052"
       x="-0.035846061"
       width="1.0716921"
       y="-0.33028055"
       height="1.6605611">
      <feGaussianBlur
         inkscape:collect="always"
         stdDeviation="3.974376"
         id="feGaussianBlur12054" />
    </filter>
    <filter
       inkscape:collect="always"
       id="filter12056"
       x="-0.035926563"
       width="1.0718531"
       y="-0.21463554"
       height="1.4292711">
      <feGaussianBlur
         inkscape:collect="always"
         stdDeviation="3.974376"
         id="feGaussianBlur12058" />
    </filter>
    <filter
       inkscape:collect="always"
       id="filter12060"
       x="-0.035926563"
       width="1.0718531"
       y="-0.34907513"
       height="1.6981503">
      <feGaussianBlur
         inkscape:collect="always"
         stdDeviation="3.974376"
         id="feGaussianBlur12062" />
    </filter>
    <inkscape:perspective
       id="perspective12238"
       inkscape:persp3d-origin="0.5 : 0.33333333 : 1"
       inkscape:vp_z="1 : 0.5 : 1"
       inkscape:vp_y="0 : 1000 : 0"
       inkscape:vp_x="0 : 0.5 : 1"
       sodipodi:type="inkscape:persp3d" />
    <linearGradient
       inkscape:collect="always"
       xlink:href="#linearGradient6039"
       id="linearGradient12273"
       gradientUnits="userSpaceOnUse"
       x1="104.55732"
       y1="124.29031"
       x2="116.47469"
       y2="117.40982" />
    <radialGradient
       inkscape:collect="always"
       xlink:href="#linearGradient9607"
       id="radialGradient12578"
       gradientUnits="userSpaceOnUse"
       gradientTransform="matrix(1.3761116,0,0,1.1334569,-342.66861,-417.73711)"
       cx="338.75784"
       cy="439.22992"
       fx="338.75784"
       fy="439.22992"
       r="159.5" />
  </defs>
  <rect
     style="color:#000000;fill:url(#radialGradient12578);fill-opacity:1;fill-rule:nonzero;stroke:none;stroke-width:1;marker:none;marker-start:none;marker-mid:none;marker-end:none;visibility:visible;display:inline;overflow:visible;enable-background:accumulate"
     id="rect5276"
     y="-1.8847657e-06"
     x="1.2109375e-06"
     ry="18"
     rx="18"
     height="234.22221"
     width="319" />
  <g
     style="fill:#781f1c;opacity:0.45789474;stroke:#781f1c"
     id="g12066"
     transform="translate(-221.54725,-342.62732)">
    <path
       d="m 275.91912,569.46507 c 0,-9.31999 -5.32,-14.4 -12.92,-14.4 -7.59999,0 -13,5.16001 -13,14.48 0,9.31999 5.32001,14.4 12.92,14.4 7.6,0 13,-5.16001 13,-14.48 m -8.04,0.08 c 0,5.03999 -1.76,7.64 -4.88,7.64 -3.11999,0 -4.96,-2.68001 -4.96,-7.72 0,-5.04 1.76001,-7.64 4.88,-7.64 3.12,0 4.96,2.68 4.96,7.72 m 35.53688,-4.76 c 0,-6.76 -4.36001,-9.28 -10.92,-9.28 l -12.04,0 0,28 7.64,0 0,-9.08 3.88,0 c 6.71999,0 11.44,-2.52001 11.44,-9.64 m -7.72,0.12 c 0,2.11999 -1,3.2 -3.52,3.2 l -4.08,0 0,-6.28 4.2,0 c 2.48,0 3.4,1.24 3.4,3.08 m 33.6675,18.6 0,-6.52 -14.04,0 0,-4.8 8.28,0 0,-6.44 -8.28,0 0,-3.72 13.76,0 0,-6.52 -21.44,0 0,28 21.72,0 m 28.99875,0 -5.6,-10.68 c 3.08,-1.4 5.04,-4.00001 5.04,-8.2 0,-6.64 -4.36001,-9.12 -10.92,-9.12 l -12.52,0 0,28 7.64,0 0,-9.44 3.12,0 4.56,9.44 8.68,0 m -8.28,-18.68 c 0,1.99999 -1,3.12 -3.52,3.12 l -4.56,0 0,-6.12 4.68,0 c 2.44,0 3.4,1.24 3.4,3 m 39.43187,18.68 -10.16,-28 -7.84,0 -10.16,28 8.32,0 1.52,-4.92 8.4,0 1.52,4.92 8.4,0 m -11.8,-11.08 -4.64,0 0.52,-1.84 c 1,-3.56 1.44,-5.12001 1.8,-7 0.36,1.87999 0.8,3.4 1.8,7 l 0.52,1.84 m 38.06875,-10.16 0,-6.76 -23.44,0 0,6.76 7.84,0 0,21.24 7.76,0 0,-21.24 7.84,0 m 12.63688,21.24 0,-28 -7.92,0 0,28 7.92,0 m 30.62437,-14.04 c 0,-9.31999 -5.32,-14.4 -12.92,-14.4 -7.59999,0 -13,5.16001 -13,14.48 0,9.31999 5.32001,14.4 12.92,14.4 7.6,0 13,-5.16001 13,-14.48 m -8.04,0.08 c 0,5.03999 -1.76,7.64 -4.88,7.64 -3.11999,0 -4.96,-2.68001 -4.96,-7.72 0,-5.04 1.76001,-7.64 4.88,-7.64 3.12,0 4.96,2.68 4.96,7.72 m 37.13688,13.96 0,-28 -7.44,0 0,7.64 c 0,2.27999 0.04,6 0.24,7.24 -0.6,-1.16 -3.08,-4.88001 -4.36,-6.6 l -6.16,-8.28 -6.84,0 0,28 7.44,0 0,-8.56 c 0,-2.28 -0.04,-6.00001 -0.24,-7.24 0.72,1.23999 3.12,4.84 4.36,6.56 l 6.68,9.24 6.32,0 m 27.95437,-8.6 c 0,-5.24 -3.12,-7.40001 -10.16,-9.08 -3.59999,-0.84 -4.6,-1.32001 -4.6,-2.36 0,-1 0.56001,-1.72 2.88,-1.72 2.84,0 5.32001,0.96 7.8,2.64 l 3.76,-6.08 c -2.95999,-2.08 -6.4,-3.24 -11.16,-3.24 -6.75999,0 -11.04,3.56 -11.04,8.84 0,5.59999 3.24001,7.44 10,9 3.76,0.88 4.76,1.52 4.76,2.56 0,1.31999 -0.88,1.8 -3.64,1.8 -2.59999,0 -6.16,-1.40001 -8.2,-2.8 l -3.76,6.08 c 2.92,1.91999 7.28001,3.4 11.8,3.4 6.72,0 11.56,-2.64001 11.56,-9.04"
       id="path12046"
       style="font-size:40px;font-style:normal;font-variant:normal;font-weight:normal;font-stretch:normal;text-align:start;line-height:125%;writing-mode:lr-tb;text-anchor:start;fill:#781f1c;fill-opacity:1;stroke:#781f1c;filter:url(#filter12052);font-family:Interstate-Black;-inkscape-font-specification:Interstate-Black"
       transform="translate(6.500004,-56.88643)" />
    <path
       style="font-size:63.35354232999999624px;font-style:normal;font-variant:normal;font-weight:normal;font-stretch:normal;text-align:start;line-height:89.99999762000000203%;writing-mode:lr-tb;text-anchor:start;fill:#781f1c;fill-opacity:1;stroke:#781f1c;filter:url(#filter12056);font-family:Interstate-Black;-inkscape-font-specification:Interstate-Black"
       d="m 294.88905,452.08088 -8.88807,-16.95085 c 4.88844,-2.22203 7.99927,-6.34865 7.99927,-13.01471 0,-10.53873 -6.92001,-14.4749 -17.33178,-14.4749 l -19.87123,0 0,44.44046 12.12589,0 0,-14.98278 4.95194,0 7.23745,14.98278 13.77653,0 m -13.14167,-29.64813 c 0,3.17431 -1.58715,4.95194 -5.5868,4.95194 l -7.23745,0 0,-9.71341 7.42791,0 c 3.87267,0 5.39634,1.96808 5.39634,4.76147 m 55.02978,29.64813 0,-10.34827 -22.28371,0 0,-7.61837 13.14168,0 0,-10.22131 -13.14168,0 0,-5.90423 21.83932,0 0,-10.34828 -34.0287,0 0,44.44046 34.47309,0 m 46.34307,-22.47418 c 0,-16.69689 -8.88809,-21.96628 -22.85508,-21.96628 l -15.55417,0 0,44.44046 14.41141,0 c 15.74461,0 23.99784,-5.77727 23.99784,-22.47418 m -12.63377,0.19047 c 0,8.82459 -2.98387,11.74498 -10.66572,11.74498 l -2.66644,0 0,-23.36299 3.04736,0 c 7.68184,0 10.2848,3.42828 10.2848,11.61801 m 59.08398,22.28371 0,-44.44046 -12.5703,0 0,16.18903 -13.84004,0 0,-16.18903 -12.5703,0 0,44.44046 12.5703,0 0,-17.52223 13.84004,0 0,17.52223 12.5703,0 m 51.03411,0 -16.12553,-44.44046 -12.44332,0 -16.12554,44.44046 13.20515,0 2.41249,-7.80881 13.33214,0 2.41249,7.80881 13.33212,0 m -18.72848,-17.58573 -7.36441,0 0.82533,-2.92036 c 1.58716,-5.65029 2.2855,-8.12626 2.85689,-11.11012 0.57136,2.98386 1.26971,5.39635 2.85688,11.11012 l 0.82531,2.92036 m 60.42117,-16.12553 0,-10.7292 -37.20302,0 0,10.7292 12.44333,0 0,33.71126 12.31636,0 0,-33.71126 12.44333,0"
       id="path12048"
       transform="translate(4e-6,0)" />
    <path
       style="font-size:37.62100982999999843px;font-style:normal;font-variant:normal;font-weight:normal;font-stretch:normal;text-align:start;line-height:89.99999762000000203%;writing-mode:lr-tb;text-anchor:start;fill:#781f1c;fill-opacity:1;stroke:#781f1c;filter:url(#filter12060);font-family:Interstate-Black;-inkscape-font-specification:Interstate-Black"
       d="m 277.34782,489.55375 0,-6.16896 -13.28408,0 0,-4.54157 7.8342,0 0,-6.09326 -7.8342,0 0,-3.51971 13.01915,0 0,-6.16896 -20.28565,0 0,26.49246 20.55058,0 m 27.9673,0 0,-26.49246 -7.03944,0 0,7.22865 c 0,2.15726 0.03785,5.67697 0.22708,6.8502 -0.5677,-1.09754 -2.91416,-4.61726 -4.12525,-6.24465 l -5.82835,-7.8342 -6.47173,0 0,26.49246 7.03943,0 0,-8.09912 c 0,-2.15724 -0.03784,-5.67696 -0.22707,-6.85019 0.68123,1.17323 2.95202,4.57942 4.12524,6.2068 l 6.32035,8.74251 5.97974,0 m 28.34161,-11.31607 0,-3.21693 -11.65669,0 0,5.48772 4.80649,0 c -0.30276,1.81663 -1.32464,3.25478 -4.42803,3.25478 -3.40616,0 -5.10926,-2.19508 -5.10926,-7.45573 0,-4.20095 1.17324,-7.2665 4.61726,-7.2665 2.53571,0 3.5954,1.36248 4.46586,3.63324 l 6.66098,-2.6114 c -1.89233,-4.95786 -4.46589,-7.41787 -11.089,-7.41787 -8.02341,0 -12.33792,5.82834 -12.33792,13.66253 0,8.66681 4.95789,13.66254 12.22439,13.66254 7.68281,0 11.84592,-4.16311 11.84592,-11.73238 m 11.98606,11.31607 0,-26.49246 -7.49359,0 0,26.49246 7.49359,0 m 28.7863,0 0,-26.49246 -7.03942,0 0,7.22865 c 0,2.15726 0.03785,5.67697 0.22708,6.8502 -0.56769,-1.09754 -2.91417,-4.61726 -4.12525,-6.24465 l -5.82835,-7.8342 -6.47173,0 0,26.49246 7.03943,0 0,-8.09912 c 0,-2.15724 -0.03785,-5.67696 -0.22709,-6.85019 0.68125,1.17323 2.95202,4.57942 4.12526,6.2068 l 6.32034,8.74251 5.97973,0 m 25.91945,0 0,-6.16896 -13.28408,0 0,-4.54157 7.8342,0 0,-6.09326 -7.8342,0 0,-3.51971 13.01914,0 0,-6.16896 -20.28564,0 0,26.49246 20.55058,0 m 25.28021,0 0,-6.16896 -13.28409,0 0,-4.54157 7.8342,0 0,-6.09326 -7.8342,0 0,-3.51971 13.01916,0 0,-6.16896 -20.28566,0 0,26.49246 20.55059,0 m 27.43742,0 -5.29849,-10.10498 c 2.91417,-1.32463 4.76864,-3.78465 4.76864,-7.7585 0,-6.2825 -4.12526,-8.62898 -10.33205,-8.62898 l -11.84592,0 0,26.49246 7.22867,0 0,-8.93174 2.95199,0 4.3145,8.93174 8.21266,0 m -7.8342,-17.67426 c 0,1.89233 -0.94616,2.95202 -3.33048,2.95202 l -4.31447,0 0,-5.79049 4.42801,0 c 2.30863,0 3.21694,1.17324 3.21694,2.83847 m 19.93734,17.67426 0,-26.49246 -7.49357,0 0,26.49246 7.49357,0 m 28.78632,0 0,-26.49246 -7.03943,0 0,7.22865 c 0,2.15726 0.03785,5.67697 0.2271,6.8502 -0.56771,-1.09754 -2.91419,-4.61726 -4.12527,-6.24465 l -5.82834,-7.8342 -6.47172,0 0,26.49246 7.03942,0 0,-8.09912 c 0,-2.15724 -0.03785,-5.67696 -0.22709,-6.85019 0.68123,1.17323 2.95202,4.57942 4.12526,6.2068 l 6.32035,8.74251 5.97972,0 m 28.34161,-11.31607 0,-3.21693 -11.65669,0 0,5.48772 4.8065,0 c -0.30278,1.81663 -1.32462,3.25478 -4.42803,3.25478 -3.40617,0 -5.10926,-2.19508 -5.10926,-7.45573 0,-4.20095 1.17324,-7.2665 4.61726,-7.2665 2.53569,0 3.59541,1.36248 4.46588,3.63324 l 6.66094,-2.6114 c -1.89229,-4.95786 -4.46586,-7.41787 -11.08897,-7.41787 -8.02343,0 -12.33792,5.82834 -12.33792,13.66253 0,8.66681 4.95788,13.66254 12.22438,13.66254 7.6828,0 11.84591,-4.16311 11.84591,-11.73238"
       id="path12050" />
  </g>
  <g
     transform="translate(-217.38255,-341.45964)"
     id="g11717">
    <g
       id="g10905"
       style="fill:#781f1c">
      <g
         id="g10907"
         style="font-size:37.62100983px;font-style:normal;font-variant:normal;font-weight:normal;font-stretch:normal;text-align:start;line-height:89.99999762%;writing-mode:lr-tb;text-anchor:start;fill:#781f1c;fill-opacity:1;stroke:none;font-family:Interstate-Black;-inkscape-font-specification:Interstate-Black">
        <path
           style="fill:url(#linearGradient12273)"
           d="m 111.125,107 c 0,7.56927 -4.19219,11.71875 -11.875,11.71875 -3.10917,0 -5.787428,-0.89954 -7.84375,-2.625 L 99.0625,122.5 c 2.05632,1.72546 4.76583,2.65625 7.875,2.65625 7.68281,0 11.84375,-4.18073 11.84375,-11.75 L 111.125,107 z"
           transform="translate(212.54724,360.25107)"
           id="path10991" />
        <path
           id="path10909"
           d="m 267.34782,478.55375 0,-6.16896 7.66044,6.42788 0,6.16896 z"
           style="fill:#781f1c" />
        <path
           id="path10911"
           d="m 267.34782,472.38479 -13.28408,0 7.66044,6.42788 13.28408,0 z"
           style="fill:#781f1c" />
        <path
           id="path10913"
           d="m 254.06374,472.38479 0,-4.54157 7.66044,6.42788 0,4.54157 z"
           style="fill:#781f1c" />
        <path
           id="path10915"
           d="m 254.06374,467.84322 7.8342,0 7.66044,6.42788 -7.8342,0 z"
           style="fill:#dc9f2e" />
        <path
           id="path10917"
           d="m 261.89794,467.84322 0,-6.09326 7.66044,6.42788 0,6.09326 z"
           style="fill:#781f1c" />
        <path
           id="path10919"
           d="m 261.89794,461.74996 -7.8342,0 7.66044,6.42788 7.8342,0 z"
           style="fill:#781f1c" />
        <path
           id="path10921"
           d="m 254.06374,461.74996 0,-3.51971 7.66044,6.42788 0,3.51971 z"
           style="fill:#781f1c" />
        <path
           id="path10923"
           d="m 254.06374,458.23025 13.01915,0 7.66044,6.42788 -13.01915,0 z"
           style="fill:#dc9f2e" />
        <path
           id="path10925"
           d="m 267.08289,458.23025 0,-6.16896 7.66044,6.42788 0,6.16896 z"
           style="fill:#781f1c" />
        <path
           id="path10927"
           d="m 267.08289,452.06129 -20.28565,0 7.66044,6.42788 20.28565,0 z"
           style="fill:#781f1c" />
        <path
           id="path10929"
           d="m 246.79724,452.06129 0,26.49246 7.66044,6.42788 0,-26.49246 z"
           style="fill:#781f1c" />
        <path
           id="path10931"
           d="m 246.79724,478.55375 20.55058,0 7.66044,6.42788 -20.55058,0 z"
           style="fill:#dc9f2e" />
        <path
           id="path10933"
           d="m 295.31512,478.55375 0,-26.49246 7.66044,6.42788 0,26.49246 z"
           style="fill:#781f1c" />
        <path
           id="path10935"
           d="m 295.31512,452.06129 -7.03944,0 7.66044,6.42788 7.03944,0 z"
           style="fill:#781f1c" />
        <path
           id="path10937"
           d="m 288.27568,452.06129 0,7.22865 7.66044,6.42788 0,-7.22865 z"
           style="fill:#781f1c" />
        <path
           id="path10939"
           d="m 288.27568,459.28994 c 0,2.15726 0.03785,5.67697 0.22708,6.8502 l 7.66044,6.42788 c -0.18923,-1.17323 -0.22708,-4.69294 -0.22708,-6.8502 z"
           style="fill:#781f1c" />
        <path
           id="path10941"
           d="m 288.50276,466.14014 c -0.5677,-1.09754 -2.91416,-4.61726 -4.12525,-6.24465 l 7.66044,6.42788 c 1.21109,1.62739 3.55755,5.14711 4.12525,6.24465 z"
           style="fill:#781f1c" />
        <path
           id="path10943"
           d="m 284.37751,459.89549 -5.82835,-7.8342 7.66044,6.42788 5.82835,7.8342 z"
           style="fill:#781f1c" />
        <path
           id="path10945"
           d="m 278.54916,452.06129 -6.47173,0 7.66044,6.42788 6.47173,0 z"
           style="fill:#781f1c" />
        <path
           id="path10947"
           d="m 272.07743,452.06129 0,26.49246 7.66044,6.42788 0,-26.49246 z"
           style="fill:#781f1c" />
        <path
           id="path10949"
           d="m 272.07743,478.55375 7.03943,0 7.66044,6.42788 -7.03943,0 z"
           style="fill:#dc9f2e" />
        <path
           id="path10951"
           d="m 279.11686,478.55375 0,-8.09912 7.66044,6.42788 0,8.09912 z"
           style="fill:#781f1c" />
        <path
           id="path10953"
           d="m 279.11686,470.45463 c 0,-2.15724 -0.03784,-5.67696 -0.22707,-6.85019 l 7.66044,6.42788 c 0.18923,1.17323 0.22707,4.69295 0.22707,6.85019 z"
           style="fill:#781f1c" />
        <path
           id="path10955"
           d="m 278.88979,463.60444 c 0.68123,1.17323 2.95202,4.57942 4.12524,6.2068 l 7.66044,6.42788 c -1.17322,-1.62738 -3.44401,-5.03357 -4.12524,-6.2068 z"
           style="fill:#781f1c" />
        <path
           id="path10957"
           d="m 283.01503,469.81124 6.32035,8.74251 7.66044,6.42788 -6.32035,-8.74251 z"
           style="fill:#781f1c" />
        <path
           id="path10959"
           d="m 289.33538,478.55375 5.97974,0 7.66044,6.42788 -5.97974,0 z"
           style="fill:#dc9f2e" />
        <path
           id="path10961"
           d="m 323.65673,467.23768 0,-3.21693 7.66044,6.42788 0,3.21693 z"
           style="fill:#781f1c" />
        <path
           id="path10963"
           d="m 323.65673,464.02075 -11.65669,0 7.66044,6.42788 11.65669,0 z"
           style="fill:#781f1c" />
        <path
           id="path10965"
           d="m 312.00004,464.02075 0,5.48772 7.66044,6.42788 0,-5.48772 z"
           style="fill:#781f1c" />
        <path
           id="path10973"
           d="m 309.25085,471.77944 c -1.32107,-1.10851 -1.98161,-3.19573 -1.98161,-6.47192 l 7.66044,6.42788 c 0,3.27619 0.66054,5.36341 1.98162,6.47192 z"
           style="fill:#781f1c" />
        <path
           id="path10975"
           d="m 307.26924,465.30752 c 0,-4.20095 1.17324,-7.2665 4.61726,-7.2665 l 7.66044,6.42788 c -3.44402,0 -4.61726,3.06555 -4.61726,7.2665 z"
           style="fill:#781f1c" />
        <path
           id="path10977"
           d="m 311.8865,458.04102 c 1.20639,0 2.07869,0.3084 2.75547,0.87628 l 7.66044,6.42787 c -0.67677,-0.56788 -1.54907,-0.87627 -2.75547,-0.87627 z"
           style="fill:#781f1c" />
        <path
           id="path10979"
           d="m 314.64197,458.9173 c 0.74573,0.62574 1.25406,1.56654 1.71039,2.75696 l 7.66044,6.42788 c -0.45632,-1.19042 -0.96466,-2.13122 -1.71039,-2.75697 z"
           style="fill:#781f1c" />
        <path
           id="path10981"
           d="m 316.35236,461.67426 6.66098,-2.6114 7.66044,6.42788 -6.66098,2.6114 z"
           style="fill:#781f1c" />
        <path
           id="path10983"
           d="m 323.01334,459.06286 c -0.8609,-2.25554 -1.8628,-3.99409 -3.32285,-5.21922 l 7.66044,6.42787 c 1.46006,1.22513 2.46195,2.96369 3.32285,5.21923 z"
           style="fill:#781f1c" />
        <path
           id="path10985"
           d="m 319.69049,453.84364 c -1.74927,-1.46781 -4.15617,-2.19865 -7.76615,-2.19865 l 7.66044,6.42788 c 3.60998,0 6.01689,0.73084 7.76615,2.19864 z"
           style="fill:#781f1c" />
        <path
           id="path10987"
           d="m 311.92434,451.64499 c -8.02341,0 -12.33792,5.82834 -12.33792,13.66253 l 7.66044,6.42788 c 0,-7.83419 4.31451,-13.66253 12.33792,-13.66253 z"
           style="fill:#781f1c" />
        <path
           id="path10995"
           d="m 335.64279,478.55375 0,-26.49246 7.66044,6.42788 0,26.49246 z"
           style="fill:#781f1c" />
        <path
           id="path10997"
           d="m 335.64279,452.06129 -7.49359,0 7.66044,6.42788 7.49359,0 z"
           style="fill:#781f1c" />
        <path
           id="path10999"
           d="m 328.1492,452.06129 0,26.49246 7.66044,6.42788 0,-26.49246 z"
           style="fill:#781f1c" />
        <path
           id="path11001"
           d="m 328.1492,478.55375 7.49359,0 7.66044,6.42788 -7.49359,0 z"
           style="fill:#dc9f2e" />
        <path
           id="path11003"
           d="m 364.42909,478.55375 0,-26.49246 7.66044,6.42788 0,26.49246 z"
           style="fill:#781f1c" />
        <path
           id="path11005"
           d="m 364.42909,452.06129 -7.03942,0 7.66044,6.42788 7.03942,0 z"
           style="fill:#781f1c" />
        <path
           id="path11007"
           d="m 357.38967,452.06129 0,7.22865 7.66044,6.42788 0,-7.22865 z"
           style="fill:#781f1c" />
        <path
           id="path11009"
           d="m 357.38967,459.28994 c 0,2.15726 0.03785,5.67697 0.22708,6.8502 l 7.66044,6.42788 c -0.18923,-1.17323 -0.22708,-4.69294 -0.22708,-6.8502 z"
           style="fill:#781f1c" />
        <path
           id="path11011"
           d="m 357.61675,466.14014 c -0.56769,-1.09754 -2.91417,-4.61726 -4.12525,-6.24465 l 7.66044,6.42788 c 1.21108,1.62739 3.55756,5.14711 4.12525,6.24465 z"
           style="fill:#781f1c" />
        <path
           id="path11013"
           d="m 353.4915,459.89549 -5.82835,-7.8342 7.66044,6.42788 5.82835,7.8342 z"
           style="fill:#781f1c" />
        <path
           id="path11015"
           d="m 347.66315,452.06129 -6.47173,0 7.66044,6.42788 6.47173,0 z"
           style="fill:#781f1c" />
        <path
           id="path11017"
           d="m 341.19142,452.06129 0,26.49246 7.66044,6.42788 0,-26.49246 z"
           style="fill:#781f1c" />
        <path
           id="path11019"
           d="m 341.19142,478.55375 7.03943,0 7.66044,6.42788 -7.03943,0 z"
           style="fill:#dc9f2e" />
        <path
           id="path11021"
           d="m 348.23085,478.55375 0,-8.09912 7.66044,6.42788 0,8.09912 z"
           style="fill:#781f1c" />
        <path
           id="path11023"
           d="m 348.23085,470.45463 c 0,-2.15724 -0.03785,-5.67696 -0.22709,-6.85019 l 7.66044,6.42788 c 0.18924,1.17323 0.22709,4.69295 0.22709,6.85019 z"
           style="fill:#781f1c" />
        <path
           id="path11025"
           d="m 348.00376,463.60444 c 0.68125,1.17323 2.95202,4.57942 4.12526,6.2068 l 7.66044,6.42788 c -1.17324,-1.62738 -3.44401,-5.03357 -4.12526,-6.2068 z"
           style="fill:#781f1c" />
        <path
           id="path11027"
           d="m 352.12902,469.81124 6.32034,8.74251 7.66044,6.42788 -6.32034,-8.74251 z"
           style="fill:#781f1c" />
        <path
           id="path11029"
           d="m 358.44936,478.55375 5.97973,0 7.66044,6.42788 -5.97973,0 z"
           style="fill:#dc9f2e" />
        <path
           id="path11031"
           d="m 390.34854,478.55375 0,-6.16896 7.66044,6.42788 0,6.16896 z"
           style="fill:#781f1c" />
        <path
           id="path11033"
           d="m 390.34854,472.38479 -13.28408,0 7.66044,6.42788 13.28408,0 z"
           style="fill:#781f1c" />
        <path
           id="path11035"
           d="m 377.06446,472.38479 0,-4.54157 7.66044,6.42788 0,4.54157 z"
           style="fill:#781f1c" />
        <path
           id="path11037"
           d="m 377.06446,467.84322 7.8342,0 7.66044,6.42788 -7.8342,0 z"
           style="fill:#dc9f2e" />
        <path
           id="path11039"
           d="m 384.89866,467.84322 0,-6.09326 7.66044,6.42788 0,6.09326 z"
           style="fill:#781f1c" />
        <path
           id="path11041"
           d="m 384.89866,461.74996 -7.8342,0 7.66044,6.42788 7.8342,0 z"
           style="fill:#781f1c" />
        <path
           id="path11043"
           d="m 377.06446,461.74996 0,-3.51971 7.66044,6.42788 0,3.51971 z"
           style="fill:#781f1c" />
        <path
           id="path11045"
           d="m 377.06446,458.23025 13.01914,0 7.66044,6.42788 -13.01914,0 z"
           style="fill:#781f1c" />
        <path
           id="path11047"
           d="m 390.0836,458.23025 0,-6.16896 7.66044,6.42788 0,6.16896 z"
           style="fill:#781f1c" />
        <path
           id="path11049"
           d="m 390.0836,452.06129 -20.28564,0 7.66044,6.42788 20.28564,0 z"
           style="fill:#dc9f2e" />
        <path
           id="path11051"
           d="m 369.79796,452.06129 0,26.49246 7.66044,6.42788 0,-26.49246 z"
           style="fill:#781f1c" />
        <path
           id="path11053"
           d="m 369.79796,478.55375 20.55058,0 7.66044,6.42788 -20.55058,0 z"
           style="fill:#dc9f2e" />
        <path
           id="path11055"
           d="m 415.62875,478.55375 0,-6.16896 7.66044,6.42788 0,6.16896 z"
           style="fill:#781f1c" />
        <path
           id="path11057"
           d="m 415.62875,472.38479 -13.28409,0 7.66044,6.42788 13.28409,0 z"
           style="fill:#781f1c" />
        <path
           id="path11059"
           d="m 402.34466,472.38479 0,-4.54157 7.66044,6.42788 0,4.54157 z"
           style="fill:#781f1c" />
        <path
           id="path11061"
           d="m 402.34466,467.84322 7.8342,0 7.66044,6.42788 -7.8342,0 z"
           style="fill:#dc9f2e" />
        <path
           id="path11063"
           d="m 410.17886,467.84322 0,-6.09326 7.66044,6.42788 0,6.09326 z"
           style="fill:#781f1c" />
        <path
           id="path11065"
           d="m 410.17886,461.74996 -7.8342,0 7.66044,6.42788 7.8342,0 z"
           style="fill:#781f1c" />
        <path
           id="path11067"
           d="m 402.34466,461.74996 0,-3.51971 7.66044,6.42788 0,3.51971 z"
           style="fill:#781f1c" />
        <path
           id="path11069"
           d="m 402.34466,458.23025 13.01916,0 7.66044,6.42788 -13.01916,0 z"
           style="fill:#dc9f2e" />
        <path
           id="path11071"
           d="m 415.36382,458.23025 0,-6.16896 7.66044,6.42788 0,6.16896 z"
           style="fill:#781f1c" />
        <path
           id="path11075"
           d="m 395.07816,452.06129 0,26.49246 7.66044,6.42788 0,-26.49246 z"
           style="fill:#781f1c" />
        <path
           id="path11077"
           d="m 395.07816,478.55375 20.55059,0 7.66044,6.42788 -20.55059,0 z"
           style="fill:#dc9f2e" />
        <path
           id="path11079"
           d="m 443.06617,478.55375 -5.29849,-10.10498 7.66044,6.42788 5.29849,10.10498 z"
           style="fill:#781f1c" />
        <path
           id="path11081"
           d="m 437.76768,468.44877 c 2.91417,-1.32463 4.76864,-3.78465 4.76864,-7.7585 l 7.66044,6.42788 c 0,3.97385 -1.85447,6.43387 -4.76864,7.7585 z"
           style="fill:#781f1c" />
        <path
           id="path11083"
           d="m 442.53632,460.69027 c 0,-2.98441 -0.9309,-5.08062 -2.57362,-6.45903 l 7.66044,6.42787 c 1.64272,1.37841 2.57362,3.47463 2.57362,6.45904 z"
           style="fill:#781f1c" />
        <path
           id="path11085"
           d="m 439.9627,454.23124 c -1.81539,-1.52329 -4.50009,-2.16995 -7.75843,-2.16995 l 7.66044,6.42788 c 3.25835,0 5.94305,0.64666 7.75843,2.16994 z"
           style="fill:#781f1c" />
        <path
           id="path11087"
           d="m 432.20427,452.06129 -11.84592,0 7.66044,6.42788 11.84592,0 z"
           style="fill:#781f1c" />
        <path
           id="path11089"
           d="m 420.35835,452.06129 0,26.49246 7.66044,6.42788 0,-26.49246 z"
           style="fill:#781f1c" />
        <path
           id="path11091"
           d="m 420.35835,478.55375 7.22867,0 7.66044,6.42788 -7.22867,0 z"
           style="fill:#dc9f2e" />
        <path
           id="path11093"
           d="m 427.58702,478.55375 0,-8.93174 7.66044,6.42788 0,8.93174 z"
           style="fill:#781f1c" />
        <path
           id="path11095"
           d="m 427.58702,469.62201 2.95199,0 7.66044,6.42788 -2.95199,0 z"
           style="fill:#781f1c" />
        <path
           id="path11097"
           d="m 430.53901,469.62201 4.3145,8.93174 7.66044,6.42788 -4.3145,-8.93174 z"
           style="fill:#781f1c" />
        <path
           id="path11099"
           d="m 434.85351,478.55375 8.21266,0 7.66044,6.42788 -8.21266,0 z"
           style="fill:#dc9f2e" />
        <path
           id="path11101"
           d="m 435.23197,460.87949 c 0,1.89233 -0.94616,2.95202 -3.33048,2.95202 l 7.66044,6.42788 c 2.38432,0 3.33048,-1.05969 3.33048,-2.95202 z"
           style="fill:#781f1c" />
        <path
           id="path11103"
           d="m 431.90149,463.83151 -4.31447,0 7.66044,6.42788 4.31447,0 z"
           style="fill:#781f1c" />
        <path
           id="path11105"
           d="m 427.58702,463.83151 0,-5.79049 7.66044,6.42788 0,5.79049 z"
           style="fill:#781f1c" />
        <path
           id="path11107"
           d="m 427.58702,458.04102 4.42801,0 7.66044,6.42788 -4.42801,0 z"
           style="fill:#781f1c" />
        <path
           id="path11109"
           d="m 432.01503,458.04102 c 1.06716,0 1.83511,0.25069 2.35245,0.68479 l 7.66044,6.42787 c -0.51733,-0.43409 -1.28528,-0.68478 -2.35245,-0.68478 z"
           style="fill:#781f1c" />
        <path
           id="path11111"
           d="m 434.36748,458.72581 c 0.60183,0.50499 0.86449,1.2582 0.86449,2.15368 l 7.66044,6.42788 c 0,-0.89548 -0.26266,-1.64869 -0.86449,-2.15369 z"
           style="fill:#781f1c" />
        <path
           id="path11113"
           d="m 455.16931,478.55375 0,-26.49246 7.66044,6.42788 0,26.49246 z"
           style="fill:#781f1c" />
        <path
           id="path11115"
           d="m 455.16931,452.06129 -7.49357,0 7.66044,6.42788 7.49357,0 z"
           style="fill:#781f1c" />
        <path
           id="path11117"
           d="m 447.67574,452.06129 0,26.49246 7.66044,6.42788 0,-26.49246 z"
           style="fill:#781f1c" />
        <path
           id="path11119"
           d="m 447.67574,478.55375 7.49357,0 7.66044,6.42788 -7.49357,0 z"
           style="fill:#dc9f2e" />
        <path
           id="path11121"
           d="m 483.95563,478.55375 0,-26.49246 7.66044,6.42788 0,26.49246 z"
           style="fill:#781f1c" />
        <path
           id="path11123"
           d="m 483.95563,452.06129 -7.03943,0 7.66044,6.42788 7.03943,0 z"
           style="fill:#781f1c" />
        <path
           id="path11125"
           d="m 476.9162,452.06129 0,7.22865 7.66044,6.42788 0,-7.22865 z"
           style="fill:#781f1c" />
        <path
           id="path11127"
           d="m 476.9162,459.28994 c 0,2.15726 0.03785,5.67697 0.2271,6.8502 l 7.66044,6.42788 c -0.18925,-1.17323 -0.2271,-4.69294 -0.2271,-6.8502 z"
           style="fill:#781f1c" />
        <path
           id="path11129"
           d="m 477.1433,466.14014 c -0.56771,-1.09754 -2.91419,-4.61726 -4.12527,-6.24465 l 7.66044,6.42788 c 1.21108,1.62739 3.55756,5.14711 4.12527,6.24465 z"
           style="fill:#781f1c" />
        <path
           id="path11131"
           d="m 473.01803,459.89549 -5.82834,-7.8342 7.66044,6.42788 5.82834,7.8342 z"
           style="fill:#781f1c" />
        <path
           id="path11133"
           d="m 467.18969,452.06129 -6.47172,0 7.66044,6.42788 6.47172,0 z"
           style="fill:#781f1c" />
        <path
           id="path11135"
           d="m 460.71797,452.06129 0,26.49246 7.66044,6.42788 0,-26.49246 z"
           style="fill:#781f1c" />
        <path
           id="path11137"
           d="m 460.71797,478.55375 7.03942,0 7.66044,6.42788 -7.03942,0 z"
           style="fill:#dc9f2e" />
        <path
           id="path11139"
           d="m 467.75739,478.55375 0,-8.09912 7.66044,6.42788 0,8.09912 z"
           style="fill:#781f1c" />
        <path
           id="path11141"
           d="m 467.75739,470.45463 c 0,-2.15724 -0.03785,-5.67696 -0.22709,-6.85019 l 7.66044,6.42788 c 0.18924,1.17323 0.22709,4.69295 0.22709,6.85019 z"
           style="fill:#781f1c" />
        <path
           id="path11143"
           d="m 467.5303,463.60444 c 0.68123,1.17323 2.95202,4.57942 4.12526,6.2068 l 7.66044,6.42788 c -1.17324,-1.62738 -3.44403,-5.03357 -4.12526,-6.2068 z"
           style="fill:#781f1c" />
        <path
           id="path11145"
           d="m 471.65556,469.81124 6.32035,8.74251 7.66044,6.42788 -6.32035,-8.74251 z"
           style="fill:#781f1c" />
        <path
           id="path11147"
           d="m 477.97591,478.55375 5.97972,0 7.66044,6.42788 -5.97972,0 z"
           style="fill:#dc9f2e" />
        <path
           id="path11149"
           d="m 512.29724,467.23768 0,-3.21693 7.66044,6.42788 0,3.21693 z"
           style="fill:#781f1c" />
        <path
           id="path11151"
           d="m 512.29724,464.02075 -11.65669,0 7.66044,6.42788 11.65669,0 z"
           style="fill:#781f1c" />
        <path
           id="path11153"
           d="m 500.64055,464.02075 0,5.48772 7.66044,6.42788 0,-5.48772 z"
           style="fill:#781f1c" />
        <path
           id="path11155"
           d="m 500.64055,469.50847 4.8065,0 7.66044,6.42788 -4.8065,0 z"
           style="fill:#781f1c" />
        <path
           id="path11157"
           d="m 505.44705,469.50847 c -0.30278,1.81663 -1.32462,3.25478 -4.42803,3.25478 l 7.66044,6.42788 c 3.10341,0 4.12525,-1.43815 4.42803,-3.25478 z"
           style="fill:#781f1c" />
        <path
           id="path11159"
           d="m 501.01902,472.76325 c -1.2849,0 -2.32745,-0.31236 -3.12765,-0.98381 l 7.66044,6.42788 c 0.8002,0.67145 1.84275,0.98381 3.12765,0.98381 z"
           style="fill:#781f1c" />
        <path
           id="path11161"
           d="m 497.89137,471.77944 c -1.32107,-1.10851 -1.98161,-3.19573 -1.98161,-6.47192 l 7.66044,6.42788 c 0,3.27619 0.66054,5.36341 1.98161,6.47192 z"
           style="fill:#781f1c" />
        <path
           id="path11163"
           d="m 495.90976,465.30752 c 0,-4.20095 1.17324,-7.2665 4.61726,-7.2665 l 7.66044,6.42788 c -3.44402,0 -4.61726,3.06555 -4.61726,7.2665 z"
           style="fill:#781f1c" />
        <path
           id="path11165"
           d="m 500.52702,458.04102 c 1.20639,0 2.07869,0.3084 2.75548,0.87629 l 7.66044,6.42787 c -0.67678,-0.56788 -1.54908,-0.87628 -2.75548,-0.87628 z"
           style="fill:#781f1c" />
        <path
           id="path11167"
           d="m 503.2825,458.91731 c 0.74573,0.62574 1.25407,1.56654 1.7104,2.75695 l 7.66044,6.42788 c -0.45633,-1.19042 -0.96467,-2.13121 -1.7104,-2.75696 z"
           style="fill:#781f1c" />
        <path
           id="path11169"
           d="m 504.9929,461.67426 6.66094,-2.6114 7.66044,6.42788 -6.66094,2.6114 z"
           style="fill:#781f1c" />
        <path
           id="path11171"
           d="m 511.65384,459.06286 c -0.86088,-2.25554 -1.86277,-3.9941 -3.32283,-5.21923 l 7.66045,6.42788 c 1.46005,1.22513 2.46194,2.96368 3.32282,5.21923 z"
           style="fill:#781f1c" />
        <path
           id="path11173"
           d="m 508.33101,453.84363 c -1.74926,-1.4678 -4.15617,-2.19864 -7.76614,-2.19864 l 7.66044,6.42788 c 3.60998,0 6.01689,0.73083 7.76615,2.19864 z"
           style="fill:#781f1c" />
        <path
           id="path11175"
           d="m 500.56487,451.64499 c -8.02343,0 -12.33792,5.82834 -12.33792,13.66253 l 7.66044,6.42788 c 0,-7.83419 4.31449,-13.66253 12.33792,-13.66253 z"
           style="fill:#781f1c" />
        <path
           id="path11177"
           d="m 488.22695,465.30752 c 0,4.95848 1.62284,8.71533 4.37238,11.02247 l 7.66045,6.42788 c -2.74955,-2.30715 -4.37239,-6.06399 -4.37239,-11.02247 z"
           style="fill:#781f1c" />
        <path
           id="path11179"
           d="m 492.59933,476.32999 c 2.05632,1.72546 4.74283,2.64007 7.852,2.64007 l 7.66044,6.42788 c -3.10916,0 -5.79567,-0.91462 -7.85199,-2.64007 z"
           style="fill:#781f1c" />
        <path
           id="path11181"
           d="m 500.45133,478.97006 c 7.6828,0 11.84591,-4.16311 11.84591,-11.73238 l 7.66044,6.42788 c 0,7.56927 -4.16311,11.73238 -11.84591,11.73238 z"
           style="fill:#dc9f2e" />
      </g>
      <path
         id="text9599"
         d="m 267.34782,478.55375 0,-6.16896 -13.28408,0 0,-4.54157 7.8342,0 0,-6.09326 -7.8342,0 0,-3.51971 13.01915,0 0,-6.16896 -20.28565,0 0,26.49246 20.55058,0 m 27.9673,0 0,-26.49246 -7.03944,0 0,7.22865 c 0,2.15726 0.03785,5.67697 0.22708,6.8502 -0.5677,-1.09754 -2.91416,-4.61726 -4.12525,-6.24465 l -5.82835,-7.8342 -6.47173,0 0,26.49246 7.03943,0 0,-8.09912 c 0,-2.15724 -0.03784,-5.67696 -0.22707,-6.85019 0.68123,1.17323 2.95202,4.57942 4.12524,6.2068 l 6.32035,8.74251 5.97974,0 m 28.34161,-11.31607 0,-3.21693 -11.65669,0 0,5.48772 4.80649,0 c -0.30276,1.81663 -1.32464,3.25478 -4.42803,3.25478 -3.40616,0 -5.10926,-2.19508 -5.10926,-7.45573 0,-4.20095 1.17324,-7.2665 4.61726,-7.2665 2.53571,0 3.5954,1.36248 4.46586,3.63324 l 6.66098,-2.6114 c -1.89233,-4.95786 -4.46589,-7.41787 -11.089,-7.41787 -8.02341,0 -12.33792,5.82834 -12.33792,13.66253 0,8.66681 4.95789,13.66254 12.22439,13.66254 7.68281,0 11.84592,-4.16311 11.84592,-11.73238 m 11.98606,11.31607 0,-26.49246 -7.49359,0 0,26.49246 7.49359,0 m 28.7863,0 0,-26.49246 -7.03942,0 0,7.22865 c 0,2.15726 0.03785,5.67697 0.22708,6.8502 -0.56769,-1.09754 -2.91417,-4.61726 -4.12525,-6.24465 l -5.82835,-7.8342 -6.47173,0 0,26.49246 7.03943,0 0,-8.09912 c 0,-2.15724 -0.03785,-5.67696 -0.22709,-6.85019 0.68125,1.17323 2.95202,4.57942 4.12526,6.2068 l 6.32034,8.74251 5.97973,0 m 25.91945,0 0,-6.16896 -13.28408,0 0,-4.54157 7.8342,0 0,-6.09326 -7.8342,0 0,-3.51971 13.01914,0 0,-6.16896 -20.28564,0 0,26.49246 20.55058,0 m 25.28021,0 0,-6.16896 -13.28409,0 0,-4.54157 7.8342,0 0,-6.09326 -7.8342,0 0,-3.51971 13.01916,0 0,-6.16896 -20.28566,0 0,26.49246 20.55059,0 m 27.43742,0 -5.29849,-10.10498 c 2.91417,-1.32463 4.76864,-3.78465 4.76864,-7.7585 0,-6.2825 -4.12526,-8.62898 -10.33205,-8.62898 l -11.84592,0 0,26.49246 7.22867,0 0,-8.93174 2.95199,0 4.3145,8.93174 8.21266,0 m -7.8342,-17.67426 c 0,1.89233 -0.94616,2.95202 -3.33048,2.95202 l -4.31447,0 0,-5.79049 4.42801,0 c 2.30863,0 3.21694,1.17324 3.21694,2.83847 m 19.93734,17.67426 0,-26.49246 -7.49357,0 0,26.49246 7.49357,0 m 28.78632,0 0,-26.49246 -7.03943,0 0,7.22865 c 0,2.15726 0.03785,5.67697 0.2271,6.8502 -0.56771,-1.09754 -2.91419,-4.61726 -4.12527,-6.24465 l -5.82834,-7.8342 -6.47172,0 0,26.49246 7.03942,0 0,-8.09912 c 0,-2.15724 -0.03785,-5.67696 -0.22709,-6.85019 0.68123,1.17323 2.95202,4.57942 4.12526,6.2068 l 6.32035,8.74251 5.97972,0 m 28.34161,-11.31607 0,-3.21693 -11.65669,0 0,5.48772 4.8065,0 c -0.30278,1.81663 -1.32462,3.25478 -4.42803,3.25478 -3.40617,0 -5.10926,-2.19508 -5.10926,-7.45573 0,-4.20095 1.17324,-7.2665 4.61726,-7.2665 2.53569,0 3.59541,1.36248 4.46588,3.63324 l 6.66094,-2.6114 c -1.89229,-4.95786 -4.46586,-7.41787 -11.08897,-7.41787 -8.02343,0 -12.33792,5.82834 -12.33792,13.66253 0,8.66681 4.95788,13.66254 12.22438,13.66254 7.6828,0 11.84591,-4.16311 11.84591,-11.73238"
         style="font-size:37.62100983px;font-style:normal;font-variant:normal;font-weight:normal;font-stretch:normal;text-align:start;line-height:89.99999762%;writing-mode:lr-tb;text-anchor:start;fill:#ffffff;fill-opacity:1;stroke:none;font-family:Interstate-Black;-inkscape-font-specification:Interstate-Black" />
    </g>
    <g
       transform="translate(-6.5,-256.88643)"
       id="g8065">
      <g
         transform="translate(13,200)"
         id="g7512"
         style="fill:#003d6e">
        <g
           id="g7514"
           style="font-size:40px;font-style:normal;font-variant:normal;font-weight:normal;font-stretch:normal;text-align:start;line-height:125%;writing-mode:lr-tb;text-anchor:start;fill:#003d6e;fill-opacity:1;stroke:none;font-family:Interstate-Black;-inkscape-font-specification:Interstate-Black">
          <path
             id="path7668"
             d="m 418.41975,572.50507 0,-28 7.66044,6.42788 0,28 z"
             style="fill:#781f1c" />
          <path
             id="path7666"
             d="m 397.94287,551.26507 7.84,0 7.66044,6.42788 -7.84,0 z"
             style="fill:#dc9f2e" />
          <path
             id="path7654"
             d="m 405.78287,544.50507 -23.44,0 7.66044,6.42788 23.44,0 z"
             style="fill:#781f1c" />
          <path
             id="path7646"
             transform="translate(206.04724,417.1375)"
             d="m 159.34375,135.4375 c -0.36,1.87999 -0.78125,3.44 -1.78125,7 l -0.53125,1.84375 7.65625,6.4375 0.53125,-1.84375 c 1,-3.56 1.42125,-5.12 1.78125,-7 l -7.65625,-6.4375 z"
             style="fill:#781f1c" />
          <path
             id="path7524"
             transform="translate(212.54724,428.6375)"
             d="m 53.375,129.8125 c 0,9.31999 -5.4,14.5 -13,14.5 -3.29095,0 -6.154659,-0.94438 -8.34375,-2.78125 l 7.65625,6.40625 c 2.1891,1.83687 5.052802,2.81249 8.34375,2.8125 7.6,0 13.000002,-5.18001 13,-14.5 L 53.375,129.8125 z"
             style="fill:url(#linearGradient12020);fill-opacity:1" />
          <path
             id="path7516"
             transform="translate(206.04724,417.1375)"
             d="m 46.9375,126.9375 7.6875,6.40625 c 1.329747,0 2.576133,0.16222 3.75,0.46875 0.962842,2.06947 1.5,4.56082 1.5,7.5 l 7.65625,6.4375 c 0,-5.28424 -1.696188,-9.18863 -4.5625,-11.59375 l -7.6875,-6.4375 c -2.189088,-1.83687 -5.05279,-2.78125 -8.34375,-2.78125 z"
             style="fill:#781f1c" />
          <path
             id="path7534"
             transform="translate(212.54724,428.6375)"
             d="m 40.375,122.1875 c -3.11999,0 -4.874999,2.585 -4.875,7.625 l 7.65625,6.4375 c 0,-5.04 1.755012,-7.625 4.875,-7.625 1.08044,0 1.999808,0.30802 2.75,0.9375 L 43.125,123.125 c -0.75019,-0.62948 -1.66956,-0.9375 -2.75,-0.9375 z"
             style="fill:url(#linearGradient12022)" />
          <path
             id="path7532"
             d="m 250.24156,565.2342 c -1.41615,-1.18828 -2.20244,-3.47446 -2.20244,-6.76913 l 7.66044,6.42788 c 0,3.29467 0.7863,5.58084 2.20244,6.76913 z"
             style="fill:#781f1c" />
          <path
             id="path7540"
             transform="translate(206.04724,417.1375)"
             d="m 76.4375,127.375 7.65625,6.40625 c 1.054987,0 2.067797,0.08125 3,0.21875 0.174907,0.80373 0.28125,1.68128 0.28125,2.65625 l 7.65625,6.40625 c 0,-3.24009 -1.015831,-5.48739 -2.78125,-6.96875 l -7.65625,-6.4375 C 82.675857,128.04695 79.85327,127.375 76.4375,127.375 z"
             style="fill:#781f1c" />
          <path
             id="path7544"
             d="m 282.496,544.50507 -12.04,0 7.66044,6.42788 12.04,0 z"
             style="fill:#003d6e" />
          <path
             id="path7546"
             d="m 270.456,544.50507 0,28 7.66044,6.42788 0,-28 z"
             style="fill:#003d6e" />
          <path
             id="path7550"
             d="m 278.096,572.50507 0,-9.08 7.66044,6.42788 0,9.08 z"
             style="fill:#781f1c" />
          <path
             id="path7556"
             d="m 285.696,553.90507 c 0,2.11999 -1,3.2 -3.52,3.2 l 7.66044,6.42788 c 2.52,0 3.52,-1.08001 3.52,-3.2 z"
             style="fill:#003d6e" />
          <path
             id="path7558"
             d="m 282.176,557.10507 -4.08,0 7.66044,6.42788 4.08,0 z"
             style="fill:#003d6e" />
          <path
             id="path7560"
             d="m 278.096,557.10507 0,-6.28 7.66044,6.42788 0,6.28 z"
             style="fill:#781f1c" />
          <path
             id="path7562"
             transform="translate(206.04724,417.1375)"
             d="m 72.0625,133.6875 7.65625,6.4375 4.1875,0 c 1.13152,0 1.925943,0.26327 2.46875,0.71875 l -7.65625,-6.4375 C 78.17593,133.95078 77.381514,133.68749 76.25,133.6875 l -4.1875,0 z"
             style="fill:#dc9f2e" />
          <path
             id="path7566"
             d="m 284.7771,551.53867 c 0.64689,0.54282 0.9189,1.36591 0.9189,2.3664 l 7.66044,6.42788 c 0,-1.00049 -0.272,-1.82359 -0.9189,-2.3664 z"
             style="fill:#003d6e" />
          <path
             id="path7570"
             d="m 319.3635,565.98507 -14.04,0 7.66044,6.42788 14.04,0 z"
             style="fill:#003d6e" />
          <path
             id="path7572"
             d="m 305.3235,565.98507 0,-4.8 7.66044,6.42788 0,4.8 z"
             style="fill:#781f1c" />
          <path
             id="path7574"
             d="m 305.3235,561.18507 8.28,0 7.66044,6.42788 -8.28,0 z"
             style="fill:#dc9f2e" />
          <path
             id="path7582"
             d="m 305.3235,551.02507 13.76,0 7.66044,6.42788 -13.76,0 z"
             style="fill:#dc9f2e" />
          <path
             id="path7588"
             d="m 297.6435,544.50507 0,28 7.66044,6.42788 0,-28 z"
             style="fill:#003d6e" />
          <path
             id="path7552"
             transform="translate(212.54724,428.6375)"
             d="m 80.875,125.15625 c 0,7.11999 -4.717507,9.625 -11.4375,9.625 l -3.875,0 7.65625,6.4375 3.875,0 c 6.71999,0 11.437502,-2.53626 11.4375,-9.65625 L 80.875,125.15625 z"
             style="fill:url(#linearGradient12024)" />
          <path
             id="path7590"
             d="m 297.6435,572.50507 21.72,0 7.66044,6.42788 -21.72,0 z"
             style="fill:#dc9f2e" />
          <path
             id="path7592"
             d="m 348.36225,572.50507 -5.6,-10.68 7.66044,6.42788 5.6,10.68 z"
             style="fill:#781f1c" />
          <path
             id="path7596"
             transform="translate(206.04724,417.1375)"
             d="m 130.84375,127.375 7.65625,6.40625 c 1.06363,0 2.06125,0.0812 3,0.21875 0.15582,0.75331 0.25,1.59706 0.25,2.5 0,4.19999 -1.95125,6.78749 -5.03125,8.1875 l 7.65625,6.4375 c 3.08,-1.4 5.03125,-4.01876 5.03125,-8.21875 0,-3.15424 -0.98254,-5.35565 -2.71875,-6.8125 l -7.65625,-6.4375 c -1.91869,-1.60997 -4.74374,-2.28125 -8.1875,-2.28125 z"
             style="fill:url(#linearGradient12026);fill-opacity:1" />
          <path
             id="path7600"
             d="m 336.88225,544.50507 -12.52,0 7.66044,6.42788 12.52,0 z"
             style="fill:#003d6e" />
          <path
             id="path7602"
             d="m 324.36225,544.50507 0,28 7.66044,6.42788 0,-28 z"
             style="fill:#003d6e" />
          <path
             id="path7604"
             d="m 324.36225,572.50507 7.64,0 7.66044,6.42788 -7.64,0 z"
             style="fill:#dc9f2e" />
          <path
             id="path7606"
             d="m 332.00225,572.50507 0,-9.44 7.66044,6.42788 0,9.44 z"
             style="fill:#781f1c" />
          <path
             id="path7608"
             d="m 332.00225,563.06507 3.12,0 7.66044,6.42788 -3.12,0 z"
             style="fill:#dc9f2e" />
          <path
             id="path7610"
             d="m 335.12225,563.06507 4.56,9.44 7.66044,6.42788 -4.56,-9.44 z"
             style="fill:#003d6e" />
          <path
             id="path7612"
             d="m 339.68225,572.50507 8.68,0 7.66044,6.42788 -8.68,0 z"
             style="fill:#dc9f2e" />
          <path
             id="path7618"
             d="m 332.00225,556.94507 0,-6.12 7.66044,6.42788 0,6.12 z"
             style="fill:#781f1c" />
          <path
             id="path7620"
             transform="translate(212.54724,428.6375)"
             d="m 119.46875,122.1875 7.65625,6.4375 4.65625,0 c 1.12789,0 1.95324,0.25995 2.5,0.71875 l -7.65625,-6.4375 c -0.54677,-0.45879 -1.37211,-0.71875 -2.5,-0.71875 l -4.65625,0 z"
             style="fill:url(#linearGradient12028)" />
          <path
             id="path7626"
             d="m 379.51412,572.50507 -10.16,-28 7.66044,6.42788 10.16,28 z"
             style="fill:#781f1c" />
          <path
             id="path7632"
             d="m 351.35412,572.50507 8.32,0 7.66044,6.42788 -8.32,0 z"
             style="fill:#dc9f2e" />
          <path
             id="path7634"
             d="m 359.67412,572.50507 1.52,-4.92 7.66044,6.42788 -1.52,4.92 z"
             style="fill:#781f1c" />
          <path
             id="path7636"
             d="m 361.19412,567.58507 8.4,0 7.66044,6.42788 -8.4,0 z"
             style="fill:#dc9f2e" />
          <path
             id="path7640"
             d="m 371.11412,572.50507 8.4,0 7.66044,6.42788 -8.4,0 z"
             style="fill:#dc9f2e" />
          <path
             id="path7642"
             d="m 367.71412,561.42507 -4.64,0 7.66044,6.42788 4.64,0 z"
             style="fill:#003d6e" />
          <path
             id="path7648"
             d="m 365.39412,552.58507 c 0.36,1.87999 0.8,3.4 1.8,7 l 7.66044,6.42788 c -1,-3.6 -1.44,-5.12001 -1.8,-7 z"
             style="fill:#003d6e" />
          <path
             id="path7650"
             d="m 367.19412,559.58507 0.52,1.84 7.66044,6.42788 -0.52,-1.84 z"
             style="fill:#003d6e" />
          <path
             id="path7652"
             d="m 405.78287,551.26507 0,-6.76 7.66044,6.42788 0,6.76 z"
             style="fill:#781f1c" />
          <path
             id="path7658"
             d="m 382.34287,551.26507 7.84,0 7.66044,6.42788 -7.84,0 z"
             style="fill:#dc9f2e" />
          <path
             id="path7660"
             d="m 390.18287,551.26507 0,21.24 7.66044,6.42788 0,-21.24 z"
             style="fill:#003d6e" />
          <path
             id="path7662"
             d="m 390.18287,572.50507 7.76,0 7.66044,6.42788 -7.76,0 z"
             style="fill:#dc9f2e" />
          <path
             id="path7664"
             d="m 397.94287,572.50507 0,-21.24 7.66044,6.42788 0,21.24 z"
             style="fill:#781f1c" />
          <path
             id="path7672"
             d="m 410.49975,544.50507 0,28 7.66044,6.42788 0,-28 z"
             style="fill:#003d6e" />
          <path
             id="path7674"
             d="m 410.49975,572.50507 7.92,0 7.66044,6.42788 -7.92,0 z"
             style="fill:#dc9f2e" />
          <path
             id="path7676"
             d="m 449.04412,558.46507 c 0,-5.28424 -1.7102,-9.20547 -4.57651,-11.61059 l 7.66045,6.42787 c 2.86631,2.40512 4.5765,6.32636 4.5765,11.6106 z"
             style="fill:#781f1c" />
          <path
             id="path7678"
             d="m 444.46761,546.85448 c -2.18909,-1.83687 -5.05253,-2.78941 -8.34349,-2.78941 l 7.66044,6.42788 c 3.29096,0 6.1544,0.95253 8.3435,2.7894 z"
             style="fill:#781f1c" />
          <path
             id="path7680"
             d="m 436.12412,544.06507 c -7.59999,0 -13,5.16001 -13,14.48 l 7.66044,6.42788 c 0,-9.31999 5.40001,-14.48 13,-14.48 z"
             style="fill:#003d6e" />
          <path
             id="path7682"
             d="m 423.12412,558.54507 c 0,5.28424 1.7102,9.20547 4.57651,11.61059 l 7.66044,6.42788 c -2.86631,-2.40512 -4.57651,-6.32635 -4.57651,-11.61059 z"
             style="fill:#003d6e" />
          <path
             id="path7688"
             d="m 441.00412,558.54507 c 0,5.03999 -1.76,7.64 -4.88,7.64 l 7.66044,6.42788 c 3.12,0 4.88,-2.60001 4.88,-7.64 z"
             style="fill:#003d6e" />
          <path
             id="path7690"
             d="m 436.12412,566.18507 c -1.08044,0 -2.00738,-0.32139 -2.75756,-0.95087 l 7.66044,6.42788 c 0.75019,0.62948 1.67713,0.95087 2.75756,0.95087 z"
             style="fill:#003d6e" />
          <path
             id="path7692"
             transform="translate(206.04724,417.1375)"
             d="m 230,133.6875 c -3.11999,0 -4.875,2.585 -4.875,7.625 0,3.29467 0.77135,5.59298 2.1875,6.78125 l 7.65625,6.4375 c -1.41614,-1.18829 -2.18749,-3.48658 -2.1875,-6.78125 0,-5.04 1.75501,-7.625 4.875,-7.625 1.08044,0 1.99981,0.30802 2.75,0.9375 L 232.75,134.625 c -0.75019,-0.62948 -1.66957,-0.9375 -2.75,-0.9375 z"
             style="fill:url(#linearGradient12030)" />
          <path
             id="path7698"
             d="m 438.80169,551.77594 c 1.41614,1.18828 2.20243,3.47446 2.20243,6.76913 l 7.66044,6.42788 c 0,-3.29468 -0.78628,-5.58085 -2.20242,-6.76913 z"
             style="fill:#003d6e" />
          <path
             id="path7700"
             d="m 478.141,572.50507 0,-28 7.66044,6.42788 0,28 z"
             style="fill:#781f1c" />
          <path
             id="path7704"
             d="m 470.701,544.50507 0,7.64 7.66044,6.42788 0,-7.64 z"
             style="fill:#003d6e" />
          <path
             id="path7706"
             d="m 470.701,552.14507 c 0,2.27999 0.04,6 0.24,7.24 l 7.66044,6.42788 c -0.2,-1.24 -0.24,-4.96001 -0.24,-7.24 z"
             style="fill:#003d6e" />
          <path
             id="path7708"
             d="m 470.941,559.38507 c -0.6,-1.16 -3.08,-4.88001 -4.36,-6.6 l 7.66044,6.42788 c 1.28,1.71999 3.76,5.44 4.36,6.6 z"
             style="fill:#781f1c" />
          <path
             id="path7710"
             d="m 466.581,552.78507 -6.16,-8.28 7.66044,6.42788 6.16,8.28 z"
             style="fill:#781f1c" />
          <path
             id="path7712"
             d="m 460.421,544.50507 -6.84,0 7.66044,6.42788 6.84,0 z"
             style="fill:#781f1c" />
          <path
             id="path7714"
             d="m 453.581,544.50507 0,28 7.66044,6.42788 0,-28 z"
             style="fill:#003d6e" />
          <path
             id="path7684"
             transform="translate(212.54724,428.6375)"
             d="m 236.5,129.8125 c 0,9.31999 -5.40001,14.5 -13,14.5 -3.29095,0 -6.15467,-0.94438 -8.34375,-2.78125 l 7.65625,6.40625 c 2.1891,1.83687 5.0528,2.81249 8.34375,2.8125 7.6,0 13,-5.18001 13,-14.5 L 236.5,129.8125 z"
             style="fill:url(#linearGradient12032)" />
          <path
             id="path7718"
             d="m 461.021,572.50507 0,-8.56 7.66044,6.42788 0,8.56 z"
             style="fill:#781f1c" />
          <path
             id="path7720"
             d="m 461.021,563.94507 c 0,-2.28 -0.04,-6.00001 -0.24,-7.24 l 7.66044,6.42788 c 0.2,1.23999 0.24,4.96 0.24,7.24 z"
             style="fill:#781f1c" />
          <path
             id="path7722"
             d="m 460.781,556.70507 c 0.72,1.23999 3.12,4.84 4.36,6.56 l 7.66044,6.42788 c -1.24,-1.72 -3.64,-5.32001 -4.36,-6.56 z"
             style="fill:#003d6e" />
          <path
             id="path7724"
             d="m 465.141,563.26507 6.68,9.24 7.66044,6.42788 -6.68,-9.24 z"
             style="fill:#003d6e" />
          <path
             id="path7716"
             d="m 453.581,572.50507 7.44,0 7.66044,6.42788 -7.44,0 z"
             style="fill:#dc9f2e" />
          <path
             id="path7726"
             d="m 471.821,572.50507 6.32,0 7.66044,6.42788 -6.32,0 z"
             style="fill:#dc9f2e" />
          <path
             id="path7728"
             d="m 506.09537,563.90507 c 0,-2.6334 -0.788,-4.4889 -2.46553,-5.89652 l 7.66044,6.42787 c 1.67754,1.40762 2.46553,3.26313 2.46553,5.89653 z"
             style="fill:#781f1c" />
          <path
             id="path7730"
             d="m 503.62984,558.00855 c -1.66047,-1.3933 -4.19247,-2.34778 -7.69447,-3.18348 l 7.66044,6.42788 c 3.50201,0.8357 6.034,1.79018 7.69447,3.18347 z"
             style="fill:#781f1c" />
          <path
             id="path7732"
             d="m 495.93537,554.82507 c -2.32968,-0.54359 -3.57053,-0.93643 -4.15616,-1.42783 l 7.66044,6.42788 c 0.58563,0.4914 1.82648,0.88423 4.15616,1.42783 z"
             style="fill:#003d6e" />
          <path
             id="path7734"
             d="m 491.77921,553.39724 c -0.31933,-0.26794 -0.44384,-0.5652 -0.44384,-0.93217 l 7.66044,6.42788 c 0,0.36697 0.12452,0.66422 0.44384,0.93217 z"
             style="fill:#003d6e" />
          <path
             id="path7736"
             transform="translate(212.54724,428.6375)"
             d="m 282.0625,115.4375 c -6.75998,0 -11.03125,3.56375 -11.03125,8.84375 l 7.65625,6.40625 c 0,-2.09614 0.6734,-3.90297 1.90625,-5.34375 l 5.84375,4.90625 c 0,-1 0.58625,-1.71874 2.90625,-1.71875 2.84,0 5.30126,0.97626 7.78125,2.65625 l -7.65625,-6.4375 c -1.4827,-1.00441 -2.97161,-1.74909 -4.53125,-2.1875 1.4051,-0.46172 2.99793,-0.71875 4.78125,-0.71875 l -7.65625,-6.40625 z"
             style="fill:url(#linearGradient12034)" />
          <path
             id="path7740"
             transform="translate(212.54724,428.6375)"
             d="m 282.0625,115.4375 7.65625,6.40625 c 0.51011,0 1.01918,0.03615 1.5,0.0625 l -1.75,2.84375 7.65625,6.4375 3.75,-6.09375 -7.65625,-6.4375 c -2.95998,-2.08 -6.39625,-3.21875 -11.15625,-3.21875 z"
             style="fill:url(#linearGradient12036)" />
          <path
             id="path7746"
             d="m 483.57537,552.90507 c 0,2.76121 0.78772,4.60829 2.39672,5.9584 l 7.66044,6.42788 c -1.609,-1.35012 -2.39672,-3.19719 -2.39672,-5.9584 z"
             style="fill:#003d6e" />
          <path
             id="path7748"
             d="m 485.97209,558.86347 c 1.6542,1.38804 4.17647,2.2508 7.60328,3.0416 l 7.66044,6.42788 c -3.42681,-0.79081 -5.94908,-1.65357 -7.60328,-3.0416 z"
             style="fill:#781f1c" />
          <path
             id="path7750"
             d="m 493.57537,561.90507 c 2.35848,0.55199 3.63104,1.00954 4.25204,1.53062 l 7.66044,6.42788 c -0.62099,-0.52108 -1.89355,-0.97864 -4.25204,-1.53062 z"
             style="fill:#781f1c" />
          <path
             id="path7752"
             d="m 497.82741,563.43569 c 0.36902,0.30965 0.50796,0.64173 0.50796,1.02938 l 7.66044,6.42788 c 0,-0.38766 -0.13893,-0.71974 -0.50796,-1.02938 z"
             style="fill:#003d6e" />
          <path
             id="path7754"
             d="m 498.33537,564.46507 c 0,1.31999 -0.88,1.8 -3.64,1.8 l 7.66044,6.42788 c 2.76,0 3.64,-0.48001 3.64,-1.8 z"
             style="fill:#003d6e" />
          <path
             id="path7756"
             d="m 494.69537,566.26507 c -2.59999,0 -6.16,-1.40001 -8.2,-2.8 l 7.66044,6.42788 c 2.04,1.39999 5.60001,2.8 8.2,2.8 z"
             style="fill:#003d6e" />
          <path
             id="path7758"
             d="m 486.49537,563.46507 -3.76,6.08 7.66044,6.42788 3.76,-6.08 z"
             style="fill:#003d6e" />
          <path
             id="path7760"
             transform="translate(212.54724,428.6375)"
             d="m 293.5625,135.28125 c 0,6.39999 -4.8425,9.03125 -11.5625,9.03125 -4.51999,0 -8.89251,-1.48627 -11.8125,-3.40625 l 7.65625,6.4375 c 2.92,1.91999 7.29252,3.40624 11.8125,3.40625 6.72,0 11.56251,-2.66251 11.5625,-9.0625 l -7.65625,-6.40625 z"
             style="fill:url(#linearGradient12038)" />
          <path
             id="path7548"
             d="m 270.456,572.50507 7.64,0 7.66044,6.42788 -7.64,0 z"
             style="fill:#dc9f2e" />
          <path
             id="path7580"
             d="m 305.3235,554.74507 0,-3.72 7.66044,6.42788 0,3.72 z"
             style="fill:#781f1c" />
          <path
             id="path7576"
             d="m 313.6035,561.18507 0,-6.44 7.66044,6.42788 0,6.44 z"
             style="fill:#781f1c" />
          <path
             id="path7568"
             d="m 319.3635,572.50507 0,-6.52 7.66044,6.42788 0,6.52 z"
             style="fill:#781f1c" />
          <path
             id="path7584"
             d="m 319.0835,551.02507 0,-6.52 7.66044,6.42788 0,6.52 z"
             style="fill:#781f1c" />
        </g>
        <path
           style="font-size:40px;font-style:normal;font-variant:normal;font-weight:normal;font-stretch:normal;text-align:start;line-height:125%;writing-mode:lr-tb;text-anchor:start;fill:#ffffff;fill-opacity:1;stroke:none;font-family:Interstate-Black;-inkscape-font-specification:Interstate-Black"
           id="text5261"
           d="m 265.91912,558.46507 c 0,-9.31999 -5.32,-14.4 -12.92,-14.4 -7.59999,0 -13,5.16001 -13,14.48 0,9.31999 5.32001,14.4 12.92,14.4 7.6,0 13,-5.16001 13,-14.48 m -8.04,0.08 c 0,5.03999 -1.76,7.64 -4.88,7.64 -3.11999,0 -4.96,-2.68001 -4.96,-7.72 0,-5.04 1.76001,-7.64 4.88,-7.64 3.12,0 4.96,2.68 4.96,7.72 m 35.53688,-4.76 c 0,-6.76 -4.36001,-9.28 -10.92,-9.28 l -12.04,0 0,28 7.64,0 0,-9.08 3.88,0 c 6.71999,0 11.44,-2.52001 11.44,-9.64 m -7.72,0.12 c 0,2.11999 -1,3.2 -3.52,3.2 l -4.08,0 0,-6.28 4.2,0 c 2.48,0 3.4,1.24 3.4,3.08 m 33.6675,18.6 0,-6.52 -14.04,0 0,-4.8 8.28,0 0,-6.44 -8.28,0 0,-3.72 13.76,0 0,-6.52 -21.44,0 0,28 21.72,0 m 28.99875,0 -5.6,-10.68 c 3.08,-1.4 5.04,-4.00001 5.04,-8.2 0,-6.64 -4.36001,-9.12 -10.92,-9.12 l -12.52,0 0,28 7.64,0 0,-9.44 3.12,0 4.56,9.44 8.68,0 m -8.28,-18.68 c 0,1.99999 -1,3.12 -3.52,3.12 l -4.56,0 0,-6.12 4.68,0 c 2.44,0 3.4,1.24 3.4,3 m 39.43187,18.68 -10.16,-28 -7.84,0 -10.16,28 8.32,0 1.52,-4.92 8.4,0 1.52,4.92 8.4,0 m -11.8,-11.08 -4.64,0 0.52,-1.84 c 1,-3.56 1.44,-5.12001 1.8,-7 0.36,1.87999 0.8,3.4 1.8,7 l 0.52,1.84 m 38.06875,-10.16 0,-6.76 -23.44,0 0,6.76 7.84,0 0,21.24 7.76,0 0,-21.24 7.84,0 m 12.63688,21.24 0,-28 -7.92,0 0,28 7.92,0 m 30.62437,-14.04 c 0,-9.31999 -5.32,-14.4 -12.92,-14.4 -7.59999,0 -13,5.16001 -13,14.48 0,9.31999 5.32001,14.4 12.92,14.4 7.6,0 13,-5.16001 13,-14.48 m -8.04,0.08 c 0,5.03999 -1.76,7.64 -4.88,7.64 -3.11999,0 -4.96,-2.68001 -4.96,-7.72 0,-5.04 1.76001,-7.64 4.88,-7.64 3.12,0 4.96,2.68 4.96,7.72 m 37.13688,13.96 0,-28 -7.44,0 0,7.64 c 0,2.27999 0.04,6 0.24,7.24 -0.6,-1.16 -3.08,-4.88001 -4.36,-6.6 l -6.16,-8.28 -6.84,0 0,28 7.44,0 0,-8.56 c 0,-2.28 -0.04,-6.00001 -0.24,-7.24 0.72,1.23999 3.12,4.84 4.36,6.56 l 6.68,9.24 6.32,0 m 27.95437,-8.6 c 0,-5.24 -3.12,-7.40001 -10.16,-9.08 -3.59999,-0.84 -4.6,-1.32001 -4.6,-2.36 0,-1 0.56001,-1.72 2.88,-1.72 2.84,0 5.32001,0.96 7.8,2.64 l 3.76,-6.08 c -2.95999,-2.08 -6.4,-3.24 -11.16,-3.24 -6.75999,0 -11.04,3.56 -11.04,8.84 0,5.59999 3.24001,7.44 10,9 3.76,0.88 4.76,1.52 4.76,2.56 0,1.31999 -0.88,1.8 -3.64,1.8 -2.59999,0 -6.16,-1.40001 -8.2,-2.8 l -3.76,6.08 c 2.92,1.91999 7.28001,3.4 11.8,3.4 6.72,0 11.56,-2.64001 11.56,-9.04" />
      </g>
    </g>
    <g
       id="g10752"
       style="fill:#781f1c"
       transform="matrix(0.9723355,0,0,0.9723355,6.8275324,11.6765)">
      <g
         id="g10754"
         style="font-size:63.35354233px;font-style:normal;font-variant:normal;font-weight:normal;font-stretch:normal;text-align:start;line-height:89.99999762%;writing-mode:lr-tb;text-anchor:start;fill:#781f1c;fill-opacity:1;stroke:none;font-family:Interstate-Black;-inkscape-font-specification:Interstate-Black">
        <path
           style="fill:url(#linearGradient12040)"
           d="m 67.125,40.03125 c 2.75563,2.31224 4.312499,5.83748 4.3125,10.84375 0,6.66606 -3.080309,10.77797 -7.96875,13 l 7.65625,6.4375 c 4.88844,-2.22203 8.000001,-6.36519 8,-13.03125 0,-5.00628 -1.588132,-8.50025 -4.34375,-10.8125 L 67.125,40.03125 z"
           transform="translate(212.54724,360.25107)"
           id="path10758" />
        <path
           id="path10756"
           d="m 284.88905,441.08088 -8.88807,-16.95085 7.66044,6.42788 8.88807,16.95085 z"
           style="fill:#781f1c" />
        <path
           id="path10762"
           d="m 279.68306,400.28046 c -3.04526,-2.55528 -7.54878,-3.64004 -13.01459,-3.64004 l 7.66044,6.42788 c 5.46581,0 9.96934,1.08476 13.0146,3.64003 z"
           style="fill:#781f1c" />
        <path
           id="path10764"
           d="m 266.66847,396.64042 -19.87123,0 7.66044,6.42788 19.87123,0 z"
           style="fill:#781f1c" />
        <path
           id="path10766"
           d="m 246.79724,396.64042 0,44.44046 7.66044,6.42788 0,-44.44046 z"
           style="fill:#781f1c" />
        <path
           id="path10768"
           d="m 246.79724,441.08088 12.12589,0 7.66044,6.42788 -12.12589,0 z"
           style="fill:#dc9f2e" />
        <path
           id="path10770"
           d="m 258.92313,441.08088 0,-14.98278 7.66044,6.42788 0,14.98278 z"
           style="fill:#781f1c" />
        <path
           id="path10772"
           d="m 258.92313,426.0981 4.95194,0 7.66044,6.42788 -4.95194,0 z"
           style="fill:#781f1c" />
        <path
           id="path10774"
           d="m 263.87507,426.0981 7.23745,14.98278 7.66044,6.42788 -7.23745,-14.98278 z"
           style="fill:#781f1c" />
        <path
           id="path10776"
           d="m 271.11252,441.08088 13.77653,0 7.66044,6.42788 -13.77653,0 z"
           style="fill:#dc9f2e" />
        <path
           id="path10778"
           d="m 271.74738,411.43275 c 0,3.17431 -1.58715,4.95194 -5.5868,4.95194 l 7.66044,6.42788 c 3.99965,0 5.5868,-1.77763 5.5868,-4.95194 z"
           style="fill:#781f1c" />
        <path
           id="path10780"
           d="m 266.16058,416.38469 -7.23745,0 7.66044,6.42788 7.23745,0 z"
           style="fill:#781f1c" />
        <path
           id="path10782"
           d="m 258.92313,416.38469 0,-9.71341 7.66044,6.42788 0,9.71341 z"
           style="fill:#781f1c" />
        <path
           style="fill:#dc9f2e"
           d="m 46.375,46.40625 7.65625,6.4375 7.4375,0 c 1.79014,0 3.069692,0.428061 3.9375,1.15625 L 57.75,47.5625 c -0.86782,-0.72818 -2.147359,-1.156252 -3.9375,-1.15625 l -7.4375,0 z"
           transform="translate(212.54724,360.25107)"
           id="path10784" />
        <path
           id="path10788"
           d="m 270.29721,407.81999 c 1.00956,0.84712 1.45017,2.11061 1.45017,3.61276 l 7.66044,6.42788 c 0,-1.50215 -0.4406,-2.76564 -1.45017,-3.61276 z"
           style="fill:#781f1c" />
        <path
           id="path10790"
           d="m 326.77716,441.08088 0,-10.34827 7.66044,6.42788 0,10.34827 z"
           style="fill:#781f1c" />
        <path
           id="path10792"
           d="m 326.77716,430.73261 -22.28371,0 7.66044,6.42788 22.28371,0 z"
           style="fill:#781f1c" />
        <path
           id="path10794"
           d="m 304.49345,430.73261 0,-7.61837 7.66044,6.42788 0,7.61837 z"
           style="fill:#781f1c" />
        <path
           id="path10796"
           d="m 304.49345,423.11424 13.14168,0 7.66044,6.42788 -13.14168,0 z"
           style="fill:#dc9f2e" />
        <path
           id="path10798"
           d="m 317.63513,423.11424 0,-10.22131 7.66044,6.42788 0,10.22131 z"
           style="fill:#781f1c" />
        <path
           id="path10800"
           d="m 317.63513,412.89293 -13.14168,0 7.66044,6.42788 13.14168,0 z"
           style="fill:#781f1c" />
        <path
           id="path10802"
           d="m 304.49345,412.89293 0,-5.90423 7.66044,6.42788 0,5.90423 z"
           style="fill:#781f1c" />
        <path
           id="path10804"
           d="m 304.49345,406.9887 21.83932,0 7.66044,6.42788 -21.83932,0 z"
           style="fill:#dc9f2e" />
        <path
           id="path10806"
           d="m 326.33277,406.9887 0,-10.34828 7.66044,6.42788 0,10.34828 z"
           style="fill:#781f1c" />
        <path
           id="path10808"
           d="m 326.33277,396.64042 -34.0287,0 7.66044,6.42788 34.0287,0 z"
           style="fill:#781f1c" />
        <path
           id="path10810"
           d="m 292.30407,396.64042 0,44.44046 7.66044,6.42788 0,-44.44046 z"
           style="fill:#781f1c" />
        <path
           id="path10812"
           d="m 292.30407,441.08088 34.47309,0 7.66044,6.42788 -34.47309,0 z"
           style="fill:#dc9f2e" />
        <path
           style="fill:url(#linearGradient12042)"
           d="m 155,41.65625 c 3.58403,3.435413 5.56251,8.778067 5.5625,16.6875 0,16.69691 -8.25539,22.499999 -24,22.5 l -14.40625,0 7.65625,6.40625 14.4375,0 c 15.74461,0 23.96875,-5.771838 23.96875,-22.46875 0,-8.43674 -2.26537,-13.947811 -6.3125,-17.34375 L 155,41.65625 z"
           transform="translate(212.54724,360.25107)"
           id="path10814" />
        <path
           id="path10816"
           d="m 366.80384,401.25491 c -3.96242,-3.32486 -9.62905,-4.61449 -16.53869,-4.61449 l 7.66044,6.42788 c 6.90965,0 12.57628,1.28963 16.53869,4.61449 z"
           style="fill:#781f1c" />
        <path
           id="path10818"
           d="m 350.26515,396.64042 -15.55417,0 7.66044,6.42788 15.55417,0 z"
           style="fill:#781f1c" />
        <path
           id="path10826"
           d="m 360.48646,418.79717 c 0,8.82459 -2.98387,11.74498 -10.66572,11.74498 l 7.66044,6.42788 c 7.68185,0 10.66572,-2.92039 10.66572,-11.74498 z"
           style="fill:#781f1c" />
        <path
           id="path10828"
           d="m 349.82074,430.54215 -2.66644,0 7.66044,6.42788 2.66644,0 z"
           style="fill:#781f1c" />
        <path
           id="path10830"
           d="m 347.1543,430.54215 0,-23.36299 7.66044,6.42788 0,23.36299 z"
           style="fill:#781f1c" />
        <path
           style="fill:#dc9f2e"
           d="m 134.59375,46.9375 7.6875,6.40625 3.03125,0 c 3.28761,0 5.66006,0.639659 7.28125,2 l -7.6875,-6.4375 c -1.6212,-1.36035 -3.96239,-1.968749 -7.25,-1.96875 l -3.0625,0 z"
           transform="translate(212.54724,360.25107)"
           id="path10832" />
        <path
           id="path10836"
           d="m 357.46783,409.16743 c 2.1669,1.81824 3.01863,4.94498 3.01863,9.62974 l 7.66044,6.42788 c 0,-4.68477 -0.85173,-7.8115 -3.01863,-9.62975 z"
           style="fill:#781f1c" />
        <path
           id="path10838"
           d="m 427.57044,441.08088 0,-44.44046 7.66044,6.42788 0,44.44046 z"
           style="fill:#781f1c" />
        <path
           id="path10840"
           d="m 427.57044,396.64042 -12.5703,0 7.66044,6.42788 12.5703,0 z"
           style="fill:#781f1c" />
        <path
           id="path10842"
           d="m 415.00014,396.64042 0,16.18903 7.66044,6.42788 0,-16.18903 z"
           style="fill:#781f1c" />
        <path
           id="path10844"
           d="m 415.00014,412.82945 -13.84004,0 7.66044,6.42788 13.84004,0 z"
           style="fill:#781f1c" />
        <path
           id="path10846"
           d="m 401.1601,412.82945 0,-16.18903 7.66044,6.42788 0,16.18903 z"
           style="fill:#781f1c" />
        <path
           id="path10848"
           d="m 401.1601,396.64042 -12.5703,0 7.66044,6.42788 12.5703,0 z"
           style="fill:#781f1c" />
        <path
           id="path10850"
           d="m 388.5898,396.64042 0,44.44046 7.66044,6.42788 0,-44.44046 z"
           style="fill:#781f1c" />
        <path
           id="path10852"
           d="m 388.5898,441.08088 12.5703,0 7.66044,6.42788 -12.5703,0 z"
           style="fill:#dc9f2e" />
        <path
           id="path10854"
           d="m 401.1601,441.08088 0,-17.52223 7.66044,6.42788 0,17.52223 z"
           style="fill:#781f1c" />
        <path
           id="path10856"
           d="m 401.1601,423.55865 13.84004,0 7.66044,6.42788 -13.84004,0 z"
           style="fill:#dc9f2e" />
        <path
           id="path10858"
           d="m 415.00014,423.55865 0,17.52223 7.66044,6.42788 0,-17.52223 z"
           style="fill:#781f1c" />
        <path
           id="path10860"
           d="m 415.00014,441.08088 12.5703,0 7.66044,6.42788 -12.5703,0 z"
           style="fill:#dc9f2e" />
        <path
           id="path10862"
           d="m 478.60455,441.08088 -16.12553,-44.44046 7.66044,6.42788 16.12553,44.44046 z"
           style="fill:#781f1c" />
        <path
           id="path10864"
           d="m 462.47902,396.64042 -12.44332,0 7.66044,6.42788 12.44332,0 z"
           style="fill:#781f1c" />
        <path
           id="path10866"
           d="m 450.0357,396.64042 -16.12554,44.44046 7.66044,6.42788 16.12554,-44.44046 z"
           style="fill:#781f1c" />
        <path
           id="path10868"
           d="m 433.91016,441.08088 13.20515,0 7.66044,6.42788 -13.20515,0 z"
           style="fill:#dc9f2e" />
        <path
           id="path10870"
           d="m 447.11531,441.08088 2.41249,-7.80881 7.66044,6.42788 -2.41249,7.80881 z"
           style="fill:#781f1c" />
        <path
           id="path10872"
           d="m 449.5278,433.27207 13.33214,0 7.66044,6.42788 -13.33214,0 z"
           style="fill:#dc9f2e" />
        <path
           id="path10874"
           d="m 462.85994,433.27207 2.41249,7.80881 7.66044,6.42788 -2.41249,-7.80881 z"
           style="fill:#781f1c" />
        <path
           id="path10876"
           d="m 465.27243,441.08088 13.33212,0 7.66044,6.42788 -13.33212,0 z"
           style="fill:#dc9f2e" />
        <path
           id="path10878"
           d="m 459.87607,423.49515 -7.36441,0 7.66044,6.42788 7.36441,0 z"
           style="fill:#781f1c" />
        <path
           id="path10880"
           d="m 452.51166,423.49515 0.82533,-2.92036 7.66044,6.42788 -0.82533,2.92036 z"
           style="fill:#781f1c" />
        <path
           id="path10882"
           d="m 453.33699,420.57479 c 1.58716,-5.65029 2.2855,-8.12626 2.85689,-11.11012 l 7.66044,6.42788 c -0.57139,2.98386 -1.26973,5.45983 -2.85689,11.11012 z"
           style="fill:#781f1c" />
        <path
           id="path10884"
           d="m 456.19388,409.46467 c 0.57136,2.98386 1.26971,5.39635 2.85688,11.11012 l 7.66044,6.42788 c -1.58717,-5.71377 -2.28552,-8.12626 -2.85688,-11.11012 z"
           style="fill:#781f1c" />
        <path
           id="path10886"
           d="m 459.05076,420.57479 0.82531,2.92036 7.66044,6.42788 -0.82531,-2.92036 z"
           style="fill:#781f1c" />
        <path
           id="path10888"
           d="m 520.29724,407.36962 0,-10.7292 7.66044,6.42788 0,10.7292 z"
           style="fill:#781f1c" />
        <path
           id="path10890"
           d="m 520.29724,396.64042 -37.20302,0 7.66044,6.42788 37.20302,0 z"
           style="fill:#781f1c" />
        <path
           id="path10892"
           d="m 483.09422,396.64042 0,10.7292 7.66044,6.42788 0,-10.7292 z"
           style="fill:#781f1c" />
        <path
           id="path10894"
           d="m 483.09422,407.36962 12.44333,0 7.66044,6.42788 -12.44333,0 z"
           style="fill:#dc9f2e" />
        <path
           id="path10896"
           d="m 495.53755,407.36962 0,33.71126 7.66044,6.42788 0,-33.71126 z"
           style="fill:#781f1c" />
        <path
           id="path10898"
           d="m 495.53755,441.08088 12.31636,0 7.66044,6.42788 -12.31636,0 z"
           style="fill:#dc9f2e" />
        <path
           id="path10900"
           d="m 507.85391,441.08088 0,-33.71126 7.66044,6.42788 0,33.71126 z"
           style="fill:#781f1c" />
        <path
           id="path10902"
           d="m 507.85391,407.36962 12.44333,0 7.66044,6.42788 -12.44333,0 z"
           style="fill:#dc9f2e" />
      </g>
      <path
         id="text9631"
         d="m 284.88905,441.08088 -8.88807,-16.95085 c 4.88844,-2.22203 7.99927,-6.34865 7.99927,-13.01471 0,-10.53873 -6.92001,-14.4749 -17.33178,-14.4749 l -19.87123,0 0,44.44046 12.12589,0 0,-14.98278 4.95194,0 7.23745,14.98278 13.77653,0 m -13.14167,-29.64813 c 0,3.17431 -1.58715,4.95194 -5.5868,4.95194 l -7.23745,0 0,-9.71341 7.42791,0 c 3.87267,0 5.39634,1.96808 5.39634,4.76147 m 55.02978,29.64813 0,-10.34827 -22.28371,0 0,-7.61837 13.14168,0 0,-10.22131 -13.14168,0 0,-5.90423 21.83932,0 0,-10.34828 -34.0287,0 0,44.44046 34.47309,0 m 46.34307,-22.47418 c 0,-16.69689 -8.88809,-21.96628 -22.85508,-21.96628 l -15.55417,0 0,44.44046 14.41141,0 c 15.74461,0 23.99784,-5.77727 23.99784,-22.47418 m -12.63377,0.19047 c 0,8.82459 -2.98387,11.74498 -10.66572,11.74498 l -2.66644,0 0,-23.36299 3.04736,0 c 7.68184,0 10.2848,3.42828 10.2848,11.61801 m 67.08398,22.28371 0,-44.44046 -12.5703,0 0,16.18903 -13.84004,0 0,-16.18903 -12.5703,0 0,44.44046 12.5703,0 0,-17.52223 13.84004,0 0,17.52223 12.5703,0 m 51.03411,0 -16.12553,-44.44046 -12.44332,0 -16.12554,44.44046 13.20515,0 2.41249,-7.80881 13.33214,0 2.41249,7.80881 13.33212,0 m -18.72848,-17.58573 -7.36441,0 0.82533,-2.92036 c 1.58716,-5.65029 2.2855,-8.12626 2.85689,-11.11012 0.57136,2.98386 1.26971,5.39635 2.85688,11.11012 l 0.82531,2.92036 m 60.42117,-16.12553 0,-10.7292 -37.20302,0 0,10.7292 12.44333,0 0,33.71126 12.31636,0 0,-33.71126 12.44333,0"
         style="font-size:63.35354233px;font-style:normal;font-variant:normal;font-weight:normal;font-stretch:normal;text-align:start;line-height:89.99999762%;writing-mode:lr-tb;text-anchor:start;fill:#ffffff;fill-opacity:1;stroke:none;font-family:Interstate-Black;-inkscape-font-specification:Interstate-Black"
         sodipodi:nodetypes="ccscccccccccccccccccccccccccccccccccccccccccccccccccccccccccccccccccccccccccccc" />
    </g>
  </g>
</svg>
