<?xml version="1.0" encoding="UTF-8" standalone="no"?>
<!-- Created with Inkscape (http://www.inkscape.org/) -->
<svg
   xmlns:svg="http://www.w3.org/2000/svg"
   xmlns="http://www.w3.org/2000/svg"
   xmlns:xlink="http://www.w3.org/1999/xlink"
   xmlns:inkscape="http://www.inkscape.org/namespaces/inkscape"
   version="1.0"
   width="110"
   height="110"
   id="svg5921">
  <defs
     id="defs5923">
    <linearGradient
       id="linearGradient7792">
      <stop
         id="stop7794"
         style="stop-color:#ffffff;stop-opacity:1"
         offset="0" />
      <stop
         id="stop7796"
         style="stop-color:#ffffff;stop-opacity:0"
         offset="1" />
    </linearGradient>
    <radialGradient
       cx="-1647.8763"
       cy="585.61084"
       r="64.255943"
       fx="-1647.8763"
       fy="585.61084"
       id="radialGradient8044"
       xlink:href="#linearGradient7792"
       gradientUnits="userSpaceOnUse"
       gradientTransform="matrix(-1.0058124e-7,3.611902,-3.2587824,0,203.37812,6612.7381)" />
    <linearGradient
       id="linearGradient7748">
      <stop
         id="stop7750"
         style="stop-color:#faf0c5;stop-opacity:1"
         offset="0" />
      <stop
         id="stop7752"
         style="stop-color:#efd257;stop-opacity:1"
         offset="1" />
    </linearGradient>
    <radialGradient
       cx="-1713.9951"
       cy="682.48499"
       r="64.255943"
       fx="-1713.9951"
       fy="682.48499"
       id="radialGradient8042"
       xlink:href="#linearGradient7748"
       gradientUnits="userSpaceOnUse"
       gradientTransform="matrix(-1.0503259e-6,-1.9667076,4.3697459,-2.3336756e-6,-4687.2877,-2672.0906)" />
    <filter
       id="filter8090">
      <feGaussianBlur
         id="feGaussianBlur8092"
         stdDeviation="3.5064054"
         inkscape:collect="always" />
    </filter>
  </defs>
  <g
     id="layer1">
    <g
       transform="matrix(0.5294856,0,0,0.5294856,1783.5176,-377.1516)"
       id="g7942"
       style="enable-background:new">
      <path
         d="M -1705,683.68488 C -1715.3227,683.68488 -1773.5944,582.75535 -1768.433,573.81564 C -1763.2717,564.87593 -1646.7283,564.87593 -1641.567,573.81564 C -1636.4056,582.75535 -1694.6773,683.68488 -1705,683.68488 z"
         transform="matrix(1.2109455,0,0,-1.2109455,-1196.3279,1565.0492)"
         id="path7946"
         style="opacity:1;fill:url(#radialGradient8042);fill-opacity:1;stroke:#ffea99;stroke-opacity:1" />
      <path
         d="M -1705,683.68488 C -1715.3227,683.68488 -1773.5944,582.75535 -1768.433,573.81564 C -1763.2717,564.87593 -1646.7283,564.87593 -1641.567,573.81564 C -1636.4056,582.75535 -1694.6773,683.68488 -1705,683.68488 z"
         transform="matrix(0.8228369,0,0,-0.8228369,-1858.0529,1326.8269)"
         id="path7948"
         style="opacity:1;fill:url(#radialGradient8044);fill-opacity:1;stroke:#ffffff;stroke-opacity:1" />
      <path
         d="M -3252.564,795.16405 C -3252.2589,792.85275 -3252.1063,791.28437 -3252.1063,790.37637 C -3252.1063,786.49669 -3255.0056,784.43303 -3260.4988,784.43303 C -3265.9921,784.43303 -3268.8912,786.41415 -3268.8912,790.37637 C -3268.8912,791.77965 -3268.7386,793.34804 -3268.4335,795.16405 L -3264.1609,826.69673 L -3256.8366,826.69673 L -3252.564,795.16405"
         id="path7950"
         style="font-size:107.13574219px;font-style:normal;font-weight:normal;text-align:center;text-anchor:middle;fill:#3f3f3f;fill-opacity:1;stroke:none;stroke-width:1px;stroke-linecap:butt;stroke-linejoin:miter;stroke-opacity:1;font-family:Bitstream Charter" />
      <path
         d="M -3260.4988,833.06259 C -3265.4516,833.06259 -3269.6055,837.05678 -3269.6055,842.16933 C -3269.6055,847.28188 -3265.4516,851.27607 -3260.4988,851.27607 C -3255.3862,851.27607 -3251.392,847.12212 -3251.392,842.16933 C -3251.392,837.05678 -3255.3862,833.06259 -3260.4988,833.06259"
         id="path7952"
         style="font-size:107.13574219px;font-style:normal;font-weight:normal;text-align:center;text-anchor:middle;fill:#3f3f3f;fill-opacity:1;stroke:none;stroke-width:1px;stroke-linecap:butt;stroke-linejoin:miter;stroke-opacity:1;font-family:Bitstream Charter" />
    </g>
  </g>
</svg>
