<?xml version="1.0" encoding="UTF-8" standalone="no"?>
<!-- Created with Inkscape (http://www.inkscape.org/) -->
<svg
   xmlns:svg="http://www.w3.org/2000/svg"
   xmlns="http://www.w3.org/2000/svg"
   xmlns:xlink="http://www.w3.org/1999/xlink"
   version="1.0"
   width="110"
   height="110"
   id="svg5921">
  <defs
     id="defs5923">
    <linearGradient
       id="linearGradient7227">
      <stop
         id="stop7229"
         style="stop-color:#fffae4;stop-opacity:1"
         offset="0" />
      <stop
         id="stop7231"
         style="stop-color:#efd35c;stop-opacity:1"
         offset="1" />
    </linearGradient>
    <radialGradient
       cx="732.70337"
       cy="1384.4341"
       r="35.538803"
       fx="732.70337"
       fy="1384.4341"
       id="radialGradient7225"
       xlink:href="#linearGradient7227"
       gradientUnits="userSpaceOnUse"
       gradientTransform="matrix(-1.5779527,-3.4849501e-2,3.3398256e-2,-1.5122418,1842.637,3505.2757)" />
    <radialGradient
       cx="717.82843"
       cy="1394.8872"
       r="35.538803"
       fx="717.82843"
       fy="1394.8872"
       id="radialGradient6265"
       xlink:href="#linearGradient7227"
       gradientUnits="userSpaceOnUse"
       gradientTransform="matrix(1.579162,0,0,-1.5134007,-1576.4205,3527.0255)" />
  </defs>
  <g
     transform="matrix(1.0542344,0,0,1.0542344,506.73127,-1475.0101)"
     id="g7081"
     style="enable-background:new">
    <path
       d="M 753,1459.5111 L 731.26738,1449.1902 L 709.07162,1458.4733 L 712.17168,1434.615 L 696.48399,1416.3743 L 720.13255,1411.95 L 732.63279,1391.3934 L 744.14834,1412.5173 L 767.5616,1418.0534 L 751.03004,1435.533 L 753,1459.5111 z"
       transform="matrix(-1.1061636,-2.4429914e-2,-2.4429914e-2,1.1061636,416.36948,-109.77429)"
       id="path6799"
       style="opacity:1;fill:url(#radialGradient7225);fill-opacity:1;enable-background:new" />
    <path
       d="M -427.98362,1452.7593 L -428.03387,1411.4363 L -441.288,1434.5215 L -427.98362,1452.7593 z"
       id="path6824"
       style="opacity:0.91005291;fill:#ffffff;fill-opacity:0.50819672;enable-background:new" />
    <path
       d="M -427.94259,1452.831 L -406.44674,1459.7779 L -388.67549,1439.9591 L -427.94259,1452.831 z"
       id="use6833"
       style="opacity:0.91005291;fill:#000000;fill-opacity:0.1530055;enable-background:new" />
    <path
       d="M -427.99536,1453.0727 L -427.85862,1475.6627 L -403.47029,1486.3309 L -427.99536,1453.0727 z"
       id="use6835"
       style="opacity:0.91005291;fill:#000000;fill-opacity:0.07103828;enable-background:new" />
    <path
       d="M -428.22348,1452.9527 L -467.49936,1440.1077 L -449.70187,1459.9028 L -428.22348,1452.9527 z"
       id="use6831"
       style="opacity:0.58999999;fill:#000000;fill-opacity:0.21857922;enable-background:new" />
    <path
       d="M -428.04446,1453.0727 L -428.1812,1475.6627 L -452.56953,1486.3309 L -428.04446,1453.0727 z"
       id="use6837"
       style="opacity:0.61499999;fill:#000000;fill-opacity:0.20218578;enable-background:new" />
    <path
       d="M -427.94259,1452.831 L -388.67549,1439.9591 L -414.73412,1434.5236 L -427.94259,1452.831 z"
       id="path7073"
       style="opacity:0.91005291;fill:#ffffff;fill-opacity:0.295082;enable-background:new" />
    <path
       d="M -427.99536,1453.0727 L -403.47029,1486.3309 L -406.4717,1459.8812 L -427.99536,1453.0727 z"
       id="path7075"
       style="opacity:0.91005291;fill:#ffffff;fill-opacity:0.295082;enable-background:new" />
    <path
       d="M -428.22348,1452.9527 L -441.4479,1434.6376 L -467.49936,1440.1077 L -428.22348,1452.9527 z"
       id="path7077"
       style="opacity:0.91005291;fill:#ffffff;fill-opacity:0.16939889;enable-background:new" />
    <path
       d="M -428.04446,1453.0727 L -452.56953,1486.3309 L -449.56812,1459.8812 L -428.04446,1453.0727 z"
       id="path7079"
       style="opacity:0.91005291;fill:#ffffff;fill-opacity:0.295082;enable-background:new" />
  </g>
</svg>
