<?xml version="1.0" encoding="UTF-8" standalone="no"?>
<!-- Created with Inkscape (http://www.inkscape.org/) -->
<svg
   xmlns:svg="http://www.w3.org/2000/svg"
   xmlns="http://www.w3.org/2000/svg"
   xmlns:xlink="http://www.w3.org/1999/xlink"
   xmlns:inkscape="http://www.inkscape.org/namespaces/inkscape"
   version="1.0"
   width="110"
   height="110"
   id="svg5921">
  <defs
     id="defs5923">
    <linearGradient
       id="linearGradient7207">
      <stop
         id="stop7209"
         style="stop-color:#cc0000;stop-opacity:1"
         offset="0" />
      <stop
         id="stop7211"
         style="stop-color:#ff2b2b;stop-opacity:1"
         offset="1" />
    </linearGradient>
    <linearGradient
       x1="374.03879"
       y1="262.8605"
       x2="393.47971"
       y2="516.72467"
       id="linearGradient8500"
       xlink:href="#linearGradient7207"
       gradientUnits="userSpaceOnUse" />
    <linearGradient
       x1="301.3942"
       y1="550.72144"
       x2="301.3942"
       y2="176.33112"
       id="linearGradient8498"
       xlink:href="#linearGradient7223"
       gradientUnits="userSpaceOnUse" />
    <linearGradient
       id="linearGradient7223">
      <stop
         id="stop7225"
         style="stop-color:#a70000;stop-opacity:1"
         offset="0" />
      <stop
         id="stop7227"
         style="stop-color:#ff0000;stop-opacity:1"
         offset="1" />
    </linearGradient>
    <linearGradient
       x1="413.22577"
       y1="520.63342"
       x2="443.21857"
       y2="346.58618"
       id="linearGradient8496"
       xlink:href="#linearGradient7223"
       gradientUnits="userSpaceOnUse" />
    <filter
       id="filter7319"
       x="-0.12475282"
       width="1.2495056"
       y="-0.12394587"
       height="1.2478917">
      <feGaussianBlur
         inkscape:collect="always"
         stdDeviation="12.79478"
         id="feGaussianBlur7321" />
    </filter>
    <linearGradient
       id="linearGradient7095">
      <stop
         id="stop7097"
         style="stop-color:#ffe680;stop-opacity:1"
         offset="0" />
      <stop
         id="stop7099"
         style="stop-color:#ffffff;stop-opacity:1"
         offset="1" />
    </linearGradient>
    <linearGradient
       x1="2383.4333"
       y1="1986.8322"
       x2="4032.3711"
       y2="3583.8879"
       id="linearGradient5919"
       xlink:href="#linearGradient7095"
       gradientUnits="userSpaceOnUse" />
    <filter
       id="filter8168">
      <feGaussianBlur
         inkscape:collect="always"
         stdDeviation="172.10738"
         id="feGaussianBlur8170" />
    </filter>
    <linearGradient
       x1="1715.8409"
       y1="880.60181"
       x2="4707.4873"
       y2="5382.9004"
       id="linearGradient5507"
       xlink:href="#linearGradient7095"
       gradientUnits="userSpaceOnUse" />
  </defs>
  <g
     id="layer1">
    <g
       transform="matrix(0.115136,0,0,0.115136,9.7283,21.77356)"
       id="g8014"
       style="enable-background:new">
      <g
         id="g8518"
         style="opacity:1">
        <path
           d="M -2512.4524,56.33197 L 3090.4719,56.33197 L 3090.4719,4607.3813 L -2512.4524,4607.3813 L -2512.4524,56.33197 z"
           transform="matrix(0.1104659,-2.3734892e-2,2.2163258e-2,0.1031513,308.46782,74.820675)"
           id="rect8018"
           style="fill:url(#linearGradient5507);fill-opacity:1;fill-rule:nonzero;stroke:none;stroke-width:0.1;stroke-linecap:butt;stroke-miterlimit:4;stroke-dashoffset:0;stroke-opacity:1" />
      </g>
      <g
         transform="matrix(0.5141653,-7.1944682e-2,7.1944682e-2,0.5141653,146.04015,-82.639785)"
         id="g8020">
        <path
           d="M 527.8214,393.1416 C 527.8214,461.31268 472.55783,516.57625 404.38675,516.57625 C 336.21567,516.57625 280.9521,461.31268 280.9521,393.1416 C 280.9521,324.97052 336.21567,269.70695 404.38675,269.70695 C 472.55783,269.70695 527.8214,324.97052 527.8214,393.1416 z"
           transform="matrix(1.3477912,-0.2566683,0.2322589,1.3242728,-293.09198,41.426221)"
           id="path8022"
           style="opacity:0.54497358;fill:#8e7f42;fill-opacity:1;fill-rule:nonzero;stroke:none;stroke-width:0.0804934;stroke-linecap:butt;stroke-miterlimit:4;stroke-dasharray:none;stroke-dashoffset:0;stroke-opacity:1;filter:url(#filter7319)" />
        <path
           d="M 527.8214,393.1416 C 527.8214,461.31268 472.55783,516.57625 404.38675,516.57625 C 336.21567,516.57625 280.9521,461.31268 280.9521,393.1416 C 280.9521,324.97052 336.21567,269.70695 404.38675,269.70695 C 472.55783,269.70695 527.8214,324.97052 527.8214,393.1416 z"
           transform="matrix(1.2585415,-0.2300055,0.2168789,1.1867072,-248.76141,68.254424)"
           id="path8024"
           style="opacity:1;fill:url(#linearGradient8496);fill-opacity:1;fill-rule:nonzero;stroke:none;stroke-width:0.0804934;stroke-linecap:butt;stroke-miterlimit:4;stroke-dasharray:none;stroke-dashoffset:0;stroke-opacity:1" />
        <path
           d="M 358.5625,281.15625 C 348.09597,281.05155 337.43773,281.94729 326.71875,283.90625 C 240.96686,299.57789 183.37901,377.92385 198.15625,458.78125 C 209.70749,521.98673 262.12957,567.92122 325.40625,577.5625 L 357.25,433.6875 L 509.34375,405.875 C 509.14405,404.58166 509.0804,403.29487 508.84375,402 C 495.91366,331.24978 431.82821,281.88918 358.5625,281.15625 z"
           id="path8026"
           style="opacity:1;fill:url(#linearGradient8498);fill-opacity:1;fill-rule:nonzero;stroke:none;stroke-width:0.1;stroke-linecap:butt;stroke-miterlimit:4;stroke-dasharray:none;stroke-dashoffset:0;stroke-opacity:1" />
        <path
           d="M 294.2107,361.9442 L 282.79367,370.38482 L 261.73414,386.13346 C 253.13706,404.40842 254.3359,423.7989 259.7176,444.39774 C 273.6797,497.83861 313.42636,523.96124 369.50989,517.58957 C 398.21848,514.32797 424.51832,504.67345 440.64696,484.15958 L 469.89512,447.48298 L 294.2107,361.9442 z"
           id="path8028"
           style="fill:#750000;fill-opacity:1;fill-rule:nonzero;stroke:none;stroke-width:0.09999999;stroke-linecap:butt;stroke-miterlimit:4;stroke-dashoffset:0;stroke-opacity:1" />
        <path
           d="M 527.8214,393.1416 C 527.8214,461.31268 472.55783,516.57625 404.38675,516.57625 C 336.21567,516.57625 280.9521,461.31268 280.9521,393.1416 C 280.9521,324.97052 336.21567,269.70695 404.38675,269.70695 C 472.55783,269.70695 527.8214,324.97052 527.8214,393.1416 z"
           transform="matrix(0.9837071,-0.1797787,0.1695165,0.9275553,-78.013985,79.234385)"
           id="path8030"
           style="opacity:1;fill:#d40000;fill-opacity:1;fill-rule:nonzero;stroke:none;stroke-width:0.10298239;stroke-linecap:butt;stroke-miterlimit:4;stroke-dasharray:none;stroke-dashoffset:0;stroke-opacity:1" />
        <path
           d="M 527.8214,393.1416 C 527.8214,461.31268 472.55783,516.57625 404.38675,516.57625 C 336.21567,516.57625 280.9521,461.31268 280.9521,393.1416 C 280.9521,324.97052 336.21567,269.70695 404.38675,269.70695 C 472.55783,269.70695 527.8214,324.97052 527.8214,393.1416 z"
           transform="matrix(0.9837071,-0.1797787,0.1695165,0.9275553,-69.306684,71.273294)"
           id="path8032"
           style="opacity:1;fill:url(#linearGradient8500);fill-opacity:1;fill-rule:nonzero;stroke:none;stroke-width:0.10298239;stroke-linecap:butt;stroke-miterlimit:4;stroke-dasharray:none;stroke-dashoffset:0;stroke-opacity:1" />
      </g>
    </g>
  </g>
</svg>
