<?xml version="1.0" encoding="UTF-8" standalone="no"?>
<!-- Created with Inkscape (http://www.inkscape.org/) -->
<svg
   xmlns:i="http://ns.adobe.com/AdobeIllustrator/10.0/"
   xmlns:svg="http://www.w3.org/2000/svg"
   xmlns="http://www.w3.org/2000/svg"
   version="1.0"
   width="64"
   height="64"
   id="svg5921">
  <defs
     id="defs5923" />
  <g
     transform="matrix(0.7517049,0,0,0.7517049,-6.916052,-6.2177932)"
     id="g5502">
    <path
       d="M 79.532475,32.138094 C 79.532475,19.814824 68.196608,9.8232347 54.215499,9.8232347 C 40.23314,9.8232347 28.897893,19.814824 28.897893,32.138094 C 28.897893,37.008747 30.687254,41.501017 33.690315,45.169509 C 34.045628,45.668827 44.060592,59.836952 44.910855,65.813759 C 45.775461,71.900593 45.775461,73.522897 45.775461,73.522897 L 50.544194,73.683726 L 50.535782,73.929336 L 54.215184,73.805902 L 57.89428,73.929336 L 57.886794,73.683726 L 62.655527,73.522897 C 62.655527,73.522897 62.655527,71.900593 63.519199,65.813759 C 64.370405,59.836638 74.383491,45.668513 74.739119,45.169509 C 77.743114,41.501017 79.532475,37.008747 79.532475,32.138094 z"
       id="path7960"
       style="fill:#f6dd79;fill-opacity:1" />
    <path
       d="M 72.513296,38.44856 C 72.513296,27.986094 64.320284,19.503229 54.215411,19.503229 C 44.109639,19.503229 35.917072,27.986094 35.917072,38.44856 C 35.917072,42.583736 37.210338,46.397683 39.380807,49.512228 C 39.637607,49.936155 46.875929,61.964899 47.49047,67.039208 C 48.115362,72.206937 48.115362,73.584269 48.115362,73.584269 L 51.561968,73.720815 L 51.555897,73.929336 L 54.215184,73.824542 L 56.874261,73.929336 L 56.868846,73.720815 L 60.31546,73.584269 C 60.31546,73.584269 60.31546,72.206937 60.939671,67.039208 C 61.554893,61.964628 68.791853,49.935893 69.048889,49.512228 C 71.22003,46.397683 72.513296,42.583736 72.513296,38.44856 z"
       id="path5531"
       style="fill:#f9e597;fill-opacity:1" />
    <rect
       width="5.9337988"
       height="1.977933"
       x="51.446209"
       y="89.741898"
       id="rect7962"
       style="fill:#666666" />
    <rect
       width="9.8893538"
       height="1.977933"
       x="49.468258"
       y="88.555344"
       id="rect7964"
       style="fill:#cccccc" />
    <path
       d="M 42.829763,12.640415 C 42.829763,12.640415 24.956363,26.164292 32.648048,39.772626 C 38.949011,52.337463 26.513216,27.662228 42.829763,12.640415 z"
       id="path7968"
       style="fill:#fcf3d0;fill-opacity:1" />
    <path
       d="M 63.115887,75.388 C 63.115887,76.698317 62.052735,77.76146 60.742426,77.76146 L 47.687942,77.76146 C 46.377013,77.76146 45.31449,76.698317 45.31449,75.388 L 45.31449,75.388 C 45.31449,74.077691 46.377013,73.014548 47.687942,73.014548 L 60.742426,73.014548 C 62.052735,73.014548 63.115887,74.077691 63.115887,75.388 L 63.115887,75.388 z"
       id="path7970"
       style="fill:#eeeeee" />
    <line
       i:knockout="Off"
       x1="63.115868"
       y1="73.4104"
       x2="45.314503"
       y2="73.4104"
       id="line7972"
       style="fill:none;stroke:#6d6868;stroke-width:0.23376137" />
    <rect
       width="18.592445"
       height="1.977933"
       x="44.721382"
       y="77.267143"
       id="rect7974"
       style="fill:#999999" />
    <line
       i:knockout="Off"
       x1="45.90794"
       y1="79.838486"
       x2="62.522427"
       y2="79.838486"
       id="line7976"
       style="fill:none;stroke:#afafaf;stroke-width:0.23376137" />
    <rect
       width="13.187949"
       height="1.977933"
       x="47.423607"
       y="77.267143"
       id="rect7978"
       style="fill:#eeeeee" />
    <rect
       width="6.2393136"
       height="1.977933"
       x="50.897926"
       y="77.267143"
       id="rect7980"
       style="fill:#ffffff" />
    <rect
       width="18.592445"
       height="1.977933"
       x="44.721382"
       y="80.036118"
       id="rect7982"
       style="fill:#999999" />
    <line
       i:knockout="Off"
       x1="45.90794"
       y1="82.607513"
       x2="62.522427"
       y2="82.607513"
       id="line7984"
       style="fill:none;stroke:#afafaf;stroke-width:0.23376137" />
    <rect
       width="13.187949"
       height="1.977933"
       x="47.423607"
       y="80.036118"
       id="rect7986"
       style="fill:#eeeeee" />
    <rect
       width="6.2393136"
       height="1.977933"
       x="50.897926"
       y="80.036118"
       id="rect7988"
       style="fill:#ffffff" />
    <rect
       width="18.592445"
       height="1.977933"
       x="44.721382"
       y="82.805092"
       id="rect7990"
       style="fill:#999999" />
    <line
       i:knockout="Off"
       x1="45.90794"
       y1="85.376488"
       x2="62.522427"
       y2="85.376488"
       id="line7992"
       style="fill:none;stroke:#afafaf;stroke-width:0.23376137" />
    <rect
       width="13.187949"
       height="1.977933"
       x="47.423607"
       y="82.805092"
       id="rect7994"
       style="fill:#eeeeee" />
    <rect
       width="6.2393136"
       height="1.977933"
       x="50.897926"
       y="82.805092"
       id="rect7996"
       style="fill:#ffffff" />
    <rect
       width="18.592445"
       height="1.977933"
       x="44.721382"
       y="85.574387"
       id="rect7998"
       style="fill:#999999" />
    <line
       i:knockout="Off"
       x1="45.90794"
       y1="88.145462"
       x2="62.522427"
       y2="88.145462"
       id="line8000"
       style="fill:none;stroke:#afafaf;stroke-width:0.23376137" />
    <rect
       width="13.187949"
       height="1.977933"
       x="47.423607"
       y="85.574387"
       id="rect8002"
       style="fill:#eeeeee" />
    <rect
       width="6.2393136"
       height="1.977933"
       x="50.897926"
       y="85.574387"
       id="rect8004"
       style="fill:#ffffff" />
    <path
       d="M 76.438972,24.52367 C 76.482167,24.509274 82.931642,36.106205 69.606862,46.583109 C 69.606556,46.583345 76.788843,26.982759 76.438972,24.52367 z"
       id="path8006"
       style="fill:#fcf3d0;fill-opacity:1" />
    <path
       d="M 62.034837,76.231135 C 62.034837,76.688971 61.663356,77.060452 61.20552,77.060452 L 47.147648,77.060452 C 46.689594,77.060452 46.318331,76.688971 46.318331,76.231135 L 46.318331,76.231135 C 46.318331,75.773291 46.689594,75.401818 47.147648,75.401818 L 61.20552,75.401818 C 61.663356,75.401818 62.034837,75.773291 62.034837,76.231135 L 62.034837,76.231135 z"
       id="path8008"
       style="fill:#cccccc;fill-opacity:1" />
    <path
       d="M 56.198261,11.324997 C 40.747133,8.6111335 30.556596,22.307307 42.262941,31.572303 C 57.560054,43.679199 90.615509,17.403951 56.198261,11.324997 z"
       id="path8010"
       style="fill:#fcf3d0;fill-opacity:1" />
    <path
       d="M 40.190776,45.752709 C 34.364158,42.485293 43.235433,58.58985 47.649901,69.744668 C 53.418431,84.321057 53.169519,53.071612 40.190776,45.752709 z"
       id="path8012"
       style="fill:#fcf3d0;fill-opacity:1" />
  </g>
</svg>
