<?xml version="1.0" encoding="UTF-8" standalone="no"?>
<!-- Created with Inkscape (http://www.inkscape.org/) -->
<svg
   xmlns:i="http://ns.adobe.com/AdobeIllustrator/10.0/"
   xmlns:a="http://ns.adobe.com/AdobeSVGViewerExtensions/3.0/"
   xmlns:svg="http://www.w3.org/2000/svg"
   xmlns="http://www.w3.org/2000/svg"
   xmlns:xlink="http://www.w3.org/1999/xlink"
   version="1.0"
   width="110"
   height="110"
   id="svg5921">
  <defs
     id="defs5923">
    <linearGradient
       id="linearGradient6347">
      <stop
         id="stop6349"
         style="stop-color:#fff2b8;stop-opacity:1"
         offset="0" />
      <stop
         id="stop6355"
         style="stop-color:#fdefb1;stop-opacity:0.83137256"
         offset="0.62105262" />
      <stop
         id="stop6351"
         style="stop-color:#f3d144;stop-opacity:0"
         offset="1" />
    </linearGradient>
    <radialGradient
       cx="93.032204"
       cy="205.6777"
       r="0"
       fx="93.032204"
       fy="205.6777"
       id="XMLID_12_"
       gradientUnits="userSpaceOnUse">
      <stop
         id="stop2349"
         style="stop-color:#ffffff;stop-opacity:1"
         offset="0.33149999" />
      <stop
         id="stop2351"
         style="stop-color:#5f5f5f;stop-opacity:1"
         offset="1" />
      <a:midPointStop
         style="stop-color:#FFFFFF"
         offset="0.3315" />
      <a:midPointStop
         style="stop-color:#FFFFFF"
         offset="0.5" />
      <a:midPointStop
         style="stop-color:#5F5F5F"
         offset="1" />
    </radialGradient>
    <radialGradient
       cx="93.032204"
       cy="205.6777"
       r="0"
       fx="93.032204"
       fy="205.6777"
       id="radialGradient8290"
       xlink:href="#XMLID_12_"
       gradientUnits="userSpaceOnUse"
       gradientTransform="matrix(0.3568202,0,0,0.3568202,-901.98379,593.98368)" />
    <radialGradient
       cx="39.75"
       cy="38.25"
       r="23.75"
       fx="40.498032"
       fy="23.653646"
       id="radialGradient6353"
       xlink:href="#linearGradient6347"
       gradientUnits="userSpaceOnUse" />
  </defs>
  <g
     id="layer1">
    <g
       transform="matrix(0.8734983,0,0,0.8734983,816.7792,-509.0205)"
       id="g7954"
       style="enable-background:new">
      <path
         d="M -844.01621,619.53022 C -844.01621,605.42227 -856.99376,593.98368 -872.99964,593.98368 C -889.00695,593.98368 -901.98379,605.42227 -901.98379,619.53022 C -901.98379,625.10625 -899.93529,630.2491 -896.49732,634.44887 C -896.09055,635.0205 -884.6252,651.24048 -883.6518,658.08286 C -882.66198,665.0512 -882.66198,666.90845 -882.66198,666.90845 L -877.20263,667.09257 L -877.21226,667.37375 L -873,667.23244 L -868.78809,667.37375 L -868.79666,667.09257 L -863.33731,666.90845 C -863.33731,666.90845 -863.33731,665.0512 -862.34856,658.08286 C -861.37408,651.24012 -849.91088,635.02014 -849.50375,634.44887 C -846.06471,630.2491 -844.01621,625.10625 -844.01621,619.53022 z"
         id="path7960"
         style="opacity:1;fill:#f6dd79;fill-opacity:1" />
      <path
         d="M -852.05192,626.75458 C -852.05192,614.77692 -861.43146,605.06555 -872.99974,605.06555 C -884.56905,605.06555 -893.94808,614.77692 -893.94808,626.75458 C -893.94808,631.48862 -892.46752,635.85491 -889.98272,639.42051 C -889.68873,639.90583 -881.40214,653.6766 -880.6986,659.48578 C -879.98321,665.40191 -879.98321,666.97871 -879.98321,666.97871 L -876.03746,667.13503 L -876.04441,667.37375 L -873,667.25378 L -869.95583,667.37375 L -869.96203,667.13503 L -866.01627,666.97871 C -866.01627,666.97871 -866.01627,665.40191 -865.30166,659.48578 C -864.59734,653.67629 -856.31231,639.90553 -856.01805,639.42051 C -853.53248,635.85491 -852.05192,631.48862 -852.05192,626.75458 z"
         id="path5531"
         style="opacity:1;fill:#f9e597;fill-opacity:1" />
      <rect
         width="6.7931428"
         height="2.2643812"
         x="-876.16998"
         y="685.47632"
         id="rect7962"
         style="opacity:1;fill:#666666" />
      <rect
         width="11.321548"
         height="2.2643812"
         x="-878.43439"
         y="684.11792"
         id="rect7964"
         style="opacity:1;fill:#cccccc" />
      <path
         d=""
         id="path7966"
         style="opacity:1;fill:url(#radialGradient8290)" />
      <path
         d="M -886.03428,597.20885 C -886.03428,597.20885 -906.49614,612.69128 -897.69053,628.2704 C -890.47705,642.6549 -904.71382,614.40615 -886.03428,597.20885 z"
         id="path7968"
         style="opacity:1;fill:#fcf3d0;fill-opacity:1" />
      <path
         d="M -862.81028,669.04366 C -862.81028,670.54374 -864.0274,671.76085 -865.52747,671.76085 L -880.47253,671.76085 C -881.97331,671.76085 -883.18971,670.54374 -883.18971,669.04366 L -883.18971,669.04366 C -883.18971,667.54359 -881.97331,666.32648 -880.47253,666.32648 L -865.52747,666.32648 C -864.0274,666.32648 -862.81028,667.54359 -862.81028,669.04366 L -862.81028,669.04366 z"
         id="path7970"
         style="opacity:1;fill:#eeeeee" />
      <line
         style="opacity:1;fill:none;stroke:#6d6868;stroke-width:0.26761514"
         id="line7972"
         y2="666.77966"
         x2="-883.1897"
         y1="666.77966"
         x1="-862.8103"
         i:knockout="Off" />
      <rect
         width="21.285038"
         height="2.2643812"
         x="-883.86871"
         y="671.19495"
         id="rect7974"
         style="opacity:1;fill:#999999" />
      <line
         style="opacity:1;fill:none;stroke:#afafaf;stroke-width:0.26761514"
         id="line7976"
         y2="674.13867"
         x2="-863.48969"
         y1="674.13867"
         x1="-882.51031"
         i:knockout="Off" />
      <rect
         width="15.097854"
         height="2.2643812"
         x="-880.77515"
         y="671.19495"
         id="rect7978"
         style="opacity:1;fill:#eeeeee" />
      <rect
         width="7.1429029"
         height="2.2643812"
         x="-876.79767"
         y="671.19495"
         id="rect7980"
         style="opacity:1;fill:#ffffff" />
      <rect
         width="21.285038"
         height="2.2643812"
         x="-883.86871"
         y="674.36493"
         id="rect7982"
         style="opacity:1;fill:#999999" />
      <line
         style="opacity:1;fill:none;stroke:#afafaf;stroke-width:0.26761514"
         id="line7984"
         y2="677.30872"
         x2="-863.48969"
         y1="677.30872"
         x1="-882.51031"
         i:knockout="Off" />
      <rect
         width="15.097854"
         height="2.2643812"
         x="-880.77515"
         y="674.36493"
         id="rect7986"
         style="opacity:1;fill:#eeeeee" />
      <rect
         width="7.1429029"
         height="2.2643812"
         x="-876.79767"
         y="674.36493"
         id="rect7988"
         style="opacity:1;fill:#ffffff" />
      <rect
         width="21.285038"
         height="2.2643812"
         x="-883.86871"
         y="677.53491"
         id="rect7990"
         style="opacity:1;fill:#999999" />
      <line
         style="opacity:1;fill:none;stroke:#afafaf;stroke-width:0.26761514"
         id="line7992"
         y2="680.4787"
         x2="-863.48969"
         y1="680.4787"
         x1="-882.51031"
         i:knockout="Off" />
      <rect
         width="15.097854"
         height="2.2643812"
         x="-880.77515"
         y="677.53491"
         id="rect7994"
         style="opacity:1;fill:#eeeeee" />
      <rect
         width="7.1429029"
         height="2.2643812"
         x="-876.79767"
         y="677.53491"
         id="rect7996"
         style="opacity:1;fill:#ffffff" />
      <rect
         width="21.285038"
         height="2.2643812"
         x="-883.86871"
         y="680.70526"
         id="rect7998"
         style="opacity:1;fill:#999999" />
      <line
         style="opacity:1;fill:none;stroke:#afafaf;stroke-width:0.26761514"
         id="line8000"
         y2="683.64868"
         x2="-863.48969"
         y1="683.64868"
         x1="-882.51031"
         i:knockout="Off" />
      <rect
         width="15.097854"
         height="2.2643812"
         x="-880.77515"
         y="680.70526"
         id="rect8002"
         style="opacity:1;fill:#eeeeee" />
      <rect
         width="7.1429029"
         height="2.2643812"
         x="-876.79767"
         y="680.70526"
         id="rect8004"
         style="opacity:1;fill:#ffffff" />
      <path
         d="M -847.55772,610.81306 C -847.50827,610.79658 -840.12477,624.073 -855.37927,636.06719 C -855.37962,636.06746 -847.15718,613.62828 -847.55772,610.81306 z"
         id="path8006"
         style="opacity:1;fill:#fcf3d0;fill-opacity:1" />
      <path
         d="M -864.04789,670.0089 C -864.04789,670.53304 -864.47317,670.95832 -864.99731,670.95832 L -881.09107,670.95832 C -881.61546,670.95832 -882.04049,670.53304 -882.04049,670.0089 L -882.04049,670.0089 C -882.04049,669.48475 -881.61546,669.05948 -881.09107,669.05948 L -864.99731,669.05948 C -864.47317,669.05948 -864.04789,669.48475 -864.04789,670.0089 L -864.04789,670.0089 z"
         id="path8008"
         style="opacity:1;fill:#cccccc;fill-opacity:0.91604842" />
      <path
         d="M -870.72973,595.70293 C -888.41852,592.59604 -900.08487,608.27572 -886.68319,618.88249 C -869.17072,632.74273 -831.32811,602.66225 -870.72973,595.70293 z"
         id="path8010"
         style="opacity:1;fill:#fcf3d0;fill-opacity:1" />
      <path
         d="M -889.05545,635.11653 C -895.72589,631.37592 -885.56986,649.81277 -880.51608,662.58305 C -873.91214,679.27042 -874.1971,643.49537 -889.05545,635.11653 z"
         id="path8012"
         style="opacity:1;fill:#fcf3d0;fill-opacity:1" />
    </g>
  </g>
</svg>
