<?xml version="1.0" encoding="UTF-8" standalone="no"?>
<!-- Created with Inkscape (http://www.inkscape.org/) -->
<svg
   xmlns:i="http://ns.adobe.com/AdobeIllustrator/10.0/"
   xmlns:a="http://ns.adobe.com/AdobeSVGViewerExtensions/3.0/"
   xmlns:svg="http://www.w3.org/2000/svg"
   xmlns="http://www.w3.org/2000/svg"
   xmlns:xlink="http://www.w3.org/1999/xlink"
   version="1.0"
   width="110"
   height="110"
   id="svg5921">
  <defs
     id="defs5923">
    <linearGradient
       id="linearGradient6347">
      <stop
         id="stop6349"
         style="stop-color:#fff2b8;stop-opacity:1"
         offset="0" />
      <stop
         id="stop6355"
         style="stop-color:#fdefb1;stop-opacity:0.83137256"
         offset="0.62105262" />
      <stop
         id="stop6351"
         style="stop-color:#f3d144;stop-opacity:0"
         offset="1" />
    </linearGradient>
    <radialGradient
       cx="-869.97949"
       cy="614.33801"
       r="21.394804"
       fx="-869.97949"
       fy="614.33801"
       id="radialGradient8294"
       xlink:href="#linearGradient7890"
       gradientUnits="userSpaceOnUse"
       gradientTransform="matrix(0.1864275,2.2213564,-1.2137588,1.0383544,11.017403,1965.5494)" />
    <linearGradient
       id="linearGradient7890">
      <stop
         id="stop7892"
         style="stop-color:#ffffff;stop-opacity:1"
         offset="0" />
      <stop
         id="stop7894"
         style="stop-color:#ffffff;stop-opacity:0"
         offset="1" />
    </linearGradient>
    <radialGradient
       cx="-876.33112"
       cy="592.9856"
       r="21.394804"
       fx="-876.33112"
       fy="592.9856"
       id="radialGradient8292"
       xlink:href="#linearGradient7890"
       gradientUnits="userSpaceOnUse"
       gradientTransform="matrix(0.4566479,1.7042287,-2.9730539,0.7966296,1280.0832,1616.3817)" />
    <linearGradient
       id="linearGradient8502">
      <stop
         id="stop8504"
         style="stop-color:#ffffff;stop-opacity:1"
         offset="0" />
      <stop
         id="stop8506"
         style="stop-color:#ffffff;stop-opacity:0"
         offset="1" />
    </linearGradient>
    <linearGradient
       x1="-846.74683"
       y1="625.66626"
       x2="-855.37927"
       y2="625.66626"
       id="linearGradient8508"
       xlink:href="#linearGradient8502"
       gradientUnits="userSpaceOnUse" />
    <linearGradient
       id="linearGradient8510">
      <stop
         id="stop8512"
         style="stop-color:#ffffff;stop-opacity:1"
         offset="0" />
      <stop
         id="stop8514"
         style="stop-color:#ffffff;stop-opacity:0"
         offset="1" />
    </linearGradient>
    <linearGradient
       x1="-899.50067"
       y1="617.19208"
       x2="-888.16754"
       y2="614.7149"
       id="linearGradient8516"
       xlink:href="#linearGradient8510"
       gradientUnits="userSpaceOnUse" />
    <radialGradient
       cx="93.032204"
       cy="205.6777"
       r="0"
       fx="93.032204"
       fy="205.6777"
       id="XMLID_12_"
       gradientUnits="userSpaceOnUse">
      <stop
         id="stop2349"
         style="stop-color:#ffffff;stop-opacity:1"
         offset="0.33149999" />
      <stop
         id="stop2351"
         style="stop-color:#5f5f5f;stop-opacity:1"
         offset="1" />
      <a:midPointStop
         offset="0.3315"
         style="stop-color:#FFFFFF" />
      <a:midPointStop
         offset="0.5"
         style="stop-color:#FFFFFF" />
      <a:midPointStop
         offset="1"
         style="stop-color:#5F5F5F" />
    </radialGradient>
    <radialGradient
       cx="93.032204"
       cy="205.6777"
       r="0"
       fx="93.032204"
       fy="205.6777"
       id="radialGradient8290"
       xlink:href="#XMLID_12_"
       gradientUnits="userSpaceOnUse"
       gradientTransform="matrix(0.3568202,0,0,0.3568202,-901.98379,593.98368)" />
    <linearGradient
       id="linearGradient7742">
      <stop
         id="stop7744"
         style="stop-color:#fffae4;stop-opacity:1"
         offset="0" />
      <stop
         id="stop7746"
         style="stop-color:#edc10b;stop-opacity:1"
         offset="1" />
    </linearGradient>
    <radialGradient
       cx="-873.00006"
       cy="630.67865"
       r="28.983789"
       fx="-872.1748"
       fy="627.52039"
       id="radialGradient8288"
       xlink:href="#linearGradient7742"
       gradientUnits="userSpaceOnUse"
       gradientTransform="matrix(1.5848781,0,-1.942727e-7,1.9166016,510.59873,-578.081)" />
    <radialGradient
       cx="39.75"
       cy="38.25"
       r="23.75"
       fx="40.498032"
       fy="23.653646"
       id="radialGradient6353"
       xlink:href="#linearGradient6347"
       gradientUnits="userSpaceOnUse" />
  </defs>
  <path
     d="M 63.5,38.25 A 23.75,23.75 0 1 1 16,38.25 A 23.75,23.75 0 1 1 63.5,38.25 z"
     transform="matrix(1.3368421,0,0,1.4054823,0.8605264,-13.172386)"
     id="path6345"
     style="opacity:1;fill:url(#radialGradient6353);fill-opacity:1;fill-rule:nonzero;stroke:none;stroke-width:1;stroke-linecap:butt;stroke-linejoin:miter;marker:none;marker-start:none;marker-mid:none;marker-end:none;stroke-miterlimit:4;stroke-dasharray:none;stroke-dashoffset:0;stroke-opacity:1;visibility:visible;display:inline;overflow:visible;enable-background:accumulate" />
  <g
     id="layer1">
    <g
       transform="matrix(0.8734983,0,0,0.8734983,816.7792,-509.0205)"
       id="g7954"
       style="enable-background:new">
      <path
         d="M -844.01621,619.53022 C -844.01621,605.42227 -856.99376,593.98368 -872.99964,593.98368 C -889.00695,593.98368 -901.98379,605.42227 -901.98379,619.53022 C -901.98379,625.10625 -899.93529,630.2491 -896.49732,634.44887 C -896.09055,635.0205 -884.6252,651.24048 -883.6518,658.08286 C -882.66198,665.0512 -882.66198,666.90845 -882.66198,666.90845 L -877.20263,667.09257 L -877.21226,667.37375 L -873,667.23244 L -868.78809,667.37375 L -868.79666,667.09257 L -863.33731,666.90845 C -863.33731,666.90845 -863.33731,665.0512 -862.34856,658.08286 C -861.37408,651.24012 -849.91088,635.02014 -849.50375,634.44887 C -846.06471,630.2491 -844.01621,625.10625 -844.01621,619.53022 z"
         id="path7960"
         style="opacity:1;fill:url(#radialGradient8288);fill-opacity:1" />
      <rect
         width="6.7931428"
         height="2.2643812"
         x="-876.16998"
         y="685.47632"
         id="rect7962"
         style="opacity:1;fill:#666666" />
      <rect
         width="11.321548"
         height="2.2643812"
         x="-878.43439"
         y="684.11792"
         id="rect7964"
         style="opacity:1;fill:#cccccc" />
      <path
         d=""
         id="path7966"
         style="opacity:1;fill:url(#radialGradient8290)" />
      <path
         d="M -886.03428,597.20885 C -886.03428,597.20885 -906.49614,612.69128 -897.69053,628.2704 C -890.47705,642.6549 -904.71382,614.40615 -886.03428,597.20885 z"
         id="path7968"
         style="opacity:1;fill:url(#linearGradient8516);fill-opacity:1" />
      <path
         d="M -862.81028,669.04366 C -862.81028,670.54374 -864.0274,671.76085 -865.52747,671.76085 L -880.47253,671.76085 C -881.97331,671.76085 -883.18971,670.54374 -883.18971,669.04366 L -883.18971,669.04366 C -883.18971,667.54359 -881.97331,666.32648 -880.47253,666.32648 L -865.52747,666.32648 C -864.0274,666.32648 -862.81028,667.54359 -862.81028,669.04366 L -862.81028,669.04366 z"
         id="path7970"
         style="opacity:1;fill:#eeeeee" />
      <line
         style="opacity:1;fill:none;stroke:#6d6868;stroke-width:0.26761514"
         id="line7972"
         y2="666.77966"
         x2="-883.1897"
         y1="666.77966"
         x1="-862.8103"
         i:knockout="Off" />
      <rect
         width="21.285038"
         height="2.2643812"
         x="-883.86871"
         y="671.19495"
         id="rect7974"
         style="opacity:1;fill:#999999" />
      <line
         style="opacity:1;fill:none;stroke:#afafaf;stroke-width:0.26761514"
         id="line7976"
         y2="674.13867"
         x2="-863.48969"
         y1="674.13867"
         x1="-882.51031"
         i:knockout="Off" />
      <rect
         width="15.097854"
         height="2.2643812"
         x="-880.77515"
         y="671.19495"
         id="rect7978"
         style="opacity:1;fill:#eeeeee" />
      <rect
         width="7.1429029"
         height="2.2643812"
         x="-876.79767"
         y="671.19495"
         id="rect7980"
         style="opacity:1;fill:#ffffff" />
      <rect
         width="21.285038"
         height="2.2643812"
         x="-883.86871"
         y="674.36493"
         id="rect7982"
         style="opacity:1;fill:#999999" />
      <line
         style="opacity:1;fill:none;stroke:#afafaf;stroke-width:0.26761514"
         id="line7984"
         y2="677.30872"
         x2="-863.48969"
         y1="677.30872"
         x1="-882.51031"
         i:knockout="Off" />
      <rect
         width="15.097854"
         height="2.2643812"
         x="-880.77515"
         y="674.36493"
         id="rect7986"
         style="opacity:1;fill:#eeeeee" />
      <rect
         width="7.1429029"
         height="2.2643812"
         x="-876.79767"
         y="674.36493"
         id="rect7988"
         style="opacity:1;fill:#ffffff" />
      <rect
         width="21.285038"
         height="2.2643812"
         x="-883.86871"
         y="677.53491"
         id="rect7990"
         style="opacity:1;fill:#999999" />
      <line
         style="opacity:1;fill:none;stroke:#afafaf;stroke-width:0.26761514"
         id="line7992"
         y2="680.4787"
         x2="-863.48969"
         y1="680.4787"
         x1="-882.51031"
         i:knockout="Off" />
      <rect
         width="15.097854"
         height="2.2643812"
         x="-880.77515"
         y="677.53491"
         id="rect7994"
         style="opacity:1;fill:#eeeeee" />
      <rect
         width="7.1429029"
         height="2.2643812"
         x="-876.79767"
         y="677.53491"
         id="rect7996"
         style="opacity:1;fill:#ffffff" />
      <rect
         width="21.285038"
         height="2.2643812"
         x="-883.86871"
         y="680.70526"
         id="rect7998"
         style="opacity:1;fill:#999999" />
      <line
         style="opacity:1;fill:none;stroke:#afafaf;stroke-width:0.26761514"
         id="line8000"
         y2="683.64868"
         x2="-863.48969"
         y1="683.64868"
         x1="-882.51031"
         i:knockout="Off" />
      <rect
         width="15.097854"
         height="2.2643812"
         x="-880.77515"
         y="680.70526"
         id="rect8002"
         style="opacity:1;fill:#eeeeee" />
      <rect
         width="7.1429029"
         height="2.2643812"
         x="-876.79767"
         y="680.70526"
         id="rect8004"
         style="opacity:1;fill:#ffffff" />
      <path
         d="M -847.55772,610.81306 C -847.50827,610.79658 -840.12477,624.073 -855.37927,636.06719 C -855.37962,636.06746 -847.15718,613.62828 -847.55772,610.81306 z"
         id="path8006"
         style="opacity:1;fill:url(#linearGradient8508);fill-opacity:1" />
      <path
         d="M -864.04789,670.0089 C -864.04789,670.53304 -864.47317,670.95832 -864.99731,670.95832 L -881.09107,670.95832 C -881.61546,670.95832 -882.04049,670.53304 -882.04049,670.0089 L -882.04049,670.0089 C -882.04049,669.48475 -881.61546,669.05948 -881.09107,669.05948 L -864.99731,669.05948 C -864.47317,669.05948 -864.04789,669.48475 -864.04789,670.0089 L -864.04789,670.0089 z"
         id="path8008"
         style="opacity:1;fill:#cccccc;fill-opacity:0.91604842" />
      <path
         d="M -870.72973,595.70293 C -888.41852,592.59604 -900.08487,608.27572 -886.68319,618.88249 C -869.17072,632.74273 -831.32811,602.66225 -870.72973,595.70293 z"
         id="path8010"
         style="opacity:1;fill:url(#radialGradient8292);fill-opacity:1" />
      <path
         d="M -889.05545,635.11653 C -895.72589,631.37592 -885.56986,649.81277 -880.51608,662.58305 C -873.91214,679.27042 -874.1971,643.49537 -889.05545,635.11653 z"
         id="path8012"
         style="opacity:1;fill:url(#radialGradient8294);fill-opacity:1" />
    </g>
  </g>
</svg>
