<?xml version="1.0" encoding="UTF-8" standalone="no"?>
<!-- Created with Inkscape (http://www.inkscape.org/) -->
<svg
   xmlns:svg="http://www.w3.org/2000/svg"
   xmlns="http://www.w3.org/2000/svg"
   xmlns:xlink="http://www.w3.org/1999/xlink"
   xmlns:inkscape="http://www.inkscape.org/namespaces/inkscape"
   version="1.0"
   width="110"
   height="110"
   id="svg5921">
  <defs
     id="defs5923">
    <linearGradient
       id="linearGradient8132">
      <stop
         id="stop8134"
         style="stop-color:#9e292b;stop-opacity:1"
         offset="0" />
      <stop
         id="stop8136"
         style="stop-color:#cc0000;stop-opacity:1"
         offset="1" />
    </linearGradient>
    <linearGradient
       x1="-1499.5659"
       y1="1086.6003"
       x2="-1604.2916"
       y2="982.00916"
       id="linearGradient8319"
       xlink:href="#linearGradient8132"
       gradientUnits="userSpaceOnUse" />
    <filter
       id="filter8120">
      <feGaussianBlur
         inkscape:collect="always"
         stdDeviation="3.2860542"
         id="feGaussianBlur8122" />
    </filter>
  </defs>
  <g
     id="layer1">
    <g
       transform="translate(2745.6887,-1555.5977)"
       id="g8304"
       style="enable-background:new">
      <path
         d="M -1603,1054.4387 L -1577.0919,1027.891 L -1540,1027.4387 L -1513.4523,1053.3468 L -1513,1090.4387 L -1538.9081,1116.9864 L -1576,1117.4387 L -1602.5477,1091.5306 L -1603,1054.4387 z"
         transform="matrix(0.8233528,8.9983906e-3,-8.9983906e-3,0.8233528,-1398.5561,740.7914)"
         id="path8034"
         style="opacity:1;fill:#efd259;fill-opacity:1;stroke:#f7e9ae;stroke-opacity:1" />
      <path
         d="M -1603,1054.4387 L -1577.0919,1027.891 L -1540,1027.4387 L -1513.4523,1053.3468 L -1513,1090.4387 L -1538.9081,1116.9864 L -1576,1117.4387 L -1602.5477,1091.5306 L -1603,1054.4387 z"
         transform="matrix(0.6467652,7.0684723e-3,-7.0684723e-3,0.6467652,-1675.7492,927.16391)"
         id="path8036"
         style="opacity:1;fill:url(#linearGradient8319);fill-opacity:1;stroke:#cc0000;stroke-opacity:1" />
      <path
         d="M -2686.7886,1597.753 C -2686.627,1596.5292 -2686.5462,1595.6987 -2686.5462,1595.218 C -2686.5462,1593.1637 -2688.0814,1592.0711 -2690.9899,1592.0711 C -2693.8985,1592.0711 -2695.4336,1593.12 -2695.4336,1595.218 C -2695.4336,1595.961 -2695.3528,1596.7914 -2695.1912,1597.753 L -2692.929,1614.4491 L -2689.0508,1614.4491 L -2686.7886,1597.753"
         id="path8038"
         style="font-size:107.13574219px;font-style:normal;font-weight:normal;text-align:center;text-anchor:middle;fill:#ffffff;fill-opacity:1;stroke:none;stroke-width:1px;stroke-linecap:butt;stroke-linejoin:miter;stroke-opacity:1;font-family:Bitstream Charter" />
      <path
         d="M -2690.9899,1617.8197 C -2693.6124,1617.8197 -2695.8118,1619.9346 -2695.8118,1622.6416 C -2695.8118,1625.3486 -2693.6124,1627.4635 -2690.9899,1627.4635 C -2688.2829,1627.4635 -2686.168,1625.264 -2686.168,1622.6416 C -2686.168,1619.9346 -2688.2829,1617.8197 -2690.9899,1617.8197"
         id="path8040"
         style="font-size:107.13574219px;font-style:normal;font-weight:normal;text-align:center;text-anchor:middle;fill:#ffffff;fill-opacity:1;stroke:none;stroke-width:1px;stroke-linecap:butt;stroke-linejoin:miter;stroke-opacity:1;font-family:Bitstream Charter" />
    </g>
  </g>
</svg>
